M48
; DRILL file {KiCad (5.1.7)-1} date 12/04/20 00:37:26
; FORMAT={-:-/ absolute / inch / decimal}
; #@! TF.CreationDate,2020-12-04T00:37:26-08:00
; #@! TF.GenerationSoftware,Kicad,Pcbnew,(5.1.7)-1
; #@! TF.FileFunction,Plated,1,2,PTH
FMAT,2
INCH
T1C0.0157
T2C0.0394
T3C0.0409
T4C0.0433
T5C0.0579
T6C0.0591
T7C0.0866
%
G90
G05
T1
X3.7264Y-2.612
X3.7264Y-3.36
X3.782Y-3.3539
X3.79Y-4.096
X4.514Y-2.642
X4.532Y-3.422
X4.536Y-4.164
X4.546Y-2.612
X4.5736Y-4.1251
X4.8143Y-3.593
X5.3807Y-2.7725
X5.4179Y-2.2325
X5.7695Y-4.7686
X5.804Y-4.036
X5.8073Y-4.7122
X5.9409Y-3.538
X5.9554Y-3.4774
X5.9764Y-3.416
T2
X5.9569Y-2.2557
X5.9569Y-2.3541
X5.9569Y-2.4525
X6.5277Y-2.2557
X6.5277Y-2.4525
X4.2532Y-4.1769
X4.2532Y-4.2769
X4.3532Y-4.1769
X4.3532Y-4.2769
X4.4532Y-4.1769
X4.4532Y-4.2769
T3
X3.9521Y-2.5494
X4.0521Y-2.5494
X4.3271Y-5.5494
X4.4271Y-5.5494
X6.4521Y-4.9244
X6.4521Y-5.0244
T4
X4.3597Y-2.41
X4.3597Y-2.51
X4.3597Y-2.61
X4.3597Y-2.71
X4.3597Y-2.81
X4.3597Y-2.91
X4.3597Y-3.01
X4.3597Y-3.11
X4.3597Y-3.21
X4.3597Y-3.31
X4.3597Y-3.41
X4.3597Y-3.51
X5.1566Y-2.41
X5.1566Y-2.51
X5.1566Y-2.61
X5.1566Y-2.71
X5.1566Y-2.81
X5.1566Y-2.91
X5.1566Y-3.01
X5.1566Y-3.11
X5.1566Y-3.21
X5.1566Y-3.31
X5.1566Y-3.41
X5.1566Y-3.51
T5
X5.3521Y-3.7494
X5.6021Y-3.6494
X6.1021Y-2.9994
X6.3521Y-2.8994
X4.6021Y-2.9994
X4.8521Y-2.8994
X5.3521Y-2.9994
X5.6021Y-2.8994
X3.8521Y-4.4994
X4.1021Y-4.3994
X4.6021Y-3.7494
X4.8521Y-3.6494
X6.1021Y-3.7494
X6.3521Y-3.6494
X3.8521Y-3.7494
X4.1021Y-3.6494
X5.3521Y-4.4994
X5.6021Y-4.3994
X5.3521Y-2.2494
X5.6021Y-2.1494
X4.6021Y-4.4994
X4.8521Y-4.3994
X5.3521Y-5.2494
X5.6021Y-5.1494
X3.8521Y-2.2494
X4.1021Y-2.1494
X4.2271Y-5.2494
X4.4771Y-5.1494
X4.6021Y-2.2494
X4.8521Y-2.1494
X6.0521Y-4.8744
X6.1521Y-5.1244
X3.8521Y-2.9994
X4.1021Y-2.8994
T7
X5.8303Y-4.9744
X4.1722Y-2.7256
X4.3771Y-4.951
X5.8771Y-2.7491
X5.1271Y-3.8494
T6
G00X6.2266Y-2.1336
M15
G01X6.2777Y-2.1336
M16
G05
G00X6.2266Y-2.5746
M15
G01X6.2777Y-2.5746
M16
G05
T0
M30
