%TF.GenerationSoftware,KiCad,Pcbnew,(5.1.7)-1*%
%TF.CreationDate,2020-12-03T23:54:14-08:00*%
%TF.ProjectId,dropout-miniusb,64726f70-6f75-4742-9d6d-696e69757362,rev?*%
%TF.SameCoordinates,Original*%
%TF.FileFunction,Soldermask,Bot*%
%TF.FilePolarity,Negative*%
%FSLAX46Y46*%
G04 Gerber Fmt 4.6, Leading zero omitted, Abs format (unit mm)*
G04 Created by KiCad (PCBNEW (5.1.7)-1) date 2020-12-03 23:54:14*
%MOMM*%
%LPD*%
G01*
G04 APERTURE LIST*
%ADD10R,0.900000X1.200000*%
%ADD11C,2.250000*%
%ADD12C,3.987800*%
%ADD13C,1.750000*%
%ADD14R,1.200000X0.900000*%
%ADD15O,1.700000X1.700000*%
%ADD16R,1.700000X1.700000*%
%ADD17R,1.600000X1.600000*%
%ADD18C,1.600000*%
%ADD19C,3.048000*%
%ADD20R,1.905000X1.905000*%
%ADD21C,1.905000*%
%ADD22R,1.050000X0.650000*%
%ADD23R,2.000000X2.000000*%
%ADD24C,2.000000*%
%ADD25R,3.200000X2.000000*%
%ADD26C,4.400000*%
G04 APERTURE END LIST*
D10*
%TO.C,D2*%
X108082931Y-82327772D03*
X104782931Y-82327772D03*
%TD*%
D11*
%TO.C,K-7*%
X104194508Y-73645405D03*
D12*
X101654508Y-78725405D03*
D11*
X97844508Y-76185405D03*
D13*
X96574508Y-78725405D03*
X106734508Y-78725405D03*
%TD*%
D11*
%TO.C,K-STAR1*%
X142294508Y-54595405D03*
D12*
X139754508Y-59675405D03*
D11*
X135944508Y-57135405D03*
D13*
X134674508Y-59675405D03*
X144834508Y-59675405D03*
%TD*%
D14*
%TO.C,D1*%
X107164183Y-54348061D03*
X107164183Y-57648061D03*
%TD*%
D15*
%TO.C,J-ISP1*%
X113112000Y-108634000D03*
X113112000Y-106094000D03*
X110572000Y-108634000D03*
X110572000Y-106094000D03*
X108032000Y-108634000D03*
D16*
X108032000Y-106094000D03*
%TD*%
D17*
%TO.C,U1*%
X130976382Y-61214016D03*
D18*
X130976382Y-63754016D03*
X130976382Y-66294016D03*
X130976382Y-68834016D03*
X130976382Y-71374016D03*
X130976382Y-73914016D03*
X130976382Y-76454016D03*
X130976382Y-78994016D03*
X130976382Y-81534016D03*
X130976382Y-84074016D03*
X130976382Y-86614016D03*
X130976382Y-89154016D03*
X110736382Y-89154016D03*
X110736382Y-86614016D03*
X110736382Y-84074016D03*
X110736382Y-81534016D03*
X110736382Y-78994016D03*
X110736382Y-76454016D03*
X110736382Y-73914016D03*
X110736382Y-71374016D03*
X110736382Y-68834016D03*
X110736382Y-66294016D03*
X110736382Y-63754016D03*
X110736382Y-61214016D03*
%TD*%
D11*
%TO.C,K-8*%
X123244508Y-73645405D03*
D12*
X120704508Y-78725405D03*
D11*
X116894508Y-76185405D03*
D13*
X115624508Y-78725405D03*
X125784508Y-78725405D03*
%TD*%
D12*
%TO.C,K-ENT1*%
X150549508Y-114412405D03*
X150549508Y-138288405D03*
D19*
X165789508Y-114412405D03*
X165789508Y-138288405D03*
D13*
X158804508Y-121270405D03*
X158804508Y-131430405D03*
D20*
X163884508Y-125080405D03*
D21*
X163884508Y-127620405D03*
D11*
X156264508Y-130160405D03*
D12*
X158804508Y-126350405D03*
D11*
X153724508Y-123810405D03*
%TD*%
D12*
%TO.C,K-0*%
X123117508Y-127620405D03*
X99241508Y-127620405D03*
D19*
X123117508Y-142860405D03*
X99241508Y-142860405D03*
D13*
X116259508Y-135875405D03*
X106099508Y-135875405D03*
D20*
X112449508Y-140955405D03*
D21*
X109909508Y-140955405D03*
D11*
X107369508Y-133335405D03*
D12*
X111179508Y-135875405D03*
D11*
X113719508Y-130795405D03*
%TD*%
D10*
%TO.C,D6*%
X135143894Y-53752748D03*
X138443894Y-53752748D03*
%TD*%
D22*
%TO.C,SW2*%
X99118862Y-68155886D03*
X94968862Y-68155886D03*
X99118862Y-70305886D03*
X94968862Y-70305886D03*
%TD*%
D23*
%TO.C,SW1*%
X151304508Y-57294155D03*
D24*
X151304508Y-59794155D03*
X151304508Y-62294155D03*
D25*
X158804508Y-54194155D03*
X158804508Y-65394155D03*
D24*
X165804508Y-57294155D03*
X165804508Y-62294155D03*
%TD*%
%TO.C,R1*%
G36*
G01*
X96593861Y-64488695D02*
X97493863Y-64488695D01*
G75*
G02*
X97743862Y-64738694I0J-249999D01*
G01*
X97743862Y-65388696D01*
G75*
G02*
X97493863Y-65638695I-249999J0D01*
G01*
X96593861Y-65638695D01*
G75*
G02*
X96343862Y-65388696I0J249999D01*
G01*
X96343862Y-64738694D01*
G75*
G02*
X96593861Y-64488695I249999J0D01*
G01*
G37*
G36*
G01*
X96593861Y-62438695D02*
X97493863Y-62438695D01*
G75*
G02*
X97743862Y-62688694I0J-249999D01*
G01*
X97743862Y-63338696D01*
G75*
G02*
X97493863Y-63588695I-249999J0D01*
G01*
X96593861Y-63588695D01*
G75*
G02*
X96343862Y-63338696I0J249999D01*
G01*
X96343862Y-62688694D01*
G75*
G02*
X96593861Y-62438695I249999J0D01*
G01*
G37*
%TD*%
D11*
%TO.C,K-PLUS1*%
X161344508Y-92695405D03*
D12*
X158804508Y-97775405D03*
D11*
X154994508Y-95235405D03*
D13*
X153724508Y-97775405D03*
X163884508Y-97775405D03*
%TD*%
%TO.C,K-NUM1*%
X106734508Y-59675405D03*
X96574508Y-59675405D03*
D20*
X102924508Y-64755405D03*
D21*
X100384508Y-64755405D03*
D11*
X97844508Y-57135405D03*
D12*
X101654508Y-59675405D03*
D11*
X104194508Y-54595405D03*
%TD*%
%TO.C,K-MIN1*%
X161344508Y-73645405D03*
D12*
X158804508Y-78725405D03*
D11*
X154994508Y-76185405D03*
D13*
X153724508Y-78725405D03*
X163884508Y-78725405D03*
%TD*%
D11*
%TO.C,K-DEL1*%
X142294508Y-130795405D03*
D12*
X139754508Y-135875405D03*
D11*
X135944508Y-133335405D03*
D13*
X134674508Y-135875405D03*
X144834508Y-135875405D03*
%TD*%
D11*
%TO.C,K-/1*%
X123244508Y-54595405D03*
D12*
X120704508Y-59675405D03*
D11*
X116894508Y-57135405D03*
D13*
X115624508Y-59675405D03*
X125784508Y-59675405D03*
%TD*%
D11*
%TO.C,K-9*%
X142294508Y-73645405D03*
D12*
X139754508Y-78725405D03*
D11*
X135944508Y-76185405D03*
D13*
X134674508Y-78725405D03*
X144834508Y-78725405D03*
%TD*%
D11*
%TO.C,K-6*%
X142294508Y-92695405D03*
D12*
X139754508Y-97775405D03*
D11*
X135944508Y-95235405D03*
D13*
X134674508Y-97775405D03*
X144834508Y-97775405D03*
%TD*%
D11*
%TO.C,K-5*%
X123244508Y-92695405D03*
D12*
X120704508Y-97775405D03*
D11*
X116894508Y-95235405D03*
D13*
X115624508Y-97775405D03*
X125784508Y-97775405D03*
%TD*%
D11*
%TO.C,K-4*%
X104194508Y-92695405D03*
D12*
X101654508Y-97775405D03*
D11*
X97844508Y-95235405D03*
D13*
X96574508Y-97775405D03*
X106734508Y-97775405D03*
%TD*%
D11*
%TO.C,K-1*%
X104194516Y-111745381D03*
D12*
X101654516Y-116825381D03*
D11*
X97844516Y-114285381D03*
D13*
X96574516Y-116825381D03*
X106734516Y-116825381D03*
%TD*%
D11*
%TO.C,K-2*%
X123244508Y-111745405D03*
D12*
X120704508Y-116825405D03*
D11*
X116894508Y-114285405D03*
D13*
X115624508Y-116825405D03*
X125784508Y-116825405D03*
%TD*%
D11*
%TO.C,K-3*%
X142294548Y-111745381D03*
D12*
X139754548Y-116825381D03*
D11*
X135944548Y-114285381D03*
D13*
X134674548Y-116825381D03*
X144834548Y-116825381D03*
%TD*%
D26*
%TO.C,H5*%
X105973557Y-69230886D03*
%TD*%
%TO.C,H4*%
X148088930Y-126350389D03*
%TD*%
%TO.C,H3*%
X130229540Y-97775365D03*
%TD*%
%TO.C,H2*%
X149279556Y-69826199D03*
%TD*%
%TO.C,H1*%
X111179524Y-125755076D03*
%TD*%
D10*
%TO.C,D18*%
X153446747Y-120397259D03*
X150146747Y-120397259D03*
%TD*%
D14*
%TO.C,D17*%
X161781129Y-100751930D03*
X161781129Y-104051930D03*
%TD*%
%TO.C,D16*%
X161781129Y-81701914D03*
X161781129Y-85001914D03*
%TD*%
D10*
%TO.C,D15*%
X154637373Y-53126890D03*
X151337373Y-53126890D03*
%TD*%
%TO.C,D14*%
X142135800Y-127541015D03*
X138835800Y-127541015D03*
%TD*%
D14*
%TO.C,D13*%
X143326426Y-119937885D03*
X143326426Y-123237885D03*
%TD*%
%TO.C,D12*%
X142731113Y-100751930D03*
X142731113Y-104051930D03*
%TD*%
%TO.C,D11*%
X142731113Y-81732459D03*
X142731113Y-85032459D03*
%TD*%
D10*
%TO.C,D10*%
X145264215Y-54943374D03*
X148564215Y-54943374D03*
%TD*%
D14*
%TO.C,D9*%
X124276410Y-119801946D03*
X124276410Y-123101946D03*
%TD*%
%TO.C,D8*%
X123681097Y-100887869D03*
X123681097Y-104187869D03*
%TD*%
D10*
%TO.C,D7*%
X120856382Y-91852780D03*
X117556382Y-91852780D03*
%TD*%
D14*
%TO.C,D5*%
X117727967Y-132031641D03*
X117727967Y-128731641D03*
%TD*%
%TO.C,D4*%
X105226394Y-119801946D03*
X105226394Y-123101946D03*
%TD*%
%TO.C,D3*%
X104631081Y-100887869D03*
X104631081Y-104187869D03*
%TD*%
M02*
