G04 #@! TF.GenerationSoftware,KiCad,Pcbnew,(5.1.7)-1*
G04 #@! TF.CreationDate,2020-12-04T00:44:57-08:00*
G04 #@! TF.ProjectId,dropout-miniusb,64726f70-6f75-4742-9d6d-696e69757362,rev?*
G04 #@! TF.SameCoordinates,Original*
G04 #@! TF.FileFunction,Legend,Bot*
G04 #@! TF.FilePolarity,Positive*
%FSLAX46Y46*%
G04 Gerber Fmt 4.6, Leading zero omitted, Abs format (unit mm)*
G04 Created by KiCad (PCBNEW (5.1.7)-1) date 2020-12-04 00:44:57*
%MOMM*%
%LPD*%
G01*
G04 APERTURE LIST*
%ADD10C,0.200000*%
%ADD11C,0.120000*%
%ADD12C,0.150000*%
%ADD13C,0.100000*%
G04 APERTURE END LIST*
D10*
X107503980Y-110172666D02*
X108503980Y-110506000D01*
X107503980Y-110839333D01*
X108408742Y-111744095D02*
X108456361Y-111696476D01*
X108503980Y-111553619D01*
X108503980Y-111458380D01*
X108456361Y-111315523D01*
X108361123Y-111220285D01*
X108265885Y-111172666D01*
X108075409Y-111125047D01*
X107932552Y-111125047D01*
X107742076Y-111172666D01*
X107646838Y-111220285D01*
X107551600Y-111315523D01*
X107503980Y-111458380D01*
X107503980Y-111553619D01*
X107551600Y-111696476D01*
X107599219Y-111744095D01*
X108408742Y-112744095D02*
X108456361Y-112696476D01*
X108503980Y-112553619D01*
X108503980Y-112458380D01*
X108456361Y-112315523D01*
X108361123Y-112220285D01*
X108265885Y-112172666D01*
X108075409Y-112125047D01*
X107932552Y-112125047D01*
X107742076Y-112172666D01*
X107646838Y-112220285D01*
X107551600Y-112315523D01*
X107503980Y-112458380D01*
X107503980Y-112553619D01*
X107551600Y-112696476D01*
X107599219Y-112744095D01*
D11*
X155710754Y-56643200D02*
X156233258Y-56643200D01*
X155710754Y-58063200D02*
X156233258Y-58063200D01*
X156233258Y-60836613D02*
X155710754Y-60836613D01*
X156233258Y-59416613D02*
X155710754Y-59416613D01*
X108682931Y-81327772D02*
X104782931Y-81327772D01*
X108682931Y-83327772D02*
X104782931Y-83327772D01*
X108682931Y-81327772D02*
X108682931Y-83327772D01*
X108164183Y-58248061D02*
X106164183Y-58248061D01*
X106164183Y-58248061D02*
X106164183Y-54348061D01*
X108164183Y-58248061D02*
X108164183Y-54348061D01*
X106702000Y-104764000D02*
X106702000Y-106094000D01*
X108032000Y-104764000D02*
X106702000Y-104764000D01*
X106702000Y-107364000D02*
X106702000Y-109964000D01*
X109302000Y-107364000D02*
X106702000Y-107364000D01*
X109302000Y-104764000D02*
X109302000Y-107364000D01*
X106702000Y-109964000D02*
X114442000Y-109964000D01*
X109302000Y-104764000D02*
X114442000Y-104764000D01*
X114442000Y-104764000D02*
X114442000Y-109964000D01*
D12*
X132246382Y-50944016D02*
X132246382Y-90424016D01*
X132246382Y-50944016D02*
X124666382Y-50944016D01*
X124666382Y-50944016D02*
X124666382Y-48404016D01*
X124666382Y-48404016D02*
X117046382Y-48404016D01*
X117046382Y-48404016D02*
X117046382Y-50944016D01*
X117046382Y-50944016D02*
X109466382Y-50944016D01*
X109466382Y-50944016D02*
X109466382Y-90424016D01*
X109466382Y-90424016D02*
X132246382Y-90424016D01*
D11*
X139043894Y-52752748D02*
X139043894Y-54752748D01*
X139043894Y-54752748D02*
X135143894Y-54752748D01*
X139043894Y-52752748D02*
X135143894Y-52752748D01*
X99243862Y-70810886D02*
X99243862Y-70930886D01*
X99243862Y-68660886D02*
X99243862Y-69800886D01*
X99243862Y-67530886D02*
X99243862Y-67650886D01*
X94843862Y-67530886D02*
X99243862Y-67530886D01*
X94843862Y-67650886D02*
X94843862Y-67530886D01*
X94843862Y-69800886D02*
X94843862Y-68660886D01*
X94843862Y-70930886D02*
X94843862Y-70810886D01*
X99243862Y-70930886D02*
X94843862Y-70930886D01*
X96333862Y-63777443D02*
X96333862Y-64299947D01*
X97753862Y-63777443D02*
X97753862Y-64299947D01*
X149546747Y-121397259D02*
X149546747Y-119397259D01*
X149546747Y-119397259D02*
X153446747Y-119397259D01*
X149546747Y-121397259D02*
X153446747Y-121397259D01*
X162781129Y-104651930D02*
X160781129Y-104651930D01*
X160781129Y-104651930D02*
X160781129Y-100751930D01*
X162781129Y-104651930D02*
X162781129Y-100751930D01*
X162781129Y-85601914D02*
X160781129Y-85601914D01*
X160781129Y-85601914D02*
X160781129Y-81701914D01*
X162781129Y-85601914D02*
X162781129Y-81701914D01*
X150737373Y-54126890D02*
X150737373Y-52126890D01*
X150737373Y-52126890D02*
X154637373Y-52126890D01*
X150737373Y-54126890D02*
X154637373Y-54126890D01*
X138235800Y-128541015D02*
X138235800Y-126541015D01*
X138235800Y-126541015D02*
X142135800Y-126541015D01*
X138235800Y-128541015D02*
X142135800Y-128541015D01*
X144326426Y-123837885D02*
X142326426Y-123837885D01*
X142326426Y-123837885D02*
X142326426Y-119937885D01*
X144326426Y-123837885D02*
X144326426Y-119937885D01*
X143731113Y-104651930D02*
X141731113Y-104651930D01*
X141731113Y-104651930D02*
X141731113Y-100751930D01*
X143731113Y-104651930D02*
X143731113Y-100751930D01*
X143731113Y-85632459D02*
X141731113Y-85632459D01*
X141731113Y-85632459D02*
X141731113Y-81732459D01*
X143731113Y-85632459D02*
X143731113Y-81732459D01*
X149164215Y-53943374D02*
X149164215Y-55943374D01*
X149164215Y-55943374D02*
X145264215Y-55943374D01*
X149164215Y-53943374D02*
X145264215Y-53943374D01*
X125276410Y-123701946D02*
X123276410Y-123701946D01*
X123276410Y-123701946D02*
X123276410Y-119801946D01*
X125276410Y-123701946D02*
X125276410Y-119801946D01*
X124681097Y-104787869D02*
X122681097Y-104787869D01*
X122681097Y-104787869D02*
X122681097Y-100887869D01*
X124681097Y-104787869D02*
X124681097Y-100887869D01*
X116956382Y-92852780D02*
X116956382Y-90852780D01*
X116956382Y-90852780D02*
X120856382Y-90852780D01*
X116956382Y-92852780D02*
X120856382Y-92852780D01*
X116727967Y-128131641D02*
X118727967Y-128131641D01*
X118727967Y-128131641D02*
X118727967Y-132031641D01*
X116727967Y-128131641D02*
X116727967Y-132031641D01*
X106226394Y-123701946D02*
X104226394Y-123701946D01*
X104226394Y-123701946D02*
X104226394Y-119801946D01*
X106226394Y-123701946D02*
X106226394Y-119801946D01*
X105631081Y-104787869D02*
X103631081Y-104787869D01*
X103631081Y-104787869D02*
X103631081Y-100887869D01*
X105631081Y-104787869D02*
X105631081Y-100887869D01*
D13*
X130226382Y-60464016D02*
X130226382Y-61964016D01*
X131726382Y-61964016D01*
X131726382Y-60464016D01*
X130226382Y-60464016D01*
X131726382Y-63754016D02*
G75*
G03*
X131726382Y-63754016I-750000J0D01*
G01*
X131726382Y-66294016D02*
G75*
G03*
X131726382Y-66294016I-750000J0D01*
G01*
X131726382Y-68834016D02*
G75*
G03*
X131726382Y-68834016I-750000J0D01*
G01*
X131726382Y-71374016D02*
G75*
G03*
X131726382Y-71374016I-750000J0D01*
G01*
X131726382Y-73914016D02*
G75*
G03*
X131726382Y-73914016I-750000J0D01*
G01*
X131726382Y-76454016D02*
G75*
G03*
X131726382Y-76454016I-750000J0D01*
G01*
X131726382Y-78994016D02*
G75*
G03*
X131726382Y-78994016I-750000J0D01*
G01*
X131726382Y-81534016D02*
G75*
G03*
X131726382Y-81534016I-750000J0D01*
G01*
X131726382Y-84074016D02*
G75*
G03*
X131726382Y-84074016I-750000J0D01*
G01*
X131726382Y-86614016D02*
G75*
G03*
X131726382Y-86614016I-750000J0D01*
G01*
X131726382Y-89154016D02*
G75*
G03*
X131726382Y-89154016I-750000J0D01*
G01*
X111486382Y-89154016D02*
G75*
G03*
X111486382Y-89154016I-750000J0D01*
G01*
X111486382Y-86614016D02*
G75*
G03*
X111486382Y-86614016I-750000J0D01*
G01*
X111486382Y-84074016D02*
G75*
G03*
X111486382Y-84074016I-750000J0D01*
G01*
X111486382Y-81534016D02*
G75*
G03*
X111486382Y-81534016I-750000J0D01*
G01*
X111486382Y-78994016D02*
G75*
G03*
X111486382Y-78994016I-750000J0D01*
G01*
X111486382Y-76454016D02*
G75*
G03*
X111486382Y-76454016I-750000J0D01*
G01*
X111486382Y-73914016D02*
G75*
G03*
X111486382Y-73914016I-750000J0D01*
G01*
X111486382Y-71374016D02*
G75*
G03*
X111486382Y-71374016I-750000J0D01*
G01*
X111486382Y-68834016D02*
G75*
G03*
X111486382Y-68834016I-750000J0D01*
G01*
X111486382Y-66294016D02*
G75*
G03*
X111486382Y-66294016I-750000J0D01*
G01*
X111486382Y-63754016D02*
G75*
G03*
X111486382Y-63754016I-750000J0D01*
G01*
X111486382Y-61214016D02*
G75*
G03*
X111486382Y-61214016I-750000J0D01*
G01*
D12*
X159115237Y-57507190D02*
X159162856Y-57554809D01*
X159305713Y-57602428D01*
X159400951Y-57602428D01*
X159543809Y-57554809D01*
X159639047Y-57459571D01*
X159686666Y-57364333D01*
X159734285Y-57173857D01*
X159734285Y-57031000D01*
X159686666Y-56840524D01*
X159639047Y-56745286D01*
X159543809Y-56650048D01*
X159400951Y-56602428D01*
X159305713Y-56602428D01*
X159162856Y-56650048D01*
X159115237Y-56697667D01*
X158734285Y-56697667D02*
X158686666Y-56650048D01*
X158591428Y-56602428D01*
X158353332Y-56602428D01*
X158258094Y-56650048D01*
X158210475Y-56697667D01*
X158162856Y-56792905D01*
X158162856Y-56888143D01*
X158210475Y-57031000D01*
X158781904Y-57602428D01*
X158162856Y-57602428D01*
X159115237Y-60483755D02*
X159162856Y-60531374D01*
X159305713Y-60578993D01*
X159400951Y-60578993D01*
X159543809Y-60531374D01*
X159639047Y-60436136D01*
X159686666Y-60340898D01*
X159734285Y-60150422D01*
X159734285Y-60007565D01*
X159686666Y-59817089D01*
X159639047Y-59721851D01*
X159543809Y-59626613D01*
X159400951Y-59578993D01*
X159305713Y-59578993D01*
X159162856Y-59626613D01*
X159115237Y-59674232D01*
X158162856Y-60578993D02*
X158734285Y-60578993D01*
X158448571Y-60578993D02*
X158448571Y-59578993D01*
X158543809Y-59721851D01*
X158639047Y-59817089D01*
X158734285Y-59864708D01*
X107171026Y-80780152D02*
X107171026Y-79780152D01*
X106932931Y-79780152D01*
X106790073Y-79827772D01*
X106694835Y-79923010D01*
X106647216Y-80018248D01*
X106599597Y-80208724D01*
X106599597Y-80351581D01*
X106647216Y-80542057D01*
X106694835Y-80637295D01*
X106790073Y-80732533D01*
X106932931Y-80780152D01*
X107171026Y-80780152D01*
X106218645Y-79875391D02*
X106171026Y-79827772D01*
X106075788Y-79780152D01*
X105837692Y-79780152D01*
X105742454Y-79827772D01*
X105694835Y-79875391D01*
X105647216Y-79970629D01*
X105647216Y-80065867D01*
X105694835Y-80208724D01*
X106266264Y-80780152D01*
X105647216Y-80780152D01*
X105521026Y-57777006D02*
X105521026Y-56777006D01*
X105282931Y-56777006D01*
X105140073Y-56824626D01*
X105044835Y-56919864D01*
X104997216Y-57015102D01*
X104949597Y-57205578D01*
X104949597Y-57348435D01*
X104997216Y-57538911D01*
X105044835Y-57634149D01*
X105140073Y-57729387D01*
X105282931Y-57777006D01*
X105521026Y-57777006D01*
X103997216Y-57777006D02*
X104568645Y-57777006D01*
X104282931Y-57777006D02*
X104282931Y-56777006D01*
X104378169Y-56919864D01*
X104473407Y-57015102D01*
X104568645Y-57062721D01*
X105154380Y-105197333D02*
X105868666Y-105197333D01*
X106011523Y-105149714D01*
X106106761Y-105054476D01*
X106154380Y-104911619D01*
X106154380Y-104816380D01*
X105773428Y-105673523D02*
X105773428Y-106435428D01*
X106154380Y-106911619D02*
X105154380Y-106911619D01*
X106106761Y-107340190D02*
X106154380Y-107483047D01*
X106154380Y-107721142D01*
X106106761Y-107816380D01*
X106059142Y-107864000D01*
X105963904Y-107911619D01*
X105868666Y-107911619D01*
X105773428Y-107864000D01*
X105725809Y-107816380D01*
X105678190Y-107721142D01*
X105630571Y-107530666D01*
X105582952Y-107435428D01*
X105535333Y-107387809D01*
X105440095Y-107340190D01*
X105344857Y-107340190D01*
X105249619Y-107387809D01*
X105202000Y-107435428D01*
X105154380Y-107530666D01*
X105154380Y-107768761D01*
X105202000Y-107911619D01*
X106154380Y-108340190D02*
X105154380Y-108340190D01*
X105154380Y-108721142D01*
X105202000Y-108816380D01*
X105249619Y-108864000D01*
X105344857Y-108911619D01*
X105487714Y-108911619D01*
X105582952Y-108864000D01*
X105630571Y-108816380D01*
X105678190Y-108721142D01*
X105678190Y-108340190D01*
X106154380Y-109864000D02*
X106154380Y-109292571D01*
X106154380Y-109578285D02*
X105154380Y-109578285D01*
X105297238Y-109483047D01*
X105392476Y-109387809D01*
X105440095Y-109292571D01*
X137531989Y-52205128D02*
X137531989Y-51205128D01*
X137293894Y-51205128D01*
X137151036Y-51252748D01*
X137055798Y-51347986D01*
X137008179Y-51443224D01*
X136960560Y-51633700D01*
X136960560Y-51776557D01*
X137008179Y-51967033D01*
X137055798Y-52062271D01*
X137151036Y-52157509D01*
X137293894Y-52205128D01*
X137531989Y-52205128D01*
X136103417Y-51205128D02*
X136293894Y-51205128D01*
X136389132Y-51252748D01*
X136436751Y-51300367D01*
X136531989Y-51443224D01*
X136579608Y-51633700D01*
X136579608Y-52014652D01*
X136531989Y-52109890D01*
X136484370Y-52157509D01*
X136389132Y-52205128D01*
X136198655Y-52205128D01*
X136103417Y-52157509D01*
X136055798Y-52109890D01*
X136008179Y-52014652D01*
X136008179Y-51776557D01*
X136055798Y-51681319D01*
X136103417Y-51633700D01*
X136198655Y-51586081D01*
X136389132Y-51586081D01*
X136484370Y-51633700D01*
X136531989Y-51681319D01*
X136579608Y-51776557D01*
X98377195Y-72235647D02*
X98234338Y-72283266D01*
X97996242Y-72283266D01*
X97901004Y-72235647D01*
X97853385Y-72188028D01*
X97805766Y-72092790D01*
X97805766Y-71997552D01*
X97853385Y-71902314D01*
X97901004Y-71854695D01*
X97996242Y-71807076D01*
X98186719Y-71759457D01*
X98281957Y-71711838D01*
X98329576Y-71664219D01*
X98377195Y-71568981D01*
X98377195Y-71473743D01*
X98329576Y-71378505D01*
X98281957Y-71330886D01*
X98186719Y-71283266D01*
X97948623Y-71283266D01*
X97805766Y-71330886D01*
X97472433Y-71283266D02*
X97234338Y-72283266D01*
X97043862Y-71568981D01*
X96853385Y-72283266D01*
X96615290Y-71283266D01*
X96281957Y-71378505D02*
X96234338Y-71330886D01*
X96139100Y-71283266D01*
X95901004Y-71283266D01*
X95805766Y-71330886D01*
X95758147Y-71378505D01*
X95710528Y-71473743D01*
X95710528Y-71568981D01*
X95758147Y-71711838D01*
X96329576Y-72283266D01*
X95710528Y-72283266D01*
X95846242Y-63872028D02*
X95370052Y-63538695D01*
X95846242Y-63300599D02*
X94846242Y-63300599D01*
X94846242Y-63681552D01*
X94893862Y-63776790D01*
X94941481Y-63824409D01*
X95036719Y-63872028D01*
X95179576Y-63872028D01*
X95274814Y-63824409D01*
X95322433Y-63776790D01*
X95370052Y-63681552D01*
X95370052Y-63300599D01*
X95846242Y-64824409D02*
X95846242Y-64252980D01*
X95846242Y-64538695D02*
X94846242Y-64538695D01*
X94989100Y-64443456D01*
X95084338Y-64348218D01*
X95131957Y-64252980D01*
X153011032Y-122849639D02*
X153011032Y-121849639D01*
X152772937Y-121849639D01*
X152630080Y-121897259D01*
X152534842Y-121992497D01*
X152487223Y-122087735D01*
X152439604Y-122278211D01*
X152439604Y-122421068D01*
X152487223Y-122611544D01*
X152534842Y-122706782D01*
X152630080Y-122802020D01*
X152772937Y-122849639D01*
X153011032Y-122849639D01*
X151487223Y-122849639D02*
X152058651Y-122849639D01*
X151772937Y-122849639D02*
X151772937Y-121849639D01*
X151868175Y-121992497D01*
X151963413Y-122087735D01*
X152058651Y-122135354D01*
X150915794Y-122278211D02*
X151011032Y-122230592D01*
X151058651Y-122182973D01*
X151106270Y-122087735D01*
X151106270Y-122040116D01*
X151058651Y-121944878D01*
X151011032Y-121897259D01*
X150915794Y-121849639D01*
X150725318Y-121849639D01*
X150630080Y-121897259D01*
X150582461Y-121944878D01*
X150534842Y-122040116D01*
X150534842Y-122087735D01*
X150582461Y-122182973D01*
X150630080Y-122230592D01*
X150725318Y-122278211D01*
X150915794Y-122278211D01*
X151011032Y-122325830D01*
X151058651Y-122373449D01*
X151106270Y-122468687D01*
X151106270Y-122659163D01*
X151058651Y-122754401D01*
X151011032Y-122802020D01*
X150915794Y-122849639D01*
X150725318Y-122849639D01*
X150630080Y-122802020D01*
X150582461Y-122754401D01*
X150534842Y-122659163D01*
X150534842Y-122468687D01*
X150582461Y-122373449D01*
X150630080Y-122325830D01*
X150725318Y-122278211D01*
X164233509Y-101187644D02*
X163233509Y-101187644D01*
X163233509Y-101425739D01*
X163281129Y-101568596D01*
X163376367Y-101663834D01*
X163471605Y-101711453D01*
X163662081Y-101759072D01*
X163804938Y-101759072D01*
X163995414Y-101711453D01*
X164090652Y-101663834D01*
X164185890Y-101568596D01*
X164233509Y-101425739D01*
X164233509Y-101187644D01*
X164233509Y-102711453D02*
X164233509Y-102140025D01*
X164233509Y-102425739D02*
X163233509Y-102425739D01*
X163376367Y-102330501D01*
X163471605Y-102235263D01*
X163519224Y-102140025D01*
X163233509Y-103044787D02*
X163233509Y-103711453D01*
X164233509Y-103282882D01*
X164233509Y-82137628D02*
X163233509Y-82137628D01*
X163233509Y-82375723D01*
X163281129Y-82518580D01*
X163376367Y-82613818D01*
X163471605Y-82661437D01*
X163662081Y-82709056D01*
X163804938Y-82709056D01*
X163995414Y-82661437D01*
X164090652Y-82613818D01*
X164185890Y-82518580D01*
X164233509Y-82375723D01*
X164233509Y-82137628D01*
X164233509Y-83661437D02*
X164233509Y-83090009D01*
X164233509Y-83375723D02*
X163233509Y-83375723D01*
X163376367Y-83280485D01*
X163471605Y-83185247D01*
X163519224Y-83090009D01*
X163233509Y-84518580D02*
X163233509Y-84328104D01*
X163281129Y-84232866D01*
X163328748Y-84185247D01*
X163471605Y-84090009D01*
X163662081Y-84042390D01*
X164043033Y-84042390D01*
X164138271Y-84090009D01*
X164185890Y-84137628D01*
X164233509Y-84232866D01*
X164233509Y-84423342D01*
X164185890Y-84518580D01*
X164138271Y-84566199D01*
X164043033Y-84613818D01*
X163804938Y-84613818D01*
X163709700Y-84566199D01*
X163662081Y-84518580D01*
X163614462Y-84423342D01*
X163614462Y-84232866D01*
X163662081Y-84137628D01*
X163709700Y-84090009D01*
X163804938Y-84042390D01*
X154201658Y-55579270D02*
X154201658Y-54579270D01*
X153963563Y-54579270D01*
X153820706Y-54626890D01*
X153725468Y-54722128D01*
X153677849Y-54817366D01*
X153630230Y-55007842D01*
X153630230Y-55150699D01*
X153677849Y-55341175D01*
X153725468Y-55436413D01*
X153820706Y-55531651D01*
X153963563Y-55579270D01*
X154201658Y-55579270D01*
X152677849Y-55579270D02*
X153249277Y-55579270D01*
X152963563Y-55579270D02*
X152963563Y-54579270D01*
X153058801Y-54722128D01*
X153154039Y-54817366D01*
X153249277Y-54864985D01*
X151773087Y-54579270D02*
X152249277Y-54579270D01*
X152296896Y-55055461D01*
X152249277Y-55007842D01*
X152154039Y-54960223D01*
X151915944Y-54960223D01*
X151820706Y-55007842D01*
X151773087Y-55055461D01*
X151725468Y-55150699D01*
X151725468Y-55388794D01*
X151773087Y-55484032D01*
X151820706Y-55531651D01*
X151915944Y-55579270D01*
X152154039Y-55579270D01*
X152249277Y-55531651D01*
X152296896Y-55484032D01*
X141700085Y-129993395D02*
X141700085Y-128993395D01*
X141461990Y-128993395D01*
X141319133Y-129041015D01*
X141223895Y-129136253D01*
X141176276Y-129231491D01*
X141128657Y-129421967D01*
X141128657Y-129564824D01*
X141176276Y-129755300D01*
X141223895Y-129850538D01*
X141319133Y-129945776D01*
X141461990Y-129993395D01*
X141700085Y-129993395D01*
X140176276Y-129993395D02*
X140747704Y-129993395D01*
X140461990Y-129993395D02*
X140461990Y-128993395D01*
X140557228Y-129136253D01*
X140652466Y-129231491D01*
X140747704Y-129279110D01*
X139319133Y-129326729D02*
X139319133Y-129993395D01*
X139557228Y-128945776D02*
X139795323Y-129660062D01*
X139176276Y-129660062D01*
X145778806Y-120373599D02*
X144778806Y-120373599D01*
X144778806Y-120611694D01*
X144826426Y-120754551D01*
X144921664Y-120849789D01*
X145016902Y-120897408D01*
X145207378Y-120945027D01*
X145350235Y-120945027D01*
X145540711Y-120897408D01*
X145635949Y-120849789D01*
X145731187Y-120754551D01*
X145778806Y-120611694D01*
X145778806Y-120373599D01*
X145778806Y-121897408D02*
X145778806Y-121325980D01*
X145778806Y-121611694D02*
X144778806Y-121611694D01*
X144921664Y-121516456D01*
X145016902Y-121421218D01*
X145064521Y-121325980D01*
X144778806Y-122230742D02*
X144778806Y-122849789D01*
X145159759Y-122516456D01*
X145159759Y-122659313D01*
X145207378Y-122754551D01*
X145254997Y-122802170D01*
X145350235Y-122849789D01*
X145588330Y-122849789D01*
X145683568Y-122802170D01*
X145731187Y-122754551D01*
X145778806Y-122659313D01*
X145778806Y-122373599D01*
X145731187Y-122278361D01*
X145683568Y-122230742D01*
X145183493Y-101187644D02*
X144183493Y-101187644D01*
X144183493Y-101425739D01*
X144231113Y-101568596D01*
X144326351Y-101663834D01*
X144421589Y-101711453D01*
X144612065Y-101759072D01*
X144754922Y-101759072D01*
X144945398Y-101711453D01*
X145040636Y-101663834D01*
X145135874Y-101568596D01*
X145183493Y-101425739D01*
X145183493Y-101187644D01*
X145183493Y-102711453D02*
X145183493Y-102140025D01*
X145183493Y-102425739D02*
X144183493Y-102425739D01*
X144326351Y-102330501D01*
X144421589Y-102235263D01*
X144469208Y-102140025D01*
X144278732Y-103092406D02*
X144231113Y-103140025D01*
X144183493Y-103235263D01*
X144183493Y-103473358D01*
X144231113Y-103568596D01*
X144278732Y-103616215D01*
X144373970Y-103663834D01*
X144469208Y-103663834D01*
X144612065Y-103616215D01*
X145183493Y-103044787D01*
X145183493Y-103663834D01*
X145183493Y-82168173D02*
X144183493Y-82168173D01*
X144183493Y-82406268D01*
X144231113Y-82549125D01*
X144326351Y-82644363D01*
X144421589Y-82691982D01*
X144612065Y-82739601D01*
X144754922Y-82739601D01*
X144945398Y-82691982D01*
X145040636Y-82644363D01*
X145135874Y-82549125D01*
X145183493Y-82406268D01*
X145183493Y-82168173D01*
X145183493Y-83691982D02*
X145183493Y-83120554D01*
X145183493Y-83406268D02*
X144183493Y-83406268D01*
X144326351Y-83311030D01*
X144421589Y-83215792D01*
X144469208Y-83120554D01*
X145183493Y-84644363D02*
X145183493Y-84072935D01*
X145183493Y-84358649D02*
X144183493Y-84358649D01*
X144326351Y-84263411D01*
X144421589Y-84168173D01*
X144469208Y-84072935D01*
X143930656Y-53729088D02*
X142930656Y-53729088D01*
X142930656Y-53967183D01*
X142978276Y-54110040D01*
X143073514Y-54205278D01*
X143168752Y-54252897D01*
X143359228Y-54300516D01*
X143502085Y-54300516D01*
X143692561Y-54252897D01*
X143787799Y-54205278D01*
X143883037Y-54110040D01*
X143930656Y-53967183D01*
X143930656Y-53729088D01*
X143930656Y-55252897D02*
X143930656Y-54681469D01*
X143930656Y-54967183D02*
X142930656Y-54967183D01*
X143073514Y-54871945D01*
X143168752Y-54776707D01*
X143216371Y-54681469D01*
X142930656Y-55871945D02*
X142930656Y-55967183D01*
X142978276Y-56062421D01*
X143025895Y-56110040D01*
X143121133Y-56157659D01*
X143311609Y-56205278D01*
X143549704Y-56205278D01*
X143740180Y-56157659D01*
X143835418Y-56110040D01*
X143883037Y-56062421D01*
X143930656Y-55967183D01*
X143930656Y-55871945D01*
X143883037Y-55776707D01*
X143835418Y-55729088D01*
X143740180Y-55681469D01*
X143549704Y-55633850D01*
X143311609Y-55633850D01*
X143121133Y-55681469D01*
X143025895Y-55729088D01*
X142978276Y-55776707D01*
X142930656Y-55871945D01*
X126728790Y-120713850D02*
X125728790Y-120713850D01*
X125728790Y-120951946D01*
X125776410Y-121094803D01*
X125871648Y-121190041D01*
X125966886Y-121237660D01*
X126157362Y-121285279D01*
X126300219Y-121285279D01*
X126490695Y-121237660D01*
X126585933Y-121190041D01*
X126681171Y-121094803D01*
X126728790Y-120951946D01*
X126728790Y-120713850D01*
X126728790Y-121761469D02*
X126728790Y-121951946D01*
X126681171Y-122047184D01*
X126633552Y-122094803D01*
X126490695Y-122190041D01*
X126300219Y-122237660D01*
X125919267Y-122237660D01*
X125824029Y-122190041D01*
X125776410Y-122142422D01*
X125728790Y-122047184D01*
X125728790Y-121856707D01*
X125776410Y-121761469D01*
X125824029Y-121713850D01*
X125919267Y-121666231D01*
X126157362Y-121666231D01*
X126252600Y-121713850D01*
X126300219Y-121761469D01*
X126347838Y-121856707D01*
X126347838Y-122047184D01*
X126300219Y-122142422D01*
X126252600Y-122190041D01*
X126157362Y-122237660D01*
X126133477Y-101799773D02*
X125133477Y-101799773D01*
X125133477Y-102037869D01*
X125181097Y-102180726D01*
X125276335Y-102275964D01*
X125371573Y-102323583D01*
X125562049Y-102371202D01*
X125704906Y-102371202D01*
X125895382Y-102323583D01*
X125990620Y-102275964D01*
X126085858Y-102180726D01*
X126133477Y-102037869D01*
X126133477Y-101799773D01*
X125562049Y-102942630D02*
X125514430Y-102847392D01*
X125466811Y-102799773D01*
X125371573Y-102752154D01*
X125323954Y-102752154D01*
X125228716Y-102799773D01*
X125181097Y-102847392D01*
X125133477Y-102942630D01*
X125133477Y-103133107D01*
X125181097Y-103228345D01*
X125228716Y-103275964D01*
X125323954Y-103323583D01*
X125371573Y-103323583D01*
X125466811Y-103275964D01*
X125514430Y-103228345D01*
X125562049Y-103133107D01*
X125562049Y-102942630D01*
X125609668Y-102847392D01*
X125657287Y-102799773D01*
X125752525Y-102752154D01*
X125943001Y-102752154D01*
X126038239Y-102799773D01*
X126085858Y-102847392D01*
X126133477Y-102942630D01*
X126133477Y-103133107D01*
X126085858Y-103228345D01*
X126038239Y-103275964D01*
X125943001Y-103323583D01*
X125752525Y-103323583D01*
X125657287Y-103275964D01*
X125609668Y-103228345D01*
X125562049Y-103133107D01*
X119944477Y-94305160D02*
X119944477Y-93305160D01*
X119706382Y-93305160D01*
X119563524Y-93352780D01*
X119468286Y-93448018D01*
X119420667Y-93543256D01*
X119373048Y-93733732D01*
X119373048Y-93876589D01*
X119420667Y-94067065D01*
X119468286Y-94162303D01*
X119563524Y-94257541D01*
X119706382Y-94305160D01*
X119944477Y-94305160D01*
X119039715Y-93305160D02*
X118373048Y-93305160D01*
X118801620Y-94305160D01*
X116180347Y-129643545D02*
X115180347Y-129643545D01*
X115180347Y-129881641D01*
X115227967Y-130024498D01*
X115323205Y-130119736D01*
X115418443Y-130167355D01*
X115608919Y-130214974D01*
X115751776Y-130214974D01*
X115942252Y-130167355D01*
X116037490Y-130119736D01*
X116132728Y-130024498D01*
X116180347Y-129881641D01*
X116180347Y-129643545D01*
X115180347Y-131119736D02*
X115180347Y-130643545D01*
X115656538Y-130595926D01*
X115608919Y-130643545D01*
X115561300Y-130738783D01*
X115561300Y-130976879D01*
X115608919Y-131072117D01*
X115656538Y-131119736D01*
X115751776Y-131167355D01*
X115989871Y-131167355D01*
X116085109Y-131119736D01*
X116132728Y-131072117D01*
X116180347Y-130976879D01*
X116180347Y-130738783D01*
X116132728Y-130643545D01*
X116085109Y-130595926D01*
X107678774Y-120713850D02*
X106678774Y-120713850D01*
X106678774Y-120951946D01*
X106726394Y-121094803D01*
X106821632Y-121190041D01*
X106916870Y-121237660D01*
X107107346Y-121285279D01*
X107250203Y-121285279D01*
X107440679Y-121237660D01*
X107535917Y-121190041D01*
X107631155Y-121094803D01*
X107678774Y-120951946D01*
X107678774Y-120713850D01*
X107012108Y-122142422D02*
X107678774Y-122142422D01*
X106631155Y-121904326D02*
X107345441Y-121666231D01*
X107345441Y-122285279D01*
X107083461Y-101799773D02*
X106083461Y-101799773D01*
X106083461Y-102037869D01*
X106131081Y-102180726D01*
X106226319Y-102275964D01*
X106321557Y-102323583D01*
X106512033Y-102371202D01*
X106654890Y-102371202D01*
X106845366Y-102323583D01*
X106940604Y-102275964D01*
X107035842Y-102180726D01*
X107083461Y-102037869D01*
X107083461Y-101799773D01*
X106083461Y-102704535D02*
X106083461Y-103323583D01*
X106464414Y-102990249D01*
X106464414Y-103133107D01*
X106512033Y-103228345D01*
X106559652Y-103275964D01*
X106654890Y-103323583D01*
X106892985Y-103323583D01*
X106988223Y-103275964D01*
X107035842Y-103228345D01*
X107083461Y-103133107D01*
X107083461Y-102847392D01*
X107035842Y-102752154D01*
X106988223Y-102704535D01*
M02*
