G04 #@! TF.GenerationSoftware,KiCad,Pcbnew,(5.1.7)-1*
G04 #@! TF.CreationDate,2020-12-04T00:44:57-08:00*
G04 #@! TF.ProjectId,dropout-miniusb,64726f70-6f75-4742-9d6d-696e69757362,rev?*
G04 #@! TF.SameCoordinates,Original*
G04 #@! TF.FileFunction,Soldermask,Top*
G04 #@! TF.FilePolarity,Negative*
%FSLAX46Y46*%
G04 Gerber Fmt 4.6, Leading zero omitted, Abs format (unit mm)*
G04 Created by KiCad (PCBNEW (5.1.7)-1) date 2020-12-04 00:44:57*
%MOMM*%
%LPD*%
G01*
G04 APERTURE LIST*
%ADD10C,3.987800*%
%ADD11C,1.750000*%
%ADD12O,1.700000X1.700000*%
%ADD13R,1.700000X1.700000*%
%ADD14R,1.600000X1.600000*%
%ADD15C,1.600000*%
%ADD16C,3.048000*%
%ADD17R,2.000000X2.000000*%
%ADD18C,2.000000*%
%ADD19R,3.200000X2.000000*%
%ADD20C,4.400000*%
G04 APERTURE END LIST*
D10*
X101654508Y-78725405D03*
D11*
X96574508Y-78725405D03*
X106734508Y-78725405D03*
D10*
X139754508Y-59675405D03*
D11*
X134674508Y-59675405D03*
X144834508Y-59675405D03*
D12*
X113112000Y-108634000D03*
X113112000Y-106094000D03*
X110572000Y-108634000D03*
X110572000Y-106094000D03*
X108032000Y-108634000D03*
D13*
X108032000Y-106094000D03*
D14*
X130976382Y-61214016D03*
D15*
X130976382Y-63754016D03*
X130976382Y-66294016D03*
X130976382Y-68834016D03*
X130976382Y-71374016D03*
X130976382Y-73914016D03*
X130976382Y-76454016D03*
X130976382Y-78994016D03*
X130976382Y-81534016D03*
X130976382Y-84074016D03*
X130976382Y-86614016D03*
X130976382Y-89154016D03*
X110736382Y-89154016D03*
X110736382Y-86614016D03*
X110736382Y-84074016D03*
X110736382Y-81534016D03*
X110736382Y-78994016D03*
X110736382Y-76454016D03*
X110736382Y-73914016D03*
X110736382Y-71374016D03*
X110736382Y-68834016D03*
X110736382Y-66294016D03*
X110736382Y-63754016D03*
X110736382Y-61214016D03*
D10*
X120704508Y-78725405D03*
D11*
X115624508Y-78725405D03*
X125784508Y-78725405D03*
D10*
X150549508Y-114412405D03*
X150549508Y-138288405D03*
D16*
X165789508Y-114412405D03*
X165789508Y-138288405D03*
D11*
X158804508Y-121270405D03*
X158804508Y-131430405D03*
D10*
X158804508Y-126350405D03*
X123117508Y-127620405D03*
X99241508Y-127620405D03*
D16*
X123117508Y-142860405D03*
X99241508Y-142860405D03*
D11*
X116259508Y-135875405D03*
X106099508Y-135875405D03*
D10*
X111179508Y-135875405D03*
D17*
X151304508Y-57294155D03*
D18*
X151304508Y-59794155D03*
X151304508Y-62294155D03*
D19*
X158804508Y-54194155D03*
X158804508Y-65394155D03*
D18*
X165804508Y-57294155D03*
X165804508Y-62294155D03*
D10*
X158804508Y-97775405D03*
D11*
X153724508Y-97775405D03*
X163884508Y-97775405D03*
X106734508Y-59675405D03*
X96574508Y-59675405D03*
D10*
X101654508Y-59675405D03*
X158804508Y-78725405D03*
D11*
X153724508Y-78725405D03*
X163884508Y-78725405D03*
D10*
X139754508Y-135875405D03*
D11*
X134674508Y-135875405D03*
X144834508Y-135875405D03*
D10*
X120704508Y-59675405D03*
D11*
X115624508Y-59675405D03*
X125784508Y-59675405D03*
D10*
X139754508Y-78725405D03*
D11*
X134674508Y-78725405D03*
X144834508Y-78725405D03*
D10*
X139754508Y-97775405D03*
D11*
X134674508Y-97775405D03*
X144834508Y-97775405D03*
D10*
X120704508Y-97775405D03*
D11*
X115624508Y-97775405D03*
X125784508Y-97775405D03*
D10*
X101654508Y-97775405D03*
D11*
X96574508Y-97775405D03*
X106734508Y-97775405D03*
D10*
X101654516Y-116825381D03*
D11*
X96574516Y-116825381D03*
X106734516Y-116825381D03*
D10*
X120704508Y-116825405D03*
D11*
X115624508Y-116825405D03*
X125784508Y-116825405D03*
D10*
X139754548Y-116825381D03*
D11*
X134674548Y-116825381D03*
X144834548Y-116825381D03*
D20*
X105973557Y-69230886D03*
X148088930Y-126350389D03*
X130229540Y-97775365D03*
X149279556Y-69826199D03*
X111179524Y-125755076D03*
M02*
