M48
; DRILL file {KiCad (5.1.7)-1} date 12/06/20 21:21:47
; FORMAT={-:-/ absolute / inch / decimal}
; #@! TF.CreationDate,2020-12-06T21:21:47-08:00
; #@! TF.GenerationSoftware,Kicad,Pcbnew,(5.1.7)-1
; #@! TF.FileFunction,NonPlated,1,2,NPTH
FMAT,2
INCH
T1C0.0689
T2C0.1200
T3C0.1570
%
G90
G05
T1
X7.824Y-3.8419
X8.224Y-3.8419
X6.324Y-4.5919
X6.724Y-4.5919
X5.574Y-3.8419
X5.974Y-3.8419
X7.824Y-3.0919
X8.224Y-3.0919
X5.574Y-4.5919
X5.974Y-4.5919
X5.949Y-5.3419
X6.349Y-5.3419
X7.074Y-2.3419
X7.474Y-2.3419
X7.074Y-4.5919
X7.474Y-4.5919
X6.324Y-3.8419
X6.724Y-3.8419
X6.324Y-2.3419
X6.724Y-2.3419
X7.074Y-3.0919
X7.474Y-3.0919
X6.324Y-3.0919
X6.724Y-3.0919
X5.574Y-2.3419
X5.974Y-2.3419
X7.074Y-5.3419
X7.474Y-5.3419
X8.024Y-4.7669
X8.024Y-5.1669
X7.074Y-3.8419
X7.474Y-3.8419
X5.574Y-3.0919
X5.974Y-3.0919
T2
X5.679Y-5.6169
X6.619Y-5.6169
X8.299Y-4.4969
X8.299Y-5.4369
T3
X7.274Y-3.8419
X5.774Y-3.0919
X8.024Y-3.8419
X6.524Y-4.5919
X5.774Y-3.8419
X8.024Y-3.0919
X5.774Y-4.5919
X5.679Y-5.0169
X6.149Y-5.3419
X6.619Y-5.0169
X7.274Y-2.3419
X7.274Y-4.5919
X6.524Y-3.8419
X6.524Y-2.3419
X7.274Y-3.0919
X6.524Y-3.0919
X5.774Y-2.3419
X7.274Y-5.3419
X7.699Y-4.4969
X7.699Y-5.4369
X8.024Y-4.9669
T0
M30
