%TF.GenerationSoftware,KiCad,Pcbnew,(5.1.7)-1*%
%TF.CreationDate,2020-12-03T19:41:16-08:00*%
%TF.ProjectId,macropad3,6d616372-6f70-4616-9433-2e6b69636164,rev?*%
%TF.SameCoordinates,Original*%
%TF.FileFunction,Soldermask,Top*%
%TF.FilePolarity,Negative*%
%FSLAX46Y46*%
G04 Gerber Fmt 4.6, Leading zero omitted, Abs format (unit mm)*
G04 Created by KiCad (PCBNEW (5.1.7)-1) date 2020-12-03 19:41:16*
%MOMM*%
%LPD*%
G01*
G04 APERTURE LIST*
%ADD10C,3.987800*%
%ADD11C,3.048000*%
%ADD12C,1.750000*%
%ADD13C,1.600000*%
%ADD14R,1.600000X1.600000*%
%ADD15R,2.000000X2.000000*%
%ADD16C,2.000000*%
%ADD17R,3.200000X2.000000*%
%ADD18C,4.400000*%
G04 APERTURE END LIST*
D10*
%TO.C,K-ENT1*%
X150549508Y-114412405D03*
X150549508Y-138288405D03*
D11*
X165789508Y-114412405D03*
X165789508Y-138288405D03*
D12*
X158804508Y-121270405D03*
X158804508Y-131430405D03*
D10*
X158804508Y-126350405D03*
%TD*%
%TO.C,K-0*%
X123117508Y-127620405D03*
X99241508Y-127620405D03*
D11*
X123117508Y-142860405D03*
X99241508Y-142860405D03*
D12*
X116259508Y-135875405D03*
X106099508Y-135875405D03*
D10*
X111179508Y-135875405D03*
%TD*%
D13*
%TO.C,U1*%
X113084532Y-52055405D03*
X113084532Y-54595405D03*
X113084532Y-57135405D03*
X113084532Y-59675405D03*
X113084532Y-62215405D03*
X113084532Y-64755405D03*
X113084532Y-67295405D03*
X113084532Y-69835405D03*
X113084532Y-72375405D03*
X113084532Y-74915405D03*
X113084532Y-77455405D03*
X113084532Y-79995405D03*
X128324532Y-79995405D03*
X128324532Y-77455405D03*
X128324532Y-74915405D03*
X128324532Y-72375405D03*
X128324532Y-69835405D03*
X128324532Y-67295405D03*
X128324532Y-64755405D03*
X128324532Y-62215405D03*
X128324532Y-59675405D03*
X128324532Y-57135405D03*
X128324532Y-54595405D03*
D14*
X128324532Y-52055405D03*
%TD*%
D15*
%TO.C,SW1*%
X151304508Y-57294155D03*
D16*
X151304508Y-59794155D03*
X151304508Y-62294155D03*
D17*
X158804508Y-54194155D03*
X158804508Y-65394155D03*
D16*
X165804508Y-57294155D03*
X165804508Y-62294155D03*
%TD*%
D10*
%TO.C,K-STAR1*%
X139754508Y-59675405D03*
D12*
X134674508Y-59675405D03*
X144834508Y-59675405D03*
%TD*%
D10*
%TO.C,K-PLUS1*%
X158804508Y-97775405D03*
D12*
X153724508Y-97775405D03*
X163884508Y-97775405D03*
%TD*%
%TO.C,K-NUM1*%
X106734508Y-59675405D03*
X96574508Y-59675405D03*
D10*
X101654508Y-59675405D03*
%TD*%
%TO.C,K-MIN1*%
X158804508Y-78725405D03*
D12*
X153724508Y-78725405D03*
X163884508Y-78725405D03*
%TD*%
D10*
%TO.C,K-DEL1*%
X139754508Y-135875405D03*
D12*
X134674508Y-135875405D03*
X144834508Y-135875405D03*
%TD*%
D10*
%TO.C,K-/1*%
X120704508Y-59675405D03*
D12*
X115624508Y-59675405D03*
X125784508Y-59675405D03*
%TD*%
D10*
%TO.C,K-9*%
X139754508Y-78725405D03*
D12*
X134674508Y-78725405D03*
X144834508Y-78725405D03*
%TD*%
D10*
%TO.C,K-8*%
X120704508Y-78725405D03*
D12*
X115624508Y-78725405D03*
X125784508Y-78725405D03*
%TD*%
D10*
%TO.C,K-7*%
X101654508Y-78725405D03*
D12*
X96574508Y-78725405D03*
X106734508Y-78725405D03*
%TD*%
D10*
%TO.C,K-6*%
X139754508Y-97775405D03*
D12*
X134674508Y-97775405D03*
X144834508Y-97775405D03*
%TD*%
D10*
%TO.C,K-5*%
X120704508Y-97775405D03*
D12*
X115624508Y-97775405D03*
X125784508Y-97775405D03*
%TD*%
D10*
%TO.C,K-4*%
X101654508Y-97775405D03*
D12*
X96574508Y-97775405D03*
X106734508Y-97775405D03*
%TD*%
D10*
%TO.C,K-1*%
X101654516Y-116825381D03*
D12*
X96574516Y-116825381D03*
X106734516Y-116825381D03*
%TD*%
D10*
%TO.C,K-2*%
X120704508Y-116825405D03*
D12*
X115624508Y-116825405D03*
X125784508Y-116825405D03*
%TD*%
D10*
%TO.C,K-3*%
X139754548Y-116825381D03*
D12*
X134674548Y-116825381D03*
X144834548Y-116825381D03*
%TD*%
D18*
%TO.C,H5*%
X108798272Y-69200341D03*
%TD*%
%TO.C,H4*%
X148088930Y-126350389D03*
%TD*%
%TO.C,H3*%
X130229540Y-97775365D03*
%TD*%
%TO.C,H2*%
X149279556Y-69826199D03*
%TD*%
%TO.C,H1*%
X111179524Y-125755076D03*
%TD*%
M02*
