M48
; DRILL file {KiCad (5.1.7)-1} date 12/04/20 00:36:15
; FORMAT={-:-/ absolute / inch / decimal}
; #@! TF.CreationDate,2020-12-04T00:36:15-08:00
; #@! TF.GenerationSoftware,Kicad,Pcbnew,(5.1.7)-1
; #@! TF.FileFunction,Plated,1,2,PTH
FMAT,2
INCH
T1C0.0157
T2C0.0394
T3C0.0409
T4C0.0433
T5C0.0579
T6C0.0591
T7C0.0866
%
G90
G05
T1
X3.7264Y-2.635
X3.7264Y-3.38
X3.795Y-3.4243
X4.19Y-2.58
X4.29Y-2.4
X4.41Y-3.3804
X4.4504Y-3.3804
X4.6307Y-3.395
X4.925Y-3.4
X5.49Y-4.8751
X5.72Y-4.725
X5.76Y-4.05
X5.865Y-3.2879
X5.905Y-3.3056
X5.955Y-3.3233
T2
X5.9569Y-2.2557
X5.9569Y-2.3541
X5.9569Y-2.4525
X6.5277Y-2.2557
X6.5277Y-2.4525
X3.895Y-2.67
X3.895Y-2.77
X3.995Y-2.67
X3.995Y-2.77
X4.095Y-2.67
X4.095Y-2.77
T3
X6.4521Y-4.9244
X6.4521Y-5.0244
X3.9521Y-2.5494
X4.0521Y-2.5494
X4.3271Y-5.5494
X4.4271Y-5.5494
T4
X4.4521Y-2.0494
X4.4521Y-2.1494
X4.4521Y-2.2494
X4.4521Y-2.3494
X4.4521Y-2.4494
X4.4521Y-2.5494
X4.4521Y-2.6494
X4.4521Y-2.7494
X4.4521Y-2.8494
X4.4521Y-2.9494
X4.4521Y-3.0494
X4.4521Y-3.1494
X5.0521Y-2.0494
X5.0521Y-2.1494
X5.0521Y-2.2494
X5.0521Y-2.3494
X5.0521Y-2.4494
X5.0521Y-2.5494
X5.0521Y-2.6494
X5.0521Y-2.7494
X5.0521Y-2.8494
X5.0521Y-2.9494
X5.0521Y-3.0494
X5.0521Y-3.1494
T5
X4.2271Y-5.2494
X4.4771Y-5.1494
X3.8521Y-3.7494
X4.1021Y-3.6494
X5.3521Y-2.9994
X5.6021Y-2.8994
X5.3521Y-5.2494
X5.6021Y-5.1494
X6.0521Y-4.8744
X6.1521Y-5.1244
X3.8521Y-4.4994
X4.1021Y-4.3994
X4.6021Y-2.9994
X4.8521Y-2.8994
X4.6021Y-4.4994
X4.8521Y-4.3994
X4.6021Y-3.7494
X4.8521Y-3.6494
X4.6021Y-2.2494
X4.8521Y-2.1494
X3.8521Y-2.9994
X4.1021Y-2.8994
X5.3521Y-3.7494
X5.6021Y-3.6494
X5.3521Y-2.2494
X5.6021Y-2.1494
X3.8521Y-2.2494
X4.1021Y-2.1494
X6.1021Y-2.9994
X6.3521Y-2.8994
X6.1021Y-3.7494
X6.3521Y-3.6494
X5.3521Y-4.4994
X5.6021Y-4.3994
T7
X5.8303Y-4.9744
X4.3771Y-4.951
X4.2834Y-2.7244
X5.8771Y-2.7491
X5.1271Y-3.8494
T6
G00X6.2266Y-2.1336
M15
G01X6.2777Y-2.1336
M16
G05
G00X6.2266Y-2.5746
M15
G01X6.2777Y-2.5746
M16
G05
T0
M30
