M48
; DRILL file {KiCad (5.1.7)-1} date 12/03/20 19:41:21
; FORMAT={-:-/ absolute / inch / decimal}
; #@! TF.CreationDate,2020-12-03T19:41:21-08:00
; #@! TF.GenerationSoftware,Kicad,Pcbnew,(5.1.7)-1
; #@! TF.FileFunction,NonPlated,1,2,NPTH
FMAT,2
INCH
T1C0.0689
T2C0.1200
T3C0.1570
%
G90
G05
T1
X4.5521Y-3.8494
X4.9521Y-3.8494
X3.8021Y-3.8494
X4.2021Y-3.8494
X5.3021Y-5.3494
X5.7021Y-5.3494
X5.3021Y-2.3494
X5.7021Y-2.3494
X3.8021Y-4.5994
X4.2021Y-4.5994
X5.3021Y-4.5994
X5.7021Y-4.5994
X4.5521Y-2.3494
X4.9521Y-2.3494
X4.5521Y-3.0994
X4.9521Y-3.0994
X6.0521Y-3.0994
X6.4521Y-3.0994
X5.3021Y-3.0994
X5.7021Y-3.0994
X5.3021Y-3.8494
X5.7021Y-3.8494
X3.8021Y-2.3494
X4.2021Y-2.3494
X4.1771Y-5.3494
X4.5771Y-5.3494
X3.8021Y-3.0994
X4.2021Y-3.0994
X4.5521Y-4.5994
X4.9521Y-4.5994
X6.0521Y-3.8494
X6.4521Y-3.8494
X6.2521Y-4.7744
X6.2521Y-5.1744
T2
X3.9071Y-5.6244
X4.8471Y-5.6244
X6.5271Y-4.5044
X6.5271Y-5.4444
T3
X6.2521Y-3.0994
X5.5021Y-3.0994
X5.5021Y-3.8494
X4.0021Y-2.3494
X3.9071Y-5.0244
X4.3771Y-5.3494
X4.8471Y-5.0244
X4.0021Y-3.0994
X4.7521Y-4.5994
X6.2521Y-3.8494
X5.9271Y-4.5044
X5.9271Y-5.4444
X6.2521Y-4.9744
X4.7521Y-3.8494
X4.0021Y-3.8494
X5.5021Y-5.3494
X5.5021Y-2.3494
X4.0021Y-4.5994
X5.5021Y-4.5994
X4.7521Y-2.3494
X4.7521Y-3.0994
T0
M30
