G04 #@! TF.GenerationSoftware,KiCad,Pcbnew,(5.1.7)-1*
G04 #@! TF.CreationDate,2020-12-06T21:30:45-08:00*
G04 #@! TF.ProjectId,plate pcb,706c6174-6520-4706-9362-2e6b69636164,rev?*
G04 #@! TF.SameCoordinates,Original*
G04 #@! TF.FileFunction,Legend,Top*
G04 #@! TF.FilePolarity,Positive*
%FSLAX46Y46*%
G04 Gerber Fmt 4.6, Leading zero omitted, Abs format (unit mm)*
G04 Created by KiCad (PCBNEW (5.1.7)-1) date 2020-12-06 21:30:45*
%MOMM*%
%LPD*%
G01*
G04 APERTURE LIST*
%ADD10C,0.150000*%
G04 APERTURE END LIST*
D10*
X105793781Y-121419571D02*
X105793781Y-120419571D01*
X105793781Y-120895762D02*
X106365209Y-120895762D01*
X106365209Y-121419571D02*
X106365209Y-120419571D01*
X107317590Y-120419571D02*
X106841400Y-120419571D01*
X106793781Y-120895762D01*
X106841400Y-120848143D01*
X106936638Y-120800524D01*
X107174733Y-120800524D01*
X107269971Y-120848143D01*
X107317590Y-120895762D01*
X107365209Y-120991000D01*
X107365209Y-121229095D01*
X107317590Y-121324333D01*
X107269971Y-121371952D01*
X107174733Y-121419571D01*
X106936638Y-121419571D01*
X106841400Y-121371952D01*
X106793781Y-121324333D01*
X144043252Y-71295745D02*
X144043252Y-70295745D01*
X144043252Y-70771936D02*
X144614680Y-70771936D01*
X144614680Y-71295745D02*
X144614680Y-70295745D01*
X145519442Y-70629079D02*
X145519442Y-71295745D01*
X145281347Y-70248126D02*
X145043252Y-70962412D01*
X145662299Y-70962412D01*
X99840651Y-71271096D02*
X99840651Y-70271096D01*
X99840651Y-70747287D02*
X100412079Y-70747287D01*
X100412079Y-71271096D02*
X100412079Y-70271096D01*
X100793032Y-70271096D02*
X101412079Y-70271096D01*
X101078746Y-70652049D01*
X101221603Y-70652049D01*
X101316841Y-70699668D01*
X101364460Y-70747287D01*
X101412079Y-70842525D01*
X101412079Y-71080620D01*
X101364460Y-71175858D01*
X101316841Y-71223477D01*
X101221603Y-71271096D01*
X100935889Y-71271096D01*
X100840651Y-71223477D01*
X100793032Y-71175858D01*
X125018602Y-99871446D02*
X125018602Y-98871446D01*
X125018602Y-99347637D02*
X125590030Y-99347637D01*
X125590030Y-99871446D02*
X125590030Y-98871446D01*
X126018602Y-98966685D02*
X126066221Y-98919066D01*
X126161459Y-98871446D01*
X126399554Y-98871446D01*
X126494792Y-98919066D01*
X126542411Y-98966685D01*
X126590030Y-99061923D01*
X126590030Y-99157161D01*
X126542411Y-99300018D01*
X125970983Y-99871446D01*
X126590030Y-99871446D01*
X138017902Y-128421295D02*
X138017902Y-127421295D01*
X138017902Y-127897486D02*
X138589330Y-127897486D01*
X138589330Y-128421295D02*
X138589330Y-127421295D01*
X139589330Y-128421295D02*
X139017902Y-128421295D01*
X139303616Y-128421295D02*
X139303616Y-127421295D01*
X139208378Y-127564153D01*
X139113140Y-127659391D01*
X139017902Y-127707010D01*
M02*
