G04 #@! TF.GenerationSoftware,KiCad,Pcbnew,(5.1.7)-1*
G04 #@! TF.CreationDate,2020-12-06T21:30:45-08:00*
G04 #@! TF.ProjectId,plate pcb,706c6174-6520-4706-9362-2e6b69636164,rev?*
G04 #@! TF.SameCoordinates,Original*
G04 #@! TF.FileFunction,Profile,NP*
%FSLAX46Y46*%
G04 Gerber Fmt 4.6, Leading zero omitted, Abs format (unit mm)*
G04 Created by KiCad (PCBNEW (5.1.7)-1) date 2020-12-06 21:30:45*
%MOMM*%
%LPD*%
G01*
G04 APERTURE LIST*
G04 #@! TA.AperFunction,Profile*
%ADD10C,0.150000*%
G04 #@! TD*
G04 APERTURE END LIST*
D10*
X142279807Y-130968916D02*
X128280507Y-130968916D01*
X142279807Y-116969516D02*
X142279807Y-130968916D01*
X161329807Y-73818716D02*
X147330507Y-73818716D01*
X109230507Y-116969516D02*
X123229807Y-116969516D01*
X142279807Y-136019416D02*
X142279807Y-150018876D01*
X123229807Y-73818716D02*
X109230507Y-73818716D01*
X161329807Y-92868716D02*
X147330507Y-92868716D01*
X161329807Y-78868016D02*
X161329807Y-92868716D01*
X90180457Y-97919416D02*
X104180007Y-97919416D01*
X109230507Y-111918716D02*
X109230507Y-97919416D01*
X123229807Y-78868016D02*
X123229807Y-92868716D01*
X147330507Y-111918716D02*
X147330507Y-97919416D01*
X90180457Y-73818716D02*
X90180457Y-59819416D01*
X123229807Y-59819416D02*
X123229807Y-73818716D01*
X147330507Y-73818716D02*
X147330507Y-59819416D01*
X109230507Y-73818716D02*
X109230507Y-59819416D01*
X104180007Y-97919416D02*
X104180007Y-111918716D01*
X142279807Y-111918716D02*
X128280507Y-111918716D01*
X142279807Y-73818716D02*
X128280507Y-73818716D01*
X90180457Y-78868016D02*
X104180007Y-78868016D01*
X142279807Y-92868716D02*
X128280507Y-92868716D01*
X128280507Y-92868716D02*
X128280507Y-78868016D01*
X147330507Y-97919416D02*
X161329807Y-97919416D01*
X142279807Y-97919416D02*
X142279807Y-111918716D01*
X128280507Y-73818716D02*
X128280507Y-59819416D01*
X147330507Y-78868016D02*
X161329807Y-78868016D01*
X109230507Y-92868716D02*
X109230507Y-78868016D01*
X147330507Y-92868716D02*
X147330507Y-78868016D01*
X128280507Y-111918716D02*
X128280507Y-97919416D01*
X142279807Y-59819416D02*
X142279807Y-73818716D01*
X90180457Y-130968916D02*
X90180457Y-116969516D01*
X147330507Y-59819416D02*
X161329807Y-59819416D01*
X109230507Y-78868016D02*
X123229807Y-78868016D01*
X128280507Y-59819416D02*
X142279807Y-59819416D01*
X104180007Y-92868716D02*
X90180457Y-92868716D01*
X123229807Y-111918716D02*
X109230507Y-111918716D01*
X104180007Y-130968916D02*
X90180457Y-130968916D01*
X128280507Y-78868016D02*
X142279807Y-78868016D01*
X104180007Y-111918716D02*
X90180457Y-111918716D01*
X161329807Y-97919416D02*
X161329807Y-111918716D01*
X90180457Y-111918716D02*
X90180457Y-97919416D01*
X123229807Y-97919416D02*
X123229807Y-111918716D01*
X128280507Y-97919416D02*
X142279807Y-97919416D01*
X104180007Y-73818716D02*
X90180457Y-73818716D01*
X104180007Y-78868016D02*
X104180007Y-92868716D01*
X90180457Y-59819416D02*
X104180007Y-59819416D01*
X109230507Y-97919416D02*
X123229807Y-97919416D01*
X161329807Y-111918716D02*
X147330507Y-111918716D01*
X90180457Y-92868716D02*
X90180457Y-78868016D01*
X123229807Y-92868716D02*
X109230507Y-92868716D01*
X142279807Y-78868016D02*
X142279807Y-92868716D01*
X109230507Y-59819416D02*
X123229807Y-59819416D01*
X156630807Y-118219216D02*
X156630807Y-117393816D01*
X123229807Y-116969516D02*
X123229807Y-130968916D01*
X147330507Y-126494416D02*
X147330507Y-140493916D01*
X153830807Y-118219216D02*
X147560507Y-118219216D01*
X147560507Y-123243616D02*
X147560507Y-124968916D01*
X122805507Y-140719916D02*
X121980107Y-140719916D01*
X121980107Y-140719916D02*
X121980107Y-137489716D01*
X128280507Y-130968916D02*
X128280507Y-116969516D01*
X153830807Y-148768996D02*
X153830807Y-149594446D01*
X113704907Y-136019416D02*
X99705507Y-136019416D01*
X147560507Y-124968916D02*
X152030907Y-124968916D01*
X159860807Y-124968916D02*
X159860807Y-118219216D01*
X156630807Y-124968916D02*
X159860807Y-124968916D01*
X147560507Y-147043706D02*
X147560507Y-148768996D01*
X116955707Y-149788746D02*
X116955707Y-150989016D01*
X161329807Y-140493916D02*
X161329807Y-126494416D01*
X156630807Y-117393816D02*
X153830807Y-117393816D01*
X159860807Y-118219216D02*
X156630807Y-118219216D01*
X116955707Y-150989016D02*
X120254807Y-150989016D01*
X159860807Y-142019416D02*
X156630807Y-142019416D01*
X156630807Y-126494416D02*
X156630807Y-124968916D01*
X113704907Y-140719916D02*
X113704907Y-136019416D01*
X156630807Y-140493916D02*
X161329807Y-140493916D01*
X152030907Y-126494416D02*
X147330507Y-126494416D01*
X159860807Y-148768996D02*
X159860807Y-142019416D01*
X147330507Y-140493916D02*
X152030907Y-140493916D01*
X153830807Y-117393816D02*
X153830807Y-118219216D01*
X128280507Y-150018876D02*
X128280507Y-136019416D01*
X121980107Y-143518676D02*
X122805507Y-143518676D01*
X156630807Y-148768996D02*
X159860807Y-148768996D01*
X146360407Y-147043706D02*
X147560507Y-147043706D01*
X147560507Y-143744666D02*
X146360407Y-143744666D01*
X146360407Y-119944616D02*
X146360407Y-123243616D01*
X147560507Y-148768996D02*
X153830807Y-148768996D01*
X152030907Y-124968916D02*
X152030907Y-126494416D01*
X147560507Y-119944616D02*
X146360407Y-119944616D01*
X122805507Y-143518676D02*
X122805507Y-140719916D01*
X128280507Y-136019416D02*
X142279807Y-136019416D01*
X115230407Y-140719916D02*
X113704907Y-140719916D01*
X120254807Y-149788746D02*
X121980107Y-149788746D01*
X120254807Y-150989016D02*
X120254807Y-149788746D01*
X161329807Y-126494416D02*
X156630807Y-126494416D01*
X153830807Y-149594446D02*
X156630807Y-149594446D01*
X146360407Y-123243616D02*
X147560507Y-123243616D01*
X128280507Y-116969516D02*
X142279807Y-116969516D01*
X121980107Y-137489716D02*
X115230407Y-137489716D01*
X121980107Y-149788746D02*
X121980107Y-143518676D01*
X152030907Y-140493916D02*
X152030907Y-142019416D01*
X147560507Y-118219216D02*
X147560507Y-119944616D01*
X115230407Y-137489716D02*
X115230407Y-140719916D01*
X156630807Y-149594446D02*
X156630807Y-148768996D01*
X156630807Y-142019416D02*
X156630807Y-140493916D01*
X146360407Y-143744666D02*
X146360407Y-147043706D01*
X104180007Y-116969516D02*
X104180007Y-130968916D01*
X90180457Y-116969516D02*
X104180007Y-116969516D01*
X109230507Y-130968916D02*
X109230507Y-116969516D01*
X147560507Y-142019416D02*
X147560507Y-143744666D01*
X152030907Y-142019416D02*
X147560507Y-142019416D01*
X123229807Y-130968916D02*
X109230507Y-130968916D01*
X93155647Y-149788746D02*
X93155647Y-150989016D01*
X99705507Y-145318406D02*
X99705507Y-150018876D01*
X91430357Y-143518676D02*
X91430357Y-149788746D01*
X90604897Y-143518676D02*
X91430357Y-143518676D01*
X115230407Y-149788746D02*
X116955707Y-149788746D01*
X115230407Y-145318406D02*
X115230407Y-149788746D01*
X113704907Y-145318406D02*
X115230407Y-145318406D01*
X113704907Y-150018876D02*
X113704907Y-145318406D01*
X96454657Y-149788746D02*
X98180007Y-149788746D01*
X99705507Y-140719916D02*
X98180007Y-140719916D01*
X99705507Y-150018876D02*
X113704907Y-150018876D01*
X91430357Y-137489716D02*
X91430357Y-140719916D01*
X98180007Y-149788746D02*
X98180007Y-145318406D01*
X98180007Y-145318406D02*
X99705507Y-145318406D01*
X96454657Y-150989016D02*
X96454657Y-149788746D01*
X91430357Y-149788746D02*
X93155647Y-149788746D01*
X93155647Y-150989016D02*
X96454657Y-150989016D01*
X90604897Y-140719916D02*
X90604897Y-143518676D01*
X91430357Y-140719916D02*
X90604897Y-140719916D01*
X99705507Y-136019416D02*
X99705507Y-140719916D01*
X98180007Y-137489716D02*
X91430357Y-137489716D01*
X98180007Y-140719916D02*
X98180007Y-137489716D01*
X162330032Y-57819065D02*
G75*
G02*
X163330032Y-58819065I0J-1000000D01*
G01*
X161329807Y-73818716D02*
X161329807Y-59819416D01*
X89180232Y-152019226D02*
G75*
G02*
X88180232Y-151019226I0J1000000D01*
G01*
X163330032Y-151019226D02*
G75*
G02*
X162330032Y-152019226I-1000000J0D01*
G01*
X88180232Y-66819065D02*
X88180232Y-58819065D01*
X89180232Y-57819065D02*
X162330032Y-57819065D01*
X104180007Y-73818716D02*
X104180007Y-59819416D01*
X88180232Y-151019226D02*
X88180232Y-66819065D01*
X88180232Y-58819065D02*
G75*
G02*
X89180232Y-57819065I1000000J0D01*
G01*
X135280032Y-152019226D02*
X162330032Y-152019226D01*
X135280032Y-152019226D02*
X89180232Y-152019226D01*
X163330032Y-151019226D02*
X163330032Y-58819065D01*
X142279807Y-150018876D02*
X128280507Y-150018876D01*
M02*
