%TF.GenerationSoftware,KiCad,Pcbnew,(5.1.7)-1*%
%TF.CreationDate,2020-12-03T19:41:16-08:00*%
%TF.ProjectId,macropad3,6d616372-6f70-4616-9433-2e6b69636164,rev?*%
%TF.SameCoordinates,Original*%
%TF.FileFunction,Legend,Bot*%
%TF.FilePolarity,Positive*%
%FSLAX46Y46*%
G04 Gerber Fmt 4.6, Leading zero omitted, Abs format (unit mm)*
G04 Created by KiCad (PCBNEW (5.1.7)-1) date 2020-12-03 19:41:16*
%MOMM*%
%LPD*%
G01*
G04 APERTURE LIST*
%ADD10C,0.120000*%
%ADD11C,0.150000*%
%ADD12C,0.100000*%
G04 APERTURE END LIST*
D10*
%TO.C,D2*%
X105631081Y-85737853D02*
X103631081Y-85737853D01*
X103631081Y-85737853D02*
X103631081Y-81837853D01*
X105631081Y-85737853D02*
X105631081Y-81837853D01*
D11*
%TO.C,U1*%
X129594532Y-50785405D02*
X129594532Y-81265405D01*
X129594532Y-50785405D02*
X124514532Y-50785405D01*
X124514532Y-50785405D02*
X124514532Y-48245405D01*
X124514532Y-48245405D02*
X116894532Y-48245405D01*
X116894532Y-48245405D02*
X116894532Y-50785405D01*
X116894532Y-50785405D02*
X111814532Y-50785405D01*
X111814532Y-50785405D02*
X111814532Y-81265405D01*
X111814532Y-81265405D02*
X129594532Y-81265405D01*
D10*
%TO.C,D6*%
X136051418Y-52126890D02*
X136051418Y-54126890D01*
X136051418Y-54126890D02*
X132151418Y-54126890D01*
X136051418Y-52126890D02*
X132151418Y-52126890D01*
%TO.C,SW2*%
X110113898Y-64711585D02*
X110113898Y-64831585D01*
X110113898Y-62561585D02*
X110113898Y-63701585D01*
X110113898Y-61431585D02*
X110113898Y-61551585D01*
X105713898Y-61431585D02*
X110113898Y-61431585D01*
X105713898Y-61551585D02*
X105713898Y-61431585D01*
X105713898Y-63701585D02*
X105713898Y-62561585D01*
X105713898Y-64831585D02*
X105713898Y-64711585D01*
X110113898Y-64831585D02*
X105713898Y-64831585D01*
%TO.C,R1*%
X95586699Y-64342211D02*
X95586699Y-64864715D01*
X97006699Y-64342211D02*
X97006699Y-64864715D01*
%TO.C,D18*%
X149546747Y-121397259D02*
X149546747Y-119397259D01*
X149546747Y-119397259D02*
X153446747Y-119397259D01*
X149546747Y-121397259D02*
X153446747Y-121397259D01*
%TO.C,D17*%
X162781129Y-104651930D02*
X160781129Y-104651930D01*
X160781129Y-104651930D02*
X160781129Y-100751930D01*
X162781129Y-104651930D02*
X162781129Y-100751930D01*
%TO.C,D16*%
X162781129Y-85601914D02*
X160781129Y-85601914D01*
X160781129Y-85601914D02*
X160781129Y-81701914D01*
X162781129Y-85601914D02*
X162781129Y-81701914D01*
%TO.C,D15*%
X150737373Y-54126890D02*
X150737373Y-52126890D01*
X150737373Y-52126890D02*
X154637373Y-52126890D01*
X150737373Y-54126890D02*
X154637373Y-54126890D01*
%TO.C,D14*%
X138235800Y-128541015D02*
X138235800Y-126541015D01*
X138235800Y-126541015D02*
X142135800Y-126541015D01*
X138235800Y-128541015D02*
X142135800Y-128541015D01*
%TO.C,D13*%
X144326426Y-123837885D02*
X142326426Y-123837885D01*
X142326426Y-123837885D02*
X142326426Y-119937885D01*
X144326426Y-123837885D02*
X144326426Y-119937885D01*
%TO.C,D12*%
X143731113Y-104651930D02*
X141731113Y-104651930D01*
X141731113Y-104651930D02*
X141731113Y-100751930D01*
X143731113Y-104651930D02*
X143731113Y-100751930D01*
%TO.C,D11*%
X143731113Y-85737853D02*
X141731113Y-85737853D01*
X141731113Y-85737853D02*
X141731113Y-81837853D01*
X143731113Y-85737853D02*
X143731113Y-81837853D01*
%TO.C,D10*%
X144112365Y-51608142D02*
X146112365Y-51608142D01*
X146112365Y-51608142D02*
X146112365Y-55508142D01*
X144112365Y-51608142D02*
X144112365Y-55508142D01*
%TO.C,D9*%
X125276410Y-123701946D02*
X123276410Y-123701946D01*
X123276410Y-123701946D02*
X123276410Y-119801946D01*
X125276410Y-123701946D02*
X125276410Y-119801946D01*
%TO.C,D8*%
X124681097Y-104787869D02*
X122681097Y-104787869D01*
X122681097Y-104787869D02*
X122681097Y-100887869D01*
X124681097Y-104787869D02*
X124681097Y-100887869D01*
%TO.C,D7*%
X124681097Y-85737853D02*
X122681097Y-85737853D01*
X122681097Y-85737853D02*
X122681097Y-81837853D01*
X124681097Y-85737853D02*
X124681097Y-81837853D01*
%TO.C,D5*%
X116727967Y-128131641D02*
X118727967Y-128131641D01*
X118727967Y-128131641D02*
X118727967Y-132031641D01*
X116727967Y-128131641D02*
X116727967Y-132031641D01*
%TO.C,D4*%
X106226394Y-123701946D02*
X104226394Y-123701946D01*
X104226394Y-123701946D02*
X104226394Y-119801946D01*
X106226394Y-123701946D02*
X106226394Y-119801946D01*
%TO.C,D3*%
X105631081Y-104787869D02*
X103631081Y-104787869D01*
X103631081Y-104787869D02*
X103631081Y-100887869D01*
X105631081Y-104787869D02*
X105631081Y-100887869D01*
%TO.C,D1*%
X109798272Y-57162829D02*
X107798272Y-57162829D01*
X107798272Y-57162829D02*
X107798272Y-53262829D01*
X109798272Y-57162829D02*
X109798272Y-53262829D01*
%TD*%
D12*
%TO.C,U1*%
X113834532Y-52055405D02*
G75*
G03*
X113834532Y-52055405I-750000J0D01*
G01*
X113834532Y-54595405D02*
G75*
G03*
X113834532Y-54595405I-750000J0D01*
G01*
X113834532Y-57135405D02*
G75*
G03*
X113834532Y-57135405I-750000J0D01*
G01*
X113834532Y-59675405D02*
G75*
G03*
X113834532Y-59675405I-750000J0D01*
G01*
X113834532Y-62215405D02*
G75*
G03*
X113834532Y-62215405I-750000J0D01*
G01*
X113834532Y-64755405D02*
G75*
G03*
X113834532Y-64755405I-750000J0D01*
G01*
X113834532Y-67295405D02*
G75*
G03*
X113834532Y-67295405I-750000J0D01*
G01*
X113834532Y-69835405D02*
G75*
G03*
X113834532Y-69835405I-750000J0D01*
G01*
X113834532Y-72375405D02*
G75*
G03*
X113834532Y-72375405I-750000J0D01*
G01*
X113834532Y-74915405D02*
G75*
G03*
X113834532Y-74915405I-750000J0D01*
G01*
X113834532Y-77455405D02*
G75*
G03*
X113834532Y-77455405I-750000J0D01*
G01*
X113834532Y-79995405D02*
G75*
G03*
X113834532Y-79995405I-750000J0D01*
G01*
X129074532Y-79995405D02*
G75*
G03*
X129074532Y-79995405I-750000J0D01*
G01*
X129074532Y-77455405D02*
G75*
G03*
X129074532Y-77455405I-750000J0D01*
G01*
X129074532Y-74915405D02*
G75*
G03*
X129074532Y-74915405I-750000J0D01*
G01*
X129074532Y-72375405D02*
G75*
G03*
X129074532Y-72375405I-750000J0D01*
G01*
X129074532Y-69835405D02*
G75*
G03*
X129074532Y-69835405I-750000J0D01*
G01*
X129074532Y-67295405D02*
G75*
G03*
X129074532Y-67295405I-750000J0D01*
G01*
X129074532Y-64755405D02*
G75*
G03*
X129074532Y-64755405I-750000J0D01*
G01*
X129074532Y-62215405D02*
G75*
G03*
X129074532Y-62215405I-750000J0D01*
G01*
X129074532Y-59675405D02*
G75*
G03*
X129074532Y-59675405I-750000J0D01*
G01*
X129074532Y-57135405D02*
G75*
G03*
X129074532Y-57135405I-750000J0D01*
G01*
X129074532Y-54595405D02*
G75*
G03*
X129074532Y-54595405I-750000J0D01*
G01*
X127574532Y-51305405D02*
X127574532Y-52805405D01*
X129074532Y-52805405D01*
X129074532Y-51305405D01*
X127574532Y-51305405D01*
%TD*%
%TO.C,D2*%
D11*
X107083461Y-82749757D02*
X106083461Y-82749757D01*
X106083461Y-82987853D01*
X106131081Y-83130710D01*
X106226319Y-83225948D01*
X106321557Y-83273567D01*
X106512033Y-83321186D01*
X106654890Y-83321186D01*
X106845366Y-83273567D01*
X106940604Y-83225948D01*
X107035842Y-83130710D01*
X107083461Y-82987853D01*
X107083461Y-82749757D01*
X106178700Y-83702138D02*
X106131081Y-83749757D01*
X106083461Y-83844995D01*
X106083461Y-84083091D01*
X106131081Y-84178329D01*
X106178700Y-84225948D01*
X106273938Y-84273567D01*
X106369176Y-84273567D01*
X106512033Y-84225948D01*
X107083461Y-83654519D01*
X107083461Y-84273567D01*
%TO.C,D6*%
X134539513Y-51579270D02*
X134539513Y-50579270D01*
X134301418Y-50579270D01*
X134158560Y-50626890D01*
X134063322Y-50722128D01*
X134015703Y-50817366D01*
X133968084Y-51007842D01*
X133968084Y-51150699D01*
X134015703Y-51341175D01*
X134063322Y-51436413D01*
X134158560Y-51531651D01*
X134301418Y-51579270D01*
X134539513Y-51579270D01*
X133110941Y-50579270D02*
X133301418Y-50579270D01*
X133396656Y-50626890D01*
X133444275Y-50674509D01*
X133539513Y-50817366D01*
X133587132Y-51007842D01*
X133587132Y-51388794D01*
X133539513Y-51484032D01*
X133491894Y-51531651D01*
X133396656Y-51579270D01*
X133206179Y-51579270D01*
X133110941Y-51531651D01*
X133063322Y-51484032D01*
X133015703Y-51388794D01*
X133015703Y-51150699D01*
X133063322Y-51055461D01*
X133110941Y-51007842D01*
X133206179Y-50960223D01*
X133396656Y-50960223D01*
X133491894Y-51007842D01*
X133539513Y-51055461D01*
X133587132Y-51150699D01*
%TO.C,SW2*%
X109247231Y-66136346D02*
X109104374Y-66183965D01*
X108866278Y-66183965D01*
X108771040Y-66136346D01*
X108723421Y-66088727D01*
X108675802Y-65993489D01*
X108675802Y-65898251D01*
X108723421Y-65803013D01*
X108771040Y-65755394D01*
X108866278Y-65707775D01*
X109056755Y-65660156D01*
X109151993Y-65612537D01*
X109199612Y-65564918D01*
X109247231Y-65469680D01*
X109247231Y-65374442D01*
X109199612Y-65279204D01*
X109151993Y-65231585D01*
X109056755Y-65183965D01*
X108818659Y-65183965D01*
X108675802Y-65231585D01*
X108342469Y-65183965D02*
X108104374Y-66183965D01*
X107913898Y-65469680D01*
X107723421Y-66183965D01*
X107485326Y-65183965D01*
X107151993Y-65279204D02*
X107104374Y-65231585D01*
X107009136Y-65183965D01*
X106771040Y-65183965D01*
X106675802Y-65231585D01*
X106628183Y-65279204D01*
X106580564Y-65374442D01*
X106580564Y-65469680D01*
X106628183Y-65612537D01*
X107199612Y-66183965D01*
X106580564Y-66183965D01*
%TO.C,R1*%
X95099079Y-64436796D02*
X94622889Y-64103463D01*
X95099079Y-63865367D02*
X94099079Y-63865367D01*
X94099079Y-64246320D01*
X94146699Y-64341558D01*
X94194318Y-64389177D01*
X94289556Y-64436796D01*
X94432413Y-64436796D01*
X94527651Y-64389177D01*
X94575270Y-64341558D01*
X94622889Y-64246320D01*
X94622889Y-63865367D01*
X95099079Y-65389177D02*
X95099079Y-64817748D01*
X95099079Y-65103463D02*
X94099079Y-65103463D01*
X94241937Y-65008224D01*
X94337175Y-64912986D01*
X94384794Y-64817748D01*
%TO.C,D18*%
X153011032Y-122849639D02*
X153011032Y-121849639D01*
X152772937Y-121849639D01*
X152630080Y-121897259D01*
X152534842Y-121992497D01*
X152487223Y-122087735D01*
X152439604Y-122278211D01*
X152439604Y-122421068D01*
X152487223Y-122611544D01*
X152534842Y-122706782D01*
X152630080Y-122802020D01*
X152772937Y-122849639D01*
X153011032Y-122849639D01*
X151487223Y-122849639D02*
X152058651Y-122849639D01*
X151772937Y-122849639D02*
X151772937Y-121849639D01*
X151868175Y-121992497D01*
X151963413Y-122087735D01*
X152058651Y-122135354D01*
X150915794Y-122278211D02*
X151011032Y-122230592D01*
X151058651Y-122182973D01*
X151106270Y-122087735D01*
X151106270Y-122040116D01*
X151058651Y-121944878D01*
X151011032Y-121897259D01*
X150915794Y-121849639D01*
X150725318Y-121849639D01*
X150630080Y-121897259D01*
X150582461Y-121944878D01*
X150534842Y-122040116D01*
X150534842Y-122087735D01*
X150582461Y-122182973D01*
X150630080Y-122230592D01*
X150725318Y-122278211D01*
X150915794Y-122278211D01*
X151011032Y-122325830D01*
X151058651Y-122373449D01*
X151106270Y-122468687D01*
X151106270Y-122659163D01*
X151058651Y-122754401D01*
X151011032Y-122802020D01*
X150915794Y-122849639D01*
X150725318Y-122849639D01*
X150630080Y-122802020D01*
X150582461Y-122754401D01*
X150534842Y-122659163D01*
X150534842Y-122468687D01*
X150582461Y-122373449D01*
X150630080Y-122325830D01*
X150725318Y-122278211D01*
%TO.C,D17*%
X164233509Y-101187644D02*
X163233509Y-101187644D01*
X163233509Y-101425739D01*
X163281129Y-101568596D01*
X163376367Y-101663834D01*
X163471605Y-101711453D01*
X163662081Y-101759072D01*
X163804938Y-101759072D01*
X163995414Y-101711453D01*
X164090652Y-101663834D01*
X164185890Y-101568596D01*
X164233509Y-101425739D01*
X164233509Y-101187644D01*
X164233509Y-102711453D02*
X164233509Y-102140025D01*
X164233509Y-102425739D02*
X163233509Y-102425739D01*
X163376367Y-102330501D01*
X163471605Y-102235263D01*
X163519224Y-102140025D01*
X163233509Y-103044787D02*
X163233509Y-103711453D01*
X164233509Y-103282882D01*
%TO.C,D16*%
X164233509Y-82137628D02*
X163233509Y-82137628D01*
X163233509Y-82375723D01*
X163281129Y-82518580D01*
X163376367Y-82613818D01*
X163471605Y-82661437D01*
X163662081Y-82709056D01*
X163804938Y-82709056D01*
X163995414Y-82661437D01*
X164090652Y-82613818D01*
X164185890Y-82518580D01*
X164233509Y-82375723D01*
X164233509Y-82137628D01*
X164233509Y-83661437D02*
X164233509Y-83090009D01*
X164233509Y-83375723D02*
X163233509Y-83375723D01*
X163376367Y-83280485D01*
X163471605Y-83185247D01*
X163519224Y-83090009D01*
X163233509Y-84518580D02*
X163233509Y-84328104D01*
X163281129Y-84232866D01*
X163328748Y-84185247D01*
X163471605Y-84090009D01*
X163662081Y-84042390D01*
X164043033Y-84042390D01*
X164138271Y-84090009D01*
X164185890Y-84137628D01*
X164233509Y-84232866D01*
X164233509Y-84423342D01*
X164185890Y-84518580D01*
X164138271Y-84566199D01*
X164043033Y-84613818D01*
X163804938Y-84613818D01*
X163709700Y-84566199D01*
X163662081Y-84518580D01*
X163614462Y-84423342D01*
X163614462Y-84232866D01*
X163662081Y-84137628D01*
X163709700Y-84090009D01*
X163804938Y-84042390D01*
%TO.C,D15*%
X154201658Y-55579270D02*
X154201658Y-54579270D01*
X153963563Y-54579270D01*
X153820706Y-54626890D01*
X153725468Y-54722128D01*
X153677849Y-54817366D01*
X153630230Y-55007842D01*
X153630230Y-55150699D01*
X153677849Y-55341175D01*
X153725468Y-55436413D01*
X153820706Y-55531651D01*
X153963563Y-55579270D01*
X154201658Y-55579270D01*
X152677849Y-55579270D02*
X153249277Y-55579270D01*
X152963563Y-55579270D02*
X152963563Y-54579270D01*
X153058801Y-54722128D01*
X153154039Y-54817366D01*
X153249277Y-54864985D01*
X151773087Y-54579270D02*
X152249277Y-54579270D01*
X152296896Y-55055461D01*
X152249277Y-55007842D01*
X152154039Y-54960223D01*
X151915944Y-54960223D01*
X151820706Y-55007842D01*
X151773087Y-55055461D01*
X151725468Y-55150699D01*
X151725468Y-55388794D01*
X151773087Y-55484032D01*
X151820706Y-55531651D01*
X151915944Y-55579270D01*
X152154039Y-55579270D01*
X152249277Y-55531651D01*
X152296896Y-55484032D01*
%TO.C,D14*%
X141700085Y-129993395D02*
X141700085Y-128993395D01*
X141461990Y-128993395D01*
X141319133Y-129041015D01*
X141223895Y-129136253D01*
X141176276Y-129231491D01*
X141128657Y-129421967D01*
X141128657Y-129564824D01*
X141176276Y-129755300D01*
X141223895Y-129850538D01*
X141319133Y-129945776D01*
X141461990Y-129993395D01*
X141700085Y-129993395D01*
X140176276Y-129993395D02*
X140747704Y-129993395D01*
X140461990Y-129993395D02*
X140461990Y-128993395D01*
X140557228Y-129136253D01*
X140652466Y-129231491D01*
X140747704Y-129279110D01*
X139319133Y-129326729D02*
X139319133Y-129993395D01*
X139557228Y-128945776D02*
X139795323Y-129660062D01*
X139176276Y-129660062D01*
%TO.C,D13*%
X145778806Y-120373599D02*
X144778806Y-120373599D01*
X144778806Y-120611694D01*
X144826426Y-120754551D01*
X144921664Y-120849789D01*
X145016902Y-120897408D01*
X145207378Y-120945027D01*
X145350235Y-120945027D01*
X145540711Y-120897408D01*
X145635949Y-120849789D01*
X145731187Y-120754551D01*
X145778806Y-120611694D01*
X145778806Y-120373599D01*
X145778806Y-121897408D02*
X145778806Y-121325980D01*
X145778806Y-121611694D02*
X144778806Y-121611694D01*
X144921664Y-121516456D01*
X145016902Y-121421218D01*
X145064521Y-121325980D01*
X144778806Y-122230742D02*
X144778806Y-122849789D01*
X145159759Y-122516456D01*
X145159759Y-122659313D01*
X145207378Y-122754551D01*
X145254997Y-122802170D01*
X145350235Y-122849789D01*
X145588330Y-122849789D01*
X145683568Y-122802170D01*
X145731187Y-122754551D01*
X145778806Y-122659313D01*
X145778806Y-122373599D01*
X145731187Y-122278361D01*
X145683568Y-122230742D01*
%TO.C,D12*%
X145183493Y-101187644D02*
X144183493Y-101187644D01*
X144183493Y-101425739D01*
X144231113Y-101568596D01*
X144326351Y-101663834D01*
X144421589Y-101711453D01*
X144612065Y-101759072D01*
X144754922Y-101759072D01*
X144945398Y-101711453D01*
X145040636Y-101663834D01*
X145135874Y-101568596D01*
X145183493Y-101425739D01*
X145183493Y-101187644D01*
X145183493Y-102711453D02*
X145183493Y-102140025D01*
X145183493Y-102425739D02*
X144183493Y-102425739D01*
X144326351Y-102330501D01*
X144421589Y-102235263D01*
X144469208Y-102140025D01*
X144278732Y-103092406D02*
X144231113Y-103140025D01*
X144183493Y-103235263D01*
X144183493Y-103473358D01*
X144231113Y-103568596D01*
X144278732Y-103616215D01*
X144373970Y-103663834D01*
X144469208Y-103663834D01*
X144612065Y-103616215D01*
X145183493Y-103044787D01*
X145183493Y-103663834D01*
%TO.C,D11*%
X145183493Y-82273567D02*
X144183493Y-82273567D01*
X144183493Y-82511662D01*
X144231113Y-82654519D01*
X144326351Y-82749757D01*
X144421589Y-82797376D01*
X144612065Y-82844995D01*
X144754922Y-82844995D01*
X144945398Y-82797376D01*
X145040636Y-82749757D01*
X145135874Y-82654519D01*
X145183493Y-82511662D01*
X145183493Y-82273567D01*
X145183493Y-83797376D02*
X145183493Y-83225948D01*
X145183493Y-83511662D02*
X144183493Y-83511662D01*
X144326351Y-83416424D01*
X144421589Y-83321186D01*
X144469208Y-83225948D01*
X145183493Y-84749757D02*
X145183493Y-84178329D01*
X145183493Y-84464043D02*
X144183493Y-84464043D01*
X144326351Y-84368805D01*
X144421589Y-84273567D01*
X144469208Y-84178329D01*
%TO.C,D10*%
X146326650Y-57746461D02*
X146326650Y-56746461D01*
X146088555Y-56746461D01*
X145945698Y-56794081D01*
X145850460Y-56889319D01*
X145802841Y-56984557D01*
X145755222Y-57175033D01*
X145755222Y-57317890D01*
X145802841Y-57508366D01*
X145850460Y-57603604D01*
X145945698Y-57698842D01*
X146088555Y-57746461D01*
X146326650Y-57746461D01*
X144802841Y-57746461D02*
X145374269Y-57746461D01*
X145088555Y-57746461D02*
X145088555Y-56746461D01*
X145183793Y-56889319D01*
X145279031Y-56984557D01*
X145374269Y-57032176D01*
X144183793Y-56746461D02*
X144088555Y-56746461D01*
X143993317Y-56794081D01*
X143945698Y-56841700D01*
X143898079Y-56936938D01*
X143850460Y-57127414D01*
X143850460Y-57365509D01*
X143898079Y-57555985D01*
X143945698Y-57651223D01*
X143993317Y-57698842D01*
X144088555Y-57746461D01*
X144183793Y-57746461D01*
X144279031Y-57698842D01*
X144326650Y-57651223D01*
X144374269Y-57555985D01*
X144421888Y-57365509D01*
X144421888Y-57127414D01*
X144374269Y-56936938D01*
X144326650Y-56841700D01*
X144279031Y-56794081D01*
X144183793Y-56746461D01*
%TO.C,D9*%
X126728790Y-120713850D02*
X125728790Y-120713850D01*
X125728790Y-120951946D01*
X125776410Y-121094803D01*
X125871648Y-121190041D01*
X125966886Y-121237660D01*
X126157362Y-121285279D01*
X126300219Y-121285279D01*
X126490695Y-121237660D01*
X126585933Y-121190041D01*
X126681171Y-121094803D01*
X126728790Y-120951946D01*
X126728790Y-120713850D01*
X126728790Y-121761469D02*
X126728790Y-121951946D01*
X126681171Y-122047184D01*
X126633552Y-122094803D01*
X126490695Y-122190041D01*
X126300219Y-122237660D01*
X125919267Y-122237660D01*
X125824029Y-122190041D01*
X125776410Y-122142422D01*
X125728790Y-122047184D01*
X125728790Y-121856707D01*
X125776410Y-121761469D01*
X125824029Y-121713850D01*
X125919267Y-121666231D01*
X126157362Y-121666231D01*
X126252600Y-121713850D01*
X126300219Y-121761469D01*
X126347838Y-121856707D01*
X126347838Y-122047184D01*
X126300219Y-122142422D01*
X126252600Y-122190041D01*
X126157362Y-122237660D01*
%TO.C,D8*%
X126133477Y-101799773D02*
X125133477Y-101799773D01*
X125133477Y-102037869D01*
X125181097Y-102180726D01*
X125276335Y-102275964D01*
X125371573Y-102323583D01*
X125562049Y-102371202D01*
X125704906Y-102371202D01*
X125895382Y-102323583D01*
X125990620Y-102275964D01*
X126085858Y-102180726D01*
X126133477Y-102037869D01*
X126133477Y-101799773D01*
X125562049Y-102942630D02*
X125514430Y-102847392D01*
X125466811Y-102799773D01*
X125371573Y-102752154D01*
X125323954Y-102752154D01*
X125228716Y-102799773D01*
X125181097Y-102847392D01*
X125133477Y-102942630D01*
X125133477Y-103133107D01*
X125181097Y-103228345D01*
X125228716Y-103275964D01*
X125323954Y-103323583D01*
X125371573Y-103323583D01*
X125466811Y-103275964D01*
X125514430Y-103228345D01*
X125562049Y-103133107D01*
X125562049Y-102942630D01*
X125609668Y-102847392D01*
X125657287Y-102799773D01*
X125752525Y-102752154D01*
X125943001Y-102752154D01*
X126038239Y-102799773D01*
X126085858Y-102847392D01*
X126133477Y-102942630D01*
X126133477Y-103133107D01*
X126085858Y-103228345D01*
X126038239Y-103275964D01*
X125943001Y-103323583D01*
X125752525Y-103323583D01*
X125657287Y-103275964D01*
X125609668Y-103228345D01*
X125562049Y-103133107D01*
%TO.C,D7*%
X126133477Y-82749757D02*
X125133477Y-82749757D01*
X125133477Y-82987853D01*
X125181097Y-83130710D01*
X125276335Y-83225948D01*
X125371573Y-83273567D01*
X125562049Y-83321186D01*
X125704906Y-83321186D01*
X125895382Y-83273567D01*
X125990620Y-83225948D01*
X126085858Y-83130710D01*
X126133477Y-82987853D01*
X126133477Y-82749757D01*
X125133477Y-83654519D02*
X125133477Y-84321186D01*
X126133477Y-83892614D01*
%TO.C,D5*%
X116180347Y-129643545D02*
X115180347Y-129643545D01*
X115180347Y-129881641D01*
X115227967Y-130024498D01*
X115323205Y-130119736D01*
X115418443Y-130167355D01*
X115608919Y-130214974D01*
X115751776Y-130214974D01*
X115942252Y-130167355D01*
X116037490Y-130119736D01*
X116132728Y-130024498D01*
X116180347Y-129881641D01*
X116180347Y-129643545D01*
X115180347Y-131119736D02*
X115180347Y-130643545D01*
X115656538Y-130595926D01*
X115608919Y-130643545D01*
X115561300Y-130738783D01*
X115561300Y-130976879D01*
X115608919Y-131072117D01*
X115656538Y-131119736D01*
X115751776Y-131167355D01*
X115989871Y-131167355D01*
X116085109Y-131119736D01*
X116132728Y-131072117D01*
X116180347Y-130976879D01*
X116180347Y-130738783D01*
X116132728Y-130643545D01*
X116085109Y-130595926D01*
%TO.C,D4*%
X107678774Y-120713850D02*
X106678774Y-120713850D01*
X106678774Y-120951946D01*
X106726394Y-121094803D01*
X106821632Y-121190041D01*
X106916870Y-121237660D01*
X107107346Y-121285279D01*
X107250203Y-121285279D01*
X107440679Y-121237660D01*
X107535917Y-121190041D01*
X107631155Y-121094803D01*
X107678774Y-120951946D01*
X107678774Y-120713850D01*
X107012108Y-122142422D02*
X107678774Y-122142422D01*
X106631155Y-121904326D02*
X107345441Y-121666231D01*
X107345441Y-122285279D01*
%TO.C,D3*%
X107083461Y-101799773D02*
X106083461Y-101799773D01*
X106083461Y-102037869D01*
X106131081Y-102180726D01*
X106226319Y-102275964D01*
X106321557Y-102323583D01*
X106512033Y-102371202D01*
X106654890Y-102371202D01*
X106845366Y-102323583D01*
X106940604Y-102275964D01*
X107035842Y-102180726D01*
X107083461Y-102037869D01*
X107083461Y-101799773D01*
X106083461Y-102704535D02*
X106083461Y-103323583D01*
X106464414Y-102990249D01*
X106464414Y-103133107D01*
X106512033Y-103228345D01*
X106559652Y-103275964D01*
X106654890Y-103323583D01*
X106892985Y-103323583D01*
X106988223Y-103275964D01*
X107035842Y-103228345D01*
X107083461Y-103133107D01*
X107083461Y-102847392D01*
X107035842Y-102752154D01*
X106988223Y-102704535D01*
%TO.C,D1*%
X111250652Y-54174733D02*
X110250652Y-54174733D01*
X110250652Y-54412829D01*
X110298272Y-54555686D01*
X110393510Y-54650924D01*
X110488748Y-54698543D01*
X110679224Y-54746162D01*
X110822081Y-54746162D01*
X111012557Y-54698543D01*
X111107795Y-54650924D01*
X111203033Y-54555686D01*
X111250652Y-54412829D01*
X111250652Y-54174733D01*
X111250652Y-55698543D02*
X111250652Y-55127114D01*
X111250652Y-55412829D02*
X110250652Y-55412829D01*
X110393510Y-55317590D01*
X110488748Y-55222352D01*
X110536367Y-55127114D01*
%TD*%
M02*
