G04 #@! TF.GenerationSoftware,KiCad,Pcbnew,(5.1.7)-1*
G04 #@! TF.CreationDate,2020-12-29T23:31:17-08:00*
G04 #@! TF.ProjectId,base,62617365-2e6b-4696-9361-645f70636258,rev?*
G04 #@! TF.SameCoordinates,Original*
G04 #@! TF.FileFunction,Copper,L2,Bot*
G04 #@! TF.FilePolarity,Positive*
%FSLAX46Y46*%
G04 Gerber Fmt 4.6, Leading zero omitted, Abs format (unit mm)*
G04 Created by KiCad (PCBNEW (5.1.7)-1) date 2020-12-29 23:31:17*
%MOMM*%
%LPD*%
G01*
G04 APERTURE LIST*
G04 #@! TA.AperFunction,ViaPad*
%ADD10C,0.800000*%
G04 #@! TD*
G04 #@! TA.AperFunction,Conductor*
%ADD11C,0.250000*%
G04 #@! TD*
G04 #@! TA.AperFunction,Conductor*
%ADD12C,0.254000*%
G04 #@! TD*
G04 #@! TA.AperFunction,Conductor*
%ADD13C,0.100000*%
G04 #@! TD*
G04 APERTURE END LIST*
G04 #@! TA.AperFunction,SMDPad,CuDef*
G36*
G01*
X146240200Y-117624001D02*
X146240200Y-117424001D01*
G75*
G02*
X146340200Y-117324001I100000J0D01*
G01*
X146600200Y-117324001D01*
G75*
G02*
X146700200Y-117424001I0J-100000D01*
G01*
X146700200Y-117624001D01*
G75*
G02*
X146600200Y-117724001I-100000J0D01*
G01*
X146340200Y-117724001D01*
G75*
G02*
X146240200Y-117624001I0J100000D01*
G01*
G37*
G04 #@! TD.AperFunction*
G04 #@! TA.AperFunction,SMDPad,CuDef*
G36*
G01*
X145600200Y-117624001D02*
X145600200Y-117424001D01*
G75*
G02*
X145700200Y-117324001I100000J0D01*
G01*
X145960200Y-117324001D01*
G75*
G02*
X146060200Y-117424001I0J-100000D01*
G01*
X146060200Y-117624001D01*
G75*
G02*
X145960200Y-117724001I-100000J0D01*
G01*
X145700200Y-117724001D01*
G75*
G02*
X145600200Y-117624001I0J100000D01*
G01*
G37*
G04 #@! TD.AperFunction*
D10*
X146150200Y-115224001D03*
D11*
X145830200Y-117524001D02*
X146470200Y-117524001D01*
D12*
X182360547Y-43444222D02*
X182418786Y-43461805D01*
X182472501Y-43490366D01*
X182519646Y-43528816D01*
X182558424Y-43575691D01*
X182587358Y-43629204D01*
X182605349Y-43687323D01*
X182615001Y-43779154D01*
X182615000Y-135916656D01*
X182605778Y-136010707D01*
X182588194Y-136068948D01*
X182559635Y-136122661D01*
X182521183Y-136169807D01*
X182474310Y-136208584D01*
X182420796Y-136237519D01*
X182362677Y-136255510D01*
X182270855Y-136265161D01*
X109183705Y-136265161D01*
X109089654Y-136255939D01*
X109031413Y-136238355D01*
X108977700Y-136209796D01*
X108930554Y-136171344D01*
X108891777Y-136124471D01*
X108862842Y-136070957D01*
X108844851Y-136012838D01*
X108835200Y-135921016D01*
X108835200Y-122728618D01*
X144015475Y-122728618D01*
X144015475Y-123070384D01*
X144082150Y-123405582D01*
X144212938Y-123721332D01*
X144402812Y-124005499D01*
X144644477Y-124247164D01*
X144928644Y-124437038D01*
X145244394Y-124567826D01*
X145579592Y-124634501D01*
X145921358Y-124634501D01*
X146256556Y-124567826D01*
X146572306Y-124437038D01*
X146856473Y-124247164D01*
X147098138Y-124005499D01*
X147288012Y-123721332D01*
X147418800Y-123405582D01*
X147485475Y-123070384D01*
X147485475Y-122728618D01*
X147418800Y-122393420D01*
X147288012Y-122077670D01*
X147098138Y-121793503D01*
X146856473Y-121551838D01*
X146572306Y-121361964D01*
X146256556Y-121231176D01*
X145921358Y-121164501D01*
X145579592Y-121164501D01*
X145244394Y-121231176D01*
X144928644Y-121361964D01*
X144644477Y-121551838D01*
X144402812Y-121793503D01*
X144212938Y-122077670D01*
X144082150Y-122393420D01*
X144015475Y-122728618D01*
X108835200Y-122728618D01*
X108835200Y-117755751D01*
X144965200Y-117755751D01*
X144978259Y-117866568D01*
X145018023Y-117985164D01*
X145080160Y-118093723D01*
X145162281Y-118188073D01*
X145261232Y-118264590D01*
X145373209Y-118320332D01*
X145493909Y-118353158D01*
X145568450Y-118359001D01*
X145727200Y-118200251D01*
X145727200Y-118101811D01*
X145802281Y-118188073D01*
X145901232Y-118264590D01*
X146013209Y-118320332D01*
X146068250Y-118335301D01*
X146091950Y-118359001D01*
X146150200Y-118354435D01*
X146208450Y-118359001D01*
X146232150Y-118335301D01*
X146287191Y-118320332D01*
X146399168Y-118264590D01*
X146498119Y-118188073D01*
X146573200Y-118101811D01*
X146573200Y-118200251D01*
X146731950Y-118359001D01*
X146806491Y-118353158D01*
X146927191Y-118320332D01*
X147039168Y-118264590D01*
X147138119Y-118188073D01*
X147220240Y-118093723D01*
X147282377Y-117985164D01*
X147322141Y-117866568D01*
X147335200Y-117755751D01*
X147176450Y-117597001D01*
X146573200Y-117597001D01*
X146573200Y-117633751D01*
X146536450Y-117597001D01*
X145763950Y-117597001D01*
X145727200Y-117633751D01*
X145727200Y-117597001D01*
X145123950Y-117597001D01*
X144965200Y-117755751D01*
X108835200Y-117755751D01*
X108835200Y-117292251D01*
X144965200Y-117292251D01*
X145123950Y-117451001D01*
X145727200Y-117451001D01*
X145727200Y-117414251D01*
X145763950Y-117451001D01*
X146536450Y-117451001D01*
X146573200Y-117414251D01*
X146573200Y-117451001D01*
X147176450Y-117451001D01*
X147335200Y-117292251D01*
X147322141Y-117181434D01*
X147282377Y-117062838D01*
X147220240Y-116954279D01*
X147138119Y-116859929D01*
X147039168Y-116783412D01*
X146927191Y-116727670D01*
X146806491Y-116694844D01*
X146731950Y-116689001D01*
X146573200Y-116847751D01*
X146573200Y-116946191D01*
X146498119Y-116859929D01*
X146399168Y-116783412D01*
X146287191Y-116727670D01*
X146232150Y-116712701D01*
X146208450Y-116689001D01*
X146150200Y-116693567D01*
X146091950Y-116689001D01*
X146068250Y-116712701D01*
X146013209Y-116727670D01*
X145901232Y-116783412D01*
X145802281Y-116859929D01*
X145727200Y-116946191D01*
X145727200Y-116847751D01*
X145568450Y-116689001D01*
X145493909Y-116694844D01*
X145373209Y-116727670D01*
X145261232Y-116783412D01*
X145162281Y-116859929D01*
X145080160Y-116954279D01*
X145018023Y-117062838D01*
X144978259Y-117181434D01*
X144965200Y-117292251D01*
X108835200Y-117292251D01*
X108835200Y-99204118D01*
X115415199Y-99204118D01*
X115415199Y-99545884D01*
X115481874Y-99881082D01*
X115612662Y-100196832D01*
X115802536Y-100480999D01*
X116044201Y-100722664D01*
X116328368Y-100912538D01*
X116644118Y-101043326D01*
X116979316Y-101110001D01*
X117321082Y-101110001D01*
X117656280Y-101043326D01*
X117972030Y-100912538D01*
X118256197Y-100722664D01*
X118497862Y-100480999D01*
X118687736Y-100196832D01*
X118818524Y-99881082D01*
X118885199Y-99545884D01*
X118885199Y-99204118D01*
X172565000Y-99204118D01*
X172565000Y-99545884D01*
X172631675Y-99881082D01*
X172762463Y-100196832D01*
X172952337Y-100480999D01*
X173194002Y-100722664D01*
X173478169Y-100912538D01*
X173793919Y-101043326D01*
X174129117Y-101110001D01*
X174470883Y-101110001D01*
X174806081Y-101043326D01*
X175121831Y-100912538D01*
X175405998Y-100722664D01*
X175647663Y-100480999D01*
X175837537Y-100196832D01*
X175968325Y-99881082D01*
X176035000Y-99545884D01*
X176035000Y-99204118D01*
X175968325Y-98868920D01*
X175837537Y-98553170D01*
X175647663Y-98269003D01*
X175405998Y-98027338D01*
X175121831Y-97837464D01*
X174806081Y-97706676D01*
X174470883Y-97640001D01*
X174129117Y-97640001D01*
X173793919Y-97706676D01*
X173478169Y-97837464D01*
X173194002Y-98027338D01*
X172952337Y-98269003D01*
X172762463Y-98553170D01*
X172631675Y-98868920D01*
X172565000Y-99204118D01*
X118885199Y-99204118D01*
X118818524Y-98868920D01*
X118687736Y-98553170D01*
X118497862Y-98269003D01*
X118256197Y-98027338D01*
X117972030Y-97837464D01*
X117656280Y-97706676D01*
X117321082Y-97640001D01*
X116979316Y-97640001D01*
X116644118Y-97706676D01*
X116328368Y-97837464D01*
X116044201Y-98027338D01*
X115802536Y-98269003D01*
X115612662Y-98553170D01*
X115481874Y-98868920D01*
X115415199Y-99204118D01*
X108835200Y-99204118D01*
X108835200Y-61104118D01*
X115415200Y-61104118D01*
X115415200Y-61445884D01*
X115481875Y-61781082D01*
X115612663Y-62096832D01*
X115802537Y-62380999D01*
X116044202Y-62622664D01*
X116328369Y-62812538D01*
X116644119Y-62943326D01*
X116979317Y-63010001D01*
X117321083Y-63010001D01*
X117656281Y-62943326D01*
X117972031Y-62812538D01*
X118256198Y-62622664D01*
X118497863Y-62380999D01*
X118687737Y-62096832D01*
X118818525Y-61781082D01*
X118885200Y-61445884D01*
X118885200Y-61104118D01*
X172565000Y-61104118D01*
X172565000Y-61445884D01*
X172631675Y-61781082D01*
X172762463Y-62096832D01*
X172952337Y-62380999D01*
X173194002Y-62622664D01*
X173478169Y-62812538D01*
X173793919Y-62943326D01*
X174129117Y-63010001D01*
X174470883Y-63010001D01*
X174806081Y-62943326D01*
X175121831Y-62812538D01*
X175405998Y-62622664D01*
X175647663Y-62380999D01*
X175837537Y-62096832D01*
X175968325Y-61781082D01*
X176035000Y-61445884D01*
X176035000Y-61104118D01*
X175968325Y-60768920D01*
X175837537Y-60453170D01*
X175647663Y-60169003D01*
X175405998Y-59927338D01*
X175121831Y-59737464D01*
X174806081Y-59606676D01*
X174470883Y-59540001D01*
X174129117Y-59540001D01*
X173793919Y-59606676D01*
X173478169Y-59737464D01*
X173194002Y-59927338D01*
X172952337Y-60169003D01*
X172762463Y-60453170D01*
X172631675Y-60768920D01*
X172565000Y-61104118D01*
X118885200Y-61104118D01*
X118818525Y-60768920D01*
X118687737Y-60453170D01*
X118497863Y-60169003D01*
X118256198Y-59927338D01*
X117972031Y-59737464D01*
X117656281Y-59606676D01*
X117321083Y-59540001D01*
X116979317Y-59540001D01*
X116644119Y-59606676D01*
X116328369Y-59737464D01*
X116044202Y-59927338D01*
X115802537Y-60169003D01*
X115612663Y-60453170D01*
X115481875Y-60768920D01*
X115415200Y-61104118D01*
X108835200Y-61104118D01*
X108835200Y-43783505D01*
X108844422Y-43689453D01*
X108862005Y-43631214D01*
X108890566Y-43577499D01*
X108929016Y-43530354D01*
X108975891Y-43491576D01*
X109029404Y-43462642D01*
X109087523Y-43444651D01*
X109179345Y-43435000D01*
X182266495Y-43435000D01*
X182360547Y-43444222D01*
G04 #@! TA.AperFunction,Conductor*
D13*
G36*
X182360547Y-43444222D02*
G01*
X182418786Y-43461805D01*
X182472501Y-43490366D01*
X182519646Y-43528816D01*
X182558424Y-43575691D01*
X182587358Y-43629204D01*
X182605349Y-43687323D01*
X182615001Y-43779154D01*
X182615000Y-135916656D01*
X182605778Y-136010707D01*
X182588194Y-136068948D01*
X182559635Y-136122661D01*
X182521183Y-136169807D01*
X182474310Y-136208584D01*
X182420796Y-136237519D01*
X182362677Y-136255510D01*
X182270855Y-136265161D01*
X109183705Y-136265161D01*
X109089654Y-136255939D01*
X109031413Y-136238355D01*
X108977700Y-136209796D01*
X108930554Y-136171344D01*
X108891777Y-136124471D01*
X108862842Y-136070957D01*
X108844851Y-136012838D01*
X108835200Y-135921016D01*
X108835200Y-122728618D01*
X144015475Y-122728618D01*
X144015475Y-123070384D01*
X144082150Y-123405582D01*
X144212938Y-123721332D01*
X144402812Y-124005499D01*
X144644477Y-124247164D01*
X144928644Y-124437038D01*
X145244394Y-124567826D01*
X145579592Y-124634501D01*
X145921358Y-124634501D01*
X146256556Y-124567826D01*
X146572306Y-124437038D01*
X146856473Y-124247164D01*
X147098138Y-124005499D01*
X147288012Y-123721332D01*
X147418800Y-123405582D01*
X147485475Y-123070384D01*
X147485475Y-122728618D01*
X147418800Y-122393420D01*
X147288012Y-122077670D01*
X147098138Y-121793503D01*
X146856473Y-121551838D01*
X146572306Y-121361964D01*
X146256556Y-121231176D01*
X145921358Y-121164501D01*
X145579592Y-121164501D01*
X145244394Y-121231176D01*
X144928644Y-121361964D01*
X144644477Y-121551838D01*
X144402812Y-121793503D01*
X144212938Y-122077670D01*
X144082150Y-122393420D01*
X144015475Y-122728618D01*
X108835200Y-122728618D01*
X108835200Y-117755751D01*
X144965200Y-117755751D01*
X144978259Y-117866568D01*
X145018023Y-117985164D01*
X145080160Y-118093723D01*
X145162281Y-118188073D01*
X145261232Y-118264590D01*
X145373209Y-118320332D01*
X145493909Y-118353158D01*
X145568450Y-118359001D01*
X145727200Y-118200251D01*
X145727200Y-118101811D01*
X145802281Y-118188073D01*
X145901232Y-118264590D01*
X146013209Y-118320332D01*
X146068250Y-118335301D01*
X146091950Y-118359001D01*
X146150200Y-118354435D01*
X146208450Y-118359001D01*
X146232150Y-118335301D01*
X146287191Y-118320332D01*
X146399168Y-118264590D01*
X146498119Y-118188073D01*
X146573200Y-118101811D01*
X146573200Y-118200251D01*
X146731950Y-118359001D01*
X146806491Y-118353158D01*
X146927191Y-118320332D01*
X147039168Y-118264590D01*
X147138119Y-118188073D01*
X147220240Y-118093723D01*
X147282377Y-117985164D01*
X147322141Y-117866568D01*
X147335200Y-117755751D01*
X147176450Y-117597001D01*
X146573200Y-117597001D01*
X146573200Y-117633751D01*
X146536450Y-117597001D01*
X145763950Y-117597001D01*
X145727200Y-117633751D01*
X145727200Y-117597001D01*
X145123950Y-117597001D01*
X144965200Y-117755751D01*
X108835200Y-117755751D01*
X108835200Y-117292251D01*
X144965200Y-117292251D01*
X145123950Y-117451001D01*
X145727200Y-117451001D01*
X145727200Y-117414251D01*
X145763950Y-117451001D01*
X146536450Y-117451001D01*
X146573200Y-117414251D01*
X146573200Y-117451001D01*
X147176450Y-117451001D01*
X147335200Y-117292251D01*
X147322141Y-117181434D01*
X147282377Y-117062838D01*
X147220240Y-116954279D01*
X147138119Y-116859929D01*
X147039168Y-116783412D01*
X146927191Y-116727670D01*
X146806491Y-116694844D01*
X146731950Y-116689001D01*
X146573200Y-116847751D01*
X146573200Y-116946191D01*
X146498119Y-116859929D01*
X146399168Y-116783412D01*
X146287191Y-116727670D01*
X146232150Y-116712701D01*
X146208450Y-116689001D01*
X146150200Y-116693567D01*
X146091950Y-116689001D01*
X146068250Y-116712701D01*
X146013209Y-116727670D01*
X145901232Y-116783412D01*
X145802281Y-116859929D01*
X145727200Y-116946191D01*
X145727200Y-116847751D01*
X145568450Y-116689001D01*
X145493909Y-116694844D01*
X145373209Y-116727670D01*
X145261232Y-116783412D01*
X145162281Y-116859929D01*
X145080160Y-116954279D01*
X145018023Y-117062838D01*
X144978259Y-117181434D01*
X144965200Y-117292251D01*
X108835200Y-117292251D01*
X108835200Y-99204118D01*
X115415199Y-99204118D01*
X115415199Y-99545884D01*
X115481874Y-99881082D01*
X115612662Y-100196832D01*
X115802536Y-100480999D01*
X116044201Y-100722664D01*
X116328368Y-100912538D01*
X116644118Y-101043326D01*
X116979316Y-101110001D01*
X117321082Y-101110001D01*
X117656280Y-101043326D01*
X117972030Y-100912538D01*
X118256197Y-100722664D01*
X118497862Y-100480999D01*
X118687736Y-100196832D01*
X118818524Y-99881082D01*
X118885199Y-99545884D01*
X118885199Y-99204118D01*
X172565000Y-99204118D01*
X172565000Y-99545884D01*
X172631675Y-99881082D01*
X172762463Y-100196832D01*
X172952337Y-100480999D01*
X173194002Y-100722664D01*
X173478169Y-100912538D01*
X173793919Y-101043326D01*
X174129117Y-101110001D01*
X174470883Y-101110001D01*
X174806081Y-101043326D01*
X175121831Y-100912538D01*
X175405998Y-100722664D01*
X175647663Y-100480999D01*
X175837537Y-100196832D01*
X175968325Y-99881082D01*
X176035000Y-99545884D01*
X176035000Y-99204118D01*
X175968325Y-98868920D01*
X175837537Y-98553170D01*
X175647663Y-98269003D01*
X175405998Y-98027338D01*
X175121831Y-97837464D01*
X174806081Y-97706676D01*
X174470883Y-97640001D01*
X174129117Y-97640001D01*
X173793919Y-97706676D01*
X173478169Y-97837464D01*
X173194002Y-98027338D01*
X172952337Y-98269003D01*
X172762463Y-98553170D01*
X172631675Y-98868920D01*
X172565000Y-99204118D01*
X118885199Y-99204118D01*
X118818524Y-98868920D01*
X118687736Y-98553170D01*
X118497862Y-98269003D01*
X118256197Y-98027338D01*
X117972030Y-97837464D01*
X117656280Y-97706676D01*
X117321082Y-97640001D01*
X116979316Y-97640001D01*
X116644118Y-97706676D01*
X116328368Y-97837464D01*
X116044201Y-98027338D01*
X115802536Y-98269003D01*
X115612662Y-98553170D01*
X115481874Y-98868920D01*
X115415199Y-99204118D01*
X108835200Y-99204118D01*
X108835200Y-61104118D01*
X115415200Y-61104118D01*
X115415200Y-61445884D01*
X115481875Y-61781082D01*
X115612663Y-62096832D01*
X115802537Y-62380999D01*
X116044202Y-62622664D01*
X116328369Y-62812538D01*
X116644119Y-62943326D01*
X116979317Y-63010001D01*
X117321083Y-63010001D01*
X117656281Y-62943326D01*
X117972031Y-62812538D01*
X118256198Y-62622664D01*
X118497863Y-62380999D01*
X118687737Y-62096832D01*
X118818525Y-61781082D01*
X118885200Y-61445884D01*
X118885200Y-61104118D01*
X172565000Y-61104118D01*
X172565000Y-61445884D01*
X172631675Y-61781082D01*
X172762463Y-62096832D01*
X172952337Y-62380999D01*
X173194002Y-62622664D01*
X173478169Y-62812538D01*
X173793919Y-62943326D01*
X174129117Y-63010001D01*
X174470883Y-63010001D01*
X174806081Y-62943326D01*
X175121831Y-62812538D01*
X175405998Y-62622664D01*
X175647663Y-62380999D01*
X175837537Y-62096832D01*
X175968325Y-61781082D01*
X176035000Y-61445884D01*
X176035000Y-61104118D01*
X175968325Y-60768920D01*
X175837537Y-60453170D01*
X175647663Y-60169003D01*
X175405998Y-59927338D01*
X175121831Y-59737464D01*
X174806081Y-59606676D01*
X174470883Y-59540001D01*
X174129117Y-59540001D01*
X173793919Y-59606676D01*
X173478169Y-59737464D01*
X173194002Y-59927338D01*
X172952337Y-60169003D01*
X172762463Y-60453170D01*
X172631675Y-60768920D01*
X172565000Y-61104118D01*
X118885200Y-61104118D01*
X118818525Y-60768920D01*
X118687737Y-60453170D01*
X118497863Y-60169003D01*
X118256198Y-59927338D01*
X117972031Y-59737464D01*
X117656281Y-59606676D01*
X117321083Y-59540001D01*
X116979317Y-59540001D01*
X116644119Y-59606676D01*
X116328369Y-59737464D01*
X116044202Y-59927338D01*
X115802537Y-60169003D01*
X115612663Y-60453170D01*
X115481875Y-60768920D01*
X115415200Y-61104118D01*
X108835200Y-61104118D01*
X108835200Y-43783505D01*
X108844422Y-43689453D01*
X108862005Y-43631214D01*
X108890566Y-43577499D01*
X108929016Y-43530354D01*
X108975891Y-43491576D01*
X109029404Y-43462642D01*
X109087523Y-43444651D01*
X109179345Y-43435000D01*
X182266495Y-43435000D01*
X182360547Y-43444222D01*
G37*
G04 #@! TD.AperFunction*
M02*
