G04 #@! TF.GenerationSoftware,KiCad,Pcbnew,(5.1.7)-1*
G04 #@! TF.CreationDate,2020-12-30T00:14:28-08:00*
G04 #@! TF.ProjectId,plate,706c6174-652e-46b6-9963-61645f706362,rev?*
G04 #@! TF.SameCoordinates,Original*
G04 #@! TF.FileFunction,Profile,NP*
%FSLAX46Y46*%
G04 Gerber Fmt 4.6, Leading zero omitted, Abs format (unit mm)*
G04 Created by KiCad (PCBNEW (5.1.7)-1) date 2020-12-30 00:14:28*
%MOMM*%
%LPD*%
G01*
G04 APERTURE LIST*
G04 #@! TA.AperFunction,Profile*
%ADD10C,0.100000*%
G04 #@! TD*
G04 APERTURE END LIST*
D10*
X239156108Y-75147677D02*
X225156808Y-75147677D01*
X187056808Y-132297877D02*
X187056808Y-118298477D01*
X200631808Y-146647497D02*
X199806408Y-146647497D01*
X199806408Y-143848737D02*
X200631808Y-143848737D01*
X199806408Y-146647497D02*
X199806408Y-149877697D01*
X200631808Y-143848737D02*
X200631808Y-146647497D01*
X193056708Y-149877697D02*
X193056708Y-146647497D01*
X199806408Y-149877697D02*
X193056708Y-149877697D01*
X199806408Y-137578667D02*
X199806408Y-143848737D01*
X198081108Y-137578667D02*
X199806408Y-137578667D01*
X198081108Y-136378397D02*
X198081108Y-137578667D01*
X193056708Y-146647497D02*
X191531208Y-146647497D01*
X194782008Y-137578667D02*
X194782008Y-136378397D01*
X168006758Y-99248377D02*
X182006308Y-99248377D01*
X187056808Y-113247677D02*
X187056808Y-99248377D01*
X206106808Y-113247677D02*
X206106808Y-99248377D01*
X206106808Y-99248377D02*
X220106108Y-99248377D01*
X225156808Y-113247677D02*
X225156808Y-99248377D01*
X201056108Y-113247677D02*
X187056808Y-113247677D01*
X201056108Y-99248377D02*
X201056108Y-113247677D01*
X187056808Y-99248377D02*
X201056108Y-99248377D01*
X220106108Y-113247677D02*
X206106808Y-113247677D01*
X239156108Y-113247677D02*
X225156808Y-113247677D01*
X220106108Y-99248377D02*
X220106108Y-113247677D01*
X168006758Y-118298477D02*
X182006308Y-118298477D01*
X234457108Y-150923407D02*
X234457108Y-150097957D01*
X201056108Y-132297877D02*
X187056808Y-132297877D01*
X201056108Y-118298477D02*
X201056108Y-132297877D01*
X234457108Y-150097957D02*
X237687108Y-150097957D01*
X220106108Y-132297877D02*
X206106808Y-132297877D01*
X229857208Y-126297877D02*
X229857208Y-127823377D01*
X239156108Y-141822877D02*
X239156108Y-127823377D01*
X237687108Y-119548177D02*
X234457108Y-119548177D01*
X237687108Y-126297877D02*
X237687108Y-119548177D01*
X187056808Y-118298477D02*
X201056108Y-118298477D01*
X237687108Y-143348377D02*
X234457108Y-143348377D01*
X206106808Y-132297877D02*
X206106808Y-118298477D01*
X220106108Y-118298477D02*
X220106108Y-132297877D01*
X225156808Y-141822877D02*
X229857208Y-141822877D01*
X206106808Y-118298477D02*
X220106108Y-118298477D01*
X234457108Y-118722777D02*
X231657108Y-118722777D01*
X234457108Y-119548177D02*
X234457108Y-118722777D01*
X225386808Y-150097957D02*
X231657108Y-150097957D01*
X229857208Y-141822877D02*
X229857208Y-143348377D01*
X225156808Y-127823377D02*
X225156808Y-141822877D01*
X225386808Y-126297877D02*
X229857208Y-126297877D01*
X225386808Y-143348377D02*
X225386808Y-145073627D01*
X231657108Y-150923407D02*
X234457108Y-150923407D01*
X234457108Y-127823377D02*
X234457108Y-126297877D01*
X224186708Y-148372667D02*
X225386808Y-148372667D01*
X234457108Y-126297877D02*
X237687108Y-126297877D01*
X234457108Y-141822877D02*
X239156108Y-141822877D01*
X225386808Y-148372667D02*
X225386808Y-150097957D01*
X224186708Y-145073627D02*
X224186708Y-148372667D01*
X234457108Y-143348377D02*
X234457108Y-141822877D01*
X229857208Y-127823377D02*
X225156808Y-127823377D01*
X237687108Y-150097957D02*
X237687108Y-143348377D01*
X225386808Y-145073627D02*
X224186708Y-145073627D01*
X229857208Y-143348377D02*
X225386808Y-143348377D01*
X231657108Y-150097957D02*
X231657108Y-150923407D01*
X239156108Y-99248377D02*
X239156108Y-113247677D01*
X225156808Y-99248377D02*
X239156108Y-99248377D01*
X168006758Y-132297877D02*
X168006758Y-118298477D01*
X182006308Y-132297877D02*
X168006758Y-132297877D01*
X239156108Y-127823377D02*
X234457108Y-127823377D01*
X182006308Y-118298477D02*
X182006308Y-132297877D01*
X225156808Y-75147677D02*
X225156808Y-61148377D01*
X220106108Y-75147677D02*
X206106808Y-75147677D01*
X201056108Y-80196977D02*
X201056108Y-94197677D01*
X220106108Y-94197677D02*
X206106808Y-94197677D01*
X220106108Y-80196977D02*
X220106108Y-94197677D01*
X182006308Y-113247677D02*
X168006758Y-113247677D01*
X225156808Y-94197677D02*
X225156808Y-80196977D01*
X168006758Y-94197677D02*
X168006758Y-80196977D01*
X206106808Y-75147677D02*
X206106808Y-61148377D01*
X220106108Y-61148377D02*
X220106108Y-75147677D01*
X168006758Y-113247677D02*
X168006758Y-99248377D01*
X182006308Y-80196977D02*
X182006308Y-94197677D01*
X239156108Y-80196977D02*
X239156108Y-94197677D01*
X201056108Y-94197677D02*
X187056808Y-94197677D01*
X206106808Y-61148377D02*
X220106108Y-61148377D01*
X187056808Y-80196977D02*
X201056108Y-80196977D01*
X225156808Y-80196977D02*
X239156108Y-80196977D01*
X168006758Y-61148377D02*
X182006308Y-61148377D01*
X168006758Y-80196977D02*
X182006308Y-80196977D01*
X168006758Y-75147677D02*
X168006758Y-61148377D01*
X225156808Y-61148377D02*
X239156108Y-61148377D01*
X239156108Y-94197677D02*
X225156808Y-94197677D01*
X187056808Y-94197677D02*
X187056808Y-80196977D01*
X201056108Y-61148377D02*
X201056108Y-75147677D01*
X206106808Y-94197677D02*
X206106808Y-80196977D01*
X206106808Y-80196977D02*
X220106108Y-80196977D01*
X187056808Y-75147677D02*
X187056808Y-61148377D01*
X182006308Y-94197677D02*
X168006758Y-94197677D01*
X187056808Y-61148377D02*
X201056108Y-61148377D01*
X182006308Y-99248377D02*
X182006308Y-113247677D01*
X174280958Y-136378397D02*
X174280958Y-137578667D01*
X174280958Y-137578667D02*
X176006308Y-137578667D01*
X193056708Y-137578667D02*
X194782008Y-137578667D01*
X193056708Y-142049007D02*
X193056708Y-137578667D01*
X170981948Y-137578667D02*
X170981948Y-136378397D01*
X176006308Y-142049007D02*
X177531808Y-142049007D01*
X191531208Y-142049007D02*
X193056708Y-142049007D01*
X176006308Y-137578667D02*
X176006308Y-142049007D01*
X170981948Y-136378397D02*
X174280958Y-136378397D01*
X182006308Y-75147677D02*
X168006758Y-75147677D01*
X169256658Y-137578667D02*
X170981948Y-137578667D01*
X169256658Y-143848737D02*
X169256658Y-137578667D01*
X168431198Y-143848737D02*
X169256658Y-143848737D01*
X168431198Y-146647497D02*
X168431198Y-143848737D01*
X201056108Y-75147677D02*
X187056808Y-75147677D01*
X176006308Y-149877697D02*
X169256658Y-149877697D01*
X169256658Y-146647497D02*
X168431198Y-146647497D01*
X169256658Y-149877697D02*
X169256658Y-146647497D01*
X176006308Y-146647497D02*
X176006308Y-149877697D01*
X177531808Y-146647497D02*
X176006308Y-146647497D01*
X240156333Y-59148026D02*
G75*
G02*
X241156333Y-60148026I0J-1000000D01*
G01*
X167006533Y-153348187D02*
G75*
G02*
X166006533Y-152348187I0J1000000D01*
G01*
X166006533Y-152348187D02*
X166006533Y-68148026D01*
X213106333Y-153348187D02*
X167006533Y-153348187D01*
X241156333Y-152348187D02*
G75*
G02*
X240156333Y-153348187I-1000000J0D01*
G01*
X241156333Y-152348187D02*
X241156333Y-60148026D01*
X166006533Y-68148026D02*
X166006533Y-60148026D01*
X213106333Y-153348187D02*
X240156333Y-153348187D01*
X167006533Y-59148026D02*
X240156333Y-59148026D01*
X166006533Y-60148026D02*
G75*
G02*
X167006533Y-59148026I1000000J0D01*
G01*
X182006308Y-75147677D02*
X182006308Y-61148377D01*
X239156108Y-75147677D02*
X239156108Y-61148377D01*
X191531208Y-151347837D02*
X191531208Y-146647367D01*
X177531808Y-151347837D02*
X191531208Y-151347837D01*
X191531208Y-137348377D02*
X177531808Y-137348377D01*
X206106808Y-151347837D02*
X206106808Y-137348377D01*
X220106108Y-151347837D02*
X206106808Y-151347837D01*
X206106808Y-137348377D02*
X220106108Y-137348377D01*
X177531808Y-137348377D02*
X177531808Y-142048877D01*
X191531208Y-142048877D02*
X191531208Y-137348377D01*
X225386808Y-124572577D02*
X225386808Y-126297877D01*
X224186708Y-124572577D02*
X225386808Y-124572577D01*
X224186708Y-121273577D02*
X224186708Y-124572577D01*
X225386808Y-121273577D02*
X224186708Y-121273577D01*
X225386808Y-119548177D02*
X225386808Y-121273577D01*
X231657108Y-119548177D02*
X225386808Y-119548177D01*
X231657108Y-118722777D02*
X231657108Y-119548177D01*
X177531808Y-146647367D02*
X177531808Y-151347837D01*
X220106108Y-137348377D02*
X220106108Y-151347837D01*
X194782008Y-136378397D02*
X198081108Y-136378397D01*
M02*
