<?xml version="1.0" standalone="no"?>
<!DOCTYPE svg PUBLIC "-//W3C//DTD SVG 20010904//EN"
 "http://www.w3.org/TR/2001/REC-SVG-20010904/DTD/svg10.dtd">
<svg version="1.0" xmlns="http://www.w3.org/2000/svg"
 width="300.000000pt" height="283.000000pt" viewBox="0 0 300.000000 283.000000"
 preserveAspectRatio="xMidYMid meet">
<metadata>
Created by potrace 1.10, written by Peter Selinger 2001-2011
</metadata>
<g transform="translate(0.000000,283.000000) scale(0.100000,-0.100000)"
fill="#000000" stroke="none">
<path d="M1162 2781 c-29 -15 -98 -38 -153 -51 l-101 -24 6 -66 c4 -36 9 -146
12 -246 l5 -180 -60 4 c-67 5 -119 -9 -160 -44 -22 -18 -36 -23 -59 -18 l-30
6 20 33 c13 24 24 32 35 28 13 -5 15 -2 10 16 -5 21 77 172 199 369 8 12 11
22 6 22 -8 0 -71 -102 -179 -289 -26 -46 -44 -69 -48 -60 -3 8 -8 47 -13 88
-4 45 -12 76 -19 79 -7 2 -13 -3 -13 -12 0 -8 -19 -30 -41 -48 -23 -18 -57
-46 -76 -63 l-34 -30 11 -225 c12 -233 31 -342 66 -381 15 -17 15 -30 0 -181
-10 -90 -16 -183 -14 -207 3 -48 22 -65 33 -32 3 12 10 21 15 21 8 0 61 -123
59 -138 -4 -24 3 -41 20 -47 24 -7 43 -61 39 -109 -3 -32 6 -47 72 -131 43
-54 90 -102 110 -112 19 -10 37 -19 39 -20 2 -2 -2 -9 -9 -18 -10 -12 -39 -15
-154 -15 -85 0 -180 -6 -235 -16 -51 -9 -105 -14 -119 -11 -39 8 -68 -8 -75
-40 -7 -33 -131 -165 -199 -211 -49 -32 -61 -52 -32 -52 8 0 13 4 9 9 -5 10
56 63 64 56 7 -8 -31 -45 -46 -45 -8 0 -12 -4 -9 -8 2 -4 -22 -39 -55 -77 -69
-82 -84 -135 -16 -60 33 36 50 47 77 49 49 4 50 5 50 17 0 6 -9 8 -22 4 -20
-5 -18 -2 10 24 34 33 58 41 49 17 -11 -27 4 -23 42 13 29 27 111 67 317 158
154 66 291 124 307 127 27 6 27 6 21 -36 -3 -24 -10 -60 -16 -82 -9 -35 -6
-50 10 -52 31 -4 104 -29 109 -37 11 -17 -60 -1 -176 42 -143 52 -174 58 -207
36 -17 -11 -24 -24 -22 -38 4 -26 38 -32 222 -40 114 -5 135 -11 136 -39 0
-18 -50 -7 -60 13 -7 11 -14 18 -17 15 -3 -3 0 -12 7 -21 11 -13 8 -15 -18
-15 -43 0 -233 37 -316 61 -44 13 -72 17 -78 11 -13 -13 -4 -18 83 -47 68 -23
153 -38 301 -51 l67 -6 7 -36 c3 -20 10 -50 14 -67 l8 -30 1 36 c1 48 20 99
36 99 23 0 25 -30 5 -70 -21 -42 -26 -75 -11 -85 5 -3 13 0 17 7 4 6 3 13 -3
15 -12 4 -4 46 15 79 8 15 15 9 47 -39 21 -31 45 -59 55 -62 27 -9 50 5 56 34
13 62 21 71 65 71 38 0 41 -2 35 -22 -17 -62 -18 -94 -2 -107 24 -20 35 -5 29
40 l-6 41 271 -3 c150 -2 268 -6 264 -10 -4 -3 -61 -21 -127 -39 -66 -17 -156
-44 -200 -58 -44 -14 -84 -25 -89 -23 -5 1 -27 -7 -50 -17 -134 -62 -199 -56
-323 26 -51 33 -114 68 -141 76 -30 10 -84 45 -137 87 -57 47 -90 68 -97 61
-6 -6 12 -27 54 -62 34 -29 72 -60 83 -69 49 -41 169 -114 255 -156 52 -25
111 -54 130 -65 41 -23 64 -26 57 -6 -8 19 195 102 368 151 162 46 251 73 290
90 17 7 60 23 98 36 46 16 67 29 67 40 0 15 -11 13 -77 -13 -77 -30 -80 -30
-213 -25 -93 4 -147 11 -174 22 -22 9 -94 29 -160 45 -67 15 -141 34 -166 41
l-45 14 42 3 c23 2 66 -1 95 -7 36 -6 57 -6 66 1 25 21 10 28 -57 28 l-69 0
-21 49 c-11 27 -21 54 -21 60 0 6 18 11 39 11 40 0 40 -1 57 -55 10 -30 21
-55 25 -55 4 0 -1 25 -11 55 l-19 55 45 0 c24 0 44 -4 44 -8 0 -5 7 -17 16
-28 15 -18 15 -18 5 3 -15 31 -14 33 15 33 21 0 24 -3 19 -22 -6 -22 -5 -22 9
-5 14 18 15 17 21 -3 10 -31 1 -36 -67 -39 -10 -1 -18 -5 -18 -11 0 -5 24 -10
53 -10 29 0 58 -5 65 -12 9 -9 13 -7 19 9 7 19 93 70 243 144 54 26 54 26 65
6 12 -24 25 -30 43 -18 11 7 10 16 -8 50 -29 57 -69 224 -76 319 -4 42 -14 98
-24 123 -17 45 -17 46 4 63 47 38 96 64 101 56 15 -23 27 -8 22 25 -3 20 0 65
8 101 15 73 40 115 154 259 39 50 71 95 71 101 0 6 -7 17 -15 24 -8 7 -15 21
-15 32 0 22 48 121 61 126 5 2 9 9 9 16 0 7 50 73 111 146 85 103 109 139 104
155 -18 62 -36 176 -33 219 2 55 -14 72 -56 57 -28 -11 -140 -109 -142 -125
-1 -6 -16 -34 -34 -62 -32 -52 -62 -125 -54 -133 5 -6 5 -7 46 79 20 42 58
101 85 132 47 56 68 71 57 44 -3 -8 2 -63 10 -122 9 -59 15 -108 13 -110 -2
-2 -11 22 -21 54 -32 101 -35 102 -35 5 -1 -84 -3 -92 -22 -98 -24 -8 -39 8
-39 43 0 12 -5 22 -10 22 -6 0 -8 -15 -4 -39 4 -24 2 -41 -5 -45 -20 -13 -13
-39 10 -33 15 4 23 -1 30 -21 6 -15 17 -34 25 -43 12 -14 12 -18 -6 -34 -20
-18 -20 -17 -21 16 -1 40 -17 97 -18 64 0 -11 4 -40 8 -64 9 -42 7 -49 -30
-103 -22 -32 -44 -58 -49 -58 -5 0 -12 25 -15 55 -5 37 -12 55 -21 55 -17 0
-17 -2 1 -70 18 -66 17 -60 6 -60 -6 0 -22 24 -38 52 -27 51 -63 76 -63 44 0
-9 16 -57 35 -108 19 -51 35 -96 35 -100 0 -19 -22 -5 -32 20 -40 97 -58 132
-69 132 -8 0 -7 -6 4 -18 9 -9 26 -47 39 -82 18 -51 28 -66 46 -68 30 -5 29 7
-13 123 -36 100 -40 134 -8 74 10 -18 31 -46 46 -63 22 -22 27 -35 22 -55 -3
-14 -6 -33 -6 -41 -1 -49 -14 -89 -39 -119 l-28 -33 -22 43 c-12 24 -34 59
-48 78 -25 34 -25 35 -9 80 11 33 13 49 5 58 -15 18 -22 16 -33 -9 -6 -13 -21
-28 -35 -35 -27 -14 -34 -38 -10 -38 11 0 15 -11 14 -40 -1 -77 -37 -300 -48
-307 -40 -23 -223 -161 -288 -217 -78 -67 -91 -93 -57 -114 12 -8 24 -5 47 11
27 20 31 20 43 5 10 -11 10 -17 3 -20 -6 -2 -35 -19 -65 -38 -29 -18 -57 -31
-61 -29 -16 10 -8 32 13 37 l21 6 -22 31 c-12 17 -28 29 -35 26 -17 -6 -32 12
-37 44 -2 19 -17 32 -62 54 -80 40 -118 98 -103 154 11 40 5 72 -13 72 -5 0
-10 -8 -10 -18 0 -10 -3 -22 -7 -25 -10 -10 -43 50 -43 78 0 22 4 25 38 25 57
0 139 28 157 53 22 31 19 53 -14 102 -18 27 -26 47 -21 56 5 7 12 34 15 60 5
35 10 46 21 42 7 -3 33 3 57 12 46 17 114 17 110 0 -2 -5 -18 -55 -37 -110
-20 -55 -42 -140 -51 -188 -12 -70 -21 -97 -45 -127 -34 -43 -36 -53 -16 -69
10 -9 16 -9 21 -1 4 6 15 8 26 5 17 -6 19 -1 19 39 0 43 5 50 68 117 37 40
103 104 147 142 133 117 305 278 303 285 -1 4 10 26 25 49 29 45 34 91 15 126
-16 31 -36 45 -91 61 -47 15 -100 10 -241 -20 l-29 -6 39 44 c21 25 77 119
124 208 47 90 90 165 96 167 11 4 19 -20 79 -232 38 -136 61 -195 75 -195 5 0
1 23 -10 51 -11 27 -34 98 -51 157 -27 93 -35 139 -52 275 -3 23 2 31 35 49
21 12 38 28 38 35 0 18 -1 17 -61 -22 -30 -19 -56 -35 -59 -35 -3 0 -18 19
-35 42 -16 22 -43 46 -60 53 -16 7 -118 23 -225 35 -107 12 -226 29 -265 37
-105 23 -106 23 -163 -6z m140 -16 c52 -12 387 -55 428 -55 5 0 10 -20 10 -45
0 -31 -5 -47 -17 -54 -17 -10 -17 -10 0 -11 10 0 16 -4 12 -10 -3 -5 -35 -7
-73 -4 -37 2 -85 4 -107 5 -22 0 -98 6 -168 14 -71 8 -133 13 -138 10 -10 -7
-49 12 -49 24 0 4 10 13 23 19 17 8 18 11 5 11 -25 1 -22 21 2 21 11 0 46 -9
78 -19 72 -24 192 -38 192 -22 0 7 -24 11 -62 12 -35 0 -81 6 -103 13 -39 11
-38 12 47 14 47 1 106 -2 131 -7 24 -6 57 -7 73 -3 41 11 77 4 70 -14 -4 -10
3 -14 29 -14 19 0 35 5 35 10 0 6 -10 10 -23 10 -13 0 -28 5 -35 12 -7 7 -80
12 -219 15 -114 1 -213 5 -219 7 -12 5 -6 76 6 76 5 0 37 -7 72 -15z m-96 -17
c-3 -13 -6 -36 -6 -53 0 -26 -9 -35 -65 -69 l-65 -38 -20 23 c-22 28 -25 39
-8 39 20 0 148 62 148 72 0 5 -15 1 -32 -10 -18 -11 -57 -29 -86 -41 -53 -19
-54 -19 -85 -1 -21 13 -26 21 -16 24 8 2 43 11 79 20 36 10 83 25 105 36 53
24 58 24 51 -2z m604 -64 c0 -8 8 -17 18 -21 20 -7 62 -43 62 -53 0 -4 -42
-26 -92 -50 l-93 -43 -225 2 c-190 2 -227 5 -242 18 -10 9 -18 11 -18 5 0 -21
38 -32 110 -32 45 0 69 -4 65 -10 -8 -13 -81 -13 -145 1 -47 10 -50 13 -50 41
0 17 8 37 18 45 16 14 16 14 0 9 -10 -3 -18 -1 -18 4 0 10 29 8 145 -11 33 -5
107 -11 165 -14 58 -2 135 -5 173 -7 47 -2 67 1 67 9 0 8 11 10 34 6 18 -3 36
-1 39 4 7 11 -40 73 -56 73 -6 0 1 -13 16 -28 32 -33 34 -42 8 -42 -28 0 -39
20 -39 71 0 44 0 45 29 41 16 -2 29 -10 29 -18z m-764 -108 c50 -54 79 -78
103 -82 31 -7 32 -8 26 -48 -3 -22 -24 -99 -47 -171 -22 -71 -43 -136 -45
-144 -3 -11 -11 -7 -31 12 -15 14 -44 33 -64 41 l-37 16 24 26 c14 15 25 31
25 35 0 15 -22 10 -36 -8 -11 -15 -13 0 -14 102 0 66 -3 164 -7 219 -6 95 -6
98 13 88 11 -6 51 -44 90 -86z m144 34 c0 -24 -7 -34 -37 -50 -21 -12 -29 -18
-18 -14 54 18 55 17 55 -11 0 -25 -3 -27 -27 -20 -16 3 -41 19 -56 34 l-28 27
48 32 c26 17 51 32 56 32 4 0 7 -13 7 -30z m684 -95 c-20 -32 -57 -101 -81
-154 -42 -90 -100 -180 -147 -227 -12 -11 -41 -26 -66 -33 -25 -7 -71 -26
-102 -41 -32 -15 -58 -25 -58 -22 0 3 18 82 39 176 22 94 43 190 47 214 5 35
10 42 23 36 44 -19 71 -13 193 39 70 30 138 61 150 70 40 26 41 2 2 -58z
m-255 -31 c-32 -13 -40 -13 -70 0 l-34 14 70 1 70 0 -36 -15z m-129 -15 c0
-28 -104 -459 -115 -480 -8 -15 -20 -71 -25 -125 -6 -55 -18 -125 -27 -158
-13 -46 -14 -62 -5 -77 16 -24 15 -29 -3 -29 -8 0 -29 -18 -46 -40 -28 -34
-38 -40 -71 -40 -29 0 -45 7 -62 25 -26 28 -53 32 -82 10 -25 -19 -54 -19 -83
2 -23 16 -24 17 -4 24 16 6 21 20 26 74 6 60 13 77 72 172 37 58 64 107 61
111 -8 7 -7 8 -61 -78 -26 -41 -44 -66 -41 -55 17 46 46 182 46 211 0 19 -12
48 -32 75 -38 52 -50 36 -14 -18 31 -45 32 -61 6 -117 -21 -47 -52 -67 -130
-85 -64 -15 -77 -14 -83 9 -7 27 -38 38 -50 18 -9 -14 -14 -13 -44 4 -102 61
-105 165 -6 247 53 44 102 55 176 42 83 -15 89 -26 13 -26 -56 0 -70 -5 -141
-46 -43 -25 -81 -51 -83 -57 -6 -19 12 -14 59 18 29 19 47 26 54 19 6 -6 15
-2 26 12 20 27 67 29 103 5 21 -13 26 -24 26 -61 0 -88 -37 -125 -124 -125
-40 0 -47 3 -61 30 -21 40 -19 82 6 116 l21 29 -26 -28 c-28 -31 -35 -82 -15
-120 17 -32 28 -37 87 -37 48 0 58 4 88 34 33 33 35 38 32 98 -3 61 -4 64 -38
81 l-35 19 47 -5 c30 -3 49 0 51 7 2 6 18 0 39 -16 32 -24 95 -132 112 -190 3
-10 11 -18 17 -18 16 0 4 42 -30 110 -17 33 -25 61 -21 70 21 42 91 273 96
316 l6 49 144 1 c79 0 144 -3 144 -7z m895 -164 c2 -16 8 -53 11 -81 l6 -52
-63 -76 c-35 -42 -67 -76 -72 -76 -11 0 -39 69 -32 80 4 6 15 10 25 10 14 0
20 -9 23 -32 4 -29 4 -28 3 5 -1 29 2 37 16 37 10 0 18 5 18 10 0 6 -9 10 -20
10 -18 0 -20 7 -20 58 l1 57 19 -49 c38 -98 51 -73 31 59 -5 33 -12 80 -15
105 l-6 45 30 -57 c17 -32 33 -58 35 -58 3 0 -8 27 -25 60 -37 73 -37 74 -8
81 21 5 24 1 30 -50 4 -31 10 -69 13 -86z m-1737 -40 c7 -14 3 -28 -16 -61
-22 -36 -29 -41 -48 -34 -27 11 -38 -9 -24 -43 7 -16 3 -63 -14 -162 -13 -77
-25 -138 -27 -135 -1 3 -7 106 -13 229 l-11 223 65 49 65 49 6 -49 c4 -26 11
-56 17 -66z m3 -131 c4 -2 -2 -21 -12 -41 -41 -81 -9 -171 75 -211 28 -13 46
-28 43 -35 -5 -13 -41 -240 -53 -332 l-7 -50 -27 125 c-16 69 -36 145 -44 169
-9 24 -15 46 -13 47 11 12 59 -25 66 -51 9 -30 9 -30 10 -3 1 20 -10 34 -49
62 -56 40 -76 46 -61 18 7 -13 6 -30 -3 -55 -17 -51 -23 -53 -30 -14 -4 21 4
93 20 183 15 82 26 159 26 170 -1 17 4 22 26 22 15 0 30 -2 33 -4z m1300 -24
c104 -53 61 -161 -98 -245 -80 -42 -82 -43 -99 -24 -22 25 -45 24 -51 -1 -6
-24 -5 -24 -118 -1 -49 10 -94 17 -100 15 -5 -2 -21 -6 -35 -8 -14 -3 -35 -8
-47 -12 -21 -6 -23 -3 -23 29 0 20 9 60 20 90 20 52 23 55 98 90 42 20 95 39
117 42 l40 6 -37 -21 c-36 -19 -58 -46 -58 -70 0 -17 60 -70 97 -86 39 -17 87
-18 116 -3 45 24 98 72 113 103 14 31 14 31 -3 6 -49 -68 -133 -116 -185 -105
-37 8 -90 34 -70 35 21 0 13 18 -10 22 -34 5 -35 48 -3 71 22 16 25 16 25 2 0
-8 12 -20 26 -25 39 -15 53 -10 17 6 -39 17 -41 28 -8 50 30 20 59 15 63 -11
2 -11 8 -24 14 -30 6 -7 7 0 2 20 -4 17 -12 33 -18 37 -17 11 -2 18 47 20 39
2 51 -2 76 -26 16 -15 34 -25 40 -22 17 11 13 26 -11 47 l-23 18 23 1 c12 0
41 -9 63 -20z m-950 -300 c-14 -49 -28 -85 -32 -79 -4 7 -13 8 -25 2 -11 -6
-49 -24 -85 -42 -37 -18 -74 -40 -84 -51 -15 -17 -15 -19 6 -39 15 -14 36 -21
63 -21 27 0 53 -9 80 -27 23 -15 42 -28 44 -29 8 -4 -30 -73 -43 -77 -8 -4
-15 -12 -15 -20 0 -27 -140 -144 -155 -129 -3 4 -13 22 -21 41 -12 29 -12 50
1 160 23 183 34 251 51 299 15 40 17 42 58 42 53 0 139 25 156 45 26 31 26 13
1 -75z m857 13 c-39 -34 -182 -151 -215 -176 -10 -7 -13 9 -12 74 1 69 2 78
10 52 18 -62 78 -60 67 2 -5 23 -3 25 36 25 27 0 58 10 91 30 67 40 75 38 23
-7z m-122 -1 c-22 -5 -30 3 -21 18 5 8 11 7 22 -2 15 -12 14 -13 -1 -16z
m-120 -93 c0 -43 -1 -79 -3 -79 -7 0 -41 78 -48 108 -8 38 7 62 33 55 14 -3
17 -17 18 -84z m78 49 c8 -32 -12 -48 -30 -24 -19 27 -18 46 5 46 11 0 21 -9
25 -22z m-1039 -201 l35 -149 -20 -79 c-16 -63 -18 -84 -9 -101 11 -21 12 -21
25 -3 8 10 14 27 14 36 0 50 14 48 36 -7 l23 -58 -32 -28 c-18 -15 -38 -27
-45 -28 -12 0 -87 146 -84 162 1 5 -6 16 -16 26 -17 17 -17 26 3 215 11 117
23 191 27 180 4 -10 24 -85 43 -166z m906 146 c7 -21 23 -52 35 -69 l24 -31
-29 -27 -30 -28 -5 33 c-9 63 -17 159 -12 159 2 0 10 -17 17 -37z m445 -103
l30 -56 -29 -39 c-16 -22 -30 -40 -32 -40 -3 0 -17 21 -33 46 -28 43 -29 49
-20 105 14 87 16 90 36 63 10 -13 32 -49 48 -79z m137 80 c3 -11 1 -20 -4 -20
-5 0 -9 9 -9 20 0 11 2 20 4 20 2 0 6 -9 9 -20z m-1183 -20 c-11 -20 -30 -28
-30 -12 0 11 22 32 32 32 5 0 4 -9 -2 -20z m582 -52 c4 -70 3 -75 -26 -110
-53 -63 -54 -55 -13 100 12 45 24 82 28 82 4 0 9 -33 11 -72z m-632 37 c0 -8
14 -21 30 -30 37 -19 38 -28 3 -46 -20 -11 -27 -11 -30 -1 -3 6 -11 12 -18 12
-8 0 -12 11 -11 29 1 16 0 29 -3 29 -16 -1 -22 3 -16 12 10 16 45 12 45 -5z
m-47 -35 c4 -16 0 -20 -22 -20 -36 0 -45 10 -23 26 24 19 39 17 45 -6z m486
-75 c-13 -13 -34 -26 -47 -30 -21 -6 -21 -5 -11 18 6 14 22 31 35 38 13 7 24
17 24 23 0 6 5 3 11 -8 9 -15 7 -23 -12 -41z m604 -111 c-9 -14 -21 -20 -33
-17 -21 6 -26 41 -14 102 l7 32 27 -48 c25 -43 26 -50 13 -69z m-841 66 c-1
-14 8 -34 22 -49 27 -30 86 -143 86 -166 0 -9 12 -28 28 -42 l27 -26 -100 5
c-55 3 -110 10 -122 16 -21 12 -21 13 -5 42 l17 29 11 -32 c6 -17 15 -31 20
-30 12 4 14 91 3 121 -10 27 -39 29 -39 3 0 -10 -7 -32 -15 -47 -12 -24 -15
-26 -15 -8 0 23 -18 44 -38 44 -11 0 -12 -12 -7 -55 9 -66 -8 -81 -48 -41 -15
14 -38 26 -52 26 -14 0 -25 3 -25 6 0 3 34 42 75 86 41 44 75 85 75 91 1 13
79 55 95 52 6 -1 9 -13 7 -25z m803 -110 c-3 -5 2 -10 12 -11 12 0 14 -2 4 -6
-11 -5 -11 -7 0 -14 12 -7 11 -11 -2 -24 -15 -15 -17 -15 -23 9 -3 14 -11 26
-16 26 -5 0 -7 7 -4 15 4 8 13 15 21 15 8 0 11 -4 8 -10z m-18 -104 c-2 -6
-11 4 -21 22 -9 18 -14 38 -9 44 8 14 36 -47 30 -66z m-30 12 c17 -30 18 -36
5 -59 -14 -24 -80 -69 -101 -69 -6 0 -11 6 -11 13 0 6 -6 24 -14 39 -14 26
-13 28 19 53 l34 25 7 -35 c3 -19 13 -40 22 -47 13 -11 14 -11 8 1 -17 27 -25
85 -14 98 16 20 24 16 45 -19z m-1022 -30 c-4 -9 -21 -23 -38 -32 -29 -14 -33
-14 -38 2 -4 9 -1 19 5 21 6 2 13 7 16 11 11 14 45 28 53 21 4 -4 5 -15 2 -23z
m73 -24 c12 -8 22 -22 22 -30 0 -8 5 -14 11 -14 5 0 8 -4 5 -9 -3 -5 -31 -12
-63 -16 -31 -4 -67 -11 -79 -16 -57 -21 -26 41 41 82 36 23 35 23 63 3z m1002
-9 c0 -8 -6 -12 -14 -9 -8 3 -12 12 -9 20 6 17 23 9 23 -11z m-895 -6 c14 -21
63 -31 167 -33 70 -1 112 -6 120 -14 6 -6 21 -12 33 -12 27 0 39 -11 43 -37 3
-18 0 -22 -15 -16 -10 3 -31 17 -46 30 -27 22 -36 23 -188 23 l-159 0 0 23 c0
36 31 60 45 36z m718 -31 c9 -23 16 -42 14 -44 -1 -1 -17 -9 -35 -18 -37 -19
-56 -12 -68 27 -5 16 2 27 27 48 19 16 37 29 40 29 3 0 13 -19 22 -42z m-91
-104 c-22 -17 -27 -17 -42 1 -10 13 -9 15 9 15 24 0 28 15 6 24 -8 3 -15 1
-15 -4 0 -6 -10 -10 -22 -10 -21 1 -20 3 11 29 l35 28 17 -35 c17 -33 18 -36
1 -48z m-867 38 c-1 -1 -12 -4 -23 -7 -11 -2 -30 -9 -41 -15 -14 -7 -27 -8
-39 -1 -16 9 -16 10 0 16 9 4 23 3 30 -1 7 -4 10 -4 6 1 -4 4 2 16 14 27 20
17 22 17 38 1 10 -10 16 -19 15 -21z m520 9 c17 -7 14 -10 -20 -21 -74 -24
-173 -79 -180 -100 -11 -35 4 -41 38 -16 33 25 189 96 210 96 7 0 23 -9 36
-19 l24 -19 -49 -56 c-38 -43 -53 -54 -69 -49 -11 3 -48 6 -82 6 -35 0 -63 3
-63 8 0 14 -28 11 -32 -3 -3 -9 -38 -12 -129 -10 -160 3 -209 10 -216 31 -3 9
-19 28 -35 43 -39 37 -36 54 12 66 39 10 46 7 130 -39 89 -49 110 -54 169 -43
45 9 40 34 -7 34 -45 0 -136 25 -169 47 -34 22 -17 35 59 43 86 10 348 10 373
1z m490 -67 c8 -20 17 -72 21 -117 3 -45 17 -122 29 -172 13 -49 22 -92 20
-94 -6 -5 -41 78 -50 118 -4 18 -13 44 -21 59 -8 15 -14 37 -14 50 0 27 -42
113 -65 132 -14 11 -11 15 22 36 21 13 39 24 40 24 2 0 9 -16 18 -36z m-85 21
c0 -2 -10 -10 -22 -16 -21 -11 -22 -11 -9 4 13 16 31 23 31 12z m-255 -55 c-5
-21 -2 -39 9 -54 17 -27 14 -32 -43 -61 -36 -18 -101 -81 -101 -97 0 -5 -4 -7
-9 -4 -5 4 -11 3 -13 -2 -5 -13 -78 -52 -97 -52 -13 0 1 20 46 66 34 37 63 70
63 75 0 4 24 32 53 61 28 29 60 63 69 76 24 30 31 28 23 -8z m252 -23 c11 -17
24 -46 28 -63 5 -26 2 -34 -20 -48 -21 -14 -25 -14 -25 -2 0 19 -42 127 -47
122 -3 -2 5 -32 17 -65 24 -65 22 -84 -8 -100 -18 -9 -22 -3 -46 65 -15 42
-26 77 -24 79 10 8 85 44 93 44 6 1 20 -14 32 -32z m-950 -47 c11 -16 10 -21
-6 -29 -15 -9 -20 -7 -24 11 -11 39 10 51 30 18z m831 -32 c36 -97 36 -97 8
-110 -15 -6 -28 -9 -30 -7 -2 2 -13 35 -24 73 -20 65 -20 70 -4 82 26 20 29
18 50 -38z m-55 -55 c22 -67 22 -71 5 -82 -10 -6 -20 -11 -22 -11 -2 0 -16 30
-30 66 l-26 65 22 19 c13 10 24 17 25 16 2 -1 13 -34 26 -73z m-553 43 c-7 -7
-14 -6 -21 1 -9 9 -7 12 9 10 14 -1 18 -5 12 -11z m-40 -6 c0 -7 -94 -100
-102 -100 -9 0 -78 89 -78 101 0 8 180 8 180 -1z m350 2 c0 -4 -27 -34 -60
-67 l-59 -59 -11 28 c-5 15 -10 45 -10 67 l0 39 70 0 c39 0 70 -4 70 -8z
m-170 -32 c0 -17 7 -47 15 -67 8 -20 14 -37 13 -39 -2 -1 -26 2 -53 7 -28 6
-86 13 -129 17 l-79 7 64 53 c59 48 68 52 116 52 52 0 53 0 53 -30z m359 -49
c22 -56 23 -63 9 -77 -14 -15 -17 -12 -28 22 -16 49 -27 61 -41 47 -8 -8 -4
-23 11 -53 15 -30 19 -45 11 -53 -16 -16 -13 -31 3 -18 11 9 15 8 20 -5 8 -22
8 -22 -39 -16 -39 4 -40 5 -63 70 l-22 67 45 43 c25 24 51 42 58 39 6 -2 23
-32 36 -66z m285 23 c5 -16 0 -23 -20 -33 -31 -14 -29 -14 -38 21 -5 21 -1 30
16 42 24 17 29 13 42 -30z m-82 -77 l-27 -28 -9 37 c-8 33 -6 39 15 55 24 18
24 18 36 -9 10 -24 8 -30 -15 -55z m-50 -60 c-16 -18 -18 -17 -38 29 l-21 49
26 11 c25 10 27 9 38 -30 11 -35 10 -43 -5 -59z m156 69 c1 -15 -5 -26 -16
-30 -9 -3 -22 -9 -29 -12 -6 -3 -13 1 -16 8 -2 7 -3 6 -2 -3 1 -9 -11 -24 -26
-33 -48 -28 -36 6 17 53 54 47 69 51 72 17z m-434 -42 c10 -31 16 -57 14 -59
-2 -1 -17 -6 -34 -9 -30 -7 -31 -6 -42 41 -10 44 -9 49 11 65 12 10 25 18 28
18 3 0 13 -25 23 -56z m-404 21 c0 -30 -60 -24 -73 7 -3 10 6 12 34 10 23 -3
39 -9 39 -17z m634 -24 c25 -48 25 -49 5 -67 -23 -21 -30 -15 -53 45 -16 41
-16 44 1 57 10 7 19 14 20 14 2 0 14 -22 27 -49z m-546 -39 c6 -38 20 -90 31
-115 l20 -47 -24 0 c-14 0 -25 -4 -25 -9 0 -4 11 -6 25 -3 26 4 33 -6 49 -70
6 -26 6 -26 -32 -16 -20 6 -46 11 -57 12 -17 1 -21 13 -32 101 -6 55 -12 126
-12 158 -1 53 1 57 22 57 21 0 24 -7 35 -68z m232 58 c0 -5 -7 -10 -16 -10 -8
0 -12 5 -9 10 3 6 10 10 16 10 5 0 9 -4 9 -10z m-164 -8 c5 -4 15 -28 21 -54
l10 -48 -38 0 c-36 0 -38 2 -44 38 -3 20 -8 45 -10 55 -2 13 3 17 23 17 15 0
32 -4 38 -8z m59 -10 c6 -4 18 -23 27 -44 l17 -36 -26 -7 c-27 -6 -42 6 -43
35 0 8 -3 25 -6 38 -6 22 10 30 31 14z m369 -51 c16 -41 16 -44 -1 -56 -16
-12 -20 -9 -35 38 -12 38 -14 55 -6 65 14 16 21 9 42 -47z m276 33 c6 -15 20
-40 31 -56 12 -16 20 -30 18 -32 -11 -8 -70 -28 -73 -25 -6 9 -46 112 -44 114
11 8 44 24 51 25 4 0 12 -12 17 -26z m-526 -18 c7 -35 8 -34 -32 -42 -28 -6
-32 -3 -46 31 -9 21 -16 39 -16 40 0 1 20 2 44 1 41 -1 45 -4 50 -30z m471
-51 l23 -55 -42 -23 c-22 -13 -58 -34 -78 -46 l-37 -22 -20 47 c-22 49 -21 58
9 74 16 8 20 3 36 -41 10 -28 20 -46 22 -40 2 6 -4 31 -13 56 -14 36 -15 48
-5 60 18 22 25 19 39 -20 7 -19 17 -35 22 -35 5 0 0 18 -10 39 l-20 39 22 15
c12 8 24 13 26 11 2 -2 14 -28 26 -59z m-101 29 c-10 -7 -42 -36 -70 -64 -40
-40 -53 -48 -57 -36 -4 10 2 20 16 27 12 7 42 31 67 55 24 23 48 40 54 37 5
-3 0 -12 -10 -19z m-698 8 c-3 -5 1 -58 9 -118 8 -60 15 -110 15 -111 0 -1
-17 5 -39 14 l-38 15 18 101 c10 56 19 103 19 105 0 1 5 2 11 2 5 0 8 -4 5 -8z
m438 -66 l16 -38 -38 7 c-42 7 -47 11 -56 42 -6 19 -3 22 26 25 18 2 34 3 34
3 1 0 9 -17 18 -39z m47 34 c29 -8 39 -18 52 -51 l16 -41 -31 6 c-17 3 -36 6
-43 6 -7 0 -18 12 -23 28 -5 15 -13 35 -17 45 -8 20 -3 21 46 7z m-702 -34
c-3 -3 -22 -12 -42 -21 -32 -13 -37 -13 -37 -1 0 8 12 23 28 35 23 17 29 18
41 6 8 -8 13 -17 10 -19z m101 29 c0 -4 -66 -35 -75 -35 -1 0 -5 9 -8 20 -5
18 0 20 39 20 24 0 44 -2 44 -5z m476 -52 c-1 -1 -20 1 -44 4 -32 4 -42 10
-42 24 0 13 9 19 33 21 26 2 34 -2 43 -22 6 -14 11 -26 10 -27z m-726 40 c-1
-5 -7 -19 -15 -33 -8 -14 -14 -32 -15 -40 0 -8 10 6 23 30 12 25 29 46 39 48
14 3 15 -2 6 -36 -8 -32 -17 -43 -54 -60 -40 -20 -44 -20 -44 -4 0 30 19 85
32 94 16 10 28 10 28 1z m77 -11 c-10 -10 -17 -26 -17 -35 0 -9 -4 -17 -9 -17
-6 0 -6 12 0 32 5 18 9 34 9 35 0 2 7 3 17 3 15 0 15 -1 0 -18z m-142 -48 c-8
-43 -17 -59 -36 -70 -13 -7 -27 -13 -31 -14 -4 0 -6 28 -5 63 2 58 4 62 27 65
l25 4 -22 -24 c-13 -13 -23 -28 -23 -33 0 -5 14 7 31 28 17 20 34 37 38 37 4
0 2 -25 -4 -56z m695 42 c0 -12 -7 -13 -31 -6 -46 13 -48 20 -6 20 25 0 37 -4
37 -14z m-820 -5 c0 -15 -20 -24 -21 -9 0 7 -5 3 -11 -9 -6 -13 -15 -23 -20
-23 -5 0 -6 6 -1 13 4 6 8 15 9 20 1 4 2 9 3 12 2 9 41 5 41 -4z m721 -11 c25
-7 39 -18 43 -33 9 -35 8 -37 -29 -37 -19 0 -35 2 -35 4 0 2 -7 20 -15 40 -17
40 -16 40 36 26z m-687 -57 c-2 -40 -8 -61 -20 -70 -33 -24 -44 -16 -44 32 0
37 5 51 26 70 15 14 30 25 34 25 4 0 6 -26 4 -57z m798 23 c14 -20 8 -26 -22
-26 -16 0 -30 4 -30 9 0 5 -3 17 -6 26 -5 13 -2 15 22 9 16 -4 32 -12 36 -18z
m98 -12 c0 -10 -12 -14 -40 -14 -22 0 -40 2 -40 4 0 2 -2 10 -5 18 -4 10 5 12
40 10 30 -3 45 -9 45 -18z m262 -15 c17 -39 17 -40 -5 -48 -18 -8 -24 -4 -35
20 -10 23 -10 33 0 49 17 27 21 26 40 -21z m-177 11 c18 -8 18 -9 -5 -8 -14 0
-36 4 -50 8 -24 8 -24 8 5 8 17 0 39 -3 50 -8z m-1057 -50 c0 -45 -3 -52 -29
-65 l-29 -16 0 38 c0 26 8 45 27 65 15 15 28 28 29 28 2 0 3 -23 2 -50z m822
18 c0 -2 7 -24 15 -50 l14 -48 -38 0 c-34 0 -39 3 -45 28 -3 15 -8 37 -12 50
-6 20 -3 22 30 22 20 0 36 -1 36 -2z m70 -11 c0 -7 9 -30 20 -52 11 -22 20
-40 20 -40 0 -1 -15 1 -33 3 -30 3 -35 9 -49 53 l-16 49 29 0 c17 0 29 -5 29
-13z m-530 -32 c30 -7 75 -20 100 -29 44 -14 41 -14 -75 -9 -149 6 -158 8
-120 33 35 23 26 23 95 5z m-435 -31 c-1 -17 -10 -31 -26 -40 -48 -26 -53 -12
-11 34 33 38 38 39 37 6z m898 -54 l39 0 -29 -34 c-30 -37 -60 -44 -107 -26
-34 13 -33 4 4 -27 51 -42 70 -93 35 -93 -13 0 -78 93 -89 127 -4 12 -13 27
-22 34 -13 10 -13 14 1 29 14 16 21 16 73 4 31 -8 74 -14 95 -14z m-958 -18
c11 -6 14 -12 8 -12 -19 0 -26 -2 -51 -11 l-23 -9 17 30 c10 16 21 26 24 21 3
-4 14 -13 25 -19z m1145 -39 c58 -14 134 -34 170 -44 l65 -19 -80 7 c-44 4
-91 7 -105 6 -29 -1 -233 27 -239 33 -3 2 6 16 20 30 16 17 30 23 44 19 11 -3
67 -18 125 -32z m-410 0 c0 -10 -20 -40 -20 -31 0 3 -3 13 -6 22 -4 11 -1 16
10 16 9 0 16 -3 16 -7z m213 -33 c10 0 15 -5 12 -10 -4 -6 -11 -7 -17 -4 -7 5
-9 2 -5 -8 9 -25 -21 -16 -40 12 -16 23 -16 23 8 17 13 -4 32 -7 42 -7z m89
-260 c-30 -14 -49 -17 -65 -10 -20 8 -18 9 13 10 19 1 44 5 55 10 11 5 25 9
30 9 6 0 -9 -9 -33 -19z"/>
<path d="M400 556 c-13 -25 -21 -48 -17 -52 4 -4 7 -2 7 5 0 6 10 25 21 40 12
16 20 34 18 40 -2 6 -15 -9 -29 -33z"/>
<path d="M2123 2039 c9 -6 30 -36 47 -67 16 -31 29 -50 29 -42 1 27 -59 120
-77 120 -16 -1 -16 -1 1 -11z"/>
<path d="M2228 1890 c-7 -24 -3 -38 8 -28 3 4 4 17 2 30 l-3 23 -7 -25z"/>
<path d="M1965 570 c-31 -32 -42 -37 -57 -29 -12 6 -18 6 -18 -1 0 -5 8 -10
18 -10 23 0 -14 -31 -135 -116 -51 -36 -93 -67 -93 -70 0 -8 30 11 135 85 55
39 106 71 113 71 7 0 10 5 7 10 -7 12 5 13 21 2 5 -4 20 -24 33 -44 23 -38 38
-51 27 -23 -3 8 -2 15 3 15 10 0 170 -66 291 -120 136 -60 187 -77 268 -85 44
-4 76 -13 84 -22 13 -16 13 -19 16 -145 2 -73 5 -88 18 -88 14 0 15 13 12 95
-2 75 0 96 11 100 11 4 8 12 -12 33 -15 16 -27 33 -27 40 0 7 -4 12 -8 12 -4
0 -37 32 -72 72 -36 40 -56 68 -45 64 43 -17 50 -17 31 -2 -11 9 -27 16 -36
16 -18 0 -60 40 -60 56 0 5 -55 15 -122 23 -154 16 -240 37 -299 73 -25 15
-50 28 -56 28 -5 0 -26 -18 -48 -40z m96 -17 c28 -16 47 -33 44 -40 -7 -19 5
-43 21 -43 7 0 19 9 27 20 12 17 20 19 51 13 l36 -8 -17 -25 -17 -24 -7 24 -7
25 -1 -27 c-1 -35 13 -35 43 -3 l24 26 65 -17 c70 -17 75 -26 34 -69 -19 -20
-20 -20 -14 18 4 22 2 35 -4 32 -12 -8 -12 -75 0 -75 12 0 61 58 61 73 0 26
19 -11 22 -43 l3 -35 24 38 c22 36 24 37 42 21 11 -9 19 -27 18 -38 -1 -19 -2
-18 -10 4 -5 16 -6 3 -3 -39 7 -74 19 -73 -139 -8 l-99 40 31 24 c17 14 31 29
31 35 0 7 -11 1 -25 -12 l-25 -24 5 35 6 34 -15 -38 c-8 -21 -16 -40 -18 -42
-2 -2 -40 13 -83 34 -44 22 -103 47 -132 56 -70 23 -85 41 -53 66 14 10 27 19
29 19 1 0 25 -12 52 -27z m89 -43 c0 -4 -6 -13 -14 -19 -15 -13 -32 1 -22 17
6 10 36 11 36 2z m300 -67 c0 -5 -5 -15 -10 -23 -8 -12 -10 -11 -10 8 0 12 5
22 10 22 6 0 10 -3 10 -7z m100 -85 c0 -7 9 -28 21 -47 17 -28 18 -33 4 -27
-9 3 -21 6 -26 6 -5 0 -10 19 -11 43 l-1 42 -4 -42 c-2 -24 -8 -43 -14 -43
-10 0 -13 69 -3 94 5 13 8 13 20 1 8 -7 14 -20 14 -27z m75 -68 c3 -5 -1 -10
-9 -10 -9 0 -16 5 -16 10 0 6 4 10 9 10 6 0 13 -4 16 -10z"/>
<path d="M2004 275 c-66 -12 -114 -29 -114 -41 0 -2 9 0 20 6 11 6 52 15 91
19 39 5 76 14 82 20 13 13 12 13 -79 -4z"/>
<path d="M2476 39 c-52 -34 -56 -39 -32 -39 37 0 107 46 100 65 -4 8 -7 15 -8
14 0 0 -28 -18 -60 -40z"/>
<path d="M167 54 c-8 -13 27 -58 41 -53 7 3 3 15 -11 33 -13 16 -26 25 -30 20z"/>
</g>
</svg>
