M48
; DRILL file {KiCad (5.1.7)-1} date 12/06/20 21:21:47
; FORMAT={-:-/ absolute / inch / decimal}
; #@! TF.CreationDate,2020-12-06T21:21:47-08:00
; #@! TF.GenerationSoftware,Kicad,Pcbnew,(5.1.7)-1
; #@! TF.FileFunction,Plated,1,2,PTH
FMAT,2
INCH
T1C0.0157
T2C0.0394
T3C0.0409
T4C0.0433
T5C0.0579
T6C0.0591
T7C0.0866
%
G90
G05
T1
X5.4983Y-2.6045
X5.4983Y-3.3525
X5.5539Y-3.3463
X5.5619Y-4.0885
X6.2859Y-2.6345
X6.3039Y-3.4145
X6.3079Y-4.1565
X6.3179Y-2.6045
X6.3455Y-4.1176
X6.5862Y-3.5855
X7.1526Y-2.765
X7.1898Y-2.225
X7.5414Y-4.7611
X7.5759Y-4.0285
X7.5792Y-4.7047
X7.7128Y-3.5305
X7.7273Y-3.4699
X7.7483Y-3.4085
T2
X7.7288Y-2.2482
X7.7288Y-2.3466
X7.7288Y-2.445
X8.2996Y-2.2482
X8.2996Y-2.445
X6.0251Y-4.1694
X6.0251Y-4.2694
X6.1251Y-4.1694
X6.1251Y-4.2694
X6.2251Y-4.1694
X6.2251Y-4.2694
T3
X6.099Y-5.5419
X6.199Y-5.5419
X5.724Y-2.5419
X5.824Y-2.5419
X8.224Y-4.9169
X8.224Y-5.0169
T4
X6.1316Y-2.4025
X6.1316Y-2.5025
X6.1316Y-2.6025
X6.1316Y-2.7025
X6.1316Y-2.8025
X6.1316Y-2.9025
X6.1316Y-3.0025
X6.1316Y-3.1025
X6.1316Y-3.2025
X6.1316Y-3.3025
X6.1316Y-3.4025
X6.1316Y-3.5025
X6.9285Y-2.4025
X6.9285Y-2.5025
X6.9285Y-2.6025
X6.9285Y-2.7025
X6.9285Y-2.8025
X6.9285Y-2.9025
X6.9285Y-3.0025
X6.9285Y-3.1025
X6.9285Y-3.2025
X6.9285Y-3.3025
X6.9285Y-3.4025
X6.9285Y-3.5025
T5
X6.374Y-2.2419
X6.624Y-2.1419
X7.124Y-2.9919
X7.374Y-2.8919
X6.374Y-2.9919
X6.624Y-2.8919
X5.624Y-2.2419
X5.874Y-2.1419
X7.124Y-5.2419
X7.374Y-5.1419
X7.824Y-4.8669
X7.924Y-5.1169
X7.124Y-3.7419
X7.374Y-3.6419
X5.624Y-2.9919
X5.874Y-2.8919
X7.874Y-3.7419
X8.124Y-3.6419
X6.374Y-4.4919
X6.624Y-4.3919
X5.624Y-3.7419
X5.874Y-3.6419
X7.874Y-2.9919
X8.124Y-2.8919
X5.624Y-4.4919
X5.874Y-4.3919
X5.999Y-5.2419
X6.249Y-5.1419
X7.124Y-2.2419
X7.374Y-2.1419
X7.124Y-4.4919
X7.374Y-4.3919
X6.374Y-3.7419
X6.624Y-3.6419
T7
X5.9075Y-2.7181
X7.6418Y-2.7224
X6.899Y-3.8419
X7.4075Y-4.9669
X6.1446Y-4.7324
T6
G00X7.9985Y-2.1261
M15
G01X8.0496Y-2.1261
M16
G05
G00X7.9985Y-2.5671
M15
G01X8.0496Y-2.5671
M16
G05
T0
M30
