G04 #@! TF.GenerationSoftware,KiCad,Pcbnew,(5.1.7)-1*
G04 #@! TF.CreationDate,2020-12-29T23:42:53-08:00*
G04 #@! TF.ProjectId,dropout,64726f70-6f75-4742-9e6b-696361645f70,rev?*
G04 #@! TF.SameCoordinates,Original*
G04 #@! TF.FileFunction,Soldermask,Bot*
G04 #@! TF.FilePolarity,Negative*
%FSLAX46Y46*%
G04 Gerber Fmt 4.6, Leading zero omitted, Abs format (unit mm)*
G04 Created by KiCad (PCBNEW (5.1.7)-1) date 2020-12-29 23:42:53*
%MOMM*%
%LPD*%
G01*
G04 APERTURE LIST*
%ADD10C,3.700000*%
%ADD11C,1.752600*%
%ADD12R,1.752600X1.752600*%
%ADD13R,0.650000X1.050000*%
%ADD14R,2.000000X2.000000*%
%ADD15C,2.000000*%
%ADD16R,3.200000X2.000000*%
%ADD17C,2.250000*%
%ADD18C,3.987800*%
%ADD19C,1.750000*%
%ADD20R,1.905000X1.905000*%
%ADD21C,1.905000*%
%ADD22C,3.048000*%
%ADD23C,1.998980*%
%ADD24R,1.998980X1.998980*%
%ADD25R,1.524000X1.524000*%
G04 APERTURE END LIST*
D10*
X116627231Y-99404735D03*
X173777032Y-61304735D03*
X116627232Y-61304735D03*
X173777032Y-99404735D03*
X145227507Y-122929235D03*
D11*
X145827169Y-80784236D03*
X145827169Y-60464236D03*
X125587169Y-73164236D03*
X125587169Y-78244236D03*
X125587169Y-75704236D03*
X125587169Y-52844236D03*
X145827169Y-70624236D03*
X125587169Y-63004236D03*
X145827169Y-78244236D03*
X145827169Y-57924236D03*
X145827169Y-75704236D03*
X125587169Y-68084236D03*
X125587169Y-65544236D03*
X125587169Y-60464236D03*
D12*
X145827169Y-52844236D03*
D11*
X145827169Y-55384236D03*
X145827169Y-63004236D03*
X125587169Y-70624236D03*
X145827169Y-65544236D03*
X145827169Y-73164236D03*
X125587169Y-57924236D03*
X125587169Y-55384236D03*
X125587169Y-80784236D03*
X145827169Y-68084236D03*
D12*
X143327169Y-46594236D03*
D11*
X143327169Y-49134236D03*
X143327169Y-59294236D03*
X143327169Y-56754236D03*
X143327169Y-61834236D03*
X143327169Y-69454236D03*
X143327169Y-71994236D03*
X128087169Y-74534236D03*
X128087169Y-71994236D03*
X143327169Y-66914236D03*
X128087169Y-69454236D03*
X143327169Y-51674236D03*
X143327169Y-54214236D03*
X143327169Y-64374236D03*
X128087169Y-51674236D03*
X128087169Y-64374236D03*
X128087169Y-49134236D03*
X128087169Y-54214236D03*
X128087169Y-61834236D03*
X128087169Y-46594236D03*
X143327169Y-74534236D03*
X128087169Y-59294236D03*
X128087169Y-56754236D03*
X128087169Y-66914236D03*
D13*
X112633956Y-62933936D03*
X112633956Y-58783936D03*
X110483956Y-62933936D03*
X110483956Y-58783936D03*
D14*
X166037963Y-49398482D03*
D15*
X166037963Y-51898482D03*
X166037963Y-54398482D03*
D16*
X173537963Y-46298482D03*
X173537963Y-57498482D03*
D15*
X180537963Y-49398482D03*
X180537963Y-54398482D03*
G36*
G01*
X122013697Y-58317133D02*
X121113695Y-58317133D01*
G75*
G02*
X120863696Y-58067134I0J249999D01*
G01*
X120863696Y-57417132D01*
G75*
G02*
X121113695Y-57167133I249999J0D01*
G01*
X122013697Y-57167133D01*
G75*
G02*
X122263696Y-57417132I0J-249999D01*
G01*
X122263696Y-58067134D01*
G75*
G02*
X122013697Y-58317133I-249999J0D01*
G01*
G37*
G36*
G01*
X122013697Y-60367133D02*
X121113695Y-60367133D01*
G75*
G02*
X120863696Y-60117134I0J249999D01*
G01*
X120863696Y-59467132D01*
G75*
G02*
X121113695Y-59217133I249999J0D01*
G01*
X122013697Y-59217133D01*
G75*
G02*
X122263696Y-59467132I0J-249999D01*
G01*
X122263696Y-60117134D01*
G75*
G02*
X122013697Y-60367133I-249999J0D01*
G01*
G37*
D17*
X157267032Y-46699735D03*
D18*
X154727032Y-51779735D03*
D17*
X150917032Y-49239735D03*
D19*
X149647032Y-51779735D03*
X159807032Y-51779735D03*
D17*
X176317032Y-84799735D03*
D18*
X173777032Y-89879735D03*
D17*
X169967032Y-87339735D03*
D19*
X168697032Y-89879735D03*
X178857032Y-89879735D03*
X121707032Y-51779735D03*
X111547032Y-51779735D03*
D20*
X117897032Y-56859735D03*
D21*
X115357032Y-56859735D03*
D17*
X112817032Y-49239735D03*
D18*
X116627032Y-51779735D03*
D17*
X119167032Y-46699735D03*
X176317032Y-65749735D03*
D18*
X173777032Y-70829735D03*
D17*
X169967032Y-68289735D03*
D19*
X168697032Y-70829735D03*
X178857032Y-70829735D03*
D17*
X176317032Y-46699735D03*
D18*
X173777032Y-51779735D03*
D17*
X169967032Y-49239735D03*
D19*
X168697032Y-51779735D03*
X178857032Y-51779735D03*
D17*
X168697032Y-115914735D03*
D18*
X173777032Y-118454735D03*
D17*
X171237032Y-122264735D03*
D19*
X173777032Y-123534735D03*
X173777032Y-113374735D03*
D22*
X180762032Y-130360985D03*
X180762032Y-106548485D03*
D18*
X165522032Y-130360985D03*
X165522032Y-106548485D03*
D17*
X157267032Y-122899735D03*
D18*
X154727032Y-127979735D03*
D17*
X150917032Y-125439735D03*
D19*
X149647032Y-127979735D03*
X159807032Y-127979735D03*
D17*
X138217032Y-46699735D03*
D18*
X135677032Y-51779735D03*
D17*
X131867032Y-49239735D03*
D19*
X130597032Y-51779735D03*
X140757032Y-51779735D03*
D17*
X157267032Y-65749735D03*
D18*
X154727032Y-70829735D03*
D17*
X150917032Y-68289735D03*
D19*
X149647032Y-70829735D03*
X159807032Y-70829735D03*
D17*
X138217032Y-65749735D03*
D18*
X135677032Y-70829735D03*
D17*
X131867032Y-68289735D03*
D19*
X130597032Y-70829735D03*
X140757032Y-70829735D03*
D17*
X119167032Y-65749735D03*
D18*
X116627032Y-70829735D03*
D17*
X112817032Y-68289735D03*
D19*
X111547032Y-70829735D03*
X121707032Y-70829735D03*
D17*
X157267263Y-84799727D03*
D18*
X154727263Y-89879727D03*
D17*
X150917263Y-87339727D03*
D19*
X149647263Y-89879727D03*
X159807263Y-89879727D03*
D17*
X138217032Y-84799735D03*
D18*
X135677032Y-89879735D03*
D17*
X131867032Y-87339735D03*
D19*
X130597032Y-89879735D03*
X140757032Y-89879735D03*
D17*
X119167032Y-84799735D03*
D18*
X116627032Y-89879735D03*
D17*
X112817032Y-87339735D03*
D19*
X111547032Y-89879735D03*
X121707032Y-89879735D03*
D17*
X157267032Y-103849735D03*
D18*
X154727032Y-108929735D03*
D17*
X150917032Y-106389735D03*
D19*
X149647032Y-108929735D03*
X159807032Y-108929735D03*
D17*
X138217032Y-103849735D03*
D18*
X135677032Y-108929735D03*
D17*
X131867032Y-106389735D03*
D19*
X130597032Y-108929735D03*
X140757032Y-108929735D03*
D17*
X119167032Y-103849735D03*
D18*
X116627032Y-108929735D03*
D17*
X112817032Y-106389735D03*
D19*
X111547032Y-108929735D03*
X121707032Y-108929735D03*
D17*
X128692032Y-122899735D03*
D18*
X126152032Y-127979735D03*
D17*
X122342032Y-125439735D03*
D19*
X121072032Y-127979735D03*
X131232032Y-127979735D03*
D22*
X114245782Y-134964735D03*
X138058282Y-134964735D03*
D18*
X114245782Y-119724735D03*
X138058282Y-119724735D03*
D23*
X159852362Y-99416872D03*
D24*
X149692362Y-99416872D03*
D25*
X152992362Y-99414332D03*
X156392362Y-99414332D03*
D23*
X165465643Y-99453881D03*
D24*
X165465643Y-89293881D03*
D25*
X165468183Y-92593881D03*
X165468183Y-95993881D03*
D23*
X179048521Y-80664481D03*
D24*
X168888521Y-80664481D03*
D25*
X172188521Y-80661941D03*
X175588521Y-80661941D03*
D23*
X164277555Y-57147038D03*
D24*
X164277555Y-67307038D03*
D25*
X164275015Y-64007038D03*
X164275015Y-60607038D03*
D23*
X160124246Y-118466920D03*
D24*
X149964246Y-118466920D03*
D25*
X153264246Y-118464380D03*
X156664246Y-118464380D03*
D23*
X145224967Y-109574253D03*
D24*
X145224967Y-99414253D03*
D25*
X145227507Y-102714253D03*
X145227507Y-106114253D03*
D23*
X162935618Y-94096037D03*
D24*
X162935618Y-83936037D03*
D25*
X162938158Y-87236037D03*
X162938158Y-90636037D03*
D23*
X160447693Y-80515510D03*
D24*
X150287693Y-80515510D03*
D25*
X153587693Y-80512970D03*
X156987693Y-80512970D03*
D23*
X164275015Y-80252400D03*
D24*
X164275015Y-70092400D03*
D25*
X164277555Y-73392400D03*
X164277555Y-76792400D03*
D23*
X140802314Y-99416872D03*
D24*
X130642314Y-99416872D03*
D25*
X133942314Y-99414332D03*
X137342314Y-99414332D03*
D23*
X145224967Y-94242279D03*
D24*
X145224967Y-84082279D03*
D25*
X145227507Y-87382279D03*
X145227507Y-90782279D03*
D23*
X127368087Y-94070275D03*
D24*
X127368087Y-83910275D03*
D25*
X127370627Y-87210275D03*
X127370627Y-90610275D03*
D23*
X149652700Y-61311696D03*
D24*
X159812700Y-61311696D03*
D25*
X156512700Y-61314236D03*
X153112700Y-61314236D03*
D23*
X127365547Y-115799309D03*
D24*
X127365547Y-105639309D03*
D25*
X127368087Y-108939309D03*
X127368087Y-112339309D03*
D23*
X124835394Y-110590294D03*
D24*
X124835394Y-100430294D03*
D25*
X124837934Y-103730294D03*
X124837934Y-107130294D03*
D23*
X124835394Y-96626130D03*
D24*
X124835394Y-86466130D03*
D25*
X124837934Y-89766130D03*
X124837934Y-93166130D03*
D23*
X121600629Y-81408484D03*
D24*
X111440629Y-81408484D03*
D25*
X114740629Y-81405944D03*
X118140629Y-81405944D03*
D23*
X109617748Y-79022140D03*
D24*
X119777748Y-79022140D03*
D25*
X116477748Y-79024680D03*
X113077748Y-79024680D03*
G36*
G01*
X162048643Y-48196761D02*
X161148641Y-48196761D01*
G75*
G02*
X160898642Y-47946762I0J249999D01*
G01*
X160898642Y-47296760D01*
G75*
G02*
X161148641Y-47046761I249999J0D01*
G01*
X162048643Y-47046761D01*
G75*
G02*
X162298642Y-47296760I0J-249999D01*
G01*
X162298642Y-47946762D01*
G75*
G02*
X162048643Y-48196761I-249999J0D01*
G01*
G37*
G36*
G01*
X162048643Y-46146761D02*
X161148641Y-46146761D01*
G75*
G02*
X160898642Y-45896762I0J249999D01*
G01*
X160898642Y-45246760D01*
G75*
G02*
X161148641Y-44996761I249999J0D01*
G01*
X162048643Y-44996761D01*
G75*
G02*
X162298642Y-45246760I0J-249999D01*
G01*
X162298642Y-45896762D01*
G75*
G02*
X162048643Y-46146761I-249999J0D01*
G01*
G37*
G36*
G01*
X160428381Y-58340963D02*
X160428381Y-57440961D01*
G75*
G02*
X160678380Y-57190962I249999J0D01*
G01*
X161328382Y-57190962D01*
G75*
G02*
X161578381Y-57440961I0J-249999D01*
G01*
X161578381Y-58340963D01*
G75*
G02*
X161328382Y-58590962I-249999J0D01*
G01*
X160678380Y-58590962D01*
G75*
G02*
X160428381Y-58340963I0J249999D01*
G01*
G37*
G36*
G01*
X158378381Y-58340963D02*
X158378381Y-57440961D01*
G75*
G02*
X158628380Y-57190962I249999J0D01*
G01*
X159278382Y-57190962D01*
G75*
G02*
X159528381Y-57440961I0J-249999D01*
G01*
X159528381Y-58340963D01*
G75*
G02*
X159278382Y-58590962I-249999J0D01*
G01*
X158628380Y-58590962D01*
G75*
G02*
X158378381Y-58340963I0J249999D01*
G01*
G37*
M02*
