G04 #@! TF.GenerationSoftware,KiCad,Pcbnew,(5.1.7)-1*
G04 #@! TF.CreationDate,2020-12-28T21:01:16-08:00*
G04 #@! TF.ProjectId,dropout,64726f70-6f75-4742-9e6b-696361645f70,rev?*
G04 #@! TF.SameCoordinates,Original*
G04 #@! TF.FileFunction,Legend,Bot*
G04 #@! TF.FilePolarity,Positive*
%FSLAX46Y46*%
G04 Gerber Fmt 4.6, Leading zero omitted, Abs format (unit mm)*
G04 Created by KiCad (PCBNEW (5.1.7)-1) date 2020-12-28 21:01:16*
%MOMM*%
%LPD*%
G01*
G04 APERTURE LIST*
%ADD10C,0.150000*%
%ADD11C,0.381000*%
%ADD12C,0.120000*%
%ADD13C,0.100000*%
G04 APERTURE END LIST*
D10*
X201000000Y-108000000D02*
X201000000Y-106600000D01*
X201000000Y-107300000D02*
X201900000Y-108000000D01*
X201900000Y-106600000D02*
X201000000Y-107300000D01*
X201900000Y-108000000D02*
X201900000Y-106600000D01*
X197800000Y-107300000D02*
X198700000Y-107300000D01*
X204300000Y-107300000D02*
X205300000Y-107300000D01*
X204300000Y-106300000D02*
X198700000Y-106300000D01*
X204300000Y-108300000D02*
X204300000Y-106300000D01*
X198700000Y-108300000D02*
X204300000Y-108300000D01*
X198700000Y-106300000D02*
X198700000Y-108300000D01*
X202500000Y-88700000D02*
X202500000Y-87300000D01*
X202500000Y-88000000D02*
X203400000Y-88700000D01*
X203400000Y-87300000D02*
X202500000Y-88000000D01*
X203400000Y-88700000D02*
X203400000Y-87300000D01*
X199300000Y-88000000D02*
X200200000Y-88000000D01*
X205800000Y-88000000D02*
X206800000Y-88000000D01*
X205800000Y-87000000D02*
X200200000Y-87000000D01*
X205800000Y-89000000D02*
X205800000Y-87000000D01*
X200200000Y-89000000D02*
X205800000Y-89000000D01*
X200200000Y-87000000D02*
X200200000Y-89000000D01*
X194772038Y-86906324D02*
X193372038Y-86906324D01*
X194072038Y-86906324D02*
X194772038Y-86006324D01*
X193372038Y-86006324D02*
X194072038Y-86906324D01*
X194772038Y-86006324D02*
X193372038Y-86006324D01*
X194072038Y-90106324D02*
X194072038Y-89206324D01*
X194072038Y-83606324D02*
X194072038Y-82606324D01*
X193072038Y-83606324D02*
X193072038Y-89206324D01*
X195072038Y-83606324D02*
X193072038Y-83606324D01*
X195072038Y-89206324D02*
X195072038Y-83606324D01*
X193072038Y-89206324D02*
X195072038Y-89206324D01*
X204525168Y-69160995D02*
X204525168Y-67760995D01*
X204525168Y-68460995D02*
X205425168Y-69160995D01*
X205425168Y-67760995D02*
X204525168Y-68460995D01*
X205425168Y-69160995D02*
X205425168Y-67760995D01*
X201325168Y-68460995D02*
X202225168Y-68460995D01*
X207825168Y-68460995D02*
X208825168Y-68460995D01*
X207825168Y-67460995D02*
X202225168Y-67460995D01*
X207825168Y-69460995D02*
X207825168Y-67460995D01*
X202225168Y-69460995D02*
X207825168Y-69460995D01*
X202225168Y-67460995D02*
X202225168Y-69460995D01*
X176505778Y-126903816D02*
X176505778Y-125503816D01*
X176505778Y-126203816D02*
X177405778Y-126903816D01*
X177405778Y-125503816D02*
X176505778Y-126203816D01*
X177405778Y-126903816D02*
X177405778Y-125503816D01*
X173305778Y-126203816D02*
X174205778Y-126203816D01*
X179805778Y-126203816D02*
X180805778Y-126203816D01*
X179805778Y-125203816D02*
X174205778Y-125203816D01*
X179805778Y-127203816D02*
X179805778Y-125203816D01*
X174205778Y-127203816D02*
X179805778Y-127203816D01*
X174205778Y-125203816D02*
X174205778Y-127203816D01*
X182942343Y-107856340D02*
X182942343Y-106456340D01*
X182942343Y-107156340D02*
X183842343Y-107856340D01*
X183842343Y-106456340D02*
X182942343Y-107156340D01*
X183842343Y-107856340D02*
X183842343Y-106456340D01*
X179742343Y-107156340D02*
X180642343Y-107156340D01*
X186242343Y-107156340D02*
X187242343Y-107156340D01*
X186242343Y-106156340D02*
X180642343Y-106156340D01*
X186242343Y-108156340D02*
X186242343Y-106156340D01*
X180642343Y-108156340D02*
X186242343Y-108156340D01*
X180642343Y-106156340D02*
X180642343Y-108156340D01*
X183600000Y-88800000D02*
X183600000Y-87400000D01*
X183600000Y-88100000D02*
X184500000Y-88800000D01*
X184500000Y-87400000D02*
X183600000Y-88100000D01*
X184500000Y-88800000D02*
X184500000Y-87400000D01*
X180400000Y-88100000D02*
X181300000Y-88100000D01*
X186900000Y-88100000D02*
X187900000Y-88100000D01*
X186900000Y-87100000D02*
X181300000Y-87100000D01*
X186900000Y-89100000D02*
X186900000Y-87100000D01*
X181300000Y-89100000D02*
X186900000Y-89100000D01*
X181300000Y-87100000D02*
X181300000Y-89100000D01*
X193372038Y-99154767D02*
X194772038Y-99154767D01*
X194072038Y-99154767D02*
X193372038Y-100054767D01*
X194772038Y-100054767D02*
X194072038Y-99154767D01*
X193372038Y-100054767D02*
X194772038Y-100054767D01*
X194072038Y-95954767D02*
X194072038Y-96854767D01*
X194072038Y-102454767D02*
X194072038Y-103454767D01*
X195072038Y-102454767D02*
X195072038Y-96854767D01*
X193072038Y-102454767D02*
X195072038Y-102454767D01*
X193072038Y-96854767D02*
X193072038Y-102454767D01*
X195072038Y-96854767D02*
X193072038Y-96854767D01*
X193578872Y-58603178D02*
X192178872Y-58603178D01*
X192878872Y-58603178D02*
X193578872Y-57703178D01*
X192178872Y-57703178D02*
X192878872Y-58603178D01*
X193578872Y-57703178D02*
X192178872Y-57703178D01*
X192878872Y-61803178D02*
X192878872Y-60903178D01*
X192878872Y-55303178D02*
X192878872Y-54303178D01*
X191878872Y-55303178D02*
X191878872Y-60903178D01*
X193878872Y-55303178D02*
X191878872Y-55303178D01*
X193878872Y-60903178D02*
X193878872Y-55303178D01*
X191878872Y-60903178D02*
X193878872Y-60903178D01*
X174322022Y-114632905D02*
X175722022Y-114632905D01*
X175022022Y-114632905D02*
X174322022Y-115532905D01*
X175722022Y-115532905D02*
X175022022Y-114632905D01*
X174322022Y-115532905D02*
X175722022Y-115532905D01*
X175022022Y-111432905D02*
X175022022Y-112332905D01*
X175022022Y-117932905D02*
X175022022Y-118932905D01*
X176022022Y-117932905D02*
X176022022Y-112332905D01*
X174022022Y-117932905D02*
X176022022Y-117932905D01*
X174022022Y-112332905D02*
X174022022Y-117932905D01*
X176022022Y-112332905D02*
X174022022Y-112332905D01*
X156900000Y-98000000D02*
X155500000Y-98000000D01*
X156200000Y-98000000D02*
X156900000Y-97100000D01*
X155500000Y-97100000D02*
X156200000Y-98000000D01*
X156900000Y-97100000D02*
X155500000Y-97100000D01*
X156200000Y-101200000D02*
X156200000Y-100300000D01*
X156200000Y-94700000D02*
X156200000Y-93700000D01*
X155200000Y-94700000D02*
X155200000Y-100300000D01*
X157200000Y-94700000D02*
X155200000Y-94700000D01*
X157200000Y-100300000D02*
X157200000Y-94700000D01*
X155200000Y-100300000D02*
X157200000Y-100300000D01*
X164000000Y-89996950D02*
X164000000Y-88596950D01*
X164000000Y-89296950D02*
X164900000Y-89996950D01*
X164900000Y-88596950D02*
X164000000Y-89296950D01*
X164900000Y-89996950D02*
X164900000Y-88596950D01*
X160800000Y-89296950D02*
X161700000Y-89296950D01*
X167300000Y-89296950D02*
X168300000Y-89296950D01*
X167300000Y-88296950D02*
X161700000Y-88296950D01*
X167300000Y-90296950D02*
X167300000Y-88296950D01*
X161700000Y-90296950D02*
X167300000Y-90296950D01*
X161700000Y-88296950D02*
X161700000Y-90296950D01*
X184365778Y-68356308D02*
X184365778Y-69756308D01*
X184365778Y-69056308D02*
X183465778Y-68356308D01*
X183465778Y-69756308D02*
X184365778Y-69056308D01*
X183465778Y-68356308D02*
X183465778Y-69756308D01*
X187565778Y-69056308D02*
X186665778Y-69056308D01*
X181065778Y-69056308D02*
X180065778Y-69056308D01*
X181065778Y-70056308D02*
X186665778Y-70056308D01*
X181065778Y-68056308D02*
X181065778Y-70056308D01*
X186665778Y-68056308D02*
X181065778Y-68056308D01*
X186665778Y-70056308D02*
X186665778Y-68056308D01*
X173032000Y-135450000D02*
X174432000Y-135450000D01*
X173732000Y-135450000D02*
X173032000Y-136350000D01*
X174432000Y-136350000D02*
X173732000Y-135450000D01*
X173032000Y-136350000D02*
X174432000Y-136350000D01*
X173732000Y-132250000D02*
X173732000Y-133150000D01*
X173732000Y-138750000D02*
X173732000Y-139750000D01*
X174732000Y-138750000D02*
X174732000Y-133150000D01*
X172732000Y-138750000D02*
X174732000Y-138750000D01*
X172732000Y-133150000D02*
X172732000Y-138750000D01*
X174732000Y-133150000D02*
X172732000Y-133150000D01*
X139200000Y-130000000D02*
X140600000Y-130000000D01*
X139900000Y-130000000D02*
X139200000Y-130900000D01*
X140600000Y-130900000D02*
X139900000Y-130000000D01*
X139200000Y-130900000D02*
X140600000Y-130900000D01*
X139900000Y-126800000D02*
X139900000Y-127700000D01*
X139900000Y-133300000D02*
X139900000Y-134300000D01*
X140900000Y-133300000D02*
X140900000Y-127700000D01*
X138900000Y-133300000D02*
X140900000Y-133300000D01*
X138900000Y-127700000D02*
X138900000Y-133300000D01*
X140900000Y-127700000D02*
X138900000Y-127700000D01*
X162339197Y-106456340D02*
X162339197Y-107856340D01*
X162339197Y-107156340D02*
X161439197Y-106456340D01*
X161439197Y-107856340D02*
X162339197Y-107156340D01*
X161439197Y-106456340D02*
X161439197Y-107856340D01*
X165539197Y-107156340D02*
X164639197Y-107156340D01*
X159039197Y-107156340D02*
X158039197Y-107156340D01*
X159039197Y-108156340D02*
X164639197Y-108156340D01*
X159039197Y-106156340D02*
X159039197Y-108156340D01*
X164639197Y-106156340D02*
X159039197Y-106156340D01*
X164639197Y-108156340D02*
X164639197Y-106156340D01*
X146437624Y-106456340D02*
X146437624Y-107856340D01*
X146437624Y-107156340D02*
X145537624Y-106456340D01*
X145537624Y-107856340D02*
X146437624Y-107156340D01*
X145537624Y-106456340D02*
X145537624Y-107856340D01*
X149637624Y-107156340D02*
X148737624Y-107156340D01*
X143137624Y-107156340D02*
X142137624Y-107156340D01*
X143137624Y-108156340D02*
X148737624Y-108156340D01*
X143137624Y-106156340D02*
X143137624Y-108156340D01*
X148737624Y-106156340D02*
X143137624Y-106156340D01*
X148737624Y-108156340D02*
X148737624Y-106156340D01*
X146437624Y-86215698D02*
X146437624Y-87615698D01*
X146437624Y-86915698D02*
X145537624Y-86215698D01*
X145537624Y-87615698D02*
X146437624Y-86915698D01*
X145537624Y-86215698D02*
X145537624Y-87615698D01*
X149637624Y-86915698D02*
X148737624Y-86915698D01*
X143137624Y-86915698D02*
X142137624Y-86915698D01*
X143137624Y-87915698D02*
X148737624Y-87915698D01*
X143137624Y-85915698D02*
X143137624Y-87915698D01*
X148737624Y-85915698D02*
X143137624Y-85915698D01*
X148737624Y-87915698D02*
X148737624Y-85915698D01*
D11*
X156730000Y-62000000D02*
X154190000Y-62000000D01*
X156730000Y-59460000D02*
X156730000Y-62000000D01*
X176970000Y-89940000D02*
X176970000Y-50660000D01*
X154190000Y-89940000D02*
X176970000Y-89940000D01*
X154190000Y-50660000D02*
X154190000Y-89940000D01*
X176970000Y-50660000D02*
X154190000Y-50660000D01*
X156730000Y-59460000D02*
X154190000Y-59460000D01*
X174470000Y-83690000D02*
X174470000Y-50670000D01*
D10*
G36*
X171424635Y-59099030D02*
G01*
X171424635Y-59399030D01*
X171524635Y-59399030D01*
X171524635Y-59099030D01*
X171424635Y-59099030D01*
G37*
X171424635Y-59099030D02*
X171424635Y-59399030D01*
X171524635Y-59399030D01*
X171524635Y-59099030D01*
X171424635Y-59099030D01*
G36*
X171824635Y-59099030D02*
G01*
X171824635Y-59899030D01*
X171924635Y-59899030D01*
X171924635Y-59099030D01*
X171824635Y-59099030D01*
G37*
X171824635Y-59099030D02*
X171824635Y-59899030D01*
X171924635Y-59899030D01*
X171924635Y-59099030D01*
X171824635Y-59099030D01*
D11*
X159230000Y-53210000D02*
X156690000Y-53210000D01*
D10*
G36*
X171624635Y-59499030D02*
G01*
X171624635Y-59599030D01*
X171724635Y-59599030D01*
X171724635Y-59499030D01*
X171624635Y-59499030D01*
G37*
X171624635Y-59499030D02*
X171624635Y-59599030D01*
X171724635Y-59599030D01*
X171724635Y-59499030D01*
X171624635Y-59499030D01*
D11*
X174470000Y-50670000D02*
X156690000Y-50670000D01*
X156690000Y-50670000D02*
X156690000Y-83690000D01*
D10*
G36*
X171424635Y-59099030D02*
G01*
X171424635Y-59199030D01*
X171924635Y-59199030D01*
X171924635Y-59099030D01*
X171424635Y-59099030D01*
G37*
X171424635Y-59099030D02*
X171424635Y-59199030D01*
X171924635Y-59199030D01*
X171924635Y-59099030D01*
X171424635Y-59099030D01*
G36*
X171424635Y-59699030D02*
G01*
X171424635Y-59899030D01*
X171524635Y-59899030D01*
X171524635Y-59699030D01*
X171424635Y-59699030D01*
G37*
X171424635Y-59699030D02*
X171424635Y-59899030D01*
X171524635Y-59899030D01*
X171524635Y-59699030D01*
X171424635Y-59699030D01*
D11*
X156690000Y-83690000D02*
X174470000Y-83690000D01*
X159230000Y-55750000D02*
X156690000Y-55750000D01*
X159230000Y-53210000D02*
X159230000Y-55750000D01*
D12*
X182725000Y-65575000D02*
X178325000Y-65575000D01*
X178325000Y-65575000D02*
X178325000Y-65455000D01*
X178325000Y-64445000D02*
X178325000Y-63305000D01*
X178325000Y-62295000D02*
X178325000Y-62175000D01*
X178325000Y-62175000D02*
X182725000Y-62175000D01*
X182725000Y-62175000D02*
X182725000Y-62295000D01*
X182725000Y-63305000D02*
X182725000Y-64445000D01*
X182725000Y-65455000D02*
X182725000Y-65575000D01*
X189190000Y-64763748D02*
X189190000Y-65286252D01*
X190610000Y-64763748D02*
X190610000Y-65286252D01*
X186810000Y-65286252D02*
X186810000Y-64763748D01*
X185390000Y-65286252D02*
X185390000Y-64763748D01*
X203200000Y-59400000D02*
X204200000Y-59400000D01*
X203700000Y-59900000D02*
X203700000Y-58900000D01*
X209800000Y-55900000D02*
X209800000Y-53500000D01*
X209800000Y-60700000D02*
X209800000Y-58100000D01*
X209800000Y-65300000D02*
X209800000Y-62900000D01*
X196500000Y-63500000D02*
X196200000Y-63200000D01*
X195900000Y-63500000D02*
X196500000Y-63500000D01*
X196200000Y-63200000D02*
X195900000Y-63500000D01*
X197600000Y-65300000D02*
X197600000Y-53500000D01*
X201700000Y-65300000D02*
X197600000Y-65300000D01*
X201700000Y-53500000D02*
X197600000Y-53500000D01*
X209800000Y-53500000D02*
X205700000Y-53500000D01*
X205700000Y-65300000D02*
X209800000Y-65300000D01*
X206700000Y-59400000D02*
G75*
G03*
X206700000Y-59400000I-3000000J0D01*
G01*
X142760154Y-63586817D02*
X142760154Y-64109321D01*
X141340154Y-63586817D02*
X141340154Y-64109321D01*
D13*
X156286300Y-88670000D02*
G75*
G03*
X156286300Y-88670000I-826300J0D01*
G01*
X156286300Y-68350000D02*
G75*
G03*
X156286300Y-68350000I-826300J0D01*
G01*
X176526300Y-81050000D02*
G75*
G03*
X176526300Y-81050000I-826300J0D01*
G01*
X176526300Y-86130000D02*
G75*
G03*
X176526300Y-86130000I-826300J0D01*
G01*
X176526300Y-83590000D02*
G75*
G03*
X176526300Y-83590000I-826300J0D01*
G01*
X176526300Y-60730000D02*
G75*
G03*
X176526300Y-60730000I-826300J0D01*
G01*
X156286300Y-78510000D02*
G75*
G03*
X156286300Y-78510000I-826300J0D01*
G01*
X176526300Y-70890000D02*
G75*
G03*
X176526300Y-70890000I-826300J0D01*
G01*
X156286300Y-86130000D02*
G75*
G03*
X156286300Y-86130000I-826300J0D01*
G01*
X156286300Y-65810000D02*
G75*
G03*
X156286300Y-65810000I-826300J0D01*
G01*
X156286300Y-83590000D02*
G75*
G03*
X156286300Y-83590000I-826300J0D01*
G01*
X176526300Y-75970000D02*
G75*
G03*
X176526300Y-75970000I-826300J0D01*
G01*
X176526300Y-73430000D02*
G75*
G03*
X176526300Y-73430000I-826300J0D01*
G01*
X176526300Y-68350000D02*
G75*
G03*
X176526300Y-68350000I-826300J0D01*
G01*
X154633700Y-59903700D02*
X154633700Y-61556300D01*
X156286300Y-61556300D01*
X156286300Y-59903700D01*
X154633700Y-59903700D01*
X156286300Y-63270000D02*
G75*
G03*
X156286300Y-63270000I-826300J0D01*
G01*
X156286300Y-70890000D02*
G75*
G03*
X156286300Y-70890000I-826300J0D01*
G01*
X176526300Y-78510000D02*
G75*
G03*
X176526300Y-78510000I-826300J0D01*
G01*
X156286300Y-73430000D02*
G75*
G03*
X156286300Y-73430000I-826300J0D01*
G01*
X156286300Y-81050000D02*
G75*
G03*
X156286300Y-81050000I-826300J0D01*
G01*
X176526300Y-65810000D02*
G75*
G03*
X176526300Y-65810000I-826300J0D01*
G01*
X176526300Y-63270000D02*
G75*
G03*
X176526300Y-63270000I-826300J0D01*
G01*
X176526300Y-88670000D02*
G75*
G03*
X176526300Y-88670000I-826300J0D01*
G01*
X156286300Y-75970000D02*
G75*
G03*
X156286300Y-75970000I-826300J0D01*
G01*
X157133700Y-53653700D02*
X157133700Y-55306300D01*
X158786300Y-55306300D01*
X158786300Y-53653700D01*
X157133700Y-53653700D01*
X158786300Y-57020000D02*
G75*
G03*
X158786300Y-57020000I-826300J0D01*
G01*
X158786300Y-67180000D02*
G75*
G03*
X158786300Y-67180000I-826300J0D01*
G01*
X158786300Y-64640000D02*
G75*
G03*
X158786300Y-64640000I-826300J0D01*
G01*
X158786300Y-69720000D02*
G75*
G03*
X158786300Y-69720000I-826300J0D01*
G01*
X158786300Y-77340000D02*
G75*
G03*
X158786300Y-77340000I-826300J0D01*
G01*
X158786300Y-79880000D02*
G75*
G03*
X158786300Y-79880000I-826300J0D01*
G01*
X174026300Y-82420000D02*
G75*
G03*
X174026300Y-82420000I-826300J0D01*
G01*
X174026300Y-79880000D02*
G75*
G03*
X174026300Y-79880000I-826300J0D01*
G01*
X158786300Y-74800000D02*
G75*
G03*
X158786300Y-74800000I-826300J0D01*
G01*
X174026300Y-77340000D02*
G75*
G03*
X174026300Y-77340000I-826300J0D01*
G01*
X158786300Y-59560000D02*
G75*
G03*
X158786300Y-59560000I-826300J0D01*
G01*
X158786300Y-62100000D02*
G75*
G03*
X158786300Y-62100000I-826300J0D01*
G01*
X158786300Y-72260000D02*
G75*
G03*
X158786300Y-72260000I-826300J0D01*
G01*
X174026300Y-59560000D02*
G75*
G03*
X174026300Y-59560000I-826300J0D01*
G01*
X174026300Y-72260000D02*
G75*
G03*
X174026300Y-72260000I-826300J0D01*
G01*
X174026300Y-57020000D02*
G75*
G03*
X174026300Y-57020000I-826300J0D01*
G01*
X174026300Y-62100000D02*
G75*
G03*
X174026300Y-62100000I-826300J0D01*
G01*
X174026300Y-69720000D02*
G75*
G03*
X174026300Y-69720000I-826300J0D01*
G01*
X174026300Y-54480000D02*
G75*
G03*
X174026300Y-54480000I-826300J0D01*
G01*
X158786300Y-82420000D02*
G75*
G03*
X158786300Y-82420000I-826300J0D01*
G01*
X174026300Y-67180000D02*
G75*
G03*
X174026300Y-67180000I-826300J0D01*
G01*
X174026300Y-64640000D02*
G75*
G03*
X174026300Y-64640000I-826300J0D01*
G01*
X174026300Y-74800000D02*
G75*
G03*
X174026300Y-74800000I-826300J0D01*
G01*
D10*
X203014285Y-105602380D02*
X203014285Y-104602380D01*
X202776190Y-104602380D01*
X202633333Y-104650000D01*
X202538095Y-104745238D01*
X202490476Y-104840476D01*
X202442857Y-105030952D01*
X202442857Y-105173809D01*
X202490476Y-105364285D01*
X202538095Y-105459523D01*
X202633333Y-105554761D01*
X202776190Y-105602380D01*
X203014285Y-105602380D01*
X201490476Y-105602380D02*
X202061904Y-105602380D01*
X201776190Y-105602380D02*
X201776190Y-104602380D01*
X201871428Y-104745238D01*
X201966666Y-104840476D01*
X202061904Y-104888095D01*
X200919047Y-105030952D02*
X201014285Y-104983333D01*
X201061904Y-104935714D01*
X201109523Y-104840476D01*
X201109523Y-104792857D01*
X201061904Y-104697619D01*
X201014285Y-104650000D01*
X200919047Y-104602380D01*
X200728571Y-104602380D01*
X200633333Y-104650000D01*
X200585714Y-104697619D01*
X200538095Y-104792857D01*
X200538095Y-104840476D01*
X200585714Y-104935714D01*
X200633333Y-104983333D01*
X200728571Y-105030952D01*
X200919047Y-105030952D01*
X201014285Y-105078571D01*
X201061904Y-105126190D01*
X201109523Y-105221428D01*
X201109523Y-105411904D01*
X201061904Y-105507142D01*
X201014285Y-105554761D01*
X200919047Y-105602380D01*
X200728571Y-105602380D01*
X200633333Y-105554761D01*
X200585714Y-105507142D01*
X200538095Y-105411904D01*
X200538095Y-105221428D01*
X200585714Y-105126190D01*
X200633333Y-105078571D01*
X200728571Y-105030952D01*
X204514285Y-86302380D02*
X204514285Y-85302380D01*
X204276190Y-85302380D01*
X204133333Y-85350000D01*
X204038095Y-85445238D01*
X203990476Y-85540476D01*
X203942857Y-85730952D01*
X203942857Y-85873809D01*
X203990476Y-86064285D01*
X204038095Y-86159523D01*
X204133333Y-86254761D01*
X204276190Y-86302380D01*
X204514285Y-86302380D01*
X202990476Y-86302380D02*
X203561904Y-86302380D01*
X203276190Y-86302380D02*
X203276190Y-85302380D01*
X203371428Y-85445238D01*
X203466666Y-85540476D01*
X203561904Y-85588095D01*
X202657142Y-85302380D02*
X201990476Y-85302380D01*
X202419047Y-86302380D01*
X192374418Y-84892038D02*
X191374418Y-84892038D01*
X191374418Y-85130133D01*
X191422038Y-85272990D01*
X191517276Y-85368228D01*
X191612514Y-85415847D01*
X191802990Y-85463466D01*
X191945847Y-85463466D01*
X192136323Y-85415847D01*
X192231561Y-85368228D01*
X192326799Y-85272990D01*
X192374418Y-85130133D01*
X192374418Y-84892038D01*
X192374418Y-86415847D02*
X192374418Y-85844419D01*
X192374418Y-86130133D02*
X191374418Y-86130133D01*
X191517276Y-86034895D01*
X191612514Y-85939657D01*
X191660133Y-85844419D01*
X191374418Y-87272990D02*
X191374418Y-87082514D01*
X191422038Y-86987276D01*
X191469657Y-86939657D01*
X191612514Y-86844419D01*
X191802990Y-86796800D01*
X192183942Y-86796800D01*
X192279180Y-86844419D01*
X192326799Y-86892038D01*
X192374418Y-86987276D01*
X192374418Y-87177752D01*
X192326799Y-87272990D01*
X192279180Y-87320609D01*
X192183942Y-87368228D01*
X191945847Y-87368228D01*
X191850609Y-87320609D01*
X191802990Y-87272990D01*
X191755371Y-87177752D01*
X191755371Y-86987276D01*
X191802990Y-86892038D01*
X191850609Y-86844419D01*
X191945847Y-86796800D01*
X206539453Y-71572380D02*
X206539453Y-70572380D01*
X206301358Y-70572380D01*
X206158501Y-70620000D01*
X206063263Y-70715238D01*
X206015644Y-70810476D01*
X205968025Y-71000952D01*
X205968025Y-71143809D01*
X206015644Y-71334285D01*
X206063263Y-71429523D01*
X206158501Y-71524761D01*
X206301358Y-71572380D01*
X206539453Y-71572380D01*
X205015644Y-71572380D02*
X205587072Y-71572380D01*
X205301358Y-71572380D02*
X205301358Y-70572380D01*
X205396596Y-70715238D01*
X205491834Y-70810476D01*
X205587072Y-70858095D01*
X204110882Y-70572380D02*
X204587072Y-70572380D01*
X204634691Y-71048571D01*
X204587072Y-71000952D01*
X204491834Y-70953333D01*
X204253739Y-70953333D01*
X204158501Y-71000952D01*
X204110882Y-71048571D01*
X204063263Y-71143809D01*
X204063263Y-71381904D01*
X204110882Y-71477142D01*
X204158501Y-71524761D01*
X204253739Y-71572380D01*
X204491834Y-71572380D01*
X204587072Y-71524761D01*
X204634691Y-71477142D01*
X178520063Y-124506196D02*
X178520063Y-123506196D01*
X178281968Y-123506196D01*
X178139111Y-123553816D01*
X178043873Y-123649054D01*
X177996254Y-123744292D01*
X177948635Y-123934768D01*
X177948635Y-124077625D01*
X177996254Y-124268101D01*
X178043873Y-124363339D01*
X178139111Y-124458577D01*
X178281968Y-124506196D01*
X178520063Y-124506196D01*
X176996254Y-124506196D02*
X177567682Y-124506196D01*
X177281968Y-124506196D02*
X177281968Y-123506196D01*
X177377206Y-123649054D01*
X177472444Y-123744292D01*
X177567682Y-123791911D01*
X176139111Y-123839530D02*
X176139111Y-124506196D01*
X176377206Y-123458577D02*
X176615301Y-124172863D01*
X175996254Y-124172863D01*
X184956628Y-105458720D02*
X184956628Y-104458720D01*
X184718533Y-104458720D01*
X184575676Y-104506340D01*
X184480438Y-104601578D01*
X184432819Y-104696816D01*
X184385200Y-104887292D01*
X184385200Y-105030149D01*
X184432819Y-105220625D01*
X184480438Y-105315863D01*
X184575676Y-105411101D01*
X184718533Y-105458720D01*
X184956628Y-105458720D01*
X183432819Y-105458720D02*
X184004247Y-105458720D01*
X183718533Y-105458720D02*
X183718533Y-104458720D01*
X183813771Y-104601578D01*
X183909009Y-104696816D01*
X184004247Y-104744435D01*
X183099485Y-104458720D02*
X182480438Y-104458720D01*
X182813771Y-104839673D01*
X182670914Y-104839673D01*
X182575676Y-104887292D01*
X182528057Y-104934911D01*
X182480438Y-105030149D01*
X182480438Y-105268244D01*
X182528057Y-105363482D01*
X182575676Y-105411101D01*
X182670914Y-105458720D01*
X182956628Y-105458720D01*
X183051866Y-105411101D01*
X183099485Y-105363482D01*
X185614285Y-86402380D02*
X185614285Y-85402380D01*
X185376190Y-85402380D01*
X185233333Y-85450000D01*
X185138095Y-85545238D01*
X185090476Y-85640476D01*
X185042857Y-85830952D01*
X185042857Y-85973809D01*
X185090476Y-86164285D01*
X185138095Y-86259523D01*
X185233333Y-86354761D01*
X185376190Y-86402380D01*
X185614285Y-86402380D01*
X184090476Y-86402380D02*
X184661904Y-86402380D01*
X184376190Y-86402380D02*
X184376190Y-85402380D01*
X184471428Y-85545238D01*
X184566666Y-85640476D01*
X184661904Y-85688095D01*
X183709523Y-85497619D02*
X183661904Y-85450000D01*
X183566666Y-85402380D01*
X183328571Y-85402380D01*
X183233333Y-85450000D01*
X183185714Y-85497619D01*
X183138095Y-85592857D01*
X183138095Y-85688095D01*
X183185714Y-85830952D01*
X183757142Y-86402380D01*
X183138095Y-86402380D01*
X196674418Y-98740481D02*
X195674418Y-98740481D01*
X195674418Y-98978576D01*
X195722038Y-99121433D01*
X195817276Y-99216671D01*
X195912514Y-99264290D01*
X196102990Y-99311909D01*
X196245847Y-99311909D01*
X196436323Y-99264290D01*
X196531561Y-99216671D01*
X196626799Y-99121433D01*
X196674418Y-98978576D01*
X196674418Y-98740481D01*
X196674418Y-100264290D02*
X196674418Y-99692862D01*
X196674418Y-99978576D02*
X195674418Y-99978576D01*
X195817276Y-99883338D01*
X195912514Y-99788100D01*
X195960133Y-99692862D01*
X196674418Y-101216671D02*
X196674418Y-100645243D01*
X196674418Y-100930957D02*
X195674418Y-100930957D01*
X195817276Y-100835719D01*
X195912514Y-100740481D01*
X195960133Y-100645243D01*
X191460380Y-55681714D02*
X190460380Y-55681714D01*
X190460380Y-55919809D01*
X190508000Y-56062666D01*
X190603238Y-56157904D01*
X190698476Y-56205523D01*
X190888952Y-56253142D01*
X191031809Y-56253142D01*
X191222285Y-56205523D01*
X191317523Y-56157904D01*
X191412761Y-56062666D01*
X191460380Y-55919809D01*
X191460380Y-55681714D01*
X191460380Y-57205523D02*
X191460380Y-56634095D01*
X191460380Y-56919809D02*
X190460380Y-56919809D01*
X190603238Y-56824571D01*
X190698476Y-56729333D01*
X190746095Y-56634095D01*
X190460380Y-57824571D02*
X190460380Y-57919809D01*
X190508000Y-58015047D01*
X190555619Y-58062666D01*
X190650857Y-58110285D01*
X190841333Y-58157904D01*
X191079428Y-58157904D01*
X191269904Y-58110285D01*
X191365142Y-58062666D01*
X191412761Y-58015047D01*
X191460380Y-57919809D01*
X191460380Y-57824571D01*
X191412761Y-57729333D01*
X191365142Y-57681714D01*
X191269904Y-57634095D01*
X191079428Y-57586476D01*
X190841333Y-57586476D01*
X190650857Y-57634095D01*
X190555619Y-57681714D01*
X190508000Y-57729333D01*
X190460380Y-57824571D01*
X177624402Y-114694809D02*
X176624402Y-114694809D01*
X176624402Y-114932905D01*
X176672022Y-115075762D01*
X176767260Y-115171000D01*
X176862498Y-115218619D01*
X177052974Y-115266238D01*
X177195831Y-115266238D01*
X177386307Y-115218619D01*
X177481545Y-115171000D01*
X177576783Y-115075762D01*
X177624402Y-114932905D01*
X177624402Y-114694809D01*
X177624402Y-115742428D02*
X177624402Y-115932905D01*
X177576783Y-116028143D01*
X177529164Y-116075762D01*
X177386307Y-116171000D01*
X177195831Y-116218619D01*
X176814879Y-116218619D01*
X176719641Y-116171000D01*
X176672022Y-116123381D01*
X176624402Y-116028143D01*
X176624402Y-115837666D01*
X176672022Y-115742428D01*
X176719641Y-115694809D01*
X176814879Y-115647190D01*
X177052974Y-115647190D01*
X177148212Y-115694809D01*
X177195831Y-115742428D01*
X177243450Y-115837666D01*
X177243450Y-116028143D01*
X177195831Y-116123381D01*
X177148212Y-116171000D01*
X177052974Y-116218619D01*
X154502380Y-96461904D02*
X153502380Y-96461904D01*
X153502380Y-96700000D01*
X153550000Y-96842857D01*
X153645238Y-96938095D01*
X153740476Y-96985714D01*
X153930952Y-97033333D01*
X154073809Y-97033333D01*
X154264285Y-96985714D01*
X154359523Y-96938095D01*
X154454761Y-96842857D01*
X154502380Y-96700000D01*
X154502380Y-96461904D01*
X153930952Y-97604761D02*
X153883333Y-97509523D01*
X153835714Y-97461904D01*
X153740476Y-97414285D01*
X153692857Y-97414285D01*
X153597619Y-97461904D01*
X153550000Y-97509523D01*
X153502380Y-97604761D01*
X153502380Y-97795238D01*
X153550000Y-97890476D01*
X153597619Y-97938095D01*
X153692857Y-97985714D01*
X153740476Y-97985714D01*
X153835714Y-97938095D01*
X153883333Y-97890476D01*
X153930952Y-97795238D01*
X153930952Y-97604761D01*
X153978571Y-97509523D01*
X154026190Y-97461904D01*
X154121428Y-97414285D01*
X154311904Y-97414285D01*
X154407142Y-97461904D01*
X154454761Y-97509523D01*
X154502380Y-97604761D01*
X154502380Y-97795238D01*
X154454761Y-97890476D01*
X154407142Y-97938095D01*
X154311904Y-97985714D01*
X154121428Y-97985714D01*
X154026190Y-97938095D01*
X153978571Y-97890476D01*
X153930952Y-97795238D01*
X165538095Y-87599330D02*
X165538095Y-86599330D01*
X165300000Y-86599330D01*
X165157142Y-86646950D01*
X165061904Y-86742188D01*
X165014285Y-86837426D01*
X164966666Y-87027902D01*
X164966666Y-87170759D01*
X165014285Y-87361235D01*
X165061904Y-87456473D01*
X165157142Y-87551711D01*
X165300000Y-87599330D01*
X165538095Y-87599330D01*
X164633333Y-86599330D02*
X163966666Y-86599330D01*
X164395238Y-87599330D01*
X184303873Y-71658688D02*
X184303873Y-70658688D01*
X184065778Y-70658688D01*
X183922920Y-70706308D01*
X183827682Y-70801546D01*
X183780063Y-70896784D01*
X183732444Y-71087260D01*
X183732444Y-71230117D01*
X183780063Y-71420593D01*
X183827682Y-71515831D01*
X183922920Y-71611069D01*
X184065778Y-71658688D01*
X184303873Y-71658688D01*
X182875301Y-70658688D02*
X183065778Y-70658688D01*
X183161016Y-70706308D01*
X183208635Y-70753927D01*
X183303873Y-70896784D01*
X183351492Y-71087260D01*
X183351492Y-71468212D01*
X183303873Y-71563450D01*
X183256254Y-71611069D01*
X183161016Y-71658688D01*
X182970539Y-71658688D01*
X182875301Y-71611069D01*
X182827682Y-71563450D01*
X182780063Y-71468212D01*
X182780063Y-71230117D01*
X182827682Y-71134879D01*
X182875301Y-71087260D01*
X182970539Y-71039641D01*
X183161016Y-71039641D01*
X183256254Y-71087260D01*
X183303873Y-71134879D01*
X183351492Y-71230117D01*
X176287711Y-137142223D02*
X175287711Y-137142223D01*
X175287711Y-137380319D01*
X175335331Y-137523176D01*
X175430569Y-137618414D01*
X175525807Y-137666033D01*
X175716283Y-137713652D01*
X175859140Y-137713652D01*
X176049616Y-137666033D01*
X176144854Y-137618414D01*
X176240092Y-137523176D01*
X176287711Y-137380319D01*
X176287711Y-137142223D01*
X175287711Y-138618414D02*
X175287711Y-138142223D01*
X175763902Y-138094604D01*
X175716283Y-138142223D01*
X175668664Y-138237461D01*
X175668664Y-138475557D01*
X175716283Y-138570795D01*
X175763902Y-138618414D01*
X175859140Y-138666033D01*
X176097235Y-138666033D01*
X176192473Y-138618414D01*
X176240092Y-138570795D01*
X176287711Y-138475557D01*
X176287711Y-138237461D01*
X176240092Y-138142223D01*
X176192473Y-138094604D01*
X142502380Y-130061904D02*
X141502380Y-130061904D01*
X141502380Y-130300000D01*
X141550000Y-130442857D01*
X141645238Y-130538095D01*
X141740476Y-130585714D01*
X141930952Y-130633333D01*
X142073809Y-130633333D01*
X142264285Y-130585714D01*
X142359523Y-130538095D01*
X142454761Y-130442857D01*
X142502380Y-130300000D01*
X142502380Y-130061904D01*
X141835714Y-131490476D02*
X142502380Y-131490476D01*
X141454761Y-131252380D02*
X142169047Y-131014285D01*
X142169047Y-131633333D01*
X162277292Y-109758720D02*
X162277292Y-108758720D01*
X162039197Y-108758720D01*
X161896339Y-108806340D01*
X161801101Y-108901578D01*
X161753482Y-108996816D01*
X161705863Y-109187292D01*
X161705863Y-109330149D01*
X161753482Y-109520625D01*
X161801101Y-109615863D01*
X161896339Y-109711101D01*
X162039197Y-109758720D01*
X162277292Y-109758720D01*
X161372530Y-108758720D02*
X160753482Y-108758720D01*
X161086816Y-109139673D01*
X160943958Y-109139673D01*
X160848720Y-109187292D01*
X160801101Y-109234911D01*
X160753482Y-109330149D01*
X160753482Y-109568244D01*
X160801101Y-109663482D01*
X160848720Y-109711101D01*
X160943958Y-109758720D01*
X161229673Y-109758720D01*
X161324911Y-109711101D01*
X161372530Y-109663482D01*
X146375719Y-109758720D02*
X146375719Y-108758720D01*
X146137624Y-108758720D01*
X145994766Y-108806340D01*
X145899528Y-108901578D01*
X145851909Y-108996816D01*
X145804290Y-109187292D01*
X145804290Y-109330149D01*
X145851909Y-109520625D01*
X145899528Y-109615863D01*
X145994766Y-109711101D01*
X146137624Y-109758720D01*
X146375719Y-109758720D01*
X145423338Y-108853959D02*
X145375719Y-108806340D01*
X145280481Y-108758720D01*
X145042385Y-108758720D01*
X144947147Y-108806340D01*
X144899528Y-108853959D01*
X144851909Y-108949197D01*
X144851909Y-109044435D01*
X144899528Y-109187292D01*
X145470957Y-109758720D01*
X144851909Y-109758720D01*
X146375719Y-89518078D02*
X146375719Y-88518078D01*
X146137624Y-88518078D01*
X145994766Y-88565698D01*
X145899528Y-88660936D01*
X145851909Y-88756174D01*
X145804290Y-88946650D01*
X145804290Y-89089507D01*
X145851909Y-89279983D01*
X145899528Y-89375221D01*
X145994766Y-89470459D01*
X146137624Y-89518078D01*
X146375719Y-89518078D01*
X144851909Y-89518078D02*
X145423338Y-89518078D01*
X145137624Y-89518078D02*
X145137624Y-88518078D01*
X145232862Y-88660936D01*
X145328100Y-88756174D01*
X145423338Y-88803793D01*
X160709476Y-67541904D02*
X160709476Y-66741904D01*
X160519000Y-66741904D01*
X160404714Y-66780000D01*
X160328523Y-66856190D01*
X160290428Y-66932380D01*
X160252333Y-67084761D01*
X160252333Y-67199047D01*
X160290428Y-67351428D01*
X160328523Y-67427619D01*
X160404714Y-67503809D01*
X160519000Y-67541904D01*
X160709476Y-67541904D01*
X159757095Y-66741904D02*
X159680904Y-66741904D01*
X159604714Y-66780000D01*
X159566619Y-66818095D01*
X159528523Y-66894285D01*
X159490428Y-67046666D01*
X159490428Y-67237142D01*
X159528523Y-67389523D01*
X159566619Y-67465714D01*
X159604714Y-67503809D01*
X159680904Y-67541904D01*
X159757095Y-67541904D01*
X159833285Y-67503809D01*
X159871380Y-67465714D01*
X159909476Y-67389523D01*
X159947571Y-67237142D01*
X159947571Y-67046666D01*
X159909476Y-66894285D01*
X159871380Y-66818095D01*
X159833285Y-66780000D01*
X159757095Y-66741904D01*
X160709476Y-65001904D02*
X160709476Y-64201904D01*
X160519000Y-64201904D01*
X160404714Y-64240000D01*
X160328523Y-64316190D01*
X160290428Y-64392380D01*
X160252333Y-64544761D01*
X160252333Y-64659047D01*
X160290428Y-64811428D01*
X160328523Y-64887619D01*
X160404714Y-64963809D01*
X160519000Y-65001904D01*
X160709476Y-65001904D01*
X159490428Y-65001904D02*
X159947571Y-65001904D01*
X159719000Y-65001904D02*
X159719000Y-64201904D01*
X159795190Y-64316190D01*
X159871380Y-64392380D01*
X159947571Y-64430476D01*
X160728523Y-61700000D02*
X160804714Y-61661904D01*
X160919000Y-61661904D01*
X161033285Y-61700000D01*
X161109476Y-61776190D01*
X161147571Y-61852380D01*
X161185666Y-62004761D01*
X161185666Y-62119047D01*
X161147571Y-62271428D01*
X161109476Y-62347619D01*
X161033285Y-62423809D01*
X160919000Y-62461904D01*
X160842809Y-62461904D01*
X160728523Y-62423809D01*
X160690428Y-62385714D01*
X160690428Y-62119047D01*
X160842809Y-62119047D01*
X160347571Y-62461904D02*
X160347571Y-61661904D01*
X159890428Y-62461904D01*
X159890428Y-61661904D01*
X159509476Y-62461904D02*
X159509476Y-61661904D01*
X159319000Y-61661904D01*
X159204714Y-61700000D01*
X159128523Y-61776190D01*
X159090428Y-61852380D01*
X159052333Y-62004761D01*
X159052333Y-62119047D01*
X159090428Y-62271428D01*
X159128523Y-62347619D01*
X159204714Y-62423809D01*
X159319000Y-62461904D01*
X159509476Y-62461904D01*
X160728523Y-59160000D02*
X160804714Y-59121904D01*
X160919000Y-59121904D01*
X161033285Y-59160000D01*
X161109476Y-59236190D01*
X161147571Y-59312380D01*
X161185666Y-59464761D01*
X161185666Y-59579047D01*
X161147571Y-59731428D01*
X161109476Y-59807619D01*
X161033285Y-59883809D01*
X160919000Y-59921904D01*
X160842809Y-59921904D01*
X160728523Y-59883809D01*
X160690428Y-59845714D01*
X160690428Y-59579047D01*
X160842809Y-59579047D01*
X160347571Y-59921904D02*
X160347571Y-59121904D01*
X159890428Y-59921904D01*
X159890428Y-59121904D01*
X159509476Y-59921904D02*
X159509476Y-59121904D01*
X159319000Y-59121904D01*
X159204714Y-59160000D01*
X159128523Y-59236190D01*
X159090428Y-59312380D01*
X159052333Y-59464761D01*
X159052333Y-59579047D01*
X159090428Y-59731428D01*
X159128523Y-59807619D01*
X159204714Y-59883809D01*
X159319000Y-59921904D01*
X159509476Y-59921904D01*
X160252333Y-72545714D02*
X160290428Y-72583809D01*
X160404714Y-72621904D01*
X160480904Y-72621904D01*
X160595190Y-72583809D01*
X160671380Y-72507619D01*
X160709476Y-72431428D01*
X160747571Y-72279047D01*
X160747571Y-72164761D01*
X160709476Y-72012380D01*
X160671380Y-71936190D01*
X160595190Y-71860000D01*
X160480904Y-71821904D01*
X160404714Y-71821904D01*
X160290428Y-71860000D01*
X160252333Y-71898095D01*
X159566619Y-71821904D02*
X159719000Y-71821904D01*
X159795190Y-71860000D01*
X159833285Y-71898095D01*
X159909476Y-72012380D01*
X159947571Y-72164761D01*
X159947571Y-72469523D01*
X159909476Y-72545714D01*
X159871380Y-72583809D01*
X159795190Y-72621904D01*
X159642809Y-72621904D01*
X159566619Y-72583809D01*
X159528523Y-72545714D01*
X159490428Y-72469523D01*
X159490428Y-72279047D01*
X159528523Y-72202857D01*
X159566619Y-72164761D01*
X159642809Y-72126666D01*
X159795190Y-72126666D01*
X159871380Y-72164761D01*
X159909476Y-72202857D01*
X159947571Y-72279047D01*
X160709476Y-57381904D02*
X160709476Y-56581904D01*
X160519000Y-56581904D01*
X160404714Y-56620000D01*
X160328523Y-56696190D01*
X160290428Y-56772380D01*
X160252333Y-56924761D01*
X160252333Y-57039047D01*
X160290428Y-57191428D01*
X160328523Y-57267619D01*
X160404714Y-57343809D01*
X160519000Y-57381904D01*
X160709476Y-57381904D01*
X159947571Y-56658095D02*
X159909476Y-56620000D01*
X159833285Y-56581904D01*
X159642809Y-56581904D01*
X159566619Y-56620000D01*
X159528523Y-56658095D01*
X159490428Y-56734285D01*
X159490428Y-56810476D01*
X159528523Y-56924761D01*
X159985666Y-57381904D01*
X159490428Y-57381904D01*
X160709476Y-70081904D02*
X160709476Y-69281904D01*
X160519000Y-69281904D01*
X160404714Y-69320000D01*
X160328523Y-69396190D01*
X160290428Y-69472380D01*
X160252333Y-69624761D01*
X160252333Y-69739047D01*
X160290428Y-69891428D01*
X160328523Y-69967619D01*
X160404714Y-70043809D01*
X160519000Y-70081904D01*
X160709476Y-70081904D01*
X159566619Y-69548571D02*
X159566619Y-70081904D01*
X159757095Y-69243809D02*
X159947571Y-69815238D01*
X159452333Y-69815238D01*
X160442809Y-82362857D02*
X160328523Y-82400952D01*
X160290428Y-82439047D01*
X160252333Y-82515238D01*
X160252333Y-82629523D01*
X160290428Y-82705714D01*
X160328523Y-82743809D01*
X160404714Y-82781904D01*
X160709476Y-82781904D01*
X160709476Y-81981904D01*
X160442809Y-81981904D01*
X160366619Y-82020000D01*
X160328523Y-82058095D01*
X160290428Y-82134285D01*
X160290428Y-82210476D01*
X160328523Y-82286666D01*
X160366619Y-82324761D01*
X160442809Y-82362857D01*
X160709476Y-82362857D01*
X159528523Y-81981904D02*
X159909476Y-81981904D01*
X159947571Y-82362857D01*
X159909476Y-82324761D01*
X159833285Y-82286666D01*
X159642809Y-82286666D01*
X159566619Y-82324761D01*
X159528523Y-82362857D01*
X159490428Y-82439047D01*
X159490428Y-82629523D01*
X159528523Y-82705714D01*
X159566619Y-82743809D01*
X159642809Y-82781904D01*
X159833285Y-82781904D01*
X159909476Y-82743809D01*
X159947571Y-82705714D01*
X171364809Y-79822857D02*
X171250523Y-79860952D01*
X171212428Y-79899047D01*
X171174333Y-79975238D01*
X171174333Y-80089523D01*
X171212428Y-80165714D01*
X171250523Y-80203809D01*
X171326714Y-80241904D01*
X171631476Y-80241904D01*
X171631476Y-79441904D01*
X171364809Y-79441904D01*
X171288619Y-79480000D01*
X171250523Y-79518095D01*
X171212428Y-79594285D01*
X171212428Y-79670476D01*
X171250523Y-79746666D01*
X171288619Y-79784761D01*
X171364809Y-79822857D01*
X171631476Y-79822857D01*
X170869571Y-79518095D02*
X170831476Y-79480000D01*
X170755285Y-79441904D01*
X170564809Y-79441904D01*
X170488619Y-79480000D01*
X170450523Y-79518095D01*
X170412428Y-79594285D01*
X170412428Y-79670476D01*
X170450523Y-79784761D01*
X170907666Y-80241904D01*
X170412428Y-80241904D01*
X171153333Y-59863809D02*
X171039047Y-59901904D01*
X170848571Y-59901904D01*
X170772380Y-59863809D01*
X170734285Y-59825714D01*
X170696190Y-59749523D01*
X170696190Y-59673333D01*
X170734285Y-59597142D01*
X170772380Y-59559047D01*
X170848571Y-59520952D01*
X171000952Y-59482857D01*
X171077142Y-59444761D01*
X171115238Y-59406666D01*
X171153333Y-59330476D01*
X171153333Y-59254285D01*
X171115238Y-59178095D01*
X171077142Y-59140000D01*
X171000952Y-59101904D01*
X170810476Y-59101904D01*
X170696190Y-59140000D01*
X170467619Y-59101904D02*
X170010476Y-59101904D01*
X170239047Y-59901904D02*
X170239047Y-59101904D01*
X160671380Y-77282857D02*
X160404714Y-77282857D01*
X160290428Y-77701904D02*
X160671380Y-77701904D01*
X160671380Y-76901904D01*
X160290428Y-76901904D01*
X159604714Y-76901904D02*
X159757095Y-76901904D01*
X159833285Y-76940000D01*
X159871380Y-76978095D01*
X159947571Y-77092380D01*
X159985666Y-77244761D01*
X159985666Y-77549523D01*
X159947571Y-77625714D01*
X159909476Y-77663809D01*
X159833285Y-77701904D01*
X159680904Y-77701904D01*
X159604714Y-77663809D01*
X159566619Y-77625714D01*
X159528523Y-77549523D01*
X159528523Y-77359047D01*
X159566619Y-77282857D01*
X159604714Y-77244761D01*
X159680904Y-77206666D01*
X159833285Y-77206666D01*
X159909476Y-77244761D01*
X159947571Y-77282857D01*
X159985666Y-77359047D01*
X171650523Y-56620000D02*
X171726714Y-56581904D01*
X171841000Y-56581904D01*
X171955285Y-56620000D01*
X172031476Y-56696190D01*
X172069571Y-56772380D01*
X172107666Y-56924761D01*
X172107666Y-57039047D01*
X172069571Y-57191428D01*
X172031476Y-57267619D01*
X171955285Y-57343809D01*
X171841000Y-57381904D01*
X171764809Y-57381904D01*
X171650523Y-57343809D01*
X171612428Y-57305714D01*
X171612428Y-57039047D01*
X171764809Y-57039047D01*
X171269571Y-57381904D02*
X171269571Y-56581904D01*
X170812428Y-57381904D01*
X170812428Y-56581904D01*
X170431476Y-57381904D02*
X170431476Y-56581904D01*
X170241000Y-56581904D01*
X170126714Y-56620000D01*
X170050523Y-56696190D01*
X170012428Y-56772380D01*
X169974333Y-56924761D01*
X169974333Y-57039047D01*
X170012428Y-57191428D01*
X170050523Y-57267619D01*
X170126714Y-57343809D01*
X170241000Y-57381904D01*
X170431476Y-57381904D01*
X171364809Y-82362857D02*
X171250523Y-82400952D01*
X171212428Y-82439047D01*
X171174333Y-82515238D01*
X171174333Y-82629523D01*
X171212428Y-82705714D01*
X171250523Y-82743809D01*
X171326714Y-82781904D01*
X171631476Y-82781904D01*
X171631476Y-81981904D01*
X171364809Y-81981904D01*
X171288619Y-82020000D01*
X171250523Y-82058095D01*
X171212428Y-82134285D01*
X171212428Y-82210476D01*
X171250523Y-82286666D01*
X171288619Y-82324761D01*
X171364809Y-82362857D01*
X171631476Y-82362857D01*
X170488619Y-81981904D02*
X170641000Y-81981904D01*
X170717190Y-82020000D01*
X170755285Y-82058095D01*
X170831476Y-82172380D01*
X170869571Y-82324761D01*
X170869571Y-82629523D01*
X170831476Y-82705714D01*
X170793380Y-82743809D01*
X170717190Y-82781904D01*
X170564809Y-82781904D01*
X170488619Y-82743809D01*
X170450523Y-82705714D01*
X170412428Y-82629523D01*
X170412428Y-82439047D01*
X170450523Y-82362857D01*
X170488619Y-82324761D01*
X170564809Y-82286666D01*
X170717190Y-82286666D01*
X170793380Y-82324761D01*
X170831476Y-82362857D01*
X170869571Y-82439047D01*
X171364809Y-74742857D02*
X171250523Y-74780952D01*
X171212428Y-74819047D01*
X171174333Y-74895238D01*
X171174333Y-75009523D01*
X171212428Y-75085714D01*
X171250523Y-75123809D01*
X171326714Y-75161904D01*
X171631476Y-75161904D01*
X171631476Y-74361904D01*
X171364809Y-74361904D01*
X171288619Y-74400000D01*
X171250523Y-74438095D01*
X171212428Y-74514285D01*
X171212428Y-74590476D01*
X171250523Y-74666666D01*
X171288619Y-74704761D01*
X171364809Y-74742857D01*
X171631476Y-74742857D01*
X170412428Y-75161904D02*
X170869571Y-75161904D01*
X170641000Y-75161904D02*
X170641000Y-74361904D01*
X170717190Y-74476190D01*
X170793380Y-74552380D01*
X170869571Y-74590476D01*
X172107666Y-61661904D02*
X171841000Y-62461904D01*
X171574333Y-61661904D01*
X170850523Y-62385714D02*
X170888619Y-62423809D01*
X171002904Y-62461904D01*
X171079095Y-62461904D01*
X171193380Y-62423809D01*
X171269571Y-62347619D01*
X171307666Y-62271428D01*
X171345761Y-62119047D01*
X171345761Y-62004761D01*
X171307666Y-61852380D01*
X171269571Y-61776190D01*
X171193380Y-61700000D01*
X171079095Y-61661904D01*
X171002904Y-61661904D01*
X170888619Y-61700000D01*
X170850523Y-61738095D01*
X170050523Y-62385714D02*
X170088619Y-62423809D01*
X170202904Y-62461904D01*
X170279095Y-62461904D01*
X170393380Y-62423809D01*
X170469571Y-62347619D01*
X170507666Y-62271428D01*
X170545761Y-62119047D01*
X170545761Y-62004761D01*
X170507666Y-61852380D01*
X170469571Y-61776190D01*
X170393380Y-61700000D01*
X170279095Y-61661904D01*
X170202904Y-61661904D01*
X170088619Y-61700000D01*
X170050523Y-61738095D01*
X171307666Y-67122857D02*
X171574333Y-67122857D01*
X171574333Y-67541904D02*
X171574333Y-66741904D01*
X171193380Y-66741904D01*
X170507666Y-66741904D02*
X170888619Y-66741904D01*
X170926714Y-67122857D01*
X170888619Y-67084761D01*
X170812428Y-67046666D01*
X170621952Y-67046666D01*
X170545761Y-67084761D01*
X170507666Y-67122857D01*
X170469571Y-67199047D01*
X170469571Y-67389523D01*
X170507666Y-67465714D01*
X170545761Y-67503809D01*
X170621952Y-67541904D01*
X170812428Y-67541904D01*
X170888619Y-67503809D01*
X170926714Y-67465714D01*
X160442809Y-79822857D02*
X160328523Y-79860952D01*
X160290428Y-79899047D01*
X160252333Y-79975238D01*
X160252333Y-80089523D01*
X160290428Y-80165714D01*
X160328523Y-80203809D01*
X160404714Y-80241904D01*
X160709476Y-80241904D01*
X160709476Y-79441904D01*
X160442809Y-79441904D01*
X160366619Y-79480000D01*
X160328523Y-79518095D01*
X160290428Y-79594285D01*
X160290428Y-79670476D01*
X160328523Y-79746666D01*
X160366619Y-79784761D01*
X160442809Y-79822857D01*
X160709476Y-79822857D01*
X159566619Y-79708571D02*
X159566619Y-80241904D01*
X159757095Y-79403809D02*
X159947571Y-79975238D01*
X159452333Y-79975238D01*
X171364809Y-77282857D02*
X171250523Y-77320952D01*
X171212428Y-77359047D01*
X171174333Y-77435238D01*
X171174333Y-77549523D01*
X171212428Y-77625714D01*
X171250523Y-77663809D01*
X171326714Y-77701904D01*
X171631476Y-77701904D01*
X171631476Y-76901904D01*
X171364809Y-76901904D01*
X171288619Y-76940000D01*
X171250523Y-76978095D01*
X171212428Y-77054285D01*
X171212428Y-77130476D01*
X171250523Y-77206666D01*
X171288619Y-77244761D01*
X171364809Y-77282857D01*
X171631476Y-77282857D01*
X170907666Y-76901904D02*
X170412428Y-76901904D01*
X170679095Y-77206666D01*
X170564809Y-77206666D01*
X170488619Y-77244761D01*
X170450523Y-77282857D01*
X170412428Y-77359047D01*
X170412428Y-77549523D01*
X170450523Y-77625714D01*
X170488619Y-77663809D01*
X170564809Y-77701904D01*
X170793380Y-77701904D01*
X170869571Y-77663809D01*
X170907666Y-77625714D01*
X171307666Y-64582857D02*
X171574333Y-64582857D01*
X171574333Y-65001904D02*
X171574333Y-64201904D01*
X171193380Y-64201904D01*
X170545761Y-64468571D02*
X170545761Y-65001904D01*
X170736238Y-64163809D02*
X170926714Y-64735238D01*
X170431476Y-64735238D01*
X171307666Y-69662857D02*
X171574333Y-69662857D01*
X171574333Y-70081904D02*
X171574333Y-69281904D01*
X171193380Y-69281904D01*
X170545761Y-69281904D02*
X170698142Y-69281904D01*
X170774333Y-69320000D01*
X170812428Y-69358095D01*
X170888619Y-69472380D01*
X170926714Y-69624761D01*
X170926714Y-69929523D01*
X170888619Y-70005714D01*
X170850523Y-70043809D01*
X170774333Y-70081904D01*
X170621952Y-70081904D01*
X170545761Y-70043809D01*
X170507666Y-70005714D01*
X170469571Y-69929523D01*
X170469571Y-69739047D01*
X170507666Y-69662857D01*
X170545761Y-69624761D01*
X170621952Y-69586666D01*
X170774333Y-69586666D01*
X170850523Y-69624761D01*
X170888619Y-69662857D01*
X170926714Y-69739047D01*
X171307666Y-72202857D02*
X171574333Y-72202857D01*
X171574333Y-72621904D02*
X171574333Y-71821904D01*
X171193380Y-71821904D01*
X170964809Y-71821904D02*
X170431476Y-71821904D01*
X170774333Y-72621904D01*
X160709476Y-75161904D02*
X160709476Y-74361904D01*
X160519000Y-74361904D01*
X160404714Y-74400000D01*
X160328523Y-74476190D01*
X160290428Y-74552380D01*
X160252333Y-74704761D01*
X160252333Y-74819047D01*
X160290428Y-74971428D01*
X160328523Y-75047619D01*
X160404714Y-75123809D01*
X160519000Y-75161904D01*
X160709476Y-75161904D01*
X159985666Y-74361904D02*
X159452333Y-74361904D01*
X159795190Y-75161904D01*
X164198604Y-54041904D02*
X163741461Y-54041904D01*
X163970032Y-54841904D02*
X163970032Y-54041904D01*
X163550985Y-54041904D02*
X163017651Y-54841904D01*
X163017651Y-54041904D02*
X163550985Y-54841904D01*
X162560508Y-54041904D02*
X162484318Y-54041904D01*
X162408128Y-54080000D01*
X162370032Y-54118095D01*
X162331937Y-54194285D01*
X162293842Y-54346666D01*
X162293842Y-54537142D01*
X162331937Y-54689523D01*
X162370032Y-54765714D01*
X162408128Y-54803809D01*
X162484318Y-54841904D01*
X162560508Y-54841904D01*
X162636699Y-54803809D01*
X162674794Y-54765714D01*
X162712889Y-54689523D01*
X162750985Y-54537142D01*
X162750985Y-54346666D01*
X162712889Y-54194285D01*
X162674794Y-54118095D01*
X162636699Y-54080000D01*
X162560508Y-54041904D01*
X161379556Y-54003809D02*
X162065270Y-55032380D01*
X161112889Y-54841904D02*
X161112889Y-54041904D01*
X160922413Y-54041904D01*
X160808128Y-54080000D01*
X160731937Y-54156190D01*
X160693842Y-54232380D01*
X160655747Y-54384761D01*
X160655747Y-54499047D01*
X160693842Y-54651428D01*
X160731937Y-54727619D01*
X160808128Y-54803809D01*
X160922413Y-54841904D01*
X161112889Y-54841904D01*
X160389080Y-54041904D02*
X159893842Y-54041904D01*
X160160508Y-54346666D01*
X160046223Y-54346666D01*
X159970032Y-54384761D01*
X159931937Y-54422857D01*
X159893842Y-54499047D01*
X159893842Y-54689523D01*
X159931937Y-54765714D01*
X159970032Y-54803809D01*
X160046223Y-54841904D01*
X160274794Y-54841904D01*
X160350985Y-54803809D01*
X160389080Y-54765714D01*
X171593380Y-54841904D02*
X171860047Y-54460952D01*
X172050523Y-54841904D02*
X172050523Y-54041904D01*
X171745761Y-54041904D01*
X171669571Y-54080000D01*
X171631476Y-54118095D01*
X171593380Y-54194285D01*
X171593380Y-54308571D01*
X171631476Y-54384761D01*
X171669571Y-54422857D01*
X171745761Y-54460952D01*
X172050523Y-54460952D01*
X171288619Y-54613333D02*
X170907666Y-54613333D01*
X171364809Y-54841904D02*
X171098142Y-54041904D01*
X170831476Y-54841904D01*
X170641000Y-54041904D02*
X170450523Y-54841904D01*
X170298142Y-54270476D01*
X170145761Y-54841904D01*
X169955285Y-54041904D01*
X181858333Y-66879761D02*
X181715476Y-66927380D01*
X181477380Y-66927380D01*
X181382142Y-66879761D01*
X181334523Y-66832142D01*
X181286904Y-66736904D01*
X181286904Y-66641666D01*
X181334523Y-66546428D01*
X181382142Y-66498809D01*
X181477380Y-66451190D01*
X181667857Y-66403571D01*
X181763095Y-66355952D01*
X181810714Y-66308333D01*
X181858333Y-66213095D01*
X181858333Y-66117857D01*
X181810714Y-66022619D01*
X181763095Y-65975000D01*
X181667857Y-65927380D01*
X181429761Y-65927380D01*
X181286904Y-65975000D01*
X180953571Y-65927380D02*
X180715476Y-66927380D01*
X180525000Y-66213095D01*
X180334523Y-66927380D01*
X180096428Y-65927380D01*
X179763095Y-66022619D02*
X179715476Y-65975000D01*
X179620238Y-65927380D01*
X179382142Y-65927380D01*
X179286904Y-65975000D01*
X179239285Y-66022619D01*
X179191666Y-66117857D01*
X179191666Y-66213095D01*
X179239285Y-66355952D01*
X179810714Y-66927380D01*
X179191666Y-66927380D01*
X119620702Y-66580005D02*
X119620702Y-65580005D01*
X119620702Y-66056196D02*
X119049273Y-66056196D01*
X119049273Y-66580005D02*
X119049273Y-65580005D01*
X118049273Y-66580005D02*
X118620702Y-66580005D01*
X118334987Y-66580005D02*
X118334987Y-65580005D01*
X118430226Y-65722863D01*
X118525464Y-65818101D01*
X118620702Y-65865720D01*
X117430226Y-65580005D02*
X117334987Y-65580005D01*
X117239749Y-65627625D01*
X117192130Y-65675244D01*
X117144511Y-65770482D01*
X117096892Y-65960958D01*
X117096892Y-66199053D01*
X117144511Y-66389529D01*
X117192130Y-66484767D01*
X117239749Y-66532386D01*
X117334987Y-66580005D01*
X117430226Y-66580005D01*
X117525464Y-66532386D01*
X117573083Y-66484767D01*
X117620702Y-66389529D01*
X117668321Y-66199053D01*
X117668321Y-65960958D01*
X117620702Y-65770482D01*
X117573083Y-65675244D01*
X117525464Y-65627625D01*
X117430226Y-65580005D01*
X113119161Y-123705555D02*
X113119161Y-122705555D01*
X113119161Y-123181746D02*
X112547733Y-123181746D01*
X112547733Y-123705555D02*
X112547733Y-122705555D01*
X112023923Y-123705555D02*
X111833447Y-123705555D01*
X111738209Y-123657936D01*
X111690590Y-123610317D01*
X111595352Y-123467460D01*
X111547733Y-123276984D01*
X111547733Y-122896032D01*
X111595352Y-122800794D01*
X111642971Y-122753175D01*
X111738209Y-122705555D01*
X111928685Y-122705555D01*
X112023923Y-122753175D01*
X112071542Y-122800794D01*
X112119161Y-122896032D01*
X112119161Y-123134127D01*
X112071542Y-123229365D01*
X112023923Y-123276984D01*
X111928685Y-123324603D01*
X111738209Y-123324603D01*
X111642971Y-123276984D01*
X111595352Y-123229365D01*
X111547733Y-123134127D01*
X100119861Y-95155706D02*
X100119861Y-94155706D01*
X100119861Y-94631897D02*
X99548433Y-94631897D01*
X99548433Y-95155706D02*
X99548433Y-94155706D01*
X98929385Y-94584278D02*
X99024623Y-94536659D01*
X99072242Y-94489040D01*
X99119861Y-94393802D01*
X99119861Y-94346183D01*
X99072242Y-94250945D01*
X99024623Y-94203326D01*
X98929385Y-94155706D01*
X98738909Y-94155706D01*
X98643671Y-94203326D01*
X98596052Y-94250945D01*
X98548433Y-94346183D01*
X98548433Y-94393802D01*
X98596052Y-94489040D01*
X98643671Y-94536659D01*
X98738909Y-94584278D01*
X98929385Y-94584278D01*
X99024623Y-94631897D01*
X99072242Y-94679516D01*
X99119861Y-94774754D01*
X99119861Y-94965230D01*
X99072242Y-95060468D01*
X99024623Y-95108087D01*
X98929385Y-95155706D01*
X98738909Y-95155706D01*
X98643671Y-95108087D01*
X98596052Y-95060468D01*
X98548433Y-94965230D01*
X98548433Y-94774754D01*
X98596052Y-94679516D01*
X98643671Y-94631897D01*
X98738909Y-94584278D01*
X81044611Y-117706156D02*
X81044611Y-116706156D01*
X81044611Y-117182347D02*
X80473183Y-117182347D01*
X80473183Y-117706156D02*
X80473183Y-116706156D01*
X80092230Y-116706156D02*
X79425564Y-116706156D01*
X79854135Y-117706156D01*
X74941910Y-66580005D02*
X74941910Y-65580005D01*
X74941910Y-66056196D02*
X74370482Y-66056196D01*
X74370482Y-66580005D02*
X74370482Y-65580005D01*
X73465720Y-65580005D02*
X73656196Y-65580005D01*
X73751434Y-65627625D01*
X73799053Y-65675244D01*
X73894291Y-65818101D01*
X73941910Y-66008577D01*
X73941910Y-66389529D01*
X73894291Y-66484767D01*
X73846672Y-66532386D01*
X73751434Y-66580005D01*
X73560958Y-66580005D01*
X73465720Y-66532386D01*
X73418101Y-66484767D01*
X73370482Y-66389529D01*
X73370482Y-66151434D01*
X73418101Y-66056196D01*
X73465720Y-66008577D01*
X73560958Y-65960958D01*
X73751434Y-65960958D01*
X73846672Y-66008577D01*
X73894291Y-66056196D01*
X73941910Y-66151434D01*
X150732185Y-64805646D02*
X150732185Y-63805646D01*
X150732185Y-64281837D02*
X150160757Y-64281837D01*
X150160757Y-64805646D02*
X150160757Y-63805646D01*
X149208376Y-63805646D02*
X149684566Y-63805646D01*
X149732185Y-64281837D01*
X149684566Y-64234218D01*
X149589328Y-64186599D01*
X149351233Y-64186599D01*
X149255995Y-64234218D01*
X149208376Y-64281837D01*
X149160757Y-64377075D01*
X149160757Y-64615170D01*
X149208376Y-64710408D01*
X149255995Y-64758027D01*
X149351233Y-64805646D01*
X149589328Y-64805646D01*
X149684566Y-64758027D01*
X149732185Y-64710408D01*
X188911466Y-121912143D02*
X188911466Y-120912143D01*
X188911466Y-121388334D02*
X188340038Y-121388334D01*
X188340038Y-121912143D02*
X188340038Y-120912143D01*
X187435276Y-121245477D02*
X187435276Y-121912143D01*
X187673371Y-120864524D02*
X187911466Y-121578810D01*
X187292419Y-121578810D01*
X175884902Y-93334552D02*
X175884902Y-92334552D01*
X175884902Y-92810743D02*
X175313474Y-92810743D01*
X175313474Y-93334552D02*
X175313474Y-92334552D01*
X174932521Y-92334552D02*
X174313474Y-92334552D01*
X174646807Y-92715505D01*
X174503950Y-92715505D01*
X174408712Y-92763124D01*
X174361093Y-92810743D01*
X174313474Y-92905981D01*
X174313474Y-93144076D01*
X174361093Y-93239314D01*
X174408712Y-93286933D01*
X174503950Y-93334552D01*
X174789664Y-93334552D01*
X174884902Y-93286933D01*
X174932521Y-93239314D01*
X194934918Y-64759528D02*
X194934918Y-63759528D01*
X194934918Y-64235719D02*
X194363490Y-64235719D01*
X194363490Y-64759528D02*
X194363490Y-63759528D01*
X193934918Y-63854767D02*
X193887299Y-63807148D01*
X193792061Y-63759528D01*
X193553966Y-63759528D01*
X193458728Y-63807148D01*
X193411109Y-63854767D01*
X193363490Y-63950005D01*
X193363490Y-64045243D01*
X193411109Y-64188100D01*
X193982537Y-64759528D01*
X193363490Y-64759528D01*
X156834886Y-115956446D02*
X156834886Y-114956446D01*
X156834886Y-115432637D02*
X156263458Y-115432637D01*
X156263458Y-115956446D02*
X156263458Y-114956446D01*
X155263458Y-115956446D02*
X155834886Y-115956446D01*
X155549172Y-115956446D02*
X155549172Y-114956446D01*
X155644410Y-115099304D01*
X155739648Y-115194542D01*
X155834886Y-115242161D01*
X190158666Y-62841142D02*
X190206285Y-62888761D01*
X190349142Y-62936380D01*
X190444380Y-62936380D01*
X190587238Y-62888761D01*
X190682476Y-62793523D01*
X190730095Y-62698285D01*
X190777714Y-62507809D01*
X190777714Y-62364952D01*
X190730095Y-62174476D01*
X190682476Y-62079238D01*
X190587238Y-61984000D01*
X190444380Y-61936380D01*
X190349142Y-61936380D01*
X190206285Y-61984000D01*
X190158666Y-62031619D01*
X189777714Y-62031619D02*
X189730095Y-61984000D01*
X189634857Y-61936380D01*
X189396761Y-61936380D01*
X189301523Y-61984000D01*
X189253904Y-62031619D01*
X189206285Y-62126857D01*
X189206285Y-62222095D01*
X189253904Y-62364952D01*
X189825333Y-62936380D01*
X189206285Y-62936380D01*
X186348666Y-62841142D02*
X186396285Y-62888761D01*
X186539142Y-62936380D01*
X186634380Y-62936380D01*
X186777238Y-62888761D01*
X186872476Y-62793523D01*
X186920095Y-62698285D01*
X186967714Y-62507809D01*
X186967714Y-62364952D01*
X186920095Y-62174476D01*
X186872476Y-62079238D01*
X186777238Y-61984000D01*
X186634380Y-61936380D01*
X186539142Y-61936380D01*
X186396285Y-61984000D01*
X186348666Y-62031619D01*
X185396285Y-62936380D02*
X185967714Y-62936380D01*
X185682000Y-62936380D02*
X185682000Y-61936380D01*
X185777238Y-62079238D01*
X185872476Y-62174476D01*
X185967714Y-62222095D01*
X200333333Y-67004761D02*
X200190476Y-67052380D01*
X199952380Y-67052380D01*
X199857142Y-67004761D01*
X199809523Y-66957142D01*
X199761904Y-66861904D01*
X199761904Y-66766666D01*
X199809523Y-66671428D01*
X199857142Y-66623809D01*
X199952380Y-66576190D01*
X200142857Y-66528571D01*
X200238095Y-66480952D01*
X200285714Y-66433333D01*
X200333333Y-66338095D01*
X200333333Y-66242857D01*
X200285714Y-66147619D01*
X200238095Y-66100000D01*
X200142857Y-66052380D01*
X199904761Y-66052380D01*
X199761904Y-66100000D01*
X199428571Y-66052380D02*
X199190476Y-67052380D01*
X199000000Y-66338095D01*
X198809523Y-67052380D01*
X198571428Y-66052380D01*
X197666666Y-67052380D02*
X198238095Y-67052380D01*
X197952380Y-67052380D02*
X197952380Y-66052380D01*
X198047619Y-66195238D01*
X198142857Y-66290476D01*
X198238095Y-66338095D01*
X140852534Y-63681402D02*
X140376344Y-63348069D01*
X140852534Y-63109973D02*
X139852534Y-63109973D01*
X139852534Y-63490926D01*
X139900154Y-63586164D01*
X139947773Y-63633783D01*
X140043011Y-63681402D01*
X140185868Y-63681402D01*
X140281106Y-63633783D01*
X140328725Y-63586164D01*
X140376344Y-63490926D01*
X140376344Y-63109973D01*
X140852534Y-64633783D02*
X140852534Y-64062354D01*
X140852534Y-64348069D02*
X139852534Y-64348069D01*
X139995392Y-64252830D01*
X140090630Y-64157592D01*
X140138249Y-64062354D01*
M02*
