M48
; DRILL file {KiCad (5.1.7)-1} date 12/11/20 21:32:03
; FORMAT={-:-/ absolute / inch / decimal}
; #@! TF.CreationDate,2020-12-11T21:32:03-08:00
; #@! TF.GenerationSoftware,Kicad,Pcbnew,(5.1.7)-1
; #@! TF.FileFunction,Plated,1,2,PTH
FMAT,2
INCH
T1C0.0157
T2C0.0394
T3C0.0409
T4C0.0433
T5C0.0579
T6C0.0591
%
G90
G05
T1
X5.6417Y-3.3425
X5.6526Y-3.3855
X5.6693Y-2.6024
X6.3202Y-2.459
X6.4026Y-3.6757
X6.622Y-3.431
X6.7598Y-2.5
X7.0955Y-2.8842
X7.0955Y-2.9282
X7.124Y-3.4233
X7.1526Y-2.765
X7.1898Y-2.225
X7.5157Y-4.0276
X7.5246Y-3.0039
X7.5438Y-4.2701
X7.5615Y-4.7611
X7.6098Y-4.843
X7.6299Y-3.4657
X7.7168Y-3.524
X7.7559Y-3.5197
X7.7589Y-2.9409
X7.811Y-2.9606
X7.9026Y-3.0748
X8.2115Y-2.4914
X8.2502Y-2.484
T2
X7.7288Y-2.2482
X7.7288Y-2.3466
X7.7288Y-2.445
X8.2996Y-2.2482
X8.2996Y-2.445
X7.7922Y-4.1953
X7.7922Y-4.2953
X7.8922Y-4.1953
X7.8922Y-4.2953
X7.9922Y-4.1953
X7.9922Y-4.2953
T3
X5.724Y-2.5419
X5.824Y-2.5419
X8.224Y-4.9169
X8.224Y-5.0169
X6.099Y-5.5419
X6.199Y-5.5419
T4
X6.1316Y-2.4025
X6.1316Y-2.5025
X6.1316Y-2.6025
X6.1316Y-2.7025
X6.1316Y-2.8025
X6.1316Y-2.9025
X6.1316Y-3.0025
X6.1316Y-3.1025
X6.1316Y-3.2025
X6.1316Y-3.3025
X6.1316Y-3.4025
X6.1316Y-3.5025
X6.9285Y-2.4025
X6.9285Y-2.5025
X6.9285Y-2.6025
X6.9285Y-2.7025
X6.9285Y-2.8025
X6.9285Y-2.9025
X6.9285Y-3.0025
X6.9285Y-3.1025
X6.9285Y-3.2025
X6.9285Y-3.3025
X6.9285Y-3.4025
X6.9285Y-3.5025
X6.2296Y-2.049
X6.2296Y-2.149
X6.2296Y-2.249
X6.2296Y-2.349
X6.2296Y-2.449
X6.2296Y-2.549
X6.2296Y-2.649
X6.2296Y-2.749
X6.2296Y-2.849
X6.2296Y-2.949
X6.2296Y-3.049
X6.2296Y-3.149
X6.8296Y-2.049
X6.8296Y-2.149
X6.8296Y-2.249
X6.8296Y-2.349
X6.8296Y-2.449
X6.8296Y-2.549
X6.8296Y-2.649
X6.8296Y-2.749
X6.8296Y-2.849
X6.8296Y-2.949
X6.8296Y-3.049
X6.8296Y-3.149
T5
X7.874Y-2.9919
X8.124Y-2.8919
X7.124Y-5.2419
X7.374Y-5.1419
X5.624Y-2.2419
X5.874Y-2.1419
X7.124Y-2.2419
X7.374Y-2.1419
X5.624Y-3.7419
X5.874Y-3.6419
X6.374Y-2.9919
X6.624Y-2.8919
X7.824Y-4.8669
X7.924Y-5.1169
X6.374Y-3.7419
X6.624Y-3.6419
X6.374Y-2.2419
X6.624Y-2.1419
X5.624Y-2.9919
X5.874Y-2.8919
X7.124Y-3.7419
X7.374Y-3.6419
X7.124Y-4.4919
X7.374Y-4.3919
X7.874Y-3.7419
X8.124Y-3.6419
X7.124Y-2.9919
X7.374Y-2.8919
X5.999Y-5.2419
X6.249Y-5.1419
X5.624Y-4.4919
X5.874Y-4.3919
X6.374Y-4.4919
X6.624Y-4.3919
T6
G00X7.9985Y-2.1261
M15
G01X8.0496Y-2.1261
M16
G05
G00X7.9985Y-2.5671
M15
G01X8.0496Y-2.5671
M16
G05
T0
M30
