G04 #@! TF.GenerationSoftware,KiCad,Pcbnew,(5.1.7)-1*
G04 #@! TF.CreationDate,2020-12-28T02:31:46-08:00*
G04 #@! TF.ProjectId,dropout,64726f70-6f75-4742-9e6b-696361645f70,rev?*
G04 #@! TF.SameCoordinates,Original*
G04 #@! TF.FileFunction,Profile,NP*
%FSLAX46Y46*%
G04 Gerber Fmt 4.6, Leading zero omitted, Abs format (unit mm)*
G04 Created by KiCad (PCBNEW (5.1.7)-1) date 2020-12-28 02:31:46*
%MOMM*%
%LPD*%
G01*
G04 APERTURE LIST*
G04 #@! TA.AperFunction,Profile*
%ADD10C,0.050000*%
G04 #@! TD*
G04 #@! TA.AperFunction,Profile*
%ADD11C,0.150000*%
G04 #@! TD*
G04 APERTURE END LIST*
D10*
X212708432Y-123700000D02*
X213338432Y-123700000D01*
X212708432Y-128700000D02*
X213338431Y-128700000D01*
X212708432Y-66400000D02*
X213338432Y-66400000D01*
X213338431Y-71500000D02*
X212708432Y-71500000D01*
X136907958Y-123445000D02*
X137547956Y-123466000D01*
X136907957Y-128980000D02*
X137547957Y-128946000D01*
X136907958Y-66253000D02*
X137547956Y-66267000D01*
X137547957Y-71755000D02*
X136907958Y-71748000D01*
D11*
X213338432Y-66400000D02*
X213328157Y-59553615D01*
X213338432Y-123700000D02*
X213338431Y-71500000D01*
X213328157Y-143753776D02*
X213338431Y-128700000D01*
X212708432Y-128700000D02*
X212697757Y-143753615D01*
X212708432Y-71500000D02*
X212708432Y-123700000D01*
X212697757Y-51553615D02*
X212708432Y-66400000D01*
X213328157Y-51553615D02*
G75*
G02*
X214328157Y-50553615I1000000J0D01*
G01*
X213328157Y-59553615D02*
X213328157Y-51553615D01*
X287477957Y-50553615D02*
G75*
G02*
X288477957Y-51553615I0J-1000000D01*
G01*
X214328157Y-144753776D02*
G75*
G02*
X213328157Y-143753776I0J1000000D01*
G01*
X214328157Y-50553615D02*
X287477957Y-50553615D01*
X260427957Y-144753776D02*
X287477957Y-144753776D01*
X288477957Y-143753776D02*
G75*
G02*
X287477957Y-144753776I-1000000J0D01*
G01*
X260427957Y-144753776D02*
X214328157Y-144753776D01*
X288478433Y-124410044D02*
X288478433Y-67260068D01*
X288478433Y-67260068D02*
X288477957Y-51553615D01*
X288477957Y-143753776D02*
X288478433Y-124410044D01*
X137547957Y-128946000D02*
X137547957Y-143753776D01*
X137547957Y-71755000D02*
X137547956Y-123466000D01*
X136907958Y-66253000D02*
X136907482Y-51803325D01*
X136907958Y-123445000D02*
X136907958Y-71748000D01*
X136907482Y-144003486D02*
X136907957Y-128980000D01*
X101857957Y-104902976D02*
X101857957Y-90903676D01*
X82807957Y-123953176D02*
X82807957Y-109953776D01*
X82807957Y-109953776D02*
X96807257Y-109953776D01*
X115857257Y-123953176D02*
X101857957Y-123953176D01*
X115857257Y-109953776D02*
X115857257Y-123953176D01*
X115857257Y-129003676D02*
X115857257Y-143003136D01*
X120907957Y-52803676D02*
X134907257Y-52803676D01*
X121137957Y-136728926D02*
X119937857Y-136728926D01*
X120907957Y-133478176D02*
X125608357Y-133478176D01*
X121137957Y-112928876D02*
X119937857Y-112928876D01*
X133438257Y-117953176D02*
X133438257Y-111203476D01*
X130208257Y-119478676D02*
X130208257Y-117953176D01*
X134907257Y-119478676D02*
X130208257Y-119478676D01*
X134907257Y-133478176D02*
X134907257Y-119478676D01*
X130208257Y-135003676D02*
X130208257Y-133478176D01*
X130208257Y-141753256D02*
X133438257Y-141753256D01*
X121137957Y-116227876D02*
X121137957Y-117953176D01*
X95557557Y-133704176D02*
X95557557Y-130473976D01*
X121137957Y-140027966D02*
X121137957Y-141753256D01*
X130208257Y-142578706D02*
X130208257Y-141753256D01*
X127408257Y-142578706D02*
X130208257Y-142578706D01*
X127408257Y-141753256D02*
X127408257Y-142578706D01*
X101857957Y-129003676D02*
X115857257Y-129003676D01*
X125608357Y-135003676D02*
X121137957Y-135003676D01*
X115857257Y-143003136D02*
X101857957Y-143003136D01*
X125608357Y-119478676D02*
X120907957Y-119478676D01*
X119937857Y-140027966D02*
X121137957Y-140027966D01*
X125608357Y-133478176D02*
X125608357Y-135003676D01*
X87282357Y-133704176D02*
X87282357Y-129003676D01*
X88807857Y-133704176D02*
X87282357Y-133704176D01*
X87282357Y-129003676D02*
X73282957Y-129003676D01*
X121137957Y-135003676D02*
X121137957Y-136728926D01*
X120907957Y-119478676D02*
X120907957Y-133478176D01*
X125608357Y-117953176D02*
X125608357Y-119478676D01*
X101857957Y-143003136D02*
X101857957Y-129003676D01*
X119937857Y-112928876D02*
X119937857Y-116227876D01*
X130208257Y-110378076D02*
X127408257Y-110378076D01*
X127408257Y-110378076D02*
X127408257Y-111203476D01*
X130208257Y-111203476D02*
X130208257Y-110378076D01*
X130208257Y-117953176D02*
X133438257Y-117953176D01*
X119937857Y-136728926D02*
X119937857Y-140027966D01*
X121137957Y-141753256D02*
X127408257Y-141753256D01*
X127408257Y-111203476D02*
X121137957Y-111203476D01*
X121137957Y-117953176D02*
X125608357Y-117953176D01*
X133438257Y-111203476D02*
X130208257Y-111203476D01*
X130208257Y-133478176D02*
X134907257Y-133478176D01*
X119937857Y-116227876D02*
X121137957Y-116227876D01*
X121137957Y-111203476D02*
X121137957Y-112928876D01*
X95557557Y-130473976D02*
X88807857Y-130473976D01*
X133438257Y-135003676D02*
X130208257Y-135003676D01*
X133438257Y-141753256D02*
X133438257Y-135003676D01*
X88807857Y-130473976D02*
X88807857Y-133704176D01*
X63757907Y-90903676D02*
X77757457Y-90903676D01*
X101857957Y-109953776D02*
X115857257Y-109953776D01*
X101857957Y-90903676D02*
X115857257Y-90903676D01*
X63757907Y-109953776D02*
X77757457Y-109953776D01*
X134907257Y-52803676D02*
X134907257Y-66802976D01*
X82807957Y-71852276D02*
X96807257Y-71852276D01*
X82807957Y-90903676D02*
X96807257Y-90903676D01*
X96807257Y-104902976D02*
X82807957Y-104902976D01*
X63757907Y-85852976D02*
X63757907Y-71852276D01*
X77757457Y-85852976D02*
X63757907Y-85852976D01*
X77757457Y-71852276D02*
X77757457Y-85852976D01*
X96807257Y-90903676D02*
X96807257Y-104902976D01*
X120907957Y-71852276D02*
X134907257Y-71852276D01*
X77757457Y-104902976D02*
X63757907Y-104902976D01*
X120907957Y-104902976D02*
X120907957Y-90903676D01*
X63757907Y-71852276D02*
X77757457Y-71852276D01*
X96807257Y-85852976D02*
X82807957Y-85852976D01*
X115857257Y-71852276D02*
X115857257Y-85852976D01*
X96807257Y-109953776D02*
X96807257Y-123953176D01*
X120907957Y-85852976D02*
X120907957Y-71852276D01*
X134907257Y-90903676D02*
X134907257Y-104902976D01*
X134907257Y-71852276D02*
X134907257Y-85852976D01*
X134907257Y-85852976D02*
X120907957Y-85852976D01*
X115857257Y-90903676D02*
X115857257Y-104902976D01*
X77757457Y-123953176D02*
X63757907Y-123953176D01*
X96807257Y-123953176D02*
X82807957Y-123953176D01*
X82807957Y-85852976D02*
X82807957Y-71852276D01*
X82807957Y-104902976D02*
X82807957Y-90903676D01*
X101857957Y-85852976D02*
X101857957Y-71852276D01*
X115857257Y-85852976D02*
X101857957Y-85852976D01*
X101857957Y-71852276D02*
X115857257Y-71852276D01*
X134907257Y-104902976D02*
X120907957Y-104902976D01*
X63757907Y-123953176D02*
X63757907Y-109953776D01*
X63757907Y-104902976D02*
X63757907Y-90903676D01*
X101857957Y-123953176D02*
X101857957Y-109953776D01*
X120907957Y-90903676D02*
X134907257Y-90903676D01*
X77757457Y-90903676D02*
X77757457Y-104902976D01*
X77757457Y-109953776D02*
X77757457Y-123953176D01*
X115857257Y-104902976D02*
X101857957Y-104902976D01*
X96807257Y-71852276D02*
X96807257Y-85852976D01*
X61757682Y-144003486D02*
X61757682Y-59803325D01*
X63757907Y-66802976D02*
X63757907Y-52803676D01*
X108857482Y-145003486D02*
X62757682Y-145003486D01*
X101857957Y-52803676D02*
X115857257Y-52803676D01*
X82807957Y-66802976D02*
X82807957Y-52803676D01*
X115857257Y-66802976D02*
X101857957Y-66802976D01*
X136907482Y-144003486D02*
G75*
G02*
X135907482Y-145003486I-1000000J0D01*
G01*
X62757682Y-50803325D02*
X135907482Y-50803325D01*
X101857957Y-66802976D02*
X101857957Y-52803676D01*
X61757682Y-59803325D02*
X61757682Y-51803325D01*
X61757682Y-51803325D02*
G75*
G02*
X62757682Y-50803325I1000000J0D01*
G01*
X77757457Y-52803676D02*
X77757457Y-66802976D01*
X135907482Y-50803325D02*
G75*
G02*
X136907482Y-51803325I0J-1000000D01*
G01*
X63757907Y-52803676D02*
X77757457Y-52803676D01*
X96807257Y-52803676D02*
X96807257Y-66802976D01*
X120907957Y-66802976D02*
X120907957Y-52803676D01*
X134907257Y-66802976D02*
X120907957Y-66802976D01*
X62757682Y-145003486D02*
G75*
G02*
X61757682Y-144003486I0J1000000D01*
G01*
X115857257Y-52803676D02*
X115857257Y-66802976D01*
X108857482Y-145003486D02*
X135907482Y-145003486D01*
X82807957Y-52803676D02*
X96807257Y-52803676D01*
X96807257Y-66802976D02*
X82807957Y-66802976D01*
X73282957Y-143003136D02*
X87282357Y-143003136D01*
X65007807Y-142773006D02*
X66733097Y-142773006D01*
X66733097Y-142773006D02*
X66733097Y-143973276D01*
X96382957Y-133704176D02*
X95557557Y-133704176D01*
X96382957Y-136502936D02*
X96382957Y-133704176D01*
X95557557Y-142773006D02*
X95557557Y-136502936D01*
X70032107Y-142773006D02*
X71757457Y-142773006D01*
X70032107Y-143973276D02*
X70032107Y-142773006D01*
X95557557Y-136502936D02*
X96382957Y-136502936D01*
X93832257Y-142773006D02*
X95557557Y-142773006D01*
X64182347Y-136502936D02*
X65007807Y-136502936D01*
X93832257Y-143973276D02*
X93832257Y-142773006D01*
X90533157Y-143973276D02*
X93832257Y-143973276D01*
X90533157Y-142773006D02*
X90533157Y-143973276D01*
X66733097Y-143973276D02*
X70032107Y-143973276D01*
X87282357Y-143003136D02*
X87282357Y-138302666D01*
X88807857Y-142773006D02*
X90533157Y-142773006D01*
X73282957Y-138302666D02*
X73282957Y-143003136D01*
X87282357Y-138302666D02*
X88807857Y-138302666D01*
X71757457Y-138302666D02*
X73282957Y-138302666D01*
X71757457Y-142773006D02*
X71757457Y-138302666D01*
X65007807Y-136502936D02*
X65007807Y-142773006D01*
X88807857Y-138302666D02*
X88807857Y-142773006D01*
X65007807Y-133704176D02*
X64182347Y-133704176D01*
X73282957Y-133704176D02*
X71757457Y-133704176D01*
X65007807Y-130473976D02*
X65007807Y-133704176D01*
X71757457Y-130473976D02*
X65007807Y-130473976D01*
X71757457Y-133704176D02*
X71757457Y-130473976D01*
X73282957Y-129003676D02*
X73282957Y-133704176D01*
X64182347Y-133704176D02*
X64182347Y-136502936D01*
X77757457Y-66802976D02*
X63757907Y-66802976D01*
X138547957Y-144753776D02*
G75*
G02*
X137547957Y-143753776I0J1000000D01*
G01*
X184647757Y-144753776D02*
X211697757Y-144753776D01*
X138547957Y-50553615D02*
X211697757Y-50553615D01*
X137547957Y-51553615D02*
G75*
G02*
X138547957Y-50553615I1000000J0D01*
G01*
X184647757Y-144753776D02*
X138547957Y-144753776D01*
X211697757Y-50553615D02*
G75*
G02*
X212697757Y-51553615I0J-1000000D01*
G01*
X212697757Y-143753776D02*
G75*
G02*
X211697757Y-144753776I-1000000J0D01*
G01*
X137547956Y-66267000D02*
X137547957Y-51553615D01*
M02*
