M48
; DRILL file {KiCad (5.1.7)-1} date 12/29/20 23:42:54
; FORMAT={-:-/ absolute / inch / decimal}
; #@! TF.CreationDate,2020-12-29T23:42:54-08:00
; #@! TF.GenerationSoftware,Kicad,Pcbnew,(5.1.7)-1
; #@! TF.FileFunction,Plated,1,2,PTH
FMAT,2
INCH
T1C0.0157
T2C0.0394
T3C0.0409
T4C0.0430
T5C0.0579
T6C0.0591
%
G90
G05
T1
X4.2629Y-1.8104
X4.263Y-1.7222
X4.2953Y-3.0504
X4.9126Y-2.4291
X4.9147Y-2.7305
X5.1258Y-4.5643
X5.2202Y-3.2753
X5.2254Y-3.328
X5.2254Y-3.369
X5.4598Y-3.1639
X5.5653Y-1.7098
X5.6191Y-3.2987
X5.6239Y-3.8378
X5.6436Y-3.1171
X5.7747Y-1.7685
T2
X6.5144Y-3.5155
X6.5144Y-3.9155
X6.6492Y-3.1758
X7.0492Y-3.1758
X4.9148Y-3.4042
X4.9148Y-3.8042
X6.4675Y-2.7595
X6.4675Y-3.1595
X4.9148Y-3.9539
X4.9148Y-4.3539
X5.9168Y-3.1699
X6.3168Y-3.1699
X6.4148Y-3.3046
X6.4148Y-3.7046
X5.1434Y-3.9141
X5.5434Y-3.9141
X6.4676Y-2.2499
X6.4676Y-2.6499
X6.5369Y-1.9448
X6.5369Y-2.0432
X6.5369Y-2.1417
X7.1078Y-1.9448
X7.1078Y-2.1417
X4.3157Y-3.1111
X4.7157Y-3.1111
X5.8934Y-3.9141
X6.2934Y-3.9141
X4.3874Y-3.2051
X4.7874Y-3.2051
X5.0144Y-4.159
X5.0144Y-4.559
X5.0145Y-3.3036
X5.0145Y-3.7036
X5.8918Y-2.4138
X6.2918Y-2.4138
X5.9041Y-4.6641
X6.3041Y-4.6641
X5.7175Y-3.3103
X5.7175Y-3.7103
X5.7175Y-3.9139
X5.7175Y-4.3139
T3
X4.5416Y-2.2386
X4.6416Y-2.2386
T4
X4.9444Y-2.0805
X4.9444Y-2.1805
X4.9444Y-2.2805
X4.9444Y-2.3805
X4.9444Y-2.4805
X4.9444Y-2.5805
X4.9444Y-2.6805
X4.9444Y-2.7805
X4.9444Y-2.8805
X4.9444Y-2.9805
X4.9444Y-3.0805
X4.9444Y-3.1805
X5.0428Y-1.8344
X5.0428Y-1.9344
X5.0428Y-2.0344
X5.0428Y-2.1344
X5.0428Y-2.2344
X5.0428Y-2.3344
X5.0428Y-2.4344
X5.0428Y-2.5344
X5.0428Y-2.6344
X5.0428Y-2.7344
X5.0428Y-2.8344
X5.0428Y-2.9344
X5.6428Y-1.8344
X5.6428Y-1.9344
X5.6428Y-2.0344
X5.6428Y-2.1344
X5.6428Y-2.2344
X5.6428Y-2.3344
X5.6428Y-2.4344
X5.6428Y-2.5344
X5.6428Y-2.6344
X5.6428Y-2.7344
X5.6428Y-2.8344
X5.6428Y-2.9344
X5.7412Y-2.0805
X5.7412Y-2.1805
X5.7412Y-2.2805
X5.7412Y-2.3805
X5.7412Y-2.4805
X5.7412Y-2.5805
X5.7412Y-2.6805
X5.7412Y-2.7805
X5.7412Y-2.8805
X5.7412Y-2.9805
X5.7412Y-3.0805
X5.7412Y-3.1805
T5
X5.9416Y-4.1886
X6.1916Y-4.0886
X4.4416Y-2.6886
X4.6916Y-2.5886
X5.9416Y-1.9386
X6.1916Y-1.8386
X4.4416Y-3.4386
X4.6916Y-3.3386
X5.9416Y-2.6886
X6.1916Y-2.5886
X5.1916Y-2.6886
X5.4416Y-2.5886
X5.9416Y-4.9386
X6.1916Y-4.8386
X6.6916Y-1.9386
X6.9416Y-1.8386
X4.8166Y-4.9386
X5.0666Y-4.8386
X5.1916Y-1.9386
X5.4416Y-1.8386
X5.1916Y-3.4386
X5.4416Y-3.3386
X4.4416Y-1.9386
X4.6916Y-1.8386
X4.4416Y-4.1886
X4.6916Y-4.0886
X5.9416Y-3.4386
X6.1916Y-3.3386
X5.1916Y-4.1886
X5.4416Y-4.0886
X6.6416Y-4.5636
X6.7416Y-4.8136
X6.6916Y-2.6886
X6.9416Y-2.5886
X6.6916Y-3.4386
X6.9416Y-3.3386
T6
G00X6.8066Y-1.8228
M15
G01X6.8578Y-1.8228
M16
G05
G00X6.8066Y-2.2637
M15
G01X6.8578Y-2.2637
M16
G05
T0
M30
