M48
; DRILL file {KiCad (5.1.7)-1} date 12/28/20 02:31:49
; FORMAT={-:-/ absolute / inch / decimal}
; #@! TF.CreationDate,2020-12-28T02:31:49-08:00
; #@! TF.GenerationSoftware,Kicad,Pcbnew,(5.1.7)-1
; #@! TF.FileFunction,Plated,1,2,PTH
FMAT,2
INCH
T1C0.0157
T2C0.0394
T3C0.0409
T4C0.0430
T5C0.0579
T6C0.0591
%
G90
G05
T1
X5.4418Y-2.5433
X5.4418Y-3.2795
X5.4449Y-2.0354
X5.4606Y-4.315
X5.4734Y-2.0896
X5.5512Y-5.1417
X5.5955Y-4.6535
X5.6526Y-3.3504
X5.9139Y-4.1557
X6.0651Y-3.0085
X6.6614Y-4.7283
X6.6768Y-2.2287
X6.8189Y-2.0502
X6.9449Y-2.2874
X6.9744Y-3.3018
X6.9921Y-2.122
X7.4921Y-2.0669
X7.874Y-3.3898
X8.126Y-4.815
X8.1299Y-3.2008
T2
X6.8905Y-4.3359
X6.8905Y-4.7359
X7.5938Y-2.0844
X7.5938Y-2.4844
X6.0278Y-4.9921
X6.4278Y-4.9921
X7.7244Y-2.2402
X7.7244Y-2.3386
X7.7244Y-2.437
X8.2953Y-2.2402
X8.2953Y-2.437
X7.0253Y-4.2189
X7.4253Y-4.2189
X6.7719Y-4.9688
X7.1719Y-4.9688
X5.5424Y-3.4218
X5.9424Y-3.4218
X7.875Y-2.6954
X8.275Y-2.6954
X7.6407Y-3.1987
X7.6407Y-3.5987
X5.5424Y-4.2187
X5.9424Y-4.2187
X6.2795Y-3.5157
X6.6795Y-3.5157
X7.0357Y-2.7187
X7.4357Y-2.7187
X7.7953Y-3.4647
X8.1953Y-3.4647
X6.1685Y-4.2187
X6.5685Y-4.2187
X7.7362Y-4.2245
X8.1362Y-4.2245
X7.6405Y-3.7266
X7.6405Y-4.1266
X5.5078Y-4.9409
X5.5078Y-5.3409
X6.1497Y-3.6354
X6.1497Y-4.0354
X7.0512Y-3.4686
X7.4512Y-3.4686
T3
X5.724Y-2.5419
X5.824Y-2.5419
T4
X6.1205Y-2.3909
X6.1205Y-2.4909
X6.1205Y-2.5909
X6.1205Y-2.6909
X6.1205Y-2.7909
X6.1205Y-2.8909
X6.1205Y-2.9909
X6.1205Y-3.0909
X6.1205Y-3.1909
X6.1205Y-3.2909
X6.1205Y-3.3909
X6.1205Y-3.4909
X6.2189Y-2.1449
X6.2189Y-2.2449
X6.2189Y-2.3449
X6.2189Y-2.4449
X6.2189Y-2.5449
X6.2189Y-2.6449
X6.2189Y-2.7449
X6.2189Y-2.8449
X6.2189Y-2.9449
X6.2189Y-3.0449
X6.2189Y-3.1449
X6.2189Y-3.2449
X6.8189Y-2.1449
X6.8189Y-2.2449
X6.8189Y-2.3449
X6.8189Y-2.4449
X6.8189Y-2.5449
X6.8189Y-2.6449
X6.8189Y-2.7449
X6.8189Y-2.8449
X6.8189Y-2.9449
X6.8189Y-3.0449
X6.8189Y-3.1449
X6.8189Y-3.2449
X6.9173Y-2.3909
X6.9173Y-2.4909
X6.9173Y-2.5909
X6.9173Y-2.6909
X6.9173Y-2.7909
X6.9173Y-2.8909
X6.9173Y-2.9909
X6.9173Y-3.0909
X6.9173Y-3.1909
X6.9173Y-3.2909
X6.9173Y-3.3909
X6.9173Y-3.4909
T5
X7.874Y-2.9919
X8.124Y-2.8919
X6.374Y-4.4919
X6.624Y-4.3919
X5.624Y-4.4919
X5.874Y-4.3919
X7.124Y-3.7419
X7.374Y-3.6419
X7.124Y-2.9919
X7.374Y-2.8919
X6.374Y-2.2419
X6.624Y-2.1419
X6.374Y-2.9919
X6.624Y-2.8919
X7.124Y-5.2419
X7.374Y-5.1419
X7.874Y-3.7419
X8.124Y-3.6419
X5.999Y-5.2419
X6.249Y-5.1419
X6.374Y-3.7419
X6.624Y-3.6419
X7.874Y-2.2419
X8.124Y-2.1419
X5.624Y-2.2419
X5.874Y-2.1419
X5.624Y-3.7419
X5.874Y-3.6419
X7.824Y-4.8669
X7.924Y-5.1169
X7.124Y-2.2419
X7.374Y-2.1419
X7.124Y-4.4919
X7.374Y-4.3919
X5.624Y-2.9919
X5.874Y-2.8919
T6
G00X7.9941Y-2.1181
M15
G01X8.0453Y-2.1181
M16
G05
G00X7.9941Y-2.5591
M15
G01X8.0453Y-2.5591
M16
G05
T0
M30
