G04 #@! TF.GenerationSoftware,KiCad,Pcbnew,(5.1.7)-1*
G04 #@! TF.CreationDate,2020-12-29T16:41:04-08:00*
G04 #@! TF.ProjectId,dropout,64726f70-6f75-4742-9e6b-696361645f70,rev?*
G04 #@! TF.SameCoordinates,Original*
G04 #@! TF.FileFunction,Legend,Bot*
G04 #@! TF.FilePolarity,Positive*
%FSLAX46Y46*%
G04 Gerber Fmt 4.6, Leading zero omitted, Abs format (unit mm)*
G04 Created by KiCad (PCBNEW (5.1.7)-1) date 2020-12-29 16:41:04*
%MOMM*%
%LPD*%
G01*
G04 APERTURE LIST*
%ADD10C,0.010000*%
%ADD11C,0.150000*%
%ADD12C,0.381000*%
%ADD13C,0.200000*%
%ADD14C,0.120000*%
%ADD15C,0.100000*%
G04 APERTURE END LIST*
D10*
G36*
X246783320Y-64216421D02*
G01*
X246766839Y-64217765D01*
X246450092Y-64259900D01*
X246217522Y-64326169D01*
X246157239Y-64355074D01*
X246021165Y-64441750D01*
X245858557Y-64560714D01*
X245689718Y-64694983D01*
X245534953Y-64827573D01*
X245414566Y-64941502D01*
X245348859Y-65019786D01*
X245342453Y-65036608D01*
X245307218Y-65101781D01*
X245219525Y-65209279D01*
X245136257Y-65297332D01*
X245024132Y-65423193D01*
X244950332Y-65532369D01*
X244933057Y-65582708D01*
X244908444Y-65654078D01*
X244884399Y-65664885D01*
X244827292Y-65707109D01*
X244750875Y-65813092D01*
X244672395Y-65951797D01*
X244609101Y-66092186D01*
X244578238Y-66203222D01*
X244577457Y-66217235D01*
X244549835Y-66347250D01*
X244504612Y-66441372D01*
X244459518Y-66538272D01*
X244396246Y-66709299D01*
X244322246Y-66930266D01*
X244244966Y-67176983D01*
X244171856Y-67425264D01*
X244110366Y-67650920D01*
X244067946Y-67829764D01*
X244055348Y-67900085D01*
X244032241Y-68050779D01*
X243999231Y-68248581D01*
X243975642Y-68382685D01*
X243906680Y-68836438D01*
X243863172Y-69303774D01*
X243843306Y-69813039D01*
X243845269Y-70392578D01*
X243845715Y-70414685D01*
X243858361Y-70918394D01*
X243875422Y-71344433D01*
X243899731Y-71716718D01*
X243934125Y-72059167D01*
X243981437Y-72395697D01*
X244044505Y-72750225D01*
X244126161Y-73146668D01*
X244219075Y-73564285D01*
X244282081Y-73811483D01*
X244356828Y-74060757D01*
X244429564Y-74267126D01*
X244446660Y-74308692D01*
X244507814Y-74462692D01*
X244543213Y-74576027D01*
X244546179Y-74620029D01*
X244555225Y-74673564D01*
X244598763Y-74798948D01*
X244669173Y-74975569D01*
X244731059Y-75120222D01*
X244825581Y-75337514D01*
X244909525Y-75534095D01*
X244971103Y-75682176D01*
X244992333Y-75735985D01*
X245043544Y-75835833D01*
X245090427Y-75875685D01*
X245130078Y-75917357D01*
X245136257Y-75959020D01*
X245158029Y-76052628D01*
X245213025Y-76192483D01*
X245244322Y-76258734D01*
X245352387Y-76475113D01*
X245210609Y-76660993D01*
X245071611Y-76809312D01*
X244915145Y-76925769D01*
X244773031Y-76988256D01*
X244732380Y-76993285D01*
X244655318Y-77024057D01*
X244590157Y-77071859D01*
X244513477Y-77136245D01*
X244379074Y-77245919D01*
X244208864Y-77383078D01*
X244094857Y-77474197D01*
X243824821Y-77698851D01*
X243581722Y-77919233D01*
X243376941Y-78123478D01*
X243221858Y-78299722D01*
X243127856Y-78436099D01*
X243104257Y-78506900D01*
X243064344Y-78562649D01*
X242964781Y-78639138D01*
X242926457Y-78662953D01*
X242813707Y-78749248D01*
X242752384Y-78834646D01*
X242748657Y-78854471D01*
X242716196Y-78958492D01*
X242664268Y-79034334D01*
X242572414Y-79150210D01*
X242524568Y-79222948D01*
X242466175Y-79320900D01*
X242379049Y-79464175D01*
X242327576Y-79547943D01*
X242242534Y-79697046D01*
X242182056Y-79823837D01*
X242166082Y-79871329D01*
X242134730Y-79959897D01*
X242069657Y-80109511D01*
X241983719Y-80290925D01*
X241964864Y-80329043D01*
X241878200Y-80518478D01*
X241814068Y-80688308D01*
X241784266Y-80806588D01*
X241783457Y-80820226D01*
X241760026Y-80959631D01*
X241710504Y-81091268D01*
X241651869Y-81244941D01*
X241589641Y-81469867D01*
X241529854Y-81736156D01*
X241478538Y-82013916D01*
X241441728Y-82273258D01*
X241425454Y-82484290D01*
X241425167Y-82505085D01*
X241423912Y-82993625D01*
X241425126Y-83394045D01*
X241429144Y-83719800D01*
X241436305Y-83984348D01*
X241446945Y-84201144D01*
X241461401Y-84383645D01*
X241475377Y-84509521D01*
X241539699Y-84930962D01*
X241622427Y-85332185D01*
X241716864Y-85683876D01*
X241793976Y-85904044D01*
X241868066Y-86106910D01*
X241940693Y-86336318D01*
X241968412Y-86435958D01*
X242020587Y-86605749D01*
X242076561Y-86742117D01*
X242109304Y-86796199D01*
X242179106Y-86905283D01*
X242221616Y-87000885D01*
X242322941Y-87226949D01*
X242480544Y-87505665D01*
X242680052Y-87816674D01*
X242907090Y-88139616D01*
X243147281Y-88454132D01*
X243386253Y-88739863D01*
X243609628Y-88976450D01*
X243631133Y-88997174D01*
X243780297Y-89126585D01*
X243975964Y-89278157D01*
X244200423Y-89440179D01*
X244435958Y-89600939D01*
X244664856Y-89748727D01*
X244869404Y-89871831D01*
X245031887Y-89958542D01*
X245134592Y-89997147D01*
X245145100Y-89998085D01*
X245217477Y-90022698D01*
X245342533Y-90085832D01*
X245435439Y-90139320D01*
X245718468Y-90285014D01*
X246082373Y-90433469D01*
X246506839Y-90578347D01*
X246971550Y-90713311D01*
X247456192Y-90832023D01*
X247940448Y-90928145D01*
X247992393Y-90936996D01*
X248233098Y-90978862D01*
X248465916Y-91022008D01*
X248651641Y-91059085D01*
X248699163Y-91069472D01*
X248838549Y-91088587D01*
X249062741Y-91104317D01*
X249355005Y-91116607D01*
X249698601Y-91125403D01*
X250076793Y-91130651D01*
X250472842Y-91132296D01*
X250870012Y-91130285D01*
X251251565Y-91124562D01*
X251600763Y-91115074D01*
X251900869Y-91101766D01*
X252135146Y-91084584D01*
X252172057Y-91080742D01*
X252468849Y-91047778D01*
X252698648Y-91021551D01*
X252884402Y-90998416D01*
X253049056Y-90974727D01*
X253215557Y-90946841D01*
X253406851Y-90911112D01*
X253645883Y-90863896D01*
X253955600Y-90801548D01*
X254051657Y-90782184D01*
X254281065Y-90736623D01*
X254506169Y-90693018D01*
X254681582Y-90660149D01*
X254694425Y-90657830D01*
X255025148Y-90579602D01*
X255427699Y-90450185D01*
X255829657Y-90299052D01*
X256023755Y-90225515D01*
X256198235Y-90164989D01*
X256316986Y-90129964D01*
X256321405Y-90128977D01*
X256453632Y-90078772D01*
X256533677Y-90023408D01*
X256616015Y-89961204D01*
X256657140Y-89947285D01*
X256725335Y-89920845D01*
X256839672Y-89854549D01*
X256885780Y-89824251D01*
X257052726Y-89732037D01*
X257248627Y-89651723D01*
X257305950Y-89633751D01*
X257441784Y-89586519D01*
X257523248Y-89540894D01*
X257534498Y-89521067D01*
X257570414Y-89475874D01*
X257674127Y-89404512D01*
X257793442Y-89338117D01*
X257983408Y-89221190D01*
X258079266Y-89111274D01*
X258090731Y-89078535D01*
X258169898Y-88958838D01*
X258333106Y-88859088D01*
X258460691Y-88788218D01*
X258537430Y-88720929D01*
X258547457Y-88696869D01*
X258584486Y-88617031D01*
X258636757Y-88565865D01*
X258736629Y-88474444D01*
X258857060Y-88340485D01*
X258978396Y-88189269D01*
X259080981Y-88046074D01*
X259145161Y-87936177D01*
X259157057Y-87896706D01*
X259196109Y-87810471D01*
X259271357Y-87741002D01*
X259362804Y-87652442D01*
X259465426Y-87512635D01*
X259511596Y-87435031D01*
X259589795Y-87304325D01*
X259653176Y-87220610D01*
X259676696Y-87204085D01*
X259708197Y-87161305D01*
X259715857Y-87099145D01*
X259759476Y-86920110D01*
X259880417Y-86728594D01*
X259921100Y-86682189D01*
X259993280Y-86564557D01*
X260043181Y-86414034D01*
X260044031Y-86409619D01*
X260085434Y-86283856D01*
X260143022Y-86209036D01*
X260150460Y-86205380D01*
X260203840Y-86138776D01*
X260223857Y-86028618D01*
X260244263Y-85875512D01*
X260293439Y-85713502D01*
X260294411Y-85711164D01*
X260335986Y-85556034D01*
X260339946Y-85411878D01*
X260338948Y-85406216D01*
X260348234Y-85257451D01*
X260389181Y-85183004D01*
X260447263Y-85067821D01*
X260500359Y-84869941D01*
X260544065Y-84608269D01*
X260563306Y-84435485D01*
X260578632Y-84279745D01*
X260597350Y-84100538D01*
X260599585Y-84079885D01*
X260612572Y-83922880D01*
X260623383Y-83724867D01*
X260631134Y-83515227D01*
X260634885Y-83326158D01*
X260292631Y-83326158D01*
X260284166Y-83366221D01*
X260264227Y-83446030D01*
X260245541Y-83596721D01*
X260230156Y-83787582D01*
X260220122Y-83987899D01*
X260217490Y-84166957D01*
X260222980Y-84283085D01*
X260221148Y-84436662D01*
X260195157Y-84627786D01*
X260153380Y-84810739D01*
X260104193Y-84939804D01*
X260102017Y-84943485D01*
X260054949Y-85066502D01*
X260029264Y-85216092D01*
X259998891Y-85369919D01*
X259943200Y-85494095D01*
X259883557Y-85631209D01*
X259868257Y-85732214D01*
X259845837Y-85850218D01*
X259788207Y-86013471D01*
X259736783Y-86127171D01*
X259663274Y-86282419D01*
X259611367Y-86406545D01*
X259595488Y-86457914D01*
X259559202Y-86540745D01*
X259483571Y-86654380D01*
X259472963Y-86668104D01*
X259397111Y-86782989D01*
X259360793Y-86874276D01*
X259360258Y-86881824D01*
X259334775Y-86960289D01*
X259271858Y-87078823D01*
X259191799Y-87205544D01*
X259114894Y-87308572D01*
X259061435Y-87356023D01*
X259058116Y-87356485D01*
X259016536Y-87397827D01*
X258955401Y-87500879D01*
X258936179Y-87539547D01*
X258832886Y-87705229D01*
X258667374Y-87913313D01*
X258458484Y-88144950D01*
X258225055Y-88381289D01*
X257985930Y-88603483D01*
X257759948Y-88792681D01*
X257565952Y-88930034D01*
X257519479Y-88956879D01*
X257351690Y-89057184D01*
X257205661Y-89161277D01*
X257140183Y-89219345D01*
X257037672Y-89302799D01*
X256947881Y-89337684D01*
X256947626Y-89337685D01*
X256850139Y-89364427D01*
X256729300Y-89428620D01*
X256533251Y-89554502D01*
X256384766Y-89639798D01*
X256261457Y-89699119D01*
X256130180Y-89759314D01*
X256046247Y-89800351D01*
X255930624Y-89839564D01*
X255879359Y-89845685D01*
X255781109Y-89872254D01*
X255674733Y-89928210D01*
X255557166Y-89982665D01*
X255382180Y-90038846D01*
X255232021Y-90075000D01*
X255036286Y-90118331D01*
X254858194Y-90163825D01*
X254762857Y-90192810D01*
X254578205Y-90248211D01*
X254338365Y-90307171D01*
X254074207Y-90363524D01*
X253816604Y-90411101D01*
X253596429Y-90443736D01*
X253448918Y-90455285D01*
X253249759Y-90473967D01*
X253045101Y-90520002D01*
X253012094Y-90530837D01*
X252839641Y-90575665D01*
X252721607Y-90563969D01*
X252700317Y-90554133D01*
X252587636Y-90530735D01*
X252438656Y-90576321D01*
X252438167Y-90576543D01*
X252306943Y-90613248D01*
X252091855Y-90646117D01*
X251810626Y-90672817D01*
X251613257Y-90685125D01*
X251365010Y-90699489D01*
X251155532Y-90714665D01*
X251004585Y-90728995D01*
X250931933Y-90740822D01*
X250928749Y-90742504D01*
X250867369Y-90747427D01*
X250801749Y-90731760D01*
X250666721Y-90705171D01*
X250571857Y-90699963D01*
X250073783Y-90705487D01*
X249665529Y-90701087D01*
X249335771Y-90686440D01*
X249073185Y-90661225D01*
X249038595Y-90656469D01*
X248826053Y-90626219D01*
X248628011Y-90598530D01*
X248489057Y-90579626D01*
X248191717Y-90536347D01*
X247921395Y-90489345D01*
X247696996Y-90442529D01*
X247537424Y-90399808D01*
X247464471Y-90367774D01*
X247381413Y-90330020D01*
X247231985Y-90287150D01*
X247069420Y-90252502D01*
X246860657Y-90204391D01*
X246660766Y-90141545D01*
X246546977Y-90093726D01*
X246417531Y-90038535D01*
X246324629Y-90018377D01*
X246306722Y-90022209D01*
X246232582Y-90023533D01*
X246126480Y-89987610D01*
X246033937Y-89934301D01*
X245999857Y-89888330D01*
X245956238Y-89856566D01*
X245869468Y-89845685D01*
X245745053Y-89815227D01*
X245602186Y-89739877D01*
X245572573Y-89718685D01*
X245448950Y-89637928D01*
X245347514Y-89594226D01*
X245328813Y-89591685D01*
X245234942Y-89562059D01*
X245130408Y-89496944D01*
X245015165Y-89419614D01*
X244853185Y-89325654D01*
X244752067Y-89272307D01*
X244596983Y-89185985D01*
X244474287Y-89103480D01*
X244428346Y-89062247D01*
X244350134Y-88995992D01*
X244308887Y-88982085D01*
X244247230Y-88945849D01*
X244135061Y-88847699D01*
X243987268Y-88703472D01*
X243818739Y-88529005D01*
X243644363Y-88340136D01*
X243479030Y-88152700D01*
X243337626Y-87982535D01*
X243235042Y-87845479D01*
X243222388Y-87826385D01*
X243126437Y-87687208D01*
X243048125Y-87590711D01*
X243008660Y-87559685D01*
X242968595Y-87517036D01*
X242900986Y-87404355D01*
X242819353Y-87244543D01*
X242806200Y-87216785D01*
X242706111Y-87012302D01*
X242601757Y-86813203D01*
X242520517Y-86670685D01*
X242432426Y-86498759D01*
X242349174Y-86290585D01*
X242316402Y-86188085D01*
X242254479Y-85979818D01*
X242187036Y-85767696D01*
X242157428Y-85680085D01*
X242104260Y-85497715D01*
X242068296Y-85319712D01*
X242062903Y-85273685D01*
X242034044Y-85105769D01*
X241982081Y-84922016D01*
X241971506Y-84892685D01*
X241916669Y-84698163D01*
X241869035Y-84437115D01*
X241830104Y-84132420D01*
X241801376Y-83806958D01*
X241784351Y-83483608D01*
X241780531Y-83185249D01*
X241791415Y-82934760D01*
X241818504Y-82755021D01*
X241829083Y-82720797D01*
X241846635Y-82594180D01*
X241831884Y-82443759D01*
X241824402Y-82273339D01*
X241856727Y-82036992D01*
X241923688Y-81759895D01*
X242020114Y-81467223D01*
X242046474Y-81398950D01*
X242099726Y-81248020D01*
X242128877Y-81131219D01*
X242130703Y-81094150D01*
X242139602Y-80996031D01*
X242180299Y-80848847D01*
X242238557Y-80694100D01*
X242300135Y-80573297D01*
X242317626Y-80549285D01*
X242373808Y-80446031D01*
X242416069Y-80311495D01*
X242461981Y-80179076D01*
X242523323Y-80089374D01*
X242586628Y-79989569D01*
X242596257Y-79935232D01*
X242628143Y-79840371D01*
X242707916Y-79716183D01*
X242741804Y-79674752D01*
X242841932Y-79543619D01*
X242911940Y-79422677D01*
X242922206Y-79396171D01*
X242978251Y-79290044D01*
X243076445Y-79159273D01*
X243114352Y-79116771D01*
X243230859Y-78971612D01*
X243324360Y-78819894D01*
X243340266Y-78785817D01*
X243415241Y-78658123D01*
X243502887Y-78572357D01*
X243507133Y-78569971D01*
X243603090Y-78480937D01*
X243637817Y-78415181D01*
X243703927Y-78321199D01*
X243818359Y-78236400D01*
X243821260Y-78234884D01*
X243946636Y-78140452D01*
X244030871Y-78028166D01*
X244113397Y-77922808D01*
X244245062Y-77821891D01*
X244281925Y-77801356D01*
X244426309Y-77707569D01*
X244540453Y-77599527D01*
X244557157Y-77576831D01*
X244645890Y-77485316D01*
X244732071Y-77450485D01*
X244843280Y-77416190D01*
X244900203Y-77374482D01*
X245008558Y-77293113D01*
X245094332Y-77247432D01*
X245196826Y-77194610D01*
X245350624Y-77105820D01*
X245517257Y-77003511D01*
X245822057Y-76810637D01*
X245804611Y-76584461D01*
X245770888Y-76418409D01*
X245699143Y-76207240D01*
X245608454Y-76002685D01*
X245510269Y-75805259D01*
X245434246Y-75645234D01*
X245362618Y-75483373D01*
X245277615Y-75280442D01*
X245240362Y-75189885D01*
X245173956Y-75040442D01*
X245092716Y-74872843D01*
X245080840Y-74849620D01*
X245018635Y-74705665D01*
X244985520Y-74583313D01*
X244983857Y-74561637D01*
X244961481Y-74444360D01*
X244912057Y-74317701D01*
X244856140Y-74181373D01*
X244789354Y-73984464D01*
X244723524Y-73765430D01*
X244670479Y-73562722D01*
X244649592Y-73464294D01*
X244619998Y-73346282D01*
X244570433Y-73186315D01*
X244550172Y-73127139D01*
X244501765Y-72947268D01*
X244462542Y-72726620D01*
X244447546Y-72590952D01*
X244422116Y-72388786D01*
X244381907Y-72199637D01*
X244350548Y-72102967D01*
X244306547Y-71935833D01*
X244290307Y-71744059D01*
X244291655Y-71704707D01*
X244292478Y-71573700D01*
X244284995Y-71366559D01*
X244270475Y-71108298D01*
X244250184Y-70823932D01*
X244241867Y-70721848D01*
X244221608Y-70452337D01*
X244208590Y-70217601D01*
X244203518Y-70036774D01*
X244207096Y-69928993D01*
X244211943Y-69909048D01*
X244228556Y-69836544D01*
X244243089Y-69689753D01*
X244253112Y-69495988D01*
X244255064Y-69424085D01*
X244269649Y-69092128D01*
X244297956Y-68749856D01*
X244336745Y-68423329D01*
X244382772Y-68138610D01*
X244432797Y-67921761D01*
X244447801Y-67874685D01*
X244503421Y-67685221D01*
X244548566Y-67480441D01*
X244554146Y-67447215D01*
X244601676Y-67260411D01*
X244679168Y-67058891D01*
X244710977Y-66993946D01*
X244776438Y-66845771D01*
X244807711Y-66723091D01*
X244805901Y-66680392D01*
X244819935Y-66585433D01*
X244894051Y-66471815D01*
X244897678Y-66467853D01*
X245001818Y-66326592D01*
X245085144Y-66167476D01*
X245156903Y-66015412D01*
X245246336Y-65861933D01*
X245333708Y-65737904D01*
X245399283Y-65674187D01*
X245401122Y-65673351D01*
X245439069Y-65614909D01*
X245441057Y-65594953D01*
X245475707Y-65530886D01*
X245566331Y-65423206D01*
X245686914Y-65301445D01*
X245818441Y-65169635D01*
X245919282Y-65054431D01*
X245964719Y-64986143D01*
X246022363Y-64914447D01*
X246057763Y-64902884D01*
X246144229Y-64872399D01*
X246199057Y-64834409D01*
X246350251Y-64751877D01*
X246564494Y-64692314D01*
X246804436Y-64663139D01*
X247023901Y-64670557D01*
X247192834Y-64706747D01*
X247386929Y-64768903D01*
X247582014Y-64846421D01*
X247753921Y-64928694D01*
X247878478Y-65005119D01*
X247931515Y-65065090D01*
X247931948Y-65068975D01*
X247974524Y-65174069D01*
X248076204Y-65290730D01*
X248205066Y-65385399D01*
X248255344Y-65408940D01*
X248352135Y-65467771D01*
X248387457Y-65527772D01*
X248421874Y-65606943D01*
X248505616Y-65707212D01*
X248514457Y-65715685D01*
X248602590Y-65831637D01*
X248641372Y-65948293D01*
X248641457Y-65952709D01*
X248682572Y-66070553D01*
X248747769Y-66134354D01*
X248821850Y-66211394D01*
X248914315Y-66352227D01*
X249005280Y-66526527D01*
X249006183Y-66528485D01*
X249106632Y-66741505D01*
X249213248Y-66959861D01*
X249287764Y-67106822D01*
X249370413Y-67280218D01*
X249436434Y-67444960D01*
X249457850Y-67513222D01*
X249493261Y-67652649D01*
X249540361Y-67839860D01*
X249571114Y-67962833D01*
X249622592Y-68136708D01*
X249678927Y-68278671D01*
X249714114Y-68339078D01*
X249768273Y-68450845D01*
X249793510Y-68581129D01*
X249820465Y-68941933D01*
X249853962Y-69202529D01*
X249893929Y-69362445D01*
X249917558Y-69406035D01*
X249958206Y-69499630D01*
X249988780Y-69649001D01*
X249995965Y-69718891D01*
X250008912Y-69903911D01*
X250024746Y-70131348D01*
X250035778Y-70290449D01*
X250055233Y-70485257D01*
X250082567Y-70655844D01*
X250107068Y-70750322D01*
X250128559Y-70890732D01*
X250109316Y-70959434D01*
X250092124Y-71081228D01*
X250118214Y-71185361D01*
X250137894Y-71283205D01*
X250157347Y-71462283D01*
X250174991Y-71702239D01*
X250189248Y-71982716D01*
X250196378Y-72192685D01*
X250206585Y-72545891D01*
X250218753Y-72927004D01*
X250231586Y-73297548D01*
X250243782Y-73619049D01*
X250247823Y-73716685D01*
X250264464Y-74187130D01*
X250270025Y-74566880D01*
X250264439Y-74866241D01*
X250247638Y-75095520D01*
X250238305Y-75166370D01*
X250238501Y-75329844D01*
X250302519Y-75445770D01*
X250378106Y-75493939D01*
X250507949Y-75525114D01*
X250703505Y-75540145D01*
X250976234Y-75539879D01*
X251337594Y-75525165D01*
X251359257Y-75524008D01*
X251447160Y-75514861D01*
X251514244Y-75489775D01*
X251563848Y-75436196D01*
X251599308Y-75341572D01*
X251623964Y-75193349D01*
X251641153Y-74978974D01*
X251654212Y-74685893D01*
X251664208Y-74377085D01*
X251675139Y-74047358D01*
X251688395Y-73695340D01*
X251702391Y-73360757D01*
X251715540Y-73083337D01*
X251716958Y-73056285D01*
X251729852Y-72783871D01*
X251743215Y-72451298D01*
X251755496Y-72099986D01*
X251765147Y-71771354D01*
X251765415Y-71760885D01*
X251780175Y-71287704D01*
X251798498Y-70876915D01*
X251819802Y-70536269D01*
X251843501Y-70273514D01*
X251869011Y-70096401D01*
X251895749Y-70012680D01*
X251897352Y-70010824D01*
X251920784Y-69938456D01*
X251937382Y-69795862D01*
X251943457Y-69620123D01*
X251950967Y-69442209D01*
X251970637Y-69306893D01*
X251997721Y-69244144D01*
X252033602Y-69174235D01*
X252028989Y-69150685D01*
X252026222Y-69064561D01*
X252046392Y-68909703D01*
X252083639Y-68714811D01*
X252132102Y-68508582D01*
X252185920Y-68319717D01*
X252216955Y-68230285D01*
X252266714Y-68079100D01*
X252294755Y-67953542D01*
X252296828Y-67929485D01*
X252331759Y-67812614D01*
X252375440Y-67747483D01*
X252428475Y-67644816D01*
X252466722Y-67492764D01*
X252472782Y-67445481D01*
X252497951Y-67297679D01*
X252535528Y-67191413D01*
X252548799Y-67172823D01*
X252598308Y-67075627D01*
X252603857Y-67033175D01*
X252633161Y-66932629D01*
X252695582Y-66827435D01*
X252769626Y-66700822D01*
X252840761Y-66535132D01*
X252856808Y-66488279D01*
X252924845Y-66324027D01*
X253008636Y-66183618D01*
X253031783Y-66155361D01*
X253137602Y-66019401D01*
X253209342Y-65903466D01*
X253272625Y-65806756D01*
X253323611Y-65766485D01*
X253323642Y-65766484D01*
X253361130Y-65725217D01*
X253365857Y-65690285D01*
X253393288Y-65622681D01*
X253416657Y-65614085D01*
X253462551Y-65573307D01*
X253467457Y-65542854D01*
X253510646Y-65479302D01*
X253615832Y-65420100D01*
X253627883Y-65415699D01*
X253762935Y-65345805D01*
X253859364Y-65258329D01*
X253962628Y-65178111D01*
X254051231Y-65156885D01*
X254194997Y-65138190D01*
X254301523Y-65107656D01*
X254443877Y-65087478D01*
X254642486Y-65100410D01*
X254859750Y-65140669D01*
X255058064Y-65202467D01*
X255129846Y-65235104D01*
X255258869Y-65288317D01*
X255358586Y-65308972D01*
X255447727Y-65348561D01*
X255529529Y-65436284D01*
X255639024Y-65537686D01*
X255733263Y-65563284D01*
X255843071Y-65601107D01*
X255953538Y-65723038D01*
X255979942Y-65763133D01*
X256072778Y-65893596D01*
X256158343Y-65987341D01*
X256184365Y-66006780D01*
X256249318Y-66069694D01*
X256348370Y-66195155D01*
X256466198Y-66360091D01*
X256587476Y-66541429D01*
X256696878Y-66716097D01*
X256779081Y-66861021D01*
X256818757Y-66953128D01*
X256820257Y-66964150D01*
X256854341Y-67045082D01*
X256939400Y-67154545D01*
X256972657Y-67188884D01*
X257095372Y-67356118D01*
X257125057Y-67484099D01*
X257160836Y-67628531D01*
X257226657Y-67722284D01*
X257303997Y-67842278D01*
X257328257Y-67955760D01*
X257344754Y-68070113D01*
X257379057Y-68128684D01*
X257411651Y-68195352D01*
X257428992Y-68321496D01*
X257429858Y-68358495D01*
X257449262Y-68515482D01*
X257513532Y-68601063D01*
X257525596Y-68608147D01*
X257586600Y-68666753D01*
X257615488Y-68775614D01*
X257621334Y-68915167D01*
X257632871Y-69078617D01*
X257662199Y-69206066D01*
X257682048Y-69244104D01*
X257714225Y-69327931D01*
X257743585Y-69482362D01*
X257764493Y-69676444D01*
X257766670Y-69708996D01*
X257784932Y-69911232D01*
X257811060Y-70083335D01*
X257839811Y-70191861D01*
X257843617Y-70199836D01*
X257861239Y-70282694D01*
X257876531Y-70449732D01*
X257889278Y-70683552D01*
X257899264Y-70966754D01*
X257906273Y-71281941D01*
X257910089Y-71611715D01*
X257910497Y-71938676D01*
X257907280Y-72245427D01*
X257900223Y-72514570D01*
X257889111Y-72728705D01*
X257876522Y-72853085D01*
X257848041Y-73077478D01*
X257822016Y-73335409D01*
X257808787Y-73503504D01*
X257789045Y-73696490D01*
X257759774Y-73860651D01*
X257729881Y-73954210D01*
X257697193Y-74083044D01*
X257701993Y-74201060D01*
X257700663Y-74335785D01*
X257663408Y-74398376D01*
X257618384Y-74488196D01*
X257617497Y-74567907D01*
X257610916Y-74670430D01*
X257573851Y-74833230D01*
X257514132Y-75022488D01*
X257508790Y-75037264D01*
X257444040Y-75235722D01*
X257397541Y-75418461D01*
X257379076Y-75546856D01*
X257379058Y-75549574D01*
X257357332Y-75718069D01*
X257299637Y-75942278D01*
X257217190Y-76187939D01*
X257121212Y-76420789D01*
X257044725Y-76570530D01*
X256971698Y-76711704D01*
X256927687Y-76825777D01*
X256921857Y-76859002D01*
X256888248Y-76954248D01*
X256840564Y-77016521D01*
X256790966Y-77080206D01*
X256790801Y-77150144D01*
X256839627Y-77267151D01*
X256891446Y-77368547D01*
X256947395Y-77445624D01*
X257027742Y-77514983D01*
X257152758Y-77593224D01*
X257342711Y-77696946D01*
X257404457Y-77729723D01*
X257601741Y-77845627D01*
X257785182Y-77972777D01*
X257916905Y-78084783D01*
X257922568Y-78090690D01*
X258031634Y-78193771D01*
X258120109Y-78255479D01*
X258145342Y-78263285D01*
X258212279Y-78296991D01*
X258307363Y-78376241D01*
X258396144Y-78468230D01*
X258444173Y-78540151D01*
X258445858Y-78549452D01*
X258475458Y-78600411D01*
X258551724Y-78703265D01*
X258623658Y-78793367D01*
X258722201Y-78922132D01*
X258786766Y-79022811D01*
X258801457Y-79060743D01*
X258835675Y-79129347D01*
X258903057Y-79203085D01*
X258979644Y-79298013D01*
X259004657Y-79369352D01*
X259036231Y-79450473D01*
X259115737Y-79567392D01*
X259157057Y-79617246D01*
X259250383Y-79744585D01*
X259304227Y-79858804D01*
X259309457Y-79890652D01*
X259327630Y-79972287D01*
X259352103Y-79990485D01*
X259403408Y-80033329D01*
X259459566Y-80135489D01*
X259502053Y-80257408D01*
X259513787Y-80335775D01*
X259544532Y-80435800D01*
X259614257Y-80549285D01*
X259686269Y-80675314D01*
X259714728Y-80787586D01*
X259733453Y-80888031D01*
X259759689Y-80925978D01*
X259797466Y-80987260D01*
X259844563Y-81112936D01*
X259869014Y-81195676D01*
X259922066Y-81356583D01*
X259981060Y-81484978D01*
X260005449Y-81521211D01*
X260052328Y-81649423D01*
X260042852Y-81737770D01*
X260039581Y-81875398D01*
X260071591Y-81946446D01*
X260108860Y-82038245D01*
X260135271Y-82189796D01*
X260142215Y-82288686D01*
X260154756Y-82454137D01*
X260177604Y-82582601D01*
X260193345Y-82624462D01*
X260223694Y-82713265D01*
X260253014Y-82862280D01*
X260277088Y-83037063D01*
X260291700Y-83203171D01*
X260292631Y-83326158D01*
X260634885Y-83326158D01*
X260634941Y-83323342D01*
X260633921Y-83178593D01*
X260628626Y-83114685D01*
X260617717Y-83034559D01*
X260606275Y-82899185D01*
X260603774Y-82860685D01*
X260576949Y-82565062D01*
X260534703Y-82268418D01*
X260482485Y-82001650D01*
X260425742Y-81795656D01*
X260407511Y-81747603D01*
X260361146Y-81602126D01*
X260348132Y-81482902D01*
X260352271Y-81459232D01*
X260350519Y-81358110D01*
X260311060Y-81216920D01*
X260293910Y-81175313D01*
X260217894Y-80988757D01*
X260148963Y-80794330D01*
X260143758Y-80777885D01*
X260018622Y-80408130D01*
X259892249Y-80093815D01*
X259771188Y-79849691D01*
X259661983Y-79690512D01*
X259660582Y-79688970D01*
X259568954Y-79574659D01*
X259517048Y-79482773D01*
X259512657Y-79462346D01*
X259477440Y-79390038D01*
X259389722Y-79289542D01*
X259357686Y-79259598D01*
X259249888Y-79136841D01*
X259230606Y-79034824D01*
X259233127Y-79025695D01*
X259222380Y-78924776D01*
X259165320Y-78877307D01*
X259080552Y-78800237D01*
X258989323Y-78672338D01*
X258965081Y-78629013D01*
X258888103Y-78512035D01*
X258764022Y-78356702D01*
X258608871Y-78179672D01*
X258438682Y-77997602D01*
X258269488Y-77827150D01*
X258117322Y-77684975D01*
X257998218Y-77587735D01*
X257928569Y-77552085D01*
X257844107Y-77512947D01*
X257767253Y-77428937D01*
X257667123Y-77324383D01*
X257570911Y-77270529D01*
X257444335Y-77212537D01*
X257345645Y-77134765D01*
X257302142Y-77061315D01*
X257306935Y-77037486D01*
X257337562Y-76955901D01*
X257355944Y-76879175D01*
X257410596Y-76758641D01*
X257464199Y-76701312D01*
X257529493Y-76600633D01*
X257557503Y-76447312D01*
X257583963Y-76288382D01*
X257643465Y-76097849D01*
X257683302Y-76002685D01*
X257753435Y-75828594D01*
X257800888Y-75665467D01*
X257811741Y-75596285D01*
X257839097Y-75450042D01*
X257894767Y-75279530D01*
X257910481Y-75241913D01*
X257960512Y-75094714D01*
X258012856Y-74886459D01*
X258057773Y-74656977D01*
X258065795Y-74606913D01*
X258099406Y-74400327D01*
X258131283Y-74227226D01*
X258156023Y-74116255D01*
X258161881Y-74097685D01*
X258182134Y-74007251D01*
X258207624Y-73835220D01*
X258236127Y-73601320D01*
X258265419Y-73325278D01*
X258293279Y-73026822D01*
X258317483Y-72725682D01*
X258319294Y-72700685D01*
X258331083Y-72484089D01*
X258339619Y-72221016D01*
X258344957Y-71929984D01*
X258347154Y-71629513D01*
X258346265Y-71338123D01*
X258342346Y-71074333D01*
X258335454Y-70856663D01*
X258325643Y-70703632D01*
X258313059Y-70633902D01*
X258296642Y-70558680D01*
X258285194Y-70411702D01*
X258280892Y-70222771D01*
X258280983Y-70194821D01*
X258270473Y-69927912D01*
X258233936Y-69750559D01*
X258206041Y-69693495D01*
X258152146Y-69528292D01*
X258157704Y-69429751D01*
X258153165Y-69270436D01*
X258114751Y-69189045D01*
X258068727Y-69079002D01*
X258042938Y-68922271D01*
X258041073Y-68875462D01*
X258022190Y-68699412D01*
X257977522Y-68540272D01*
X257965131Y-68513308D01*
X257904412Y-68354776D01*
X257869667Y-68198331D01*
X257830591Y-68005057D01*
X257770314Y-67839713D01*
X257701611Y-67735450D01*
X257686991Y-67724221D01*
X257644972Y-67652428D01*
X257633057Y-67568654D01*
X257600432Y-67456134D01*
X257518585Y-67319899D01*
X257480658Y-67272846D01*
X257387018Y-67142630D01*
X257333277Y-67022251D01*
X257328257Y-66988338D01*
X257284798Y-66802897D01*
X257172885Y-66636982D01*
X257116996Y-66589104D01*
X257042080Y-66508450D01*
X257023458Y-66454509D01*
X256993824Y-66370285D01*
X256915650Y-66231675D01*
X256805029Y-66062684D01*
X256678053Y-65887320D01*
X256550813Y-65729586D01*
X256498831Y-65671891D01*
X256338441Y-65515030D01*
X256152265Y-65353004D01*
X255960197Y-65200834D01*
X255782133Y-65073543D01*
X255637970Y-64986153D01*
X255547603Y-64953684D01*
X255436517Y-64921951D01*
X255308479Y-64844216D01*
X255291931Y-64830839D01*
X255135413Y-64746330D01*
X254917072Y-64686452D01*
X254674831Y-64656511D01*
X254446615Y-64661816D01*
X254305604Y-64692787D01*
X254157816Y-64733970D01*
X254033563Y-64750485D01*
X253878381Y-64789742D01*
X253677058Y-64909376D01*
X253478390Y-65065752D01*
X253358306Y-65154056D01*
X253259215Y-65203715D01*
X253237090Y-65207684D01*
X253170814Y-65245910D01*
X253162657Y-65277664D01*
X253126814Y-65366558D01*
X253085936Y-65411318D01*
X253011630Y-65495029D01*
X252902813Y-65644401D01*
X252774491Y-65836380D01*
X252641671Y-66047910D01*
X252519361Y-66255935D01*
X252437712Y-66407186D01*
X252368216Y-66559660D01*
X252280161Y-66775572D01*
X252183671Y-67027352D01*
X252088870Y-67287430D01*
X252005882Y-67528237D01*
X251944831Y-67722203D01*
X251920540Y-67815489D01*
X251893488Y-67925179D01*
X251849086Y-68088735D01*
X251816001Y-68204885D01*
X251759978Y-68423807D01*
X251707925Y-68669514D01*
X251686941Y-68789085D01*
X251650022Y-69010160D01*
X251608536Y-69238514D01*
X251587089Y-69347885D01*
X251541168Y-69601893D01*
X251493590Y-69914098D01*
X251450348Y-70241384D01*
X251417437Y-70540636D01*
X251410525Y-70617885D01*
X251390184Y-70819014D01*
X251364586Y-71018188D01*
X251355808Y-71075085D01*
X251345905Y-71182454D01*
X251336172Y-71374528D01*
X251327137Y-71634413D01*
X251319328Y-71945213D01*
X251313275Y-72290033D01*
X251310545Y-72522885D01*
X251305780Y-72875789D01*
X251298650Y-73201049D01*
X251289720Y-73482869D01*
X251279554Y-73705449D01*
X251268717Y-73852992D01*
X251261238Y-73902453D01*
X251252330Y-74049240D01*
X251278875Y-74140670D01*
X251305502Y-74232789D01*
X251288758Y-74271961D01*
X251265081Y-74333400D01*
X251246904Y-74467230D01*
X251238267Y-74641084D01*
X251223592Y-74873710D01*
X251181597Y-75019455D01*
X251102705Y-75091477D01*
X250977338Y-75102933D01*
X250909326Y-75093000D01*
X250771700Y-75043880D01*
X250710951Y-74972220D01*
X250705144Y-74895667D01*
X250700423Y-74735054D01*
X250697048Y-74507916D01*
X250695278Y-74231788D01*
X250695372Y-73924205D01*
X250695388Y-73919885D01*
X250694709Y-73617126D01*
X250690751Y-73350450D01*
X250684028Y-73136037D01*
X250675055Y-72990064D01*
X250664349Y-72928708D01*
X250663785Y-72928158D01*
X250649644Y-72870557D01*
X250634497Y-72730123D01*
X250619841Y-72525590D01*
X250607171Y-72275694D01*
X250602957Y-72166158D01*
X250587028Y-71803203D01*
X250564932Y-71429009D01*
X250538386Y-71064164D01*
X250509105Y-70729254D01*
X250478806Y-70444865D01*
X250449204Y-70231585D01*
X250435785Y-70160685D01*
X250411773Y-70010695D01*
X250393577Y-69827069D01*
X250390661Y-69779685D01*
X250368521Y-69514181D01*
X250330041Y-69218587D01*
X250279961Y-68918064D01*
X250223017Y-68637770D01*
X250163948Y-68402864D01*
X250107491Y-68238506D01*
X250095870Y-68214273D01*
X250049430Y-68096865D01*
X249995050Y-67917539D01*
X249944148Y-67714116D01*
X249942005Y-67704473D01*
X249874689Y-67461157D01*
X249779270Y-67189946D01*
X249682308Y-66962543D01*
X249599267Y-66783820D01*
X249537062Y-66638377D01*
X249506492Y-66551815D01*
X249505057Y-66542252D01*
X249479481Y-66471493D01*
X249410355Y-66335182D01*
X249309087Y-66153223D01*
X249187084Y-65945517D01*
X249055752Y-65731967D01*
X248926500Y-65532476D01*
X248925236Y-65530590D01*
X248833479Y-65390174D01*
X248756397Y-65267265D01*
X248663303Y-65160742D01*
X248532216Y-65059273D01*
X248518744Y-65051082D01*
X248392024Y-64952745D01*
X248302850Y-64842552D01*
X248296979Y-64830808D01*
X248210712Y-64722668D01*
X248123854Y-64671630D01*
X248001485Y-64606613D01*
X247901049Y-64521801D01*
X247796709Y-64443120D01*
X247635167Y-64355790D01*
X247494649Y-64295738D01*
X247325016Y-64238413D01*
X247176384Y-64208921D01*
X247009052Y-64203008D01*
X246783320Y-64216421D01*
G37*
X246783320Y-64216421D02*
X246766839Y-64217765D01*
X246450092Y-64259900D01*
X246217522Y-64326169D01*
X246157239Y-64355074D01*
X246021165Y-64441750D01*
X245858557Y-64560714D01*
X245689718Y-64694983D01*
X245534953Y-64827573D01*
X245414566Y-64941502D01*
X245348859Y-65019786D01*
X245342453Y-65036608D01*
X245307218Y-65101781D01*
X245219525Y-65209279D01*
X245136257Y-65297332D01*
X245024132Y-65423193D01*
X244950332Y-65532369D01*
X244933057Y-65582708D01*
X244908444Y-65654078D01*
X244884399Y-65664885D01*
X244827292Y-65707109D01*
X244750875Y-65813092D01*
X244672395Y-65951797D01*
X244609101Y-66092186D01*
X244578238Y-66203222D01*
X244577457Y-66217235D01*
X244549835Y-66347250D01*
X244504612Y-66441372D01*
X244459518Y-66538272D01*
X244396246Y-66709299D01*
X244322246Y-66930266D01*
X244244966Y-67176983D01*
X244171856Y-67425264D01*
X244110366Y-67650920D01*
X244067946Y-67829764D01*
X244055348Y-67900085D01*
X244032241Y-68050779D01*
X243999231Y-68248581D01*
X243975642Y-68382685D01*
X243906680Y-68836438D01*
X243863172Y-69303774D01*
X243843306Y-69813039D01*
X243845269Y-70392578D01*
X243845715Y-70414685D01*
X243858361Y-70918394D01*
X243875422Y-71344433D01*
X243899731Y-71716718D01*
X243934125Y-72059167D01*
X243981437Y-72395697D01*
X244044505Y-72750225D01*
X244126161Y-73146668D01*
X244219075Y-73564285D01*
X244282081Y-73811483D01*
X244356828Y-74060757D01*
X244429564Y-74267126D01*
X244446660Y-74308692D01*
X244507814Y-74462692D01*
X244543213Y-74576027D01*
X244546179Y-74620029D01*
X244555225Y-74673564D01*
X244598763Y-74798948D01*
X244669173Y-74975569D01*
X244731059Y-75120222D01*
X244825581Y-75337514D01*
X244909525Y-75534095D01*
X244971103Y-75682176D01*
X244992333Y-75735985D01*
X245043544Y-75835833D01*
X245090427Y-75875685D01*
X245130078Y-75917357D01*
X245136257Y-75959020D01*
X245158029Y-76052628D01*
X245213025Y-76192483D01*
X245244322Y-76258734D01*
X245352387Y-76475113D01*
X245210609Y-76660993D01*
X245071611Y-76809312D01*
X244915145Y-76925769D01*
X244773031Y-76988256D01*
X244732380Y-76993285D01*
X244655318Y-77024057D01*
X244590157Y-77071859D01*
X244513477Y-77136245D01*
X244379074Y-77245919D01*
X244208864Y-77383078D01*
X244094857Y-77474197D01*
X243824821Y-77698851D01*
X243581722Y-77919233D01*
X243376941Y-78123478D01*
X243221858Y-78299722D01*
X243127856Y-78436099D01*
X243104257Y-78506900D01*
X243064344Y-78562649D01*
X242964781Y-78639138D01*
X242926457Y-78662953D01*
X242813707Y-78749248D01*
X242752384Y-78834646D01*
X242748657Y-78854471D01*
X242716196Y-78958492D01*
X242664268Y-79034334D01*
X242572414Y-79150210D01*
X242524568Y-79222948D01*
X242466175Y-79320900D01*
X242379049Y-79464175D01*
X242327576Y-79547943D01*
X242242534Y-79697046D01*
X242182056Y-79823837D01*
X242166082Y-79871329D01*
X242134730Y-79959897D01*
X242069657Y-80109511D01*
X241983719Y-80290925D01*
X241964864Y-80329043D01*
X241878200Y-80518478D01*
X241814068Y-80688308D01*
X241784266Y-80806588D01*
X241783457Y-80820226D01*
X241760026Y-80959631D01*
X241710504Y-81091268D01*
X241651869Y-81244941D01*
X241589641Y-81469867D01*
X241529854Y-81736156D01*
X241478538Y-82013916D01*
X241441728Y-82273258D01*
X241425454Y-82484290D01*
X241425167Y-82505085D01*
X241423912Y-82993625D01*
X241425126Y-83394045D01*
X241429144Y-83719800D01*
X241436305Y-83984348D01*
X241446945Y-84201144D01*
X241461401Y-84383645D01*
X241475377Y-84509521D01*
X241539699Y-84930962D01*
X241622427Y-85332185D01*
X241716864Y-85683876D01*
X241793976Y-85904044D01*
X241868066Y-86106910D01*
X241940693Y-86336318D01*
X241968412Y-86435958D01*
X242020587Y-86605749D01*
X242076561Y-86742117D01*
X242109304Y-86796199D01*
X242179106Y-86905283D01*
X242221616Y-87000885D01*
X242322941Y-87226949D01*
X242480544Y-87505665D01*
X242680052Y-87816674D01*
X242907090Y-88139616D01*
X243147281Y-88454132D01*
X243386253Y-88739863D01*
X243609628Y-88976450D01*
X243631133Y-88997174D01*
X243780297Y-89126585D01*
X243975964Y-89278157D01*
X244200423Y-89440179D01*
X244435958Y-89600939D01*
X244664856Y-89748727D01*
X244869404Y-89871831D01*
X245031887Y-89958542D01*
X245134592Y-89997147D01*
X245145100Y-89998085D01*
X245217477Y-90022698D01*
X245342533Y-90085832D01*
X245435439Y-90139320D01*
X245718468Y-90285014D01*
X246082373Y-90433469D01*
X246506839Y-90578347D01*
X246971550Y-90713311D01*
X247456192Y-90832023D01*
X247940448Y-90928145D01*
X247992393Y-90936996D01*
X248233098Y-90978862D01*
X248465916Y-91022008D01*
X248651641Y-91059085D01*
X248699163Y-91069472D01*
X248838549Y-91088587D01*
X249062741Y-91104317D01*
X249355005Y-91116607D01*
X249698601Y-91125403D01*
X250076793Y-91130651D01*
X250472842Y-91132296D01*
X250870012Y-91130285D01*
X251251565Y-91124562D01*
X251600763Y-91115074D01*
X251900869Y-91101766D01*
X252135146Y-91084584D01*
X252172057Y-91080742D01*
X252468849Y-91047778D01*
X252698648Y-91021551D01*
X252884402Y-90998416D01*
X253049056Y-90974727D01*
X253215557Y-90946841D01*
X253406851Y-90911112D01*
X253645883Y-90863896D01*
X253955600Y-90801548D01*
X254051657Y-90782184D01*
X254281065Y-90736623D01*
X254506169Y-90693018D01*
X254681582Y-90660149D01*
X254694425Y-90657830D01*
X255025148Y-90579602D01*
X255427699Y-90450185D01*
X255829657Y-90299052D01*
X256023755Y-90225515D01*
X256198235Y-90164989D01*
X256316986Y-90129964D01*
X256321405Y-90128977D01*
X256453632Y-90078772D01*
X256533677Y-90023408D01*
X256616015Y-89961204D01*
X256657140Y-89947285D01*
X256725335Y-89920845D01*
X256839672Y-89854549D01*
X256885780Y-89824251D01*
X257052726Y-89732037D01*
X257248627Y-89651723D01*
X257305950Y-89633751D01*
X257441784Y-89586519D01*
X257523248Y-89540894D01*
X257534498Y-89521067D01*
X257570414Y-89475874D01*
X257674127Y-89404512D01*
X257793442Y-89338117D01*
X257983408Y-89221190D01*
X258079266Y-89111274D01*
X258090731Y-89078535D01*
X258169898Y-88958838D01*
X258333106Y-88859088D01*
X258460691Y-88788218D01*
X258537430Y-88720929D01*
X258547457Y-88696869D01*
X258584486Y-88617031D01*
X258636757Y-88565865D01*
X258736629Y-88474444D01*
X258857060Y-88340485D01*
X258978396Y-88189269D01*
X259080981Y-88046074D01*
X259145161Y-87936177D01*
X259157057Y-87896706D01*
X259196109Y-87810471D01*
X259271357Y-87741002D01*
X259362804Y-87652442D01*
X259465426Y-87512635D01*
X259511596Y-87435031D01*
X259589795Y-87304325D01*
X259653176Y-87220610D01*
X259676696Y-87204085D01*
X259708197Y-87161305D01*
X259715857Y-87099145D01*
X259759476Y-86920110D01*
X259880417Y-86728594D01*
X259921100Y-86682189D01*
X259993280Y-86564557D01*
X260043181Y-86414034D01*
X260044031Y-86409619D01*
X260085434Y-86283856D01*
X260143022Y-86209036D01*
X260150460Y-86205380D01*
X260203840Y-86138776D01*
X260223857Y-86028618D01*
X260244263Y-85875512D01*
X260293439Y-85713502D01*
X260294411Y-85711164D01*
X260335986Y-85556034D01*
X260339946Y-85411878D01*
X260338948Y-85406216D01*
X260348234Y-85257451D01*
X260389181Y-85183004D01*
X260447263Y-85067821D01*
X260500359Y-84869941D01*
X260544065Y-84608269D01*
X260563306Y-84435485D01*
X260578632Y-84279745D01*
X260597350Y-84100538D01*
X260599585Y-84079885D01*
X260612572Y-83922880D01*
X260623383Y-83724867D01*
X260631134Y-83515227D01*
X260634885Y-83326158D01*
X260292631Y-83326158D01*
X260284166Y-83366221D01*
X260264227Y-83446030D01*
X260245541Y-83596721D01*
X260230156Y-83787582D01*
X260220122Y-83987899D01*
X260217490Y-84166957D01*
X260222980Y-84283085D01*
X260221148Y-84436662D01*
X260195157Y-84627786D01*
X260153380Y-84810739D01*
X260104193Y-84939804D01*
X260102017Y-84943485D01*
X260054949Y-85066502D01*
X260029264Y-85216092D01*
X259998891Y-85369919D01*
X259943200Y-85494095D01*
X259883557Y-85631209D01*
X259868257Y-85732214D01*
X259845837Y-85850218D01*
X259788207Y-86013471D01*
X259736783Y-86127171D01*
X259663274Y-86282419D01*
X259611367Y-86406545D01*
X259595488Y-86457914D01*
X259559202Y-86540745D01*
X259483571Y-86654380D01*
X259472963Y-86668104D01*
X259397111Y-86782989D01*
X259360793Y-86874276D01*
X259360258Y-86881824D01*
X259334775Y-86960289D01*
X259271858Y-87078823D01*
X259191799Y-87205544D01*
X259114894Y-87308572D01*
X259061435Y-87356023D01*
X259058116Y-87356485D01*
X259016536Y-87397827D01*
X258955401Y-87500879D01*
X258936179Y-87539547D01*
X258832886Y-87705229D01*
X258667374Y-87913313D01*
X258458484Y-88144950D01*
X258225055Y-88381289D01*
X257985930Y-88603483D01*
X257759948Y-88792681D01*
X257565952Y-88930034D01*
X257519479Y-88956879D01*
X257351690Y-89057184D01*
X257205661Y-89161277D01*
X257140183Y-89219345D01*
X257037672Y-89302799D01*
X256947881Y-89337684D01*
X256947626Y-89337685D01*
X256850139Y-89364427D01*
X256729300Y-89428620D01*
X256533251Y-89554502D01*
X256384766Y-89639798D01*
X256261457Y-89699119D01*
X256130180Y-89759314D01*
X256046247Y-89800351D01*
X255930624Y-89839564D01*
X255879359Y-89845685D01*
X255781109Y-89872254D01*
X255674733Y-89928210D01*
X255557166Y-89982665D01*
X255382180Y-90038846D01*
X255232021Y-90075000D01*
X255036286Y-90118331D01*
X254858194Y-90163825D01*
X254762857Y-90192810D01*
X254578205Y-90248211D01*
X254338365Y-90307171D01*
X254074207Y-90363524D01*
X253816604Y-90411101D01*
X253596429Y-90443736D01*
X253448918Y-90455285D01*
X253249759Y-90473967D01*
X253045101Y-90520002D01*
X253012094Y-90530837D01*
X252839641Y-90575665D01*
X252721607Y-90563969D01*
X252700317Y-90554133D01*
X252587636Y-90530735D01*
X252438656Y-90576321D01*
X252438167Y-90576543D01*
X252306943Y-90613248D01*
X252091855Y-90646117D01*
X251810626Y-90672817D01*
X251613257Y-90685125D01*
X251365010Y-90699489D01*
X251155532Y-90714665D01*
X251004585Y-90728995D01*
X250931933Y-90740822D01*
X250928749Y-90742504D01*
X250867369Y-90747427D01*
X250801749Y-90731760D01*
X250666721Y-90705171D01*
X250571857Y-90699963D01*
X250073783Y-90705487D01*
X249665529Y-90701087D01*
X249335771Y-90686440D01*
X249073185Y-90661225D01*
X249038595Y-90656469D01*
X248826053Y-90626219D01*
X248628011Y-90598530D01*
X248489057Y-90579626D01*
X248191717Y-90536347D01*
X247921395Y-90489345D01*
X247696996Y-90442529D01*
X247537424Y-90399808D01*
X247464471Y-90367774D01*
X247381413Y-90330020D01*
X247231985Y-90287150D01*
X247069420Y-90252502D01*
X246860657Y-90204391D01*
X246660766Y-90141545D01*
X246546977Y-90093726D01*
X246417531Y-90038535D01*
X246324629Y-90018377D01*
X246306722Y-90022209D01*
X246232582Y-90023533D01*
X246126480Y-89987610D01*
X246033937Y-89934301D01*
X245999857Y-89888330D01*
X245956238Y-89856566D01*
X245869468Y-89845685D01*
X245745053Y-89815227D01*
X245602186Y-89739877D01*
X245572573Y-89718685D01*
X245448950Y-89637928D01*
X245347514Y-89594226D01*
X245328813Y-89591685D01*
X245234942Y-89562059D01*
X245130408Y-89496944D01*
X245015165Y-89419614D01*
X244853185Y-89325654D01*
X244752067Y-89272307D01*
X244596983Y-89185985D01*
X244474287Y-89103480D01*
X244428346Y-89062247D01*
X244350134Y-88995992D01*
X244308887Y-88982085D01*
X244247230Y-88945849D01*
X244135061Y-88847699D01*
X243987268Y-88703472D01*
X243818739Y-88529005D01*
X243644363Y-88340136D01*
X243479030Y-88152700D01*
X243337626Y-87982535D01*
X243235042Y-87845479D01*
X243222388Y-87826385D01*
X243126437Y-87687208D01*
X243048125Y-87590711D01*
X243008660Y-87559685D01*
X242968595Y-87517036D01*
X242900986Y-87404355D01*
X242819353Y-87244543D01*
X242806200Y-87216785D01*
X242706111Y-87012302D01*
X242601757Y-86813203D01*
X242520517Y-86670685D01*
X242432426Y-86498759D01*
X242349174Y-86290585D01*
X242316402Y-86188085D01*
X242254479Y-85979818D01*
X242187036Y-85767696D01*
X242157428Y-85680085D01*
X242104260Y-85497715D01*
X242068296Y-85319712D01*
X242062903Y-85273685D01*
X242034044Y-85105769D01*
X241982081Y-84922016D01*
X241971506Y-84892685D01*
X241916669Y-84698163D01*
X241869035Y-84437115D01*
X241830104Y-84132420D01*
X241801376Y-83806958D01*
X241784351Y-83483608D01*
X241780531Y-83185249D01*
X241791415Y-82934760D01*
X241818504Y-82755021D01*
X241829083Y-82720797D01*
X241846635Y-82594180D01*
X241831884Y-82443759D01*
X241824402Y-82273339D01*
X241856727Y-82036992D01*
X241923688Y-81759895D01*
X242020114Y-81467223D01*
X242046474Y-81398950D01*
X242099726Y-81248020D01*
X242128877Y-81131219D01*
X242130703Y-81094150D01*
X242139602Y-80996031D01*
X242180299Y-80848847D01*
X242238557Y-80694100D01*
X242300135Y-80573297D01*
X242317626Y-80549285D01*
X242373808Y-80446031D01*
X242416069Y-80311495D01*
X242461981Y-80179076D01*
X242523323Y-80089374D01*
X242586628Y-79989569D01*
X242596257Y-79935232D01*
X242628143Y-79840371D01*
X242707916Y-79716183D01*
X242741804Y-79674752D01*
X242841932Y-79543619D01*
X242911940Y-79422677D01*
X242922206Y-79396171D01*
X242978251Y-79290044D01*
X243076445Y-79159273D01*
X243114352Y-79116771D01*
X243230859Y-78971612D01*
X243324360Y-78819894D01*
X243340266Y-78785817D01*
X243415241Y-78658123D01*
X243502887Y-78572357D01*
X243507133Y-78569971D01*
X243603090Y-78480937D01*
X243637817Y-78415181D01*
X243703927Y-78321199D01*
X243818359Y-78236400D01*
X243821260Y-78234884D01*
X243946636Y-78140452D01*
X244030871Y-78028166D01*
X244113397Y-77922808D01*
X244245062Y-77821891D01*
X244281925Y-77801356D01*
X244426309Y-77707569D01*
X244540453Y-77599527D01*
X244557157Y-77576831D01*
X244645890Y-77485316D01*
X244732071Y-77450485D01*
X244843280Y-77416190D01*
X244900203Y-77374482D01*
X245008558Y-77293113D01*
X245094332Y-77247432D01*
X245196826Y-77194610D01*
X245350624Y-77105820D01*
X245517257Y-77003511D01*
X245822057Y-76810637D01*
X245804611Y-76584461D01*
X245770888Y-76418409D01*
X245699143Y-76207240D01*
X245608454Y-76002685D01*
X245510269Y-75805259D01*
X245434246Y-75645234D01*
X245362618Y-75483373D01*
X245277615Y-75280442D01*
X245240362Y-75189885D01*
X245173956Y-75040442D01*
X245092716Y-74872843D01*
X245080840Y-74849620D01*
X245018635Y-74705665D01*
X244985520Y-74583313D01*
X244983857Y-74561637D01*
X244961481Y-74444360D01*
X244912057Y-74317701D01*
X244856140Y-74181373D01*
X244789354Y-73984464D01*
X244723524Y-73765430D01*
X244670479Y-73562722D01*
X244649592Y-73464294D01*
X244619998Y-73346282D01*
X244570433Y-73186315D01*
X244550172Y-73127139D01*
X244501765Y-72947268D01*
X244462542Y-72726620D01*
X244447546Y-72590952D01*
X244422116Y-72388786D01*
X244381907Y-72199637D01*
X244350548Y-72102967D01*
X244306547Y-71935833D01*
X244290307Y-71744059D01*
X244291655Y-71704707D01*
X244292478Y-71573700D01*
X244284995Y-71366559D01*
X244270475Y-71108298D01*
X244250184Y-70823932D01*
X244241867Y-70721848D01*
X244221608Y-70452337D01*
X244208590Y-70217601D01*
X244203518Y-70036774D01*
X244207096Y-69928993D01*
X244211943Y-69909048D01*
X244228556Y-69836544D01*
X244243089Y-69689753D01*
X244253112Y-69495988D01*
X244255064Y-69424085D01*
X244269649Y-69092128D01*
X244297956Y-68749856D01*
X244336745Y-68423329D01*
X244382772Y-68138610D01*
X244432797Y-67921761D01*
X244447801Y-67874685D01*
X244503421Y-67685221D01*
X244548566Y-67480441D01*
X244554146Y-67447215D01*
X244601676Y-67260411D01*
X244679168Y-67058891D01*
X244710977Y-66993946D01*
X244776438Y-66845771D01*
X244807711Y-66723091D01*
X244805901Y-66680392D01*
X244819935Y-66585433D01*
X244894051Y-66471815D01*
X244897678Y-66467853D01*
X245001818Y-66326592D01*
X245085144Y-66167476D01*
X245156903Y-66015412D01*
X245246336Y-65861933D01*
X245333708Y-65737904D01*
X245399283Y-65674187D01*
X245401122Y-65673351D01*
X245439069Y-65614909D01*
X245441057Y-65594953D01*
X245475707Y-65530886D01*
X245566331Y-65423206D01*
X245686914Y-65301445D01*
X245818441Y-65169635D01*
X245919282Y-65054431D01*
X245964719Y-64986143D01*
X246022363Y-64914447D01*
X246057763Y-64902884D01*
X246144229Y-64872399D01*
X246199057Y-64834409D01*
X246350251Y-64751877D01*
X246564494Y-64692314D01*
X246804436Y-64663139D01*
X247023901Y-64670557D01*
X247192834Y-64706747D01*
X247386929Y-64768903D01*
X247582014Y-64846421D01*
X247753921Y-64928694D01*
X247878478Y-65005119D01*
X247931515Y-65065090D01*
X247931948Y-65068975D01*
X247974524Y-65174069D01*
X248076204Y-65290730D01*
X248205066Y-65385399D01*
X248255344Y-65408940D01*
X248352135Y-65467771D01*
X248387457Y-65527772D01*
X248421874Y-65606943D01*
X248505616Y-65707212D01*
X248514457Y-65715685D01*
X248602590Y-65831637D01*
X248641372Y-65948293D01*
X248641457Y-65952709D01*
X248682572Y-66070553D01*
X248747769Y-66134354D01*
X248821850Y-66211394D01*
X248914315Y-66352227D01*
X249005280Y-66526527D01*
X249006183Y-66528485D01*
X249106632Y-66741505D01*
X249213248Y-66959861D01*
X249287764Y-67106822D01*
X249370413Y-67280218D01*
X249436434Y-67444960D01*
X249457850Y-67513222D01*
X249493261Y-67652649D01*
X249540361Y-67839860D01*
X249571114Y-67962833D01*
X249622592Y-68136708D01*
X249678927Y-68278671D01*
X249714114Y-68339078D01*
X249768273Y-68450845D01*
X249793510Y-68581129D01*
X249820465Y-68941933D01*
X249853962Y-69202529D01*
X249893929Y-69362445D01*
X249917558Y-69406035D01*
X249958206Y-69499630D01*
X249988780Y-69649001D01*
X249995965Y-69718891D01*
X250008912Y-69903911D01*
X250024746Y-70131348D01*
X250035778Y-70290449D01*
X250055233Y-70485257D01*
X250082567Y-70655844D01*
X250107068Y-70750322D01*
X250128559Y-70890732D01*
X250109316Y-70959434D01*
X250092124Y-71081228D01*
X250118214Y-71185361D01*
X250137894Y-71283205D01*
X250157347Y-71462283D01*
X250174991Y-71702239D01*
X250189248Y-71982716D01*
X250196378Y-72192685D01*
X250206585Y-72545891D01*
X250218753Y-72927004D01*
X250231586Y-73297548D01*
X250243782Y-73619049D01*
X250247823Y-73716685D01*
X250264464Y-74187130D01*
X250270025Y-74566880D01*
X250264439Y-74866241D01*
X250247638Y-75095520D01*
X250238305Y-75166370D01*
X250238501Y-75329844D01*
X250302519Y-75445770D01*
X250378106Y-75493939D01*
X250507949Y-75525114D01*
X250703505Y-75540145D01*
X250976234Y-75539879D01*
X251337594Y-75525165D01*
X251359257Y-75524008D01*
X251447160Y-75514861D01*
X251514244Y-75489775D01*
X251563848Y-75436196D01*
X251599308Y-75341572D01*
X251623964Y-75193349D01*
X251641153Y-74978974D01*
X251654212Y-74685893D01*
X251664208Y-74377085D01*
X251675139Y-74047358D01*
X251688395Y-73695340D01*
X251702391Y-73360757D01*
X251715540Y-73083337D01*
X251716958Y-73056285D01*
X251729852Y-72783871D01*
X251743215Y-72451298D01*
X251755496Y-72099986D01*
X251765147Y-71771354D01*
X251765415Y-71760885D01*
X251780175Y-71287704D01*
X251798498Y-70876915D01*
X251819802Y-70536269D01*
X251843501Y-70273514D01*
X251869011Y-70096401D01*
X251895749Y-70012680D01*
X251897352Y-70010824D01*
X251920784Y-69938456D01*
X251937382Y-69795862D01*
X251943457Y-69620123D01*
X251950967Y-69442209D01*
X251970637Y-69306893D01*
X251997721Y-69244144D01*
X252033602Y-69174235D01*
X252028989Y-69150685D01*
X252026222Y-69064561D01*
X252046392Y-68909703D01*
X252083639Y-68714811D01*
X252132102Y-68508582D01*
X252185920Y-68319717D01*
X252216955Y-68230285D01*
X252266714Y-68079100D01*
X252294755Y-67953542D01*
X252296828Y-67929485D01*
X252331759Y-67812614D01*
X252375440Y-67747483D01*
X252428475Y-67644816D01*
X252466722Y-67492764D01*
X252472782Y-67445481D01*
X252497951Y-67297679D01*
X252535528Y-67191413D01*
X252548799Y-67172823D01*
X252598308Y-67075627D01*
X252603857Y-67033175D01*
X252633161Y-66932629D01*
X252695582Y-66827435D01*
X252769626Y-66700822D01*
X252840761Y-66535132D01*
X252856808Y-66488279D01*
X252924845Y-66324027D01*
X253008636Y-66183618D01*
X253031783Y-66155361D01*
X253137602Y-66019401D01*
X253209342Y-65903466D01*
X253272625Y-65806756D01*
X253323611Y-65766485D01*
X253323642Y-65766484D01*
X253361130Y-65725217D01*
X253365857Y-65690285D01*
X253393288Y-65622681D01*
X253416657Y-65614085D01*
X253462551Y-65573307D01*
X253467457Y-65542854D01*
X253510646Y-65479302D01*
X253615832Y-65420100D01*
X253627883Y-65415699D01*
X253762935Y-65345805D01*
X253859364Y-65258329D01*
X253962628Y-65178111D01*
X254051231Y-65156885D01*
X254194997Y-65138190D01*
X254301523Y-65107656D01*
X254443877Y-65087478D01*
X254642486Y-65100410D01*
X254859750Y-65140669D01*
X255058064Y-65202467D01*
X255129846Y-65235104D01*
X255258869Y-65288317D01*
X255358586Y-65308972D01*
X255447727Y-65348561D01*
X255529529Y-65436284D01*
X255639024Y-65537686D01*
X255733263Y-65563284D01*
X255843071Y-65601107D01*
X255953538Y-65723038D01*
X255979942Y-65763133D01*
X256072778Y-65893596D01*
X256158343Y-65987341D01*
X256184365Y-66006780D01*
X256249318Y-66069694D01*
X256348370Y-66195155D01*
X256466198Y-66360091D01*
X256587476Y-66541429D01*
X256696878Y-66716097D01*
X256779081Y-66861021D01*
X256818757Y-66953128D01*
X256820257Y-66964150D01*
X256854341Y-67045082D01*
X256939400Y-67154545D01*
X256972657Y-67188884D01*
X257095372Y-67356118D01*
X257125057Y-67484099D01*
X257160836Y-67628531D01*
X257226657Y-67722284D01*
X257303997Y-67842278D01*
X257328257Y-67955760D01*
X257344754Y-68070113D01*
X257379057Y-68128684D01*
X257411651Y-68195352D01*
X257428992Y-68321496D01*
X257429858Y-68358495D01*
X257449262Y-68515482D01*
X257513532Y-68601063D01*
X257525596Y-68608147D01*
X257586600Y-68666753D01*
X257615488Y-68775614D01*
X257621334Y-68915167D01*
X257632871Y-69078617D01*
X257662199Y-69206066D01*
X257682048Y-69244104D01*
X257714225Y-69327931D01*
X257743585Y-69482362D01*
X257764493Y-69676444D01*
X257766670Y-69708996D01*
X257784932Y-69911232D01*
X257811060Y-70083335D01*
X257839811Y-70191861D01*
X257843617Y-70199836D01*
X257861239Y-70282694D01*
X257876531Y-70449732D01*
X257889278Y-70683552D01*
X257899264Y-70966754D01*
X257906273Y-71281941D01*
X257910089Y-71611715D01*
X257910497Y-71938676D01*
X257907280Y-72245427D01*
X257900223Y-72514570D01*
X257889111Y-72728705D01*
X257876522Y-72853085D01*
X257848041Y-73077478D01*
X257822016Y-73335409D01*
X257808787Y-73503504D01*
X257789045Y-73696490D01*
X257759774Y-73860651D01*
X257729881Y-73954210D01*
X257697193Y-74083044D01*
X257701993Y-74201060D01*
X257700663Y-74335785D01*
X257663408Y-74398376D01*
X257618384Y-74488196D01*
X257617497Y-74567907D01*
X257610916Y-74670430D01*
X257573851Y-74833230D01*
X257514132Y-75022488D01*
X257508790Y-75037264D01*
X257444040Y-75235722D01*
X257397541Y-75418461D01*
X257379076Y-75546856D01*
X257379058Y-75549574D01*
X257357332Y-75718069D01*
X257299637Y-75942278D01*
X257217190Y-76187939D01*
X257121212Y-76420789D01*
X257044725Y-76570530D01*
X256971698Y-76711704D01*
X256927687Y-76825777D01*
X256921857Y-76859002D01*
X256888248Y-76954248D01*
X256840564Y-77016521D01*
X256790966Y-77080206D01*
X256790801Y-77150144D01*
X256839627Y-77267151D01*
X256891446Y-77368547D01*
X256947395Y-77445624D01*
X257027742Y-77514983D01*
X257152758Y-77593224D01*
X257342711Y-77696946D01*
X257404457Y-77729723D01*
X257601741Y-77845627D01*
X257785182Y-77972777D01*
X257916905Y-78084783D01*
X257922568Y-78090690D01*
X258031634Y-78193771D01*
X258120109Y-78255479D01*
X258145342Y-78263285D01*
X258212279Y-78296991D01*
X258307363Y-78376241D01*
X258396144Y-78468230D01*
X258444173Y-78540151D01*
X258445858Y-78549452D01*
X258475458Y-78600411D01*
X258551724Y-78703265D01*
X258623658Y-78793367D01*
X258722201Y-78922132D01*
X258786766Y-79022811D01*
X258801457Y-79060743D01*
X258835675Y-79129347D01*
X258903057Y-79203085D01*
X258979644Y-79298013D01*
X259004657Y-79369352D01*
X259036231Y-79450473D01*
X259115737Y-79567392D01*
X259157057Y-79617246D01*
X259250383Y-79744585D01*
X259304227Y-79858804D01*
X259309457Y-79890652D01*
X259327630Y-79972287D01*
X259352103Y-79990485D01*
X259403408Y-80033329D01*
X259459566Y-80135489D01*
X259502053Y-80257408D01*
X259513787Y-80335775D01*
X259544532Y-80435800D01*
X259614257Y-80549285D01*
X259686269Y-80675314D01*
X259714728Y-80787586D01*
X259733453Y-80888031D01*
X259759689Y-80925978D01*
X259797466Y-80987260D01*
X259844563Y-81112936D01*
X259869014Y-81195676D01*
X259922066Y-81356583D01*
X259981060Y-81484978D01*
X260005449Y-81521211D01*
X260052328Y-81649423D01*
X260042852Y-81737770D01*
X260039581Y-81875398D01*
X260071591Y-81946446D01*
X260108860Y-82038245D01*
X260135271Y-82189796D01*
X260142215Y-82288686D01*
X260154756Y-82454137D01*
X260177604Y-82582601D01*
X260193345Y-82624462D01*
X260223694Y-82713265D01*
X260253014Y-82862280D01*
X260277088Y-83037063D01*
X260291700Y-83203171D01*
X260292631Y-83326158D01*
X260634885Y-83326158D01*
X260634941Y-83323342D01*
X260633921Y-83178593D01*
X260628626Y-83114685D01*
X260617717Y-83034559D01*
X260606275Y-82899185D01*
X260603774Y-82860685D01*
X260576949Y-82565062D01*
X260534703Y-82268418D01*
X260482485Y-82001650D01*
X260425742Y-81795656D01*
X260407511Y-81747603D01*
X260361146Y-81602126D01*
X260348132Y-81482902D01*
X260352271Y-81459232D01*
X260350519Y-81358110D01*
X260311060Y-81216920D01*
X260293910Y-81175313D01*
X260217894Y-80988757D01*
X260148963Y-80794330D01*
X260143758Y-80777885D01*
X260018622Y-80408130D01*
X259892249Y-80093815D01*
X259771188Y-79849691D01*
X259661983Y-79690512D01*
X259660582Y-79688970D01*
X259568954Y-79574659D01*
X259517048Y-79482773D01*
X259512657Y-79462346D01*
X259477440Y-79390038D01*
X259389722Y-79289542D01*
X259357686Y-79259598D01*
X259249888Y-79136841D01*
X259230606Y-79034824D01*
X259233127Y-79025695D01*
X259222380Y-78924776D01*
X259165320Y-78877307D01*
X259080552Y-78800237D01*
X258989323Y-78672338D01*
X258965081Y-78629013D01*
X258888103Y-78512035D01*
X258764022Y-78356702D01*
X258608871Y-78179672D01*
X258438682Y-77997602D01*
X258269488Y-77827150D01*
X258117322Y-77684975D01*
X257998218Y-77587735D01*
X257928569Y-77552085D01*
X257844107Y-77512947D01*
X257767253Y-77428937D01*
X257667123Y-77324383D01*
X257570911Y-77270529D01*
X257444335Y-77212537D01*
X257345645Y-77134765D01*
X257302142Y-77061315D01*
X257306935Y-77037486D01*
X257337562Y-76955901D01*
X257355944Y-76879175D01*
X257410596Y-76758641D01*
X257464199Y-76701312D01*
X257529493Y-76600633D01*
X257557503Y-76447312D01*
X257583963Y-76288382D01*
X257643465Y-76097849D01*
X257683302Y-76002685D01*
X257753435Y-75828594D01*
X257800888Y-75665467D01*
X257811741Y-75596285D01*
X257839097Y-75450042D01*
X257894767Y-75279530D01*
X257910481Y-75241913D01*
X257960512Y-75094714D01*
X258012856Y-74886459D01*
X258057773Y-74656977D01*
X258065795Y-74606913D01*
X258099406Y-74400327D01*
X258131283Y-74227226D01*
X258156023Y-74116255D01*
X258161881Y-74097685D01*
X258182134Y-74007251D01*
X258207624Y-73835220D01*
X258236127Y-73601320D01*
X258265419Y-73325278D01*
X258293279Y-73026822D01*
X258317483Y-72725682D01*
X258319294Y-72700685D01*
X258331083Y-72484089D01*
X258339619Y-72221016D01*
X258344957Y-71929984D01*
X258347154Y-71629513D01*
X258346265Y-71338123D01*
X258342346Y-71074333D01*
X258335454Y-70856663D01*
X258325643Y-70703632D01*
X258313059Y-70633902D01*
X258296642Y-70558680D01*
X258285194Y-70411702D01*
X258280892Y-70222771D01*
X258280983Y-70194821D01*
X258270473Y-69927912D01*
X258233936Y-69750559D01*
X258206041Y-69693495D01*
X258152146Y-69528292D01*
X258157704Y-69429751D01*
X258153165Y-69270436D01*
X258114751Y-69189045D01*
X258068727Y-69079002D01*
X258042938Y-68922271D01*
X258041073Y-68875462D01*
X258022190Y-68699412D01*
X257977522Y-68540272D01*
X257965131Y-68513308D01*
X257904412Y-68354776D01*
X257869667Y-68198331D01*
X257830591Y-68005057D01*
X257770314Y-67839713D01*
X257701611Y-67735450D01*
X257686991Y-67724221D01*
X257644972Y-67652428D01*
X257633057Y-67568654D01*
X257600432Y-67456134D01*
X257518585Y-67319899D01*
X257480658Y-67272846D01*
X257387018Y-67142630D01*
X257333277Y-67022251D01*
X257328257Y-66988338D01*
X257284798Y-66802897D01*
X257172885Y-66636982D01*
X257116996Y-66589104D01*
X257042080Y-66508450D01*
X257023458Y-66454509D01*
X256993824Y-66370285D01*
X256915650Y-66231675D01*
X256805029Y-66062684D01*
X256678053Y-65887320D01*
X256550813Y-65729586D01*
X256498831Y-65671891D01*
X256338441Y-65515030D01*
X256152265Y-65353004D01*
X255960197Y-65200834D01*
X255782133Y-65073543D01*
X255637970Y-64986153D01*
X255547603Y-64953684D01*
X255436517Y-64921951D01*
X255308479Y-64844216D01*
X255291931Y-64830839D01*
X255135413Y-64746330D01*
X254917072Y-64686452D01*
X254674831Y-64656511D01*
X254446615Y-64661816D01*
X254305604Y-64692787D01*
X254157816Y-64733970D01*
X254033563Y-64750485D01*
X253878381Y-64789742D01*
X253677058Y-64909376D01*
X253478390Y-65065752D01*
X253358306Y-65154056D01*
X253259215Y-65203715D01*
X253237090Y-65207684D01*
X253170814Y-65245910D01*
X253162657Y-65277664D01*
X253126814Y-65366558D01*
X253085936Y-65411318D01*
X253011630Y-65495029D01*
X252902813Y-65644401D01*
X252774491Y-65836380D01*
X252641671Y-66047910D01*
X252519361Y-66255935D01*
X252437712Y-66407186D01*
X252368216Y-66559660D01*
X252280161Y-66775572D01*
X252183671Y-67027352D01*
X252088870Y-67287430D01*
X252005882Y-67528237D01*
X251944831Y-67722203D01*
X251920540Y-67815489D01*
X251893488Y-67925179D01*
X251849086Y-68088735D01*
X251816001Y-68204885D01*
X251759978Y-68423807D01*
X251707925Y-68669514D01*
X251686941Y-68789085D01*
X251650022Y-69010160D01*
X251608536Y-69238514D01*
X251587089Y-69347885D01*
X251541168Y-69601893D01*
X251493590Y-69914098D01*
X251450348Y-70241384D01*
X251417437Y-70540636D01*
X251410525Y-70617885D01*
X251390184Y-70819014D01*
X251364586Y-71018188D01*
X251355808Y-71075085D01*
X251345905Y-71182454D01*
X251336172Y-71374528D01*
X251327137Y-71634413D01*
X251319328Y-71945213D01*
X251313275Y-72290033D01*
X251310545Y-72522885D01*
X251305780Y-72875789D01*
X251298650Y-73201049D01*
X251289720Y-73482869D01*
X251279554Y-73705449D01*
X251268717Y-73852992D01*
X251261238Y-73902453D01*
X251252330Y-74049240D01*
X251278875Y-74140670D01*
X251305502Y-74232789D01*
X251288758Y-74271961D01*
X251265081Y-74333400D01*
X251246904Y-74467230D01*
X251238267Y-74641084D01*
X251223592Y-74873710D01*
X251181597Y-75019455D01*
X251102705Y-75091477D01*
X250977338Y-75102933D01*
X250909326Y-75093000D01*
X250771700Y-75043880D01*
X250710951Y-74972220D01*
X250705144Y-74895667D01*
X250700423Y-74735054D01*
X250697048Y-74507916D01*
X250695278Y-74231788D01*
X250695372Y-73924205D01*
X250695388Y-73919885D01*
X250694709Y-73617126D01*
X250690751Y-73350450D01*
X250684028Y-73136037D01*
X250675055Y-72990064D01*
X250664349Y-72928708D01*
X250663785Y-72928158D01*
X250649644Y-72870557D01*
X250634497Y-72730123D01*
X250619841Y-72525590D01*
X250607171Y-72275694D01*
X250602957Y-72166158D01*
X250587028Y-71803203D01*
X250564932Y-71429009D01*
X250538386Y-71064164D01*
X250509105Y-70729254D01*
X250478806Y-70444865D01*
X250449204Y-70231585D01*
X250435785Y-70160685D01*
X250411773Y-70010695D01*
X250393577Y-69827069D01*
X250390661Y-69779685D01*
X250368521Y-69514181D01*
X250330041Y-69218587D01*
X250279961Y-68918064D01*
X250223017Y-68637770D01*
X250163948Y-68402864D01*
X250107491Y-68238506D01*
X250095870Y-68214273D01*
X250049430Y-68096865D01*
X249995050Y-67917539D01*
X249944148Y-67714116D01*
X249942005Y-67704473D01*
X249874689Y-67461157D01*
X249779270Y-67189946D01*
X249682308Y-66962543D01*
X249599267Y-66783820D01*
X249537062Y-66638377D01*
X249506492Y-66551815D01*
X249505057Y-66542252D01*
X249479481Y-66471493D01*
X249410355Y-66335182D01*
X249309087Y-66153223D01*
X249187084Y-65945517D01*
X249055752Y-65731967D01*
X248926500Y-65532476D01*
X248925236Y-65530590D01*
X248833479Y-65390174D01*
X248756397Y-65267265D01*
X248663303Y-65160742D01*
X248532216Y-65059273D01*
X248518744Y-65051082D01*
X248392024Y-64952745D01*
X248302850Y-64842552D01*
X248296979Y-64830808D01*
X248210712Y-64722668D01*
X248123854Y-64671630D01*
X248001485Y-64606613D01*
X247901049Y-64521801D01*
X247796709Y-64443120D01*
X247635167Y-64355790D01*
X247494649Y-64295738D01*
X247325016Y-64238413D01*
X247176384Y-64208921D01*
X247009052Y-64203008D01*
X246783320Y-64216421D01*
G36*
X251138392Y-88178044D02*
G01*
X250995934Y-88281629D01*
X250890972Y-88376082D01*
X250852820Y-88428164D01*
X250789021Y-88495432D01*
X250667378Y-88559851D01*
X250634184Y-88571880D01*
X250533207Y-88599008D01*
X250437214Y-88603202D01*
X250318476Y-88580271D01*
X250149265Y-88526025D01*
X250017350Y-88478666D01*
X249792552Y-88401311D01*
X249639751Y-88366012D01*
X249537643Y-88374604D01*
X249464924Y-88428922D01*
X249400291Y-88530801D01*
X249399714Y-88531879D01*
X249383870Y-88596874D01*
X249428845Y-88654418D01*
X249551611Y-88725916D01*
X249554888Y-88727590D01*
X249707134Y-88834288D01*
X249761975Y-88944252D01*
X249718663Y-89049451D01*
X249592858Y-89134485D01*
X249476144Y-89208461D01*
X249432229Y-89305120D01*
X249428857Y-89362389D01*
X249446043Y-89471955D01*
X249508187Y-89520217D01*
X249631174Y-89511865D01*
X249784457Y-89467438D01*
X249948742Y-89404668D01*
X250146408Y-89318401D01*
X250258111Y-89265116D01*
X250389364Y-89202509D01*
X250493239Y-89168583D01*
X250596385Y-89164692D01*
X250725448Y-89192193D01*
X250907077Y-89252441D01*
X251054457Y-89305631D01*
X251189877Y-89340857D01*
X251293762Y-89346489D01*
X251408491Y-89357700D01*
X251480582Y-89385447D01*
X251613752Y-89419873D01*
X251703380Y-89365078D01*
X251739894Y-89227595D01*
X251740257Y-89208248D01*
X251732124Y-89091803D01*
X251693014Y-89021433D01*
X251600863Y-88980692D01*
X251433610Y-88953132D01*
X251391124Y-88947981D01*
X251186873Y-88916224D01*
X251077755Y-88875562D01*
X251057305Y-88817670D01*
X251119057Y-88734224D01*
X251181457Y-88678012D01*
X251305359Y-88586500D01*
X251408918Y-88532390D01*
X251437020Y-88526251D01*
X251507710Y-88482369D01*
X251570041Y-88378461D01*
X251570995Y-88375961D01*
X251600394Y-88259336D01*
X251565790Y-88174644D01*
X251511163Y-88118020D01*
X251395119Y-88009003D01*
X251138392Y-88178044D01*
G37*
X251138392Y-88178044D02*
X250995934Y-88281629D01*
X250890972Y-88376082D01*
X250852820Y-88428164D01*
X250789021Y-88495432D01*
X250667378Y-88559851D01*
X250634184Y-88571880D01*
X250533207Y-88599008D01*
X250437214Y-88603202D01*
X250318476Y-88580271D01*
X250149265Y-88526025D01*
X250017350Y-88478666D01*
X249792552Y-88401311D01*
X249639751Y-88366012D01*
X249537643Y-88374604D01*
X249464924Y-88428922D01*
X249400291Y-88530801D01*
X249399714Y-88531879D01*
X249383870Y-88596874D01*
X249428845Y-88654418D01*
X249551611Y-88725916D01*
X249554888Y-88727590D01*
X249707134Y-88834288D01*
X249761975Y-88944252D01*
X249718663Y-89049451D01*
X249592858Y-89134485D01*
X249476144Y-89208461D01*
X249432229Y-89305120D01*
X249428857Y-89362389D01*
X249446043Y-89471955D01*
X249508187Y-89520217D01*
X249631174Y-89511865D01*
X249784457Y-89467438D01*
X249948742Y-89404668D01*
X250146408Y-89318401D01*
X250258111Y-89265116D01*
X250389364Y-89202509D01*
X250493239Y-89168583D01*
X250596385Y-89164692D01*
X250725448Y-89192193D01*
X250907077Y-89252441D01*
X251054457Y-89305631D01*
X251189877Y-89340857D01*
X251293762Y-89346489D01*
X251408491Y-89357700D01*
X251480582Y-89385447D01*
X251613752Y-89419873D01*
X251703380Y-89365078D01*
X251739894Y-89227595D01*
X251740257Y-89208248D01*
X251732124Y-89091803D01*
X251693014Y-89021433D01*
X251600863Y-88980692D01*
X251433610Y-88953132D01*
X251391124Y-88947981D01*
X251186873Y-88916224D01*
X251077755Y-88875562D01*
X251057305Y-88817670D01*
X251119057Y-88734224D01*
X251181457Y-88678012D01*
X251305359Y-88586500D01*
X251408918Y-88532390D01*
X251437020Y-88526251D01*
X251507710Y-88482369D01*
X251570041Y-88378461D01*
X251570995Y-88375961D01*
X251600394Y-88259336D01*
X251565790Y-88174644D01*
X251511163Y-88118020D01*
X251395119Y-88009003D01*
X251138392Y-88178044D01*
G36*
X255377635Y-84928499D02*
G01*
X255257266Y-85021851D01*
X255163685Y-85125465D01*
X255119274Y-85205582D01*
X255120564Y-85226293D01*
X255116719Y-85270745D01*
X255101978Y-85273685D01*
X255056596Y-85317231D01*
X255027881Y-85419786D01*
X255022789Y-85539225D01*
X255043842Y-85625749D01*
X255096454Y-85746353D01*
X255111012Y-85788799D01*
X255167610Y-85857678D01*
X255277349Y-85939036D01*
X255399403Y-86006718D01*
X255492944Y-86034568D01*
X255494562Y-86034528D01*
X255556390Y-86013303D01*
X255667500Y-85962934D01*
X255683204Y-85955253D01*
X255805019Y-85861604D01*
X255898528Y-85729538D01*
X255954336Y-85585788D01*
X255963046Y-85457082D01*
X255915262Y-85370152D01*
X255893157Y-85357985D01*
X255855952Y-85324781D01*
X255894199Y-85286610D01*
X255923640Y-85236331D01*
X255893750Y-85150326D01*
X255841777Y-85066843D01*
X255701601Y-84920358D01*
X255546307Y-84874199D01*
X255377635Y-84928499D01*
G37*
X255377635Y-84928499D02*
X255257266Y-85021851D01*
X255163685Y-85125465D01*
X255119274Y-85205582D01*
X255120564Y-85226293D01*
X255116719Y-85270745D01*
X255101978Y-85273685D01*
X255056596Y-85317231D01*
X255027881Y-85419786D01*
X255022789Y-85539225D01*
X255043842Y-85625749D01*
X255096454Y-85746353D01*
X255111012Y-85788799D01*
X255167610Y-85857678D01*
X255277349Y-85939036D01*
X255399403Y-86006718D01*
X255492944Y-86034568D01*
X255494562Y-86034528D01*
X255556390Y-86013303D01*
X255667500Y-85962934D01*
X255683204Y-85955253D01*
X255805019Y-85861604D01*
X255898528Y-85729538D01*
X255954336Y-85585788D01*
X255963046Y-85457082D01*
X255915262Y-85370152D01*
X255893157Y-85357985D01*
X255855952Y-85324781D01*
X255894199Y-85286610D01*
X255923640Y-85236331D01*
X255893750Y-85150326D01*
X255841777Y-85066843D01*
X255701601Y-84920358D01*
X255546307Y-84874199D01*
X255377635Y-84928499D01*
G36*
X246159360Y-84943565D02*
G01*
X245981033Y-84993943D01*
X245859652Y-85061890D01*
X245814620Y-85135373D01*
X245818248Y-85155076D01*
X245799949Y-85222024D01*
X245768050Y-85242486D01*
X245716926Y-85310288D01*
X245696503Y-85438249D01*
X245707483Y-85589459D01*
X245750566Y-85727005D01*
X245758557Y-85741951D01*
X245899718Y-85919952D01*
X246063899Y-86015157D01*
X246234656Y-86022213D01*
X246384130Y-85945655D01*
X246539741Y-85757222D01*
X246612417Y-85536994D01*
X246600262Y-85309345D01*
X246501383Y-85098648D01*
X246454369Y-85042223D01*
X246347418Y-84952771D01*
X246234738Y-84933130D01*
X246159360Y-84943565D01*
G37*
X246159360Y-84943565D02*
X245981033Y-84993943D01*
X245859652Y-85061890D01*
X245814620Y-85135373D01*
X245818248Y-85155076D01*
X245799949Y-85222024D01*
X245768050Y-85242486D01*
X245716926Y-85310288D01*
X245696503Y-85438249D01*
X245707483Y-85589459D01*
X245750566Y-85727005D01*
X245758557Y-85741951D01*
X245899718Y-85919952D01*
X246063899Y-86015157D01*
X246234656Y-86022213D01*
X246384130Y-85945655D01*
X246539741Y-85757222D01*
X246612417Y-85536994D01*
X246600262Y-85309345D01*
X246501383Y-85098648D01*
X246454369Y-85042223D01*
X246347418Y-84952771D01*
X246234738Y-84933130D01*
X246159360Y-84943565D01*
D11*
X198700000Y-106300000D02*
X198700000Y-108300000D01*
X198700000Y-108300000D02*
X204300000Y-108300000D01*
X204300000Y-108300000D02*
X204300000Y-106300000D01*
X204300000Y-106300000D02*
X198700000Y-106300000D01*
X204300000Y-107300000D02*
X205300000Y-107300000D01*
X197800000Y-107300000D02*
X198700000Y-107300000D01*
X201900000Y-108000000D02*
X201900000Y-106600000D01*
X201900000Y-106600000D02*
X201000000Y-107300000D01*
X201000000Y-107300000D02*
X201900000Y-108000000D01*
X201000000Y-108000000D02*
X201000000Y-106600000D01*
X200200000Y-87000000D02*
X200200000Y-89000000D01*
X200200000Y-89000000D02*
X205800000Y-89000000D01*
X205800000Y-89000000D02*
X205800000Y-87000000D01*
X205800000Y-87000000D02*
X200200000Y-87000000D01*
X205800000Y-88000000D02*
X206800000Y-88000000D01*
X199300000Y-88000000D02*
X200200000Y-88000000D01*
X203400000Y-88700000D02*
X203400000Y-87300000D01*
X203400000Y-87300000D02*
X202500000Y-88000000D01*
X202500000Y-88000000D02*
X203400000Y-88700000D01*
X202500000Y-88700000D02*
X202500000Y-87300000D01*
X193072038Y-89206324D02*
X195072038Y-89206324D01*
X195072038Y-89206324D02*
X195072038Y-83606324D01*
X195072038Y-83606324D02*
X193072038Y-83606324D01*
X193072038Y-83606324D02*
X193072038Y-89206324D01*
X194072038Y-83606324D02*
X194072038Y-82606324D01*
X194072038Y-90106324D02*
X194072038Y-89206324D01*
X194772038Y-86006324D02*
X193372038Y-86006324D01*
X193372038Y-86006324D02*
X194072038Y-86906324D01*
X194072038Y-86906324D02*
X194772038Y-86006324D01*
X194772038Y-86906324D02*
X193372038Y-86906324D01*
X202225168Y-67460995D02*
X202225168Y-69460995D01*
X202225168Y-69460995D02*
X207825168Y-69460995D01*
X207825168Y-69460995D02*
X207825168Y-67460995D01*
X207825168Y-67460995D02*
X202225168Y-67460995D01*
X207825168Y-68460995D02*
X208825168Y-68460995D01*
X201325168Y-68460995D02*
X202225168Y-68460995D01*
X205425168Y-69160995D02*
X205425168Y-67760995D01*
X205425168Y-67760995D02*
X204525168Y-68460995D01*
X204525168Y-68460995D02*
X205425168Y-69160995D01*
X204525168Y-69160995D02*
X204525168Y-67760995D01*
X174205778Y-125203816D02*
X174205778Y-127203816D01*
X174205778Y-127203816D02*
X179805778Y-127203816D01*
X179805778Y-127203816D02*
X179805778Y-125203816D01*
X179805778Y-125203816D02*
X174205778Y-125203816D01*
X179805778Y-126203816D02*
X180805778Y-126203816D01*
X173305778Y-126203816D02*
X174205778Y-126203816D01*
X177405778Y-126903816D02*
X177405778Y-125503816D01*
X177405778Y-125503816D02*
X176505778Y-126203816D01*
X176505778Y-126203816D02*
X177405778Y-126903816D01*
X176505778Y-126903816D02*
X176505778Y-125503816D01*
X180642343Y-106156340D02*
X180642343Y-108156340D01*
X180642343Y-108156340D02*
X186242343Y-108156340D01*
X186242343Y-108156340D02*
X186242343Y-106156340D01*
X186242343Y-106156340D02*
X180642343Y-106156340D01*
X186242343Y-107156340D02*
X187242343Y-107156340D01*
X179742343Y-107156340D02*
X180642343Y-107156340D01*
X183842343Y-107856340D02*
X183842343Y-106456340D01*
X183842343Y-106456340D02*
X182942343Y-107156340D01*
X182942343Y-107156340D02*
X183842343Y-107856340D01*
X182942343Y-107856340D02*
X182942343Y-106456340D01*
X181300000Y-87100000D02*
X181300000Y-89100000D01*
X181300000Y-89100000D02*
X186900000Y-89100000D01*
X186900000Y-89100000D02*
X186900000Y-87100000D01*
X186900000Y-87100000D02*
X181300000Y-87100000D01*
X186900000Y-88100000D02*
X187900000Y-88100000D01*
X180400000Y-88100000D02*
X181300000Y-88100000D01*
X184500000Y-88800000D02*
X184500000Y-87400000D01*
X184500000Y-87400000D02*
X183600000Y-88100000D01*
X183600000Y-88100000D02*
X184500000Y-88800000D01*
X183600000Y-88800000D02*
X183600000Y-87400000D01*
X195072038Y-96854767D02*
X193072038Y-96854767D01*
X193072038Y-96854767D02*
X193072038Y-102454767D01*
X193072038Y-102454767D02*
X195072038Y-102454767D01*
X195072038Y-102454767D02*
X195072038Y-96854767D01*
X194072038Y-102454767D02*
X194072038Y-103454767D01*
X194072038Y-95954767D02*
X194072038Y-96854767D01*
X193372038Y-100054767D02*
X194772038Y-100054767D01*
X194772038Y-100054767D02*
X194072038Y-99154767D01*
X194072038Y-99154767D02*
X193372038Y-100054767D01*
X193372038Y-99154767D02*
X194772038Y-99154767D01*
X191878872Y-60903178D02*
X193878872Y-60903178D01*
X193878872Y-60903178D02*
X193878872Y-55303178D01*
X193878872Y-55303178D02*
X191878872Y-55303178D01*
X191878872Y-55303178D02*
X191878872Y-60903178D01*
X192878872Y-55303178D02*
X192878872Y-54303178D01*
X192878872Y-61803178D02*
X192878872Y-60903178D01*
X193578872Y-57703178D02*
X192178872Y-57703178D01*
X192178872Y-57703178D02*
X192878872Y-58603178D01*
X192878872Y-58603178D02*
X193578872Y-57703178D01*
X193578872Y-58603178D02*
X192178872Y-58603178D01*
X176022022Y-112332905D02*
X174022022Y-112332905D01*
X174022022Y-112332905D02*
X174022022Y-117932905D01*
X174022022Y-117932905D02*
X176022022Y-117932905D01*
X176022022Y-117932905D02*
X176022022Y-112332905D01*
X175022022Y-117932905D02*
X175022022Y-118932905D01*
X175022022Y-111432905D02*
X175022022Y-112332905D01*
X174322022Y-115532905D02*
X175722022Y-115532905D01*
X175722022Y-115532905D02*
X175022022Y-114632905D01*
X175022022Y-114632905D02*
X174322022Y-115532905D01*
X174322022Y-114632905D02*
X175722022Y-114632905D01*
X155200000Y-100300000D02*
X157200000Y-100300000D01*
X157200000Y-100300000D02*
X157200000Y-94700000D01*
X157200000Y-94700000D02*
X155200000Y-94700000D01*
X155200000Y-94700000D02*
X155200000Y-100300000D01*
X156200000Y-94700000D02*
X156200000Y-93700000D01*
X156200000Y-101200000D02*
X156200000Y-100300000D01*
X156900000Y-97100000D02*
X155500000Y-97100000D01*
X155500000Y-97100000D02*
X156200000Y-98000000D01*
X156200000Y-98000000D02*
X156900000Y-97100000D01*
X156900000Y-98000000D02*
X155500000Y-98000000D01*
X161700000Y-88296950D02*
X161700000Y-90296950D01*
X161700000Y-90296950D02*
X167300000Y-90296950D01*
X167300000Y-90296950D02*
X167300000Y-88296950D01*
X167300000Y-88296950D02*
X161700000Y-88296950D01*
X167300000Y-89296950D02*
X168300000Y-89296950D01*
X160800000Y-89296950D02*
X161700000Y-89296950D01*
X164900000Y-89996950D02*
X164900000Y-88596950D01*
X164900000Y-88596950D02*
X164000000Y-89296950D01*
X164000000Y-89296950D02*
X164900000Y-89996950D01*
X164000000Y-89996950D02*
X164000000Y-88596950D01*
X186665778Y-70056308D02*
X186665778Y-68056308D01*
X186665778Y-68056308D02*
X181065778Y-68056308D01*
X181065778Y-68056308D02*
X181065778Y-70056308D01*
X181065778Y-70056308D02*
X186665778Y-70056308D01*
X181065778Y-69056308D02*
X180065778Y-69056308D01*
X187565778Y-69056308D02*
X186665778Y-69056308D01*
X183465778Y-68356308D02*
X183465778Y-69756308D01*
X183465778Y-69756308D02*
X184365778Y-69056308D01*
X184365778Y-69056308D02*
X183465778Y-68356308D01*
X184365778Y-68356308D02*
X184365778Y-69756308D01*
X174732000Y-133150000D02*
X172732000Y-133150000D01*
X172732000Y-133150000D02*
X172732000Y-138750000D01*
X172732000Y-138750000D02*
X174732000Y-138750000D01*
X174732000Y-138750000D02*
X174732000Y-133150000D01*
X173732000Y-138750000D02*
X173732000Y-139750000D01*
X173732000Y-132250000D02*
X173732000Y-133150000D01*
X173032000Y-136350000D02*
X174432000Y-136350000D01*
X174432000Y-136350000D02*
X173732000Y-135450000D01*
X173732000Y-135450000D02*
X173032000Y-136350000D01*
X173032000Y-135450000D02*
X174432000Y-135450000D01*
X140900000Y-127700000D02*
X138900000Y-127700000D01*
X138900000Y-127700000D02*
X138900000Y-133300000D01*
X138900000Y-133300000D02*
X140900000Y-133300000D01*
X140900000Y-133300000D02*
X140900000Y-127700000D01*
X139900000Y-133300000D02*
X139900000Y-134300000D01*
X139900000Y-126800000D02*
X139900000Y-127700000D01*
X139200000Y-130900000D02*
X140600000Y-130900000D01*
X140600000Y-130900000D02*
X139900000Y-130000000D01*
X139900000Y-130000000D02*
X139200000Y-130900000D01*
X139200000Y-130000000D02*
X140600000Y-130000000D01*
X164639197Y-108156340D02*
X164639197Y-106156340D01*
X164639197Y-106156340D02*
X159039197Y-106156340D01*
X159039197Y-106156340D02*
X159039197Y-108156340D01*
X159039197Y-108156340D02*
X164639197Y-108156340D01*
X159039197Y-107156340D02*
X158039197Y-107156340D01*
X165539197Y-107156340D02*
X164639197Y-107156340D01*
X161439197Y-106456340D02*
X161439197Y-107856340D01*
X161439197Y-107856340D02*
X162339197Y-107156340D01*
X162339197Y-107156340D02*
X161439197Y-106456340D01*
X162339197Y-106456340D02*
X162339197Y-107856340D01*
X148737624Y-108156340D02*
X148737624Y-106156340D01*
X148737624Y-106156340D02*
X143137624Y-106156340D01*
X143137624Y-106156340D02*
X143137624Y-108156340D01*
X143137624Y-108156340D02*
X148737624Y-108156340D01*
X143137624Y-107156340D02*
X142137624Y-107156340D01*
X149637624Y-107156340D02*
X148737624Y-107156340D01*
X145537624Y-106456340D02*
X145537624Y-107856340D01*
X145537624Y-107856340D02*
X146437624Y-107156340D01*
X146437624Y-107156340D02*
X145537624Y-106456340D01*
X146437624Y-106456340D02*
X146437624Y-107856340D01*
X148737624Y-87915698D02*
X148737624Y-85915698D01*
X148737624Y-85915698D02*
X143137624Y-85915698D01*
X143137624Y-85915698D02*
X143137624Y-87915698D01*
X143137624Y-87915698D02*
X148737624Y-87915698D01*
X143137624Y-86915698D02*
X142137624Y-86915698D01*
X149637624Y-86915698D02*
X148737624Y-86915698D01*
X145537624Y-86215698D02*
X145537624Y-87615698D01*
X145537624Y-87615698D02*
X146437624Y-86915698D01*
X146437624Y-86915698D02*
X145537624Y-86215698D01*
X146437624Y-86215698D02*
X146437624Y-87615698D01*
D12*
X174472000Y-53260000D02*
X174472000Y-83740000D01*
X156692000Y-83740000D02*
X156692000Y-53260000D01*
X174472000Y-83740000D02*
X156692000Y-83740000D01*
X171932000Y-55800000D02*
X174472000Y-55800000D01*
X171932000Y-53260000D02*
X171932000Y-55800000D01*
D11*
G36*
X160650432Y-59139360D02*
G01*
X160650432Y-59439360D01*
X160750432Y-59439360D01*
X160750432Y-59139360D01*
X160650432Y-59139360D01*
G37*
X160650432Y-59139360D02*
X160650432Y-59439360D01*
X160750432Y-59439360D01*
X160750432Y-59139360D01*
X160650432Y-59139360D01*
G36*
X160850432Y-59539360D02*
G01*
X160850432Y-59639360D01*
X160950432Y-59639360D01*
X160950432Y-59539360D01*
X160850432Y-59539360D01*
G37*
X160850432Y-59539360D02*
X160850432Y-59639360D01*
X160950432Y-59639360D01*
X160950432Y-59539360D01*
X160850432Y-59539360D01*
G36*
X160650432Y-59139360D02*
G01*
X160650432Y-59239360D01*
X161150432Y-59239360D01*
X161150432Y-59139360D01*
X160650432Y-59139360D01*
G37*
X160650432Y-59139360D02*
X160650432Y-59239360D01*
X161150432Y-59239360D01*
X161150432Y-59139360D01*
X160650432Y-59139360D01*
G36*
X161050432Y-59139360D02*
G01*
X161050432Y-59939360D01*
X161150432Y-59939360D01*
X161150432Y-59139360D01*
X161050432Y-59139360D01*
G37*
X161050432Y-59139360D02*
X161050432Y-59939360D01*
X161150432Y-59939360D01*
X161150432Y-59139360D01*
X161050432Y-59139360D01*
D12*
X156692000Y-50720000D02*
X174472000Y-50720000D01*
D11*
G36*
X160650432Y-59739360D02*
G01*
X160650432Y-59939360D01*
X160750432Y-59939360D01*
X160750432Y-59739360D01*
X160650432Y-59739360D01*
G37*
X160650432Y-59739360D02*
X160650432Y-59939360D01*
X160750432Y-59939360D01*
X160750432Y-59739360D01*
X160650432Y-59739360D01*
D12*
X174472000Y-50720000D02*
X174472000Y-53260000D01*
X156692000Y-53260000D02*
X156692000Y-50720000D01*
X171932000Y-53260000D02*
X174472000Y-53260000D01*
D13*
X161582000Y-58750000D02*
X161582000Y-49250000D01*
X169582000Y-58750000D02*
X161582000Y-58750000D01*
X169582000Y-49250000D02*
X169582000Y-58750000D01*
X161582000Y-49250000D02*
X169582000Y-49250000D01*
D12*
X174432000Y-59510000D02*
X176972000Y-59510000D01*
X176972000Y-89990000D02*
X154192000Y-89990000D01*
X176972000Y-50710000D02*
X176972000Y-89990000D01*
X174432000Y-59510000D02*
X174432000Y-62050000D01*
X174432000Y-62050000D02*
X176972000Y-62050000D01*
X154192000Y-89990000D02*
X154192000Y-50710000D01*
X154192000Y-50710000D02*
X176972000Y-50710000D01*
D14*
X145357000Y-70655000D02*
X145357000Y-70775000D01*
X145357000Y-68505000D02*
X145357000Y-69645000D01*
X145357000Y-67375000D02*
X145357000Y-67495000D01*
X140957000Y-67375000D02*
X145357000Y-67375000D01*
X140957000Y-67495000D02*
X140957000Y-67375000D01*
X140957000Y-69645000D02*
X140957000Y-68505000D01*
X140957000Y-70775000D02*
X140957000Y-70655000D01*
X145357000Y-70775000D02*
X140957000Y-70775000D01*
X190492000Y-64363748D02*
X190492000Y-64886252D01*
X189072000Y-64363748D02*
X189072000Y-64886252D01*
X186417457Y-64786252D02*
X186417457Y-64263748D01*
X187837457Y-64786252D02*
X187837457Y-64263748D01*
X206700000Y-59400000D02*
G75*
G03*
X206700000Y-59400000I-3000000J0D01*
G01*
X205700000Y-65300000D02*
X209800000Y-65300000D01*
X209800000Y-53500000D02*
X205700000Y-53500000D01*
X201700000Y-53500000D02*
X197600000Y-53500000D01*
X201700000Y-65300000D02*
X197600000Y-65300000D01*
X197600000Y-65300000D02*
X197600000Y-53500000D01*
X196200000Y-63200000D02*
X195900000Y-63500000D01*
X195900000Y-63500000D02*
X196500000Y-63500000D01*
X196500000Y-63500000D02*
X196200000Y-63200000D01*
X209800000Y-65300000D02*
X209800000Y-62900000D01*
X209800000Y-60700000D02*
X209800000Y-58100000D01*
X209800000Y-55900000D02*
X209800000Y-53500000D01*
X203700000Y-59900000D02*
X203700000Y-58900000D01*
X203200000Y-59400000D02*
X204200000Y-59400000D01*
X141340154Y-63586817D02*
X141340154Y-64109321D01*
X142760154Y-63586817D02*
X142760154Y-64109321D01*
D15*
X176528300Y-88720000D02*
G75*
G03*
X176528300Y-88720000I-826300J0D01*
G01*
X176528300Y-68400000D02*
G75*
G03*
X176528300Y-68400000I-826300J0D01*
G01*
X156288300Y-81100000D02*
G75*
G03*
X156288300Y-81100000I-826300J0D01*
G01*
X156288300Y-86180000D02*
G75*
G03*
X156288300Y-86180000I-826300J0D01*
G01*
X156288300Y-83640000D02*
G75*
G03*
X156288300Y-83640000I-826300J0D01*
G01*
X156288300Y-60780000D02*
G75*
G03*
X156288300Y-60780000I-826300J0D01*
G01*
X176528300Y-78560000D02*
G75*
G03*
X176528300Y-78560000I-826300J0D01*
G01*
X156288300Y-70940000D02*
G75*
G03*
X156288300Y-70940000I-826300J0D01*
G01*
X176528300Y-86180000D02*
G75*
G03*
X176528300Y-86180000I-826300J0D01*
G01*
X176528300Y-65860000D02*
G75*
G03*
X176528300Y-65860000I-826300J0D01*
G01*
X176528300Y-83640000D02*
G75*
G03*
X176528300Y-83640000I-826300J0D01*
G01*
X156288300Y-76020000D02*
G75*
G03*
X156288300Y-76020000I-826300J0D01*
G01*
X156288300Y-73480000D02*
G75*
G03*
X156288300Y-73480000I-826300J0D01*
G01*
X156288300Y-68400000D02*
G75*
G03*
X156288300Y-68400000I-826300J0D01*
G01*
X174875700Y-59953700D02*
X174875700Y-61606300D01*
X176528300Y-61606300D01*
X176528300Y-59953700D01*
X174875700Y-59953700D01*
X176528300Y-63320000D02*
G75*
G03*
X176528300Y-63320000I-826300J0D01*
G01*
X176528300Y-70940000D02*
G75*
G03*
X176528300Y-70940000I-826300J0D01*
G01*
X156288300Y-78560000D02*
G75*
G03*
X156288300Y-78560000I-826300J0D01*
G01*
X176528300Y-73480000D02*
G75*
G03*
X176528300Y-73480000I-826300J0D01*
G01*
X176528300Y-81100000D02*
G75*
G03*
X176528300Y-81100000I-826300J0D01*
G01*
X156288300Y-65860000D02*
G75*
G03*
X156288300Y-65860000I-826300J0D01*
G01*
X156288300Y-63320000D02*
G75*
G03*
X156288300Y-63320000I-826300J0D01*
G01*
X156288300Y-88720000D02*
G75*
G03*
X156288300Y-88720000I-826300J0D01*
G01*
X176528300Y-76020000D02*
G75*
G03*
X176528300Y-76020000I-826300J0D01*
G01*
X172375700Y-53703700D02*
X172375700Y-55356300D01*
X174028300Y-55356300D01*
X174028300Y-53703700D01*
X172375700Y-53703700D01*
X174028300Y-57070000D02*
G75*
G03*
X174028300Y-57070000I-826300J0D01*
G01*
X174028300Y-67230000D02*
G75*
G03*
X174028300Y-67230000I-826300J0D01*
G01*
X174028300Y-64690000D02*
G75*
G03*
X174028300Y-64690000I-826300J0D01*
G01*
X174028300Y-69770000D02*
G75*
G03*
X174028300Y-69770000I-826300J0D01*
G01*
X174028300Y-77390000D02*
G75*
G03*
X174028300Y-77390000I-826300J0D01*
G01*
X174028300Y-79930000D02*
G75*
G03*
X174028300Y-79930000I-826300J0D01*
G01*
X158788300Y-82470000D02*
G75*
G03*
X158788300Y-82470000I-826300J0D01*
G01*
X158788300Y-79930000D02*
G75*
G03*
X158788300Y-79930000I-826300J0D01*
G01*
X174028300Y-74850000D02*
G75*
G03*
X174028300Y-74850000I-826300J0D01*
G01*
X158788300Y-77390000D02*
G75*
G03*
X158788300Y-77390000I-826300J0D01*
G01*
X174028300Y-59610000D02*
G75*
G03*
X174028300Y-59610000I-826300J0D01*
G01*
X174028300Y-62150000D02*
G75*
G03*
X174028300Y-62150000I-826300J0D01*
G01*
X174028300Y-72310000D02*
G75*
G03*
X174028300Y-72310000I-826300J0D01*
G01*
X158788300Y-59610000D02*
G75*
G03*
X158788300Y-59610000I-826300J0D01*
G01*
X158788300Y-72310000D02*
G75*
G03*
X158788300Y-72310000I-826300J0D01*
G01*
X158788300Y-57070000D02*
G75*
G03*
X158788300Y-57070000I-826300J0D01*
G01*
X158788300Y-62150000D02*
G75*
G03*
X158788300Y-62150000I-826300J0D01*
G01*
X158788300Y-69770000D02*
G75*
G03*
X158788300Y-69770000I-826300J0D01*
G01*
X158788300Y-54530000D02*
G75*
G03*
X158788300Y-54530000I-826300J0D01*
G01*
X174028300Y-82470000D02*
G75*
G03*
X174028300Y-82470000I-826300J0D01*
G01*
X158788300Y-67230000D02*
G75*
G03*
X158788300Y-67230000I-826300J0D01*
G01*
X158788300Y-64690000D02*
G75*
G03*
X158788300Y-64690000I-826300J0D01*
G01*
X158788300Y-74850000D02*
G75*
G03*
X158788300Y-74850000I-826300J0D01*
G01*
D11*
X203014285Y-105602380D02*
X203014285Y-104602380D01*
X202776190Y-104602380D01*
X202633333Y-104650000D01*
X202538095Y-104745238D01*
X202490476Y-104840476D01*
X202442857Y-105030952D01*
X202442857Y-105173809D01*
X202490476Y-105364285D01*
X202538095Y-105459523D01*
X202633333Y-105554761D01*
X202776190Y-105602380D01*
X203014285Y-105602380D01*
X201490476Y-105602380D02*
X202061904Y-105602380D01*
X201776190Y-105602380D02*
X201776190Y-104602380D01*
X201871428Y-104745238D01*
X201966666Y-104840476D01*
X202061904Y-104888095D01*
X200919047Y-105030952D02*
X201014285Y-104983333D01*
X201061904Y-104935714D01*
X201109523Y-104840476D01*
X201109523Y-104792857D01*
X201061904Y-104697619D01*
X201014285Y-104650000D01*
X200919047Y-104602380D01*
X200728571Y-104602380D01*
X200633333Y-104650000D01*
X200585714Y-104697619D01*
X200538095Y-104792857D01*
X200538095Y-104840476D01*
X200585714Y-104935714D01*
X200633333Y-104983333D01*
X200728571Y-105030952D01*
X200919047Y-105030952D01*
X201014285Y-105078571D01*
X201061904Y-105126190D01*
X201109523Y-105221428D01*
X201109523Y-105411904D01*
X201061904Y-105507142D01*
X201014285Y-105554761D01*
X200919047Y-105602380D01*
X200728571Y-105602380D01*
X200633333Y-105554761D01*
X200585714Y-105507142D01*
X200538095Y-105411904D01*
X200538095Y-105221428D01*
X200585714Y-105126190D01*
X200633333Y-105078571D01*
X200728571Y-105030952D01*
X204514285Y-86302380D02*
X204514285Y-85302380D01*
X204276190Y-85302380D01*
X204133333Y-85350000D01*
X204038095Y-85445238D01*
X203990476Y-85540476D01*
X203942857Y-85730952D01*
X203942857Y-85873809D01*
X203990476Y-86064285D01*
X204038095Y-86159523D01*
X204133333Y-86254761D01*
X204276190Y-86302380D01*
X204514285Y-86302380D01*
X202990476Y-86302380D02*
X203561904Y-86302380D01*
X203276190Y-86302380D02*
X203276190Y-85302380D01*
X203371428Y-85445238D01*
X203466666Y-85540476D01*
X203561904Y-85588095D01*
X202657142Y-85302380D02*
X201990476Y-85302380D01*
X202419047Y-86302380D01*
X192374418Y-84892038D02*
X191374418Y-84892038D01*
X191374418Y-85130133D01*
X191422038Y-85272990D01*
X191517276Y-85368228D01*
X191612514Y-85415847D01*
X191802990Y-85463466D01*
X191945847Y-85463466D01*
X192136323Y-85415847D01*
X192231561Y-85368228D01*
X192326799Y-85272990D01*
X192374418Y-85130133D01*
X192374418Y-84892038D01*
X192374418Y-86415847D02*
X192374418Y-85844419D01*
X192374418Y-86130133D02*
X191374418Y-86130133D01*
X191517276Y-86034895D01*
X191612514Y-85939657D01*
X191660133Y-85844419D01*
X191374418Y-87272990D02*
X191374418Y-87082514D01*
X191422038Y-86987276D01*
X191469657Y-86939657D01*
X191612514Y-86844419D01*
X191802990Y-86796800D01*
X192183942Y-86796800D01*
X192279180Y-86844419D01*
X192326799Y-86892038D01*
X192374418Y-86987276D01*
X192374418Y-87177752D01*
X192326799Y-87272990D01*
X192279180Y-87320609D01*
X192183942Y-87368228D01*
X191945847Y-87368228D01*
X191850609Y-87320609D01*
X191802990Y-87272990D01*
X191755371Y-87177752D01*
X191755371Y-86987276D01*
X191802990Y-86892038D01*
X191850609Y-86844419D01*
X191945847Y-86796800D01*
X206539453Y-71572380D02*
X206539453Y-70572380D01*
X206301358Y-70572380D01*
X206158501Y-70620000D01*
X206063263Y-70715238D01*
X206015644Y-70810476D01*
X205968025Y-71000952D01*
X205968025Y-71143809D01*
X206015644Y-71334285D01*
X206063263Y-71429523D01*
X206158501Y-71524761D01*
X206301358Y-71572380D01*
X206539453Y-71572380D01*
X205015644Y-71572380D02*
X205587072Y-71572380D01*
X205301358Y-71572380D02*
X205301358Y-70572380D01*
X205396596Y-70715238D01*
X205491834Y-70810476D01*
X205587072Y-70858095D01*
X204110882Y-70572380D02*
X204587072Y-70572380D01*
X204634691Y-71048571D01*
X204587072Y-71000952D01*
X204491834Y-70953333D01*
X204253739Y-70953333D01*
X204158501Y-71000952D01*
X204110882Y-71048571D01*
X204063263Y-71143809D01*
X204063263Y-71381904D01*
X204110882Y-71477142D01*
X204158501Y-71524761D01*
X204253739Y-71572380D01*
X204491834Y-71572380D01*
X204587072Y-71524761D01*
X204634691Y-71477142D01*
X178520063Y-124506196D02*
X178520063Y-123506196D01*
X178281968Y-123506196D01*
X178139111Y-123553816D01*
X178043873Y-123649054D01*
X177996254Y-123744292D01*
X177948635Y-123934768D01*
X177948635Y-124077625D01*
X177996254Y-124268101D01*
X178043873Y-124363339D01*
X178139111Y-124458577D01*
X178281968Y-124506196D01*
X178520063Y-124506196D01*
X176996254Y-124506196D02*
X177567682Y-124506196D01*
X177281968Y-124506196D02*
X177281968Y-123506196D01*
X177377206Y-123649054D01*
X177472444Y-123744292D01*
X177567682Y-123791911D01*
X176139111Y-123839530D02*
X176139111Y-124506196D01*
X176377206Y-123458577D02*
X176615301Y-124172863D01*
X175996254Y-124172863D01*
X184956628Y-105458720D02*
X184956628Y-104458720D01*
X184718533Y-104458720D01*
X184575676Y-104506340D01*
X184480438Y-104601578D01*
X184432819Y-104696816D01*
X184385200Y-104887292D01*
X184385200Y-105030149D01*
X184432819Y-105220625D01*
X184480438Y-105315863D01*
X184575676Y-105411101D01*
X184718533Y-105458720D01*
X184956628Y-105458720D01*
X183432819Y-105458720D02*
X184004247Y-105458720D01*
X183718533Y-105458720D02*
X183718533Y-104458720D01*
X183813771Y-104601578D01*
X183909009Y-104696816D01*
X184004247Y-104744435D01*
X183099485Y-104458720D02*
X182480438Y-104458720D01*
X182813771Y-104839673D01*
X182670914Y-104839673D01*
X182575676Y-104887292D01*
X182528057Y-104934911D01*
X182480438Y-105030149D01*
X182480438Y-105268244D01*
X182528057Y-105363482D01*
X182575676Y-105411101D01*
X182670914Y-105458720D01*
X182956628Y-105458720D01*
X183051866Y-105411101D01*
X183099485Y-105363482D01*
X185614285Y-86402380D02*
X185614285Y-85402380D01*
X185376190Y-85402380D01*
X185233333Y-85450000D01*
X185138095Y-85545238D01*
X185090476Y-85640476D01*
X185042857Y-85830952D01*
X185042857Y-85973809D01*
X185090476Y-86164285D01*
X185138095Y-86259523D01*
X185233333Y-86354761D01*
X185376190Y-86402380D01*
X185614285Y-86402380D01*
X184090476Y-86402380D02*
X184661904Y-86402380D01*
X184376190Y-86402380D02*
X184376190Y-85402380D01*
X184471428Y-85545238D01*
X184566666Y-85640476D01*
X184661904Y-85688095D01*
X183709523Y-85497619D02*
X183661904Y-85450000D01*
X183566666Y-85402380D01*
X183328571Y-85402380D01*
X183233333Y-85450000D01*
X183185714Y-85497619D01*
X183138095Y-85592857D01*
X183138095Y-85688095D01*
X183185714Y-85830952D01*
X183757142Y-86402380D01*
X183138095Y-86402380D01*
X196674418Y-98740481D02*
X195674418Y-98740481D01*
X195674418Y-98978576D01*
X195722038Y-99121433D01*
X195817276Y-99216671D01*
X195912514Y-99264290D01*
X196102990Y-99311909D01*
X196245847Y-99311909D01*
X196436323Y-99264290D01*
X196531561Y-99216671D01*
X196626799Y-99121433D01*
X196674418Y-98978576D01*
X196674418Y-98740481D01*
X196674418Y-100264290D02*
X196674418Y-99692862D01*
X196674418Y-99978576D02*
X195674418Y-99978576D01*
X195817276Y-99883338D01*
X195912514Y-99788100D01*
X195960133Y-99692862D01*
X196674418Y-101216671D02*
X196674418Y-100645243D01*
X196674418Y-100930957D02*
X195674418Y-100930957D01*
X195817276Y-100835719D01*
X195912514Y-100740481D01*
X195960133Y-100645243D01*
X191460380Y-55681714D02*
X190460380Y-55681714D01*
X190460380Y-55919809D01*
X190508000Y-56062666D01*
X190603238Y-56157904D01*
X190698476Y-56205523D01*
X190888952Y-56253142D01*
X191031809Y-56253142D01*
X191222285Y-56205523D01*
X191317523Y-56157904D01*
X191412761Y-56062666D01*
X191460380Y-55919809D01*
X191460380Y-55681714D01*
X191460380Y-57205523D02*
X191460380Y-56634095D01*
X191460380Y-56919809D02*
X190460380Y-56919809D01*
X190603238Y-56824571D01*
X190698476Y-56729333D01*
X190746095Y-56634095D01*
X190460380Y-57824571D02*
X190460380Y-57919809D01*
X190508000Y-58015047D01*
X190555619Y-58062666D01*
X190650857Y-58110285D01*
X190841333Y-58157904D01*
X191079428Y-58157904D01*
X191269904Y-58110285D01*
X191365142Y-58062666D01*
X191412761Y-58015047D01*
X191460380Y-57919809D01*
X191460380Y-57824571D01*
X191412761Y-57729333D01*
X191365142Y-57681714D01*
X191269904Y-57634095D01*
X191079428Y-57586476D01*
X190841333Y-57586476D01*
X190650857Y-57634095D01*
X190555619Y-57681714D01*
X190508000Y-57729333D01*
X190460380Y-57824571D01*
X177624402Y-114694809D02*
X176624402Y-114694809D01*
X176624402Y-114932905D01*
X176672022Y-115075762D01*
X176767260Y-115171000D01*
X176862498Y-115218619D01*
X177052974Y-115266238D01*
X177195831Y-115266238D01*
X177386307Y-115218619D01*
X177481545Y-115171000D01*
X177576783Y-115075762D01*
X177624402Y-114932905D01*
X177624402Y-114694809D01*
X177624402Y-115742428D02*
X177624402Y-115932905D01*
X177576783Y-116028143D01*
X177529164Y-116075762D01*
X177386307Y-116171000D01*
X177195831Y-116218619D01*
X176814879Y-116218619D01*
X176719641Y-116171000D01*
X176672022Y-116123381D01*
X176624402Y-116028143D01*
X176624402Y-115837666D01*
X176672022Y-115742428D01*
X176719641Y-115694809D01*
X176814879Y-115647190D01*
X177052974Y-115647190D01*
X177148212Y-115694809D01*
X177195831Y-115742428D01*
X177243450Y-115837666D01*
X177243450Y-116028143D01*
X177195831Y-116123381D01*
X177148212Y-116171000D01*
X177052974Y-116218619D01*
X154502380Y-96461904D02*
X153502380Y-96461904D01*
X153502380Y-96700000D01*
X153550000Y-96842857D01*
X153645238Y-96938095D01*
X153740476Y-96985714D01*
X153930952Y-97033333D01*
X154073809Y-97033333D01*
X154264285Y-96985714D01*
X154359523Y-96938095D01*
X154454761Y-96842857D01*
X154502380Y-96700000D01*
X154502380Y-96461904D01*
X153930952Y-97604761D02*
X153883333Y-97509523D01*
X153835714Y-97461904D01*
X153740476Y-97414285D01*
X153692857Y-97414285D01*
X153597619Y-97461904D01*
X153550000Y-97509523D01*
X153502380Y-97604761D01*
X153502380Y-97795238D01*
X153550000Y-97890476D01*
X153597619Y-97938095D01*
X153692857Y-97985714D01*
X153740476Y-97985714D01*
X153835714Y-97938095D01*
X153883333Y-97890476D01*
X153930952Y-97795238D01*
X153930952Y-97604761D01*
X153978571Y-97509523D01*
X154026190Y-97461904D01*
X154121428Y-97414285D01*
X154311904Y-97414285D01*
X154407142Y-97461904D01*
X154454761Y-97509523D01*
X154502380Y-97604761D01*
X154502380Y-97795238D01*
X154454761Y-97890476D01*
X154407142Y-97938095D01*
X154311904Y-97985714D01*
X154121428Y-97985714D01*
X154026190Y-97938095D01*
X153978571Y-97890476D01*
X153930952Y-97795238D01*
X165538095Y-87599330D02*
X165538095Y-86599330D01*
X165300000Y-86599330D01*
X165157142Y-86646950D01*
X165061904Y-86742188D01*
X165014285Y-86837426D01*
X164966666Y-87027902D01*
X164966666Y-87170759D01*
X165014285Y-87361235D01*
X165061904Y-87456473D01*
X165157142Y-87551711D01*
X165300000Y-87599330D01*
X165538095Y-87599330D01*
X164633333Y-86599330D02*
X163966666Y-86599330D01*
X164395238Y-87599330D01*
X184303873Y-71658688D02*
X184303873Y-70658688D01*
X184065778Y-70658688D01*
X183922920Y-70706308D01*
X183827682Y-70801546D01*
X183780063Y-70896784D01*
X183732444Y-71087260D01*
X183732444Y-71230117D01*
X183780063Y-71420593D01*
X183827682Y-71515831D01*
X183922920Y-71611069D01*
X184065778Y-71658688D01*
X184303873Y-71658688D01*
X182875301Y-70658688D02*
X183065778Y-70658688D01*
X183161016Y-70706308D01*
X183208635Y-70753927D01*
X183303873Y-70896784D01*
X183351492Y-71087260D01*
X183351492Y-71468212D01*
X183303873Y-71563450D01*
X183256254Y-71611069D01*
X183161016Y-71658688D01*
X182970539Y-71658688D01*
X182875301Y-71611069D01*
X182827682Y-71563450D01*
X182780063Y-71468212D01*
X182780063Y-71230117D01*
X182827682Y-71134879D01*
X182875301Y-71087260D01*
X182970539Y-71039641D01*
X183161016Y-71039641D01*
X183256254Y-71087260D01*
X183303873Y-71134879D01*
X183351492Y-71230117D01*
X176287711Y-137142223D02*
X175287711Y-137142223D01*
X175287711Y-137380319D01*
X175335331Y-137523176D01*
X175430569Y-137618414D01*
X175525807Y-137666033D01*
X175716283Y-137713652D01*
X175859140Y-137713652D01*
X176049616Y-137666033D01*
X176144854Y-137618414D01*
X176240092Y-137523176D01*
X176287711Y-137380319D01*
X176287711Y-137142223D01*
X175287711Y-138618414D02*
X175287711Y-138142223D01*
X175763902Y-138094604D01*
X175716283Y-138142223D01*
X175668664Y-138237461D01*
X175668664Y-138475557D01*
X175716283Y-138570795D01*
X175763902Y-138618414D01*
X175859140Y-138666033D01*
X176097235Y-138666033D01*
X176192473Y-138618414D01*
X176240092Y-138570795D01*
X176287711Y-138475557D01*
X176287711Y-138237461D01*
X176240092Y-138142223D01*
X176192473Y-138094604D01*
X142502380Y-130061904D02*
X141502380Y-130061904D01*
X141502380Y-130300000D01*
X141550000Y-130442857D01*
X141645238Y-130538095D01*
X141740476Y-130585714D01*
X141930952Y-130633333D01*
X142073809Y-130633333D01*
X142264285Y-130585714D01*
X142359523Y-130538095D01*
X142454761Y-130442857D01*
X142502380Y-130300000D01*
X142502380Y-130061904D01*
X141835714Y-131490476D02*
X142502380Y-131490476D01*
X141454761Y-131252380D02*
X142169047Y-131014285D01*
X142169047Y-131633333D01*
X162277292Y-109758720D02*
X162277292Y-108758720D01*
X162039197Y-108758720D01*
X161896339Y-108806340D01*
X161801101Y-108901578D01*
X161753482Y-108996816D01*
X161705863Y-109187292D01*
X161705863Y-109330149D01*
X161753482Y-109520625D01*
X161801101Y-109615863D01*
X161896339Y-109711101D01*
X162039197Y-109758720D01*
X162277292Y-109758720D01*
X161372530Y-108758720D02*
X160753482Y-108758720D01*
X161086816Y-109139673D01*
X160943958Y-109139673D01*
X160848720Y-109187292D01*
X160801101Y-109234911D01*
X160753482Y-109330149D01*
X160753482Y-109568244D01*
X160801101Y-109663482D01*
X160848720Y-109711101D01*
X160943958Y-109758720D01*
X161229673Y-109758720D01*
X161324911Y-109711101D01*
X161372530Y-109663482D01*
X146375719Y-109758720D02*
X146375719Y-108758720D01*
X146137624Y-108758720D01*
X145994766Y-108806340D01*
X145899528Y-108901578D01*
X145851909Y-108996816D01*
X145804290Y-109187292D01*
X145804290Y-109330149D01*
X145851909Y-109520625D01*
X145899528Y-109615863D01*
X145994766Y-109711101D01*
X146137624Y-109758720D01*
X146375719Y-109758720D01*
X145423338Y-108853959D02*
X145375719Y-108806340D01*
X145280481Y-108758720D01*
X145042385Y-108758720D01*
X144947147Y-108806340D01*
X144899528Y-108853959D01*
X144851909Y-108949197D01*
X144851909Y-109044435D01*
X144899528Y-109187292D01*
X145470957Y-109758720D01*
X144851909Y-109758720D01*
X146375719Y-89518078D02*
X146375719Y-88518078D01*
X146137624Y-88518078D01*
X145994766Y-88565698D01*
X145899528Y-88660936D01*
X145851909Y-88756174D01*
X145804290Y-88946650D01*
X145804290Y-89089507D01*
X145851909Y-89279983D01*
X145899528Y-89375221D01*
X145994766Y-89470459D01*
X146137624Y-89518078D01*
X146375719Y-89518078D01*
X144851909Y-89518078D02*
X145423338Y-89518078D01*
X145137624Y-89518078D02*
X145137624Y-88518078D01*
X145232862Y-88660936D01*
X145328100Y-88756174D01*
X145423338Y-88803793D01*
X165443904Y-85852380D02*
X165443904Y-86661904D01*
X165396285Y-86757142D01*
X165348666Y-86804761D01*
X165253428Y-86852380D01*
X165062952Y-86852380D01*
X164967714Y-86804761D01*
X164920095Y-86757142D01*
X164872476Y-86661904D01*
X164872476Y-85852380D01*
X163872476Y-86852380D02*
X164443904Y-86852380D01*
X164158190Y-86852380D02*
X164158190Y-85852380D01*
X164253428Y-85995238D01*
X164348666Y-86090476D01*
X164443904Y-86138095D01*
X171595380Y-77332857D02*
X171328714Y-77332857D01*
X171214428Y-77751904D02*
X171595380Y-77751904D01*
X171595380Y-76951904D01*
X171214428Y-76951904D01*
X170528714Y-76951904D02*
X170681095Y-76951904D01*
X170757285Y-76990000D01*
X170795380Y-77028095D01*
X170871571Y-77142380D01*
X170909666Y-77294761D01*
X170909666Y-77599523D01*
X170871571Y-77675714D01*
X170833476Y-77713809D01*
X170757285Y-77751904D01*
X170604904Y-77751904D01*
X170528714Y-77713809D01*
X170490619Y-77675714D01*
X170452523Y-77599523D01*
X170452523Y-77409047D01*
X170490619Y-77332857D01*
X170528714Y-77294761D01*
X170604904Y-77256666D01*
X170757285Y-77256666D01*
X170833476Y-77294761D01*
X170871571Y-77332857D01*
X170909666Y-77409047D01*
X171633476Y-75211904D02*
X171633476Y-74411904D01*
X171443000Y-74411904D01*
X171328714Y-74450000D01*
X171252523Y-74526190D01*
X171214428Y-74602380D01*
X171176333Y-74754761D01*
X171176333Y-74869047D01*
X171214428Y-75021428D01*
X171252523Y-75097619D01*
X171328714Y-75173809D01*
X171443000Y-75211904D01*
X171633476Y-75211904D01*
X170909666Y-74411904D02*
X170376333Y-74411904D01*
X170719190Y-75211904D01*
X171633476Y-65051904D02*
X171633476Y-64251904D01*
X171443000Y-64251904D01*
X171328714Y-64290000D01*
X171252523Y-64366190D01*
X171214428Y-64442380D01*
X171176333Y-64594761D01*
X171176333Y-64709047D01*
X171214428Y-64861428D01*
X171252523Y-64937619D01*
X171328714Y-65013809D01*
X171443000Y-65051904D01*
X171633476Y-65051904D01*
X170414428Y-65051904D02*
X170871571Y-65051904D01*
X170643000Y-65051904D02*
X170643000Y-64251904D01*
X170719190Y-64366190D01*
X170795380Y-64442380D01*
X170871571Y-64480476D01*
X160444809Y-79872857D02*
X160330523Y-79910952D01*
X160292428Y-79949047D01*
X160254333Y-80025238D01*
X160254333Y-80139523D01*
X160292428Y-80215714D01*
X160330523Y-80253809D01*
X160406714Y-80291904D01*
X160711476Y-80291904D01*
X160711476Y-79491904D01*
X160444809Y-79491904D01*
X160368619Y-79530000D01*
X160330523Y-79568095D01*
X160292428Y-79644285D01*
X160292428Y-79720476D01*
X160330523Y-79796666D01*
X160368619Y-79834761D01*
X160444809Y-79872857D01*
X160711476Y-79872857D01*
X159949571Y-79568095D02*
X159911476Y-79530000D01*
X159835285Y-79491904D01*
X159644809Y-79491904D01*
X159568619Y-79530000D01*
X159530523Y-79568095D01*
X159492428Y-79644285D01*
X159492428Y-79720476D01*
X159530523Y-79834761D01*
X159987666Y-80291904D01*
X159492428Y-80291904D01*
X160387666Y-67172857D02*
X160654333Y-67172857D01*
X160654333Y-67591904D02*
X160654333Y-66791904D01*
X160273380Y-66791904D01*
X159587666Y-66791904D02*
X159968619Y-66791904D01*
X160006714Y-67172857D01*
X159968619Y-67134761D01*
X159892428Y-67096666D01*
X159701952Y-67096666D01*
X159625761Y-67134761D01*
X159587666Y-67172857D01*
X159549571Y-67249047D01*
X159549571Y-67439523D01*
X159587666Y-67515714D01*
X159625761Y-67553809D01*
X159701952Y-67591904D01*
X159892428Y-67591904D01*
X159968619Y-67553809D01*
X160006714Y-67515714D01*
X160730523Y-56670000D02*
X160806714Y-56631904D01*
X160921000Y-56631904D01*
X161035285Y-56670000D01*
X161111476Y-56746190D01*
X161149571Y-56822380D01*
X161187666Y-56974761D01*
X161187666Y-57089047D01*
X161149571Y-57241428D01*
X161111476Y-57317619D01*
X161035285Y-57393809D01*
X160921000Y-57431904D01*
X160844809Y-57431904D01*
X160730523Y-57393809D01*
X160692428Y-57355714D01*
X160692428Y-57089047D01*
X160844809Y-57089047D01*
X160349571Y-57431904D02*
X160349571Y-56631904D01*
X159892428Y-57431904D01*
X159892428Y-56631904D01*
X159511476Y-57431904D02*
X159511476Y-56631904D01*
X159321000Y-56631904D01*
X159206714Y-56670000D01*
X159130523Y-56746190D01*
X159092428Y-56822380D01*
X159054333Y-56974761D01*
X159054333Y-57089047D01*
X159092428Y-57241428D01*
X159130523Y-57317619D01*
X159206714Y-57393809D01*
X159321000Y-57431904D01*
X159511476Y-57431904D01*
X160444809Y-74792857D02*
X160330523Y-74830952D01*
X160292428Y-74869047D01*
X160254333Y-74945238D01*
X160254333Y-75059523D01*
X160292428Y-75135714D01*
X160330523Y-75173809D01*
X160406714Y-75211904D01*
X160711476Y-75211904D01*
X160711476Y-74411904D01*
X160444809Y-74411904D01*
X160368619Y-74450000D01*
X160330523Y-74488095D01*
X160292428Y-74564285D01*
X160292428Y-74640476D01*
X160330523Y-74716666D01*
X160368619Y-74754761D01*
X160444809Y-74792857D01*
X160711476Y-74792857D01*
X159492428Y-75211904D02*
X159949571Y-75211904D01*
X159721000Y-75211904D02*
X159721000Y-74411904D01*
X159797190Y-74526190D01*
X159873380Y-74602380D01*
X159949571Y-74640476D01*
X160444809Y-77332857D02*
X160330523Y-77370952D01*
X160292428Y-77409047D01*
X160254333Y-77485238D01*
X160254333Y-77599523D01*
X160292428Y-77675714D01*
X160330523Y-77713809D01*
X160406714Y-77751904D01*
X160711476Y-77751904D01*
X160711476Y-76951904D01*
X160444809Y-76951904D01*
X160368619Y-76990000D01*
X160330523Y-77028095D01*
X160292428Y-77104285D01*
X160292428Y-77180476D01*
X160330523Y-77256666D01*
X160368619Y-77294761D01*
X160444809Y-77332857D01*
X160711476Y-77332857D01*
X159987666Y-76951904D02*
X159492428Y-76951904D01*
X159759095Y-77256666D01*
X159644809Y-77256666D01*
X159568619Y-77294761D01*
X159530523Y-77332857D01*
X159492428Y-77409047D01*
X159492428Y-77599523D01*
X159530523Y-77675714D01*
X159568619Y-77713809D01*
X159644809Y-77751904D01*
X159873380Y-77751904D01*
X159949571Y-77713809D01*
X159987666Y-77675714D01*
X171366809Y-79872857D02*
X171252523Y-79910952D01*
X171214428Y-79949047D01*
X171176333Y-80025238D01*
X171176333Y-80139523D01*
X171214428Y-80215714D01*
X171252523Y-80253809D01*
X171328714Y-80291904D01*
X171633476Y-80291904D01*
X171633476Y-79491904D01*
X171366809Y-79491904D01*
X171290619Y-79530000D01*
X171252523Y-79568095D01*
X171214428Y-79644285D01*
X171214428Y-79720476D01*
X171252523Y-79796666D01*
X171290619Y-79834761D01*
X171366809Y-79872857D01*
X171633476Y-79872857D01*
X170490619Y-79758571D02*
X170490619Y-80291904D01*
X170681095Y-79453809D02*
X170871571Y-80025238D01*
X170376333Y-80025238D01*
X171652523Y-59210000D02*
X171728714Y-59171904D01*
X171843000Y-59171904D01*
X171957285Y-59210000D01*
X172033476Y-59286190D01*
X172071571Y-59362380D01*
X172109666Y-59514761D01*
X172109666Y-59629047D01*
X172071571Y-59781428D01*
X172033476Y-59857619D01*
X171957285Y-59933809D01*
X171843000Y-59971904D01*
X171766809Y-59971904D01*
X171652523Y-59933809D01*
X171614428Y-59895714D01*
X171614428Y-59629047D01*
X171766809Y-59629047D01*
X171271571Y-59971904D02*
X171271571Y-59171904D01*
X170814428Y-59971904D01*
X170814428Y-59171904D01*
X170433476Y-59971904D02*
X170433476Y-59171904D01*
X170243000Y-59171904D01*
X170128714Y-59210000D01*
X170052523Y-59286190D01*
X170014428Y-59362380D01*
X169976333Y-59514761D01*
X169976333Y-59629047D01*
X170014428Y-59781428D01*
X170052523Y-59857619D01*
X170128714Y-59933809D01*
X170243000Y-59971904D01*
X170433476Y-59971904D01*
X160387666Y-72252857D02*
X160654333Y-72252857D01*
X160654333Y-72671904D02*
X160654333Y-71871904D01*
X160273380Y-71871904D01*
X160044809Y-71871904D02*
X159511476Y-71871904D01*
X159854333Y-72671904D01*
X160673380Y-54891904D02*
X160940047Y-54510952D01*
X161130523Y-54891904D02*
X161130523Y-54091904D01*
X160825761Y-54091904D01*
X160749571Y-54130000D01*
X160711476Y-54168095D01*
X160673380Y-54244285D01*
X160673380Y-54358571D01*
X160711476Y-54434761D01*
X160749571Y-54472857D01*
X160825761Y-54510952D01*
X161130523Y-54510952D01*
X160368619Y-54663333D02*
X159987666Y-54663333D01*
X160444809Y-54891904D02*
X160178142Y-54091904D01*
X159911476Y-54891904D01*
X159721000Y-54091904D02*
X159530523Y-54891904D01*
X159378142Y-54320476D01*
X159225761Y-54891904D01*
X159035285Y-54091904D01*
X160444809Y-82412857D02*
X160330523Y-82450952D01*
X160292428Y-82489047D01*
X160254333Y-82565238D01*
X160254333Y-82679523D01*
X160292428Y-82755714D01*
X160330523Y-82793809D01*
X160406714Y-82831904D01*
X160711476Y-82831904D01*
X160711476Y-82031904D01*
X160444809Y-82031904D01*
X160368619Y-82070000D01*
X160330523Y-82108095D01*
X160292428Y-82184285D01*
X160292428Y-82260476D01*
X160330523Y-82336666D01*
X160368619Y-82374761D01*
X160444809Y-82412857D01*
X160711476Y-82412857D01*
X159568619Y-82031904D02*
X159721000Y-82031904D01*
X159797190Y-82070000D01*
X159835285Y-82108095D01*
X159911476Y-82222380D01*
X159949571Y-82374761D01*
X159949571Y-82679523D01*
X159911476Y-82755714D01*
X159873380Y-82793809D01*
X159797190Y-82831904D01*
X159644809Y-82831904D01*
X159568619Y-82793809D01*
X159530523Y-82755714D01*
X159492428Y-82679523D01*
X159492428Y-82489047D01*
X159530523Y-82412857D01*
X159568619Y-82374761D01*
X159644809Y-82336666D01*
X159797190Y-82336666D01*
X159873380Y-82374761D01*
X159911476Y-82412857D01*
X159949571Y-82489047D01*
X171366809Y-82412857D02*
X171252523Y-82450952D01*
X171214428Y-82489047D01*
X171176333Y-82565238D01*
X171176333Y-82679523D01*
X171214428Y-82755714D01*
X171252523Y-82793809D01*
X171328714Y-82831904D01*
X171633476Y-82831904D01*
X171633476Y-82031904D01*
X171366809Y-82031904D01*
X171290619Y-82070000D01*
X171252523Y-82108095D01*
X171214428Y-82184285D01*
X171214428Y-82260476D01*
X171252523Y-82336666D01*
X171290619Y-82374761D01*
X171366809Y-82412857D01*
X171633476Y-82412857D01*
X170452523Y-82031904D02*
X170833476Y-82031904D01*
X170871571Y-82412857D01*
X170833476Y-82374761D01*
X170757285Y-82336666D01*
X170566809Y-82336666D01*
X170490619Y-82374761D01*
X170452523Y-82412857D01*
X170414428Y-82489047D01*
X170414428Y-82679523D01*
X170452523Y-82755714D01*
X170490619Y-82793809D01*
X170566809Y-82831904D01*
X170757285Y-82831904D01*
X170833476Y-82793809D01*
X170871571Y-82755714D01*
X171652523Y-61750000D02*
X171728714Y-61711904D01*
X171843000Y-61711904D01*
X171957285Y-61750000D01*
X172033476Y-61826190D01*
X172071571Y-61902380D01*
X172109666Y-62054761D01*
X172109666Y-62169047D01*
X172071571Y-62321428D01*
X172033476Y-62397619D01*
X171957285Y-62473809D01*
X171843000Y-62511904D01*
X171766809Y-62511904D01*
X171652523Y-62473809D01*
X171614428Y-62435714D01*
X171614428Y-62169047D01*
X171766809Y-62169047D01*
X171271571Y-62511904D02*
X171271571Y-61711904D01*
X170814428Y-62511904D01*
X170814428Y-61711904D01*
X170433476Y-62511904D02*
X170433476Y-61711904D01*
X170243000Y-61711904D01*
X170128714Y-61750000D01*
X170052523Y-61826190D01*
X170014428Y-61902380D01*
X169976333Y-62054761D01*
X169976333Y-62169047D01*
X170014428Y-62321428D01*
X170052523Y-62397619D01*
X170128714Y-62473809D01*
X170243000Y-62511904D01*
X170433476Y-62511904D01*
X161187666Y-61711904D02*
X160921000Y-62511904D01*
X160654333Y-61711904D01*
X159930523Y-62435714D02*
X159968619Y-62473809D01*
X160082904Y-62511904D01*
X160159095Y-62511904D01*
X160273380Y-62473809D01*
X160349571Y-62397619D01*
X160387666Y-62321428D01*
X160425761Y-62169047D01*
X160425761Y-62054761D01*
X160387666Y-61902380D01*
X160349571Y-61826190D01*
X160273380Y-61750000D01*
X160159095Y-61711904D01*
X160082904Y-61711904D01*
X159968619Y-61750000D01*
X159930523Y-61788095D01*
X159130523Y-62435714D02*
X159168619Y-62473809D01*
X159282904Y-62511904D01*
X159359095Y-62511904D01*
X159473380Y-62473809D01*
X159549571Y-62397619D01*
X159587666Y-62321428D01*
X159625761Y-62169047D01*
X159625761Y-62054761D01*
X159587666Y-61902380D01*
X159549571Y-61826190D01*
X159473380Y-61750000D01*
X159359095Y-61711904D01*
X159282904Y-61711904D01*
X159168619Y-61750000D01*
X159130523Y-61788095D01*
X160387666Y-64632857D02*
X160654333Y-64632857D01*
X160654333Y-65051904D02*
X160654333Y-64251904D01*
X160273380Y-64251904D01*
X159625761Y-64518571D02*
X159625761Y-65051904D01*
X159816238Y-64213809D02*
X160006714Y-64785238D01*
X159511476Y-64785238D01*
X171176333Y-72595714D02*
X171214428Y-72633809D01*
X171328714Y-72671904D01*
X171404904Y-72671904D01*
X171519190Y-72633809D01*
X171595380Y-72557619D01*
X171633476Y-72481428D01*
X171671571Y-72329047D01*
X171671571Y-72214761D01*
X171633476Y-72062380D01*
X171595380Y-71986190D01*
X171519190Y-71910000D01*
X171404904Y-71871904D01*
X171328714Y-71871904D01*
X171214428Y-71910000D01*
X171176333Y-71948095D01*
X170490619Y-71871904D02*
X170643000Y-71871904D01*
X170719190Y-71910000D01*
X170757285Y-71948095D01*
X170833476Y-72062380D01*
X170871571Y-72214761D01*
X170871571Y-72519523D01*
X170833476Y-72595714D01*
X170795380Y-72633809D01*
X170719190Y-72671904D01*
X170566809Y-72671904D01*
X170490619Y-72633809D01*
X170452523Y-72595714D01*
X170414428Y-72519523D01*
X170414428Y-72329047D01*
X170452523Y-72252857D01*
X170490619Y-72214761D01*
X170566809Y-72176666D01*
X170719190Y-72176666D01*
X170795380Y-72214761D01*
X170833476Y-72252857D01*
X170871571Y-72329047D01*
X160382213Y-59903809D02*
X160267927Y-59941904D01*
X160077451Y-59941904D01*
X160001260Y-59903809D01*
X159963165Y-59865714D01*
X159925070Y-59789523D01*
X159925070Y-59713333D01*
X159963165Y-59637142D01*
X160001260Y-59599047D01*
X160077451Y-59560952D01*
X160229832Y-59522857D01*
X160306022Y-59484761D01*
X160344118Y-59446666D01*
X160382213Y-59370476D01*
X160382213Y-59294285D01*
X160344118Y-59218095D01*
X160306022Y-59180000D01*
X160229832Y-59141904D01*
X160039356Y-59141904D01*
X159925070Y-59180000D01*
X159696499Y-59141904D02*
X159239356Y-59141904D01*
X159467927Y-59941904D02*
X159467927Y-59141904D01*
X160387666Y-69712857D02*
X160654333Y-69712857D01*
X160654333Y-70131904D02*
X160654333Y-69331904D01*
X160273380Y-69331904D01*
X159625761Y-69331904D02*
X159778142Y-69331904D01*
X159854333Y-69370000D01*
X159892428Y-69408095D01*
X159968619Y-69522380D01*
X160006714Y-69674761D01*
X160006714Y-69979523D01*
X159968619Y-70055714D01*
X159930523Y-70093809D01*
X159854333Y-70131904D01*
X159701952Y-70131904D01*
X159625761Y-70093809D01*
X159587666Y-70055714D01*
X159549571Y-69979523D01*
X159549571Y-69789047D01*
X159587666Y-69712857D01*
X159625761Y-69674761D01*
X159701952Y-69636666D01*
X159854333Y-69636666D01*
X159930523Y-69674761D01*
X159968619Y-69712857D01*
X160006714Y-69789047D01*
X171344348Y-54091904D02*
X170887205Y-54091904D01*
X171115776Y-54891904D02*
X171115776Y-54091904D01*
X170696729Y-54091904D02*
X170163395Y-54891904D01*
X170163395Y-54091904D02*
X170696729Y-54891904D01*
X169706252Y-54091904D02*
X169630062Y-54091904D01*
X169553872Y-54130000D01*
X169515776Y-54168095D01*
X169477681Y-54244285D01*
X169439586Y-54396666D01*
X169439586Y-54587142D01*
X169477681Y-54739523D01*
X169515776Y-54815714D01*
X169553872Y-54853809D01*
X169630062Y-54891904D01*
X169706252Y-54891904D01*
X169782443Y-54853809D01*
X169820538Y-54815714D01*
X169858633Y-54739523D01*
X169896729Y-54587142D01*
X169896729Y-54396666D01*
X169858633Y-54244285D01*
X169820538Y-54168095D01*
X169782443Y-54130000D01*
X169706252Y-54091904D01*
X168525300Y-54053809D02*
X169211014Y-55082380D01*
X168258633Y-54891904D02*
X168258633Y-54091904D01*
X168068157Y-54091904D01*
X167953872Y-54130000D01*
X167877681Y-54206190D01*
X167839586Y-54282380D01*
X167801491Y-54434761D01*
X167801491Y-54549047D01*
X167839586Y-54701428D01*
X167877681Y-54777619D01*
X167953872Y-54853809D01*
X168068157Y-54891904D01*
X168258633Y-54891904D01*
X167534824Y-54091904D02*
X167039586Y-54091904D01*
X167306252Y-54396666D01*
X167191967Y-54396666D01*
X167115776Y-54434761D01*
X167077681Y-54472857D01*
X167039586Y-54549047D01*
X167039586Y-54739523D01*
X167077681Y-54815714D01*
X167115776Y-54853809D01*
X167191967Y-54891904D01*
X167420538Y-54891904D01*
X167496729Y-54853809D01*
X167534824Y-54815714D01*
X171633476Y-67591904D02*
X171633476Y-66791904D01*
X171443000Y-66791904D01*
X171328714Y-66830000D01*
X171252523Y-66906190D01*
X171214428Y-66982380D01*
X171176333Y-67134761D01*
X171176333Y-67249047D01*
X171214428Y-67401428D01*
X171252523Y-67477619D01*
X171328714Y-67553809D01*
X171443000Y-67591904D01*
X171633476Y-67591904D01*
X170681095Y-66791904D02*
X170604904Y-66791904D01*
X170528714Y-66830000D01*
X170490619Y-66868095D01*
X170452523Y-66944285D01*
X170414428Y-67096666D01*
X170414428Y-67287142D01*
X170452523Y-67439523D01*
X170490619Y-67515714D01*
X170528714Y-67553809D01*
X170604904Y-67591904D01*
X170681095Y-67591904D01*
X170757285Y-67553809D01*
X170795380Y-67515714D01*
X170833476Y-67439523D01*
X170871571Y-67287142D01*
X170871571Y-67096666D01*
X170833476Y-66944285D01*
X170795380Y-66868095D01*
X170757285Y-66830000D01*
X170681095Y-66791904D01*
X171633476Y-57431904D02*
X171633476Y-56631904D01*
X171443000Y-56631904D01*
X171328714Y-56670000D01*
X171252523Y-56746190D01*
X171214428Y-56822380D01*
X171176333Y-56974761D01*
X171176333Y-57089047D01*
X171214428Y-57241428D01*
X171252523Y-57317619D01*
X171328714Y-57393809D01*
X171443000Y-57431904D01*
X171633476Y-57431904D01*
X170871571Y-56708095D02*
X170833476Y-56670000D01*
X170757285Y-56631904D01*
X170566809Y-56631904D01*
X170490619Y-56670000D01*
X170452523Y-56708095D01*
X170414428Y-56784285D01*
X170414428Y-56860476D01*
X170452523Y-56974761D01*
X170909666Y-57431904D01*
X170414428Y-57431904D01*
X171633476Y-70131904D02*
X171633476Y-69331904D01*
X171443000Y-69331904D01*
X171328714Y-69370000D01*
X171252523Y-69446190D01*
X171214428Y-69522380D01*
X171176333Y-69674761D01*
X171176333Y-69789047D01*
X171214428Y-69941428D01*
X171252523Y-70017619D01*
X171328714Y-70093809D01*
X171443000Y-70131904D01*
X171633476Y-70131904D01*
X170490619Y-69598571D02*
X170490619Y-70131904D01*
X170681095Y-69293809D02*
X170871571Y-69865238D01*
X170376333Y-69865238D01*
X144490333Y-72079761D02*
X144347476Y-72127380D01*
X144109380Y-72127380D01*
X144014142Y-72079761D01*
X143966523Y-72032142D01*
X143918904Y-71936904D01*
X143918904Y-71841666D01*
X143966523Y-71746428D01*
X144014142Y-71698809D01*
X144109380Y-71651190D01*
X144299857Y-71603571D01*
X144395095Y-71555952D01*
X144442714Y-71508333D01*
X144490333Y-71413095D01*
X144490333Y-71317857D01*
X144442714Y-71222619D01*
X144395095Y-71175000D01*
X144299857Y-71127380D01*
X144061761Y-71127380D01*
X143918904Y-71175000D01*
X143585571Y-71127380D02*
X143347476Y-72127380D01*
X143157000Y-71413095D01*
X142966523Y-72127380D01*
X142728428Y-71127380D01*
X142395095Y-71222619D02*
X142347476Y-71175000D01*
X142252238Y-71127380D01*
X142014142Y-71127380D01*
X141918904Y-71175000D01*
X141871285Y-71222619D01*
X141823666Y-71317857D01*
X141823666Y-71413095D01*
X141871285Y-71555952D01*
X142442714Y-72127380D01*
X141823666Y-72127380D01*
X114970095Y-65202380D02*
X114970095Y-64202380D01*
X114970095Y-64678571D02*
X114398666Y-64678571D01*
X114398666Y-65202380D02*
X114398666Y-64202380D01*
X113398666Y-65202380D02*
X113970095Y-65202380D01*
X113684380Y-65202380D02*
X113684380Y-64202380D01*
X113779619Y-64345238D01*
X113874857Y-64440476D01*
X113970095Y-64488095D01*
X112779619Y-64202380D02*
X112684380Y-64202380D01*
X112589142Y-64250000D01*
X112541523Y-64297619D01*
X112493904Y-64392857D01*
X112446285Y-64583333D01*
X112446285Y-64821428D01*
X112493904Y-65011904D01*
X112541523Y-65107142D01*
X112589142Y-65154761D01*
X112684380Y-65202380D01*
X112779619Y-65202380D01*
X112874857Y-65154761D01*
X112922476Y-65107142D01*
X112970095Y-65011904D01*
X113017714Y-64821428D01*
X113017714Y-64583333D01*
X112970095Y-64392857D01*
X112922476Y-64297619D01*
X112874857Y-64250000D01*
X112779619Y-64202380D01*
X112993904Y-122452380D02*
X112993904Y-121452380D01*
X112993904Y-121928571D02*
X112422476Y-121928571D01*
X112422476Y-122452380D02*
X112422476Y-121452380D01*
X111898666Y-122452380D02*
X111708190Y-122452380D01*
X111612952Y-122404761D01*
X111565333Y-122357142D01*
X111470095Y-122214285D01*
X111422476Y-122023809D01*
X111422476Y-121642857D01*
X111470095Y-121547619D01*
X111517714Y-121500000D01*
X111612952Y-121452380D01*
X111803428Y-121452380D01*
X111898666Y-121500000D01*
X111946285Y-121547619D01*
X111993904Y-121642857D01*
X111993904Y-121880952D01*
X111946285Y-121976190D01*
X111898666Y-122023809D01*
X111803428Y-122071428D01*
X111612952Y-122071428D01*
X111517714Y-122023809D01*
X111470095Y-121976190D01*
X111422476Y-121880952D01*
X104243904Y-94702380D02*
X104243904Y-93702380D01*
X104243904Y-94178571D02*
X103672476Y-94178571D01*
X103672476Y-94702380D02*
X103672476Y-93702380D01*
X103053428Y-94130952D02*
X103148666Y-94083333D01*
X103196285Y-94035714D01*
X103243904Y-93940476D01*
X103243904Y-93892857D01*
X103196285Y-93797619D01*
X103148666Y-93750000D01*
X103053428Y-93702380D01*
X102862952Y-93702380D01*
X102767714Y-93750000D01*
X102720095Y-93797619D01*
X102672476Y-93892857D01*
X102672476Y-93940476D01*
X102720095Y-94035714D01*
X102767714Y-94083333D01*
X102862952Y-94130952D01*
X103053428Y-94130952D01*
X103148666Y-94178571D01*
X103196285Y-94226190D01*
X103243904Y-94321428D01*
X103243904Y-94511904D01*
X103196285Y-94607142D01*
X103148666Y-94654761D01*
X103053428Y-94702380D01*
X102862952Y-94702380D01*
X102767714Y-94654761D01*
X102720095Y-94607142D01*
X102672476Y-94511904D01*
X102672476Y-94321428D01*
X102720095Y-94226190D01*
X102767714Y-94178571D01*
X102862952Y-94130952D01*
X76993904Y-117702380D02*
X76993904Y-116702380D01*
X76993904Y-117178571D02*
X76422476Y-117178571D01*
X76422476Y-117702380D02*
X76422476Y-116702380D01*
X76041523Y-116702380D02*
X75374857Y-116702380D01*
X75803428Y-117702380D01*
X74743904Y-65702380D02*
X74743904Y-64702380D01*
X74743904Y-65178571D02*
X74172476Y-65178571D01*
X74172476Y-65702380D02*
X74172476Y-64702380D01*
X73267714Y-64702380D02*
X73458190Y-64702380D01*
X73553428Y-64750000D01*
X73601047Y-64797619D01*
X73696285Y-64940476D01*
X73743904Y-65130952D01*
X73743904Y-65511904D01*
X73696285Y-65607142D01*
X73648666Y-65654761D01*
X73553428Y-65702380D01*
X73362952Y-65702380D01*
X73267714Y-65654761D01*
X73220095Y-65607142D01*
X73172476Y-65511904D01*
X73172476Y-65273809D01*
X73220095Y-65178571D01*
X73267714Y-65130952D01*
X73362952Y-65083333D01*
X73553428Y-65083333D01*
X73648666Y-65130952D01*
X73696285Y-65178571D01*
X73743904Y-65273809D01*
X150732185Y-64805646D02*
X150732185Y-63805646D01*
X150732185Y-64281837D02*
X150160757Y-64281837D01*
X150160757Y-64805646D02*
X150160757Y-63805646D01*
X149208376Y-63805646D02*
X149684566Y-63805646D01*
X149732185Y-64281837D01*
X149684566Y-64234218D01*
X149589328Y-64186599D01*
X149351233Y-64186599D01*
X149255995Y-64234218D01*
X149208376Y-64281837D01*
X149160757Y-64377075D01*
X149160757Y-64615170D01*
X149208376Y-64710408D01*
X149255995Y-64758027D01*
X149351233Y-64805646D01*
X149589328Y-64805646D01*
X149684566Y-64758027D01*
X149732185Y-64710408D01*
X188911466Y-121912143D02*
X188911466Y-120912143D01*
X188911466Y-121388334D02*
X188340038Y-121388334D01*
X188340038Y-121912143D02*
X188340038Y-120912143D01*
X187435276Y-121245477D02*
X187435276Y-121912143D01*
X187673371Y-120864524D02*
X187911466Y-121578810D01*
X187292419Y-121578810D01*
X175884902Y-93334552D02*
X175884902Y-92334552D01*
X175884902Y-92810743D02*
X175313474Y-92810743D01*
X175313474Y-93334552D02*
X175313474Y-92334552D01*
X174932521Y-92334552D02*
X174313474Y-92334552D01*
X174646807Y-92715505D01*
X174503950Y-92715505D01*
X174408712Y-92763124D01*
X174361093Y-92810743D01*
X174313474Y-92905981D01*
X174313474Y-93144076D01*
X174361093Y-93239314D01*
X174408712Y-93286933D01*
X174503950Y-93334552D01*
X174789664Y-93334552D01*
X174884902Y-93286933D01*
X174932521Y-93239314D01*
X194934918Y-64759528D02*
X194934918Y-63759528D01*
X194934918Y-64235719D02*
X194363490Y-64235719D01*
X194363490Y-64759528D02*
X194363490Y-63759528D01*
X193934918Y-63854767D02*
X193887299Y-63807148D01*
X193792061Y-63759528D01*
X193553966Y-63759528D01*
X193458728Y-63807148D01*
X193411109Y-63854767D01*
X193363490Y-63950005D01*
X193363490Y-64045243D01*
X193411109Y-64188100D01*
X193982537Y-64759528D01*
X193363490Y-64759528D01*
X156834886Y-115956446D02*
X156834886Y-114956446D01*
X156834886Y-115432637D02*
X156263458Y-115432637D01*
X156263458Y-115956446D02*
X156263458Y-114956446D01*
X155263458Y-115956446D02*
X155834886Y-115956446D01*
X155549172Y-115956446D02*
X155549172Y-114956446D01*
X155644410Y-115099304D01*
X155739648Y-115194542D01*
X155834886Y-115242161D01*
X190040666Y-62441142D02*
X190088285Y-62488761D01*
X190231142Y-62536380D01*
X190326380Y-62536380D01*
X190469238Y-62488761D01*
X190564476Y-62393523D01*
X190612095Y-62298285D01*
X190659714Y-62107809D01*
X190659714Y-61964952D01*
X190612095Y-61774476D01*
X190564476Y-61679238D01*
X190469238Y-61584000D01*
X190326380Y-61536380D01*
X190231142Y-61536380D01*
X190088285Y-61584000D01*
X190040666Y-61631619D01*
X189659714Y-61631619D02*
X189612095Y-61584000D01*
X189516857Y-61536380D01*
X189278761Y-61536380D01*
X189183523Y-61584000D01*
X189135904Y-61631619D01*
X189088285Y-61726857D01*
X189088285Y-61822095D01*
X189135904Y-61964952D01*
X189707333Y-62536380D01*
X189088285Y-62536380D01*
X187376123Y-62341142D02*
X187423742Y-62388761D01*
X187566599Y-62436380D01*
X187661837Y-62436380D01*
X187804695Y-62388761D01*
X187899933Y-62293523D01*
X187947552Y-62198285D01*
X187995171Y-62007809D01*
X187995171Y-61864952D01*
X187947552Y-61674476D01*
X187899933Y-61579238D01*
X187804695Y-61484000D01*
X187661837Y-61436380D01*
X187566599Y-61436380D01*
X187423742Y-61484000D01*
X187376123Y-61531619D01*
X186423742Y-62436380D02*
X186995171Y-62436380D01*
X186709457Y-62436380D02*
X186709457Y-61436380D01*
X186804695Y-61579238D01*
X186899933Y-61674476D01*
X186995171Y-61722095D01*
X200333333Y-67004761D02*
X200190476Y-67052380D01*
X199952380Y-67052380D01*
X199857142Y-67004761D01*
X199809523Y-66957142D01*
X199761904Y-66861904D01*
X199761904Y-66766666D01*
X199809523Y-66671428D01*
X199857142Y-66623809D01*
X199952380Y-66576190D01*
X200142857Y-66528571D01*
X200238095Y-66480952D01*
X200285714Y-66433333D01*
X200333333Y-66338095D01*
X200333333Y-66242857D01*
X200285714Y-66147619D01*
X200238095Y-66100000D01*
X200142857Y-66052380D01*
X199904761Y-66052380D01*
X199761904Y-66100000D01*
X199428571Y-66052380D02*
X199190476Y-67052380D01*
X199000000Y-66338095D01*
X198809523Y-67052380D01*
X198571428Y-66052380D01*
X197666666Y-67052380D02*
X198238095Y-67052380D01*
X197952380Y-67052380D02*
X197952380Y-66052380D01*
X198047619Y-66195238D01*
X198142857Y-66290476D01*
X198238095Y-66338095D01*
X140852534Y-63681402D02*
X140376344Y-63348069D01*
X140852534Y-63109973D02*
X139852534Y-63109973D01*
X139852534Y-63490926D01*
X139900154Y-63586164D01*
X139947773Y-63633783D01*
X140043011Y-63681402D01*
X140185868Y-63681402D01*
X140281106Y-63633783D01*
X140328725Y-63586164D01*
X140376344Y-63490926D01*
X140376344Y-63109973D01*
X140852534Y-64633783D02*
X140852534Y-64062354D01*
X140852534Y-64348069D02*
X139852534Y-64348069D01*
X139995392Y-64252830D01*
X140090630Y-64157592D01*
X140138249Y-64062354D01*
M02*
