M48
; DRILL file {KiCad (5.1.7)-1} date 12/29/20 23:42:54
; FORMAT={-:-/ absolute / inch / decimal}
; #@! TF.CreationDate,2020-12-29T23:42:54-08:00
; #@! TF.GenerationSoftware,Kicad,Pcbnew,(5.1.7)-1
; #@! TF.FileFunction,NonPlated,1,2,NPTH
FMAT,2
INCH
T1C0.0689
T2C0.1200
T3C0.1457
T4C0.1570
%
G90
G05
T1
X5.1416Y-2.7886
X5.5416Y-2.7886
X5.8916Y-5.0386
X6.2916Y-5.0386
X6.6416Y-2.0386
X7.0416Y-2.0386
X4.7666Y-5.0386
X5.1666Y-5.0386
X5.1416Y-2.0386
X5.5416Y-2.0386
X5.1416Y-3.5386
X5.5416Y-3.5386
X4.3916Y-2.0386
X4.7916Y-2.0386
X4.3916Y-4.2886
X4.7916Y-4.2886
X5.8916Y-3.5386
X6.2916Y-3.5386
X5.1416Y-4.2886
X5.5416Y-4.2886
X6.8416Y-4.4636
X6.8416Y-4.8636
X6.6416Y-2.7886
X7.0416Y-2.7886
X6.6416Y-3.5386
X7.0416Y-3.5386
X5.8916Y-4.2886
X6.2916Y-4.2886
X4.3916Y-2.7886
X4.7916Y-2.7886
X5.8916Y-2.0386
X6.2916Y-2.0386
X4.3916Y-3.5386
X4.7916Y-3.5386
X5.8916Y-2.7886
X6.2916Y-2.7886
T2
X4.4979Y-5.3136
X5.4354Y-5.3136
X7.1166Y-4.1948
X7.1166Y-5.1323
T3
X6.8416Y-2.4136
X4.5916Y-3.9136
X6.8416Y-3.9136
X4.5916Y-2.4136
X5.7176Y-4.8397
T4
X6.0916Y-3.5386
X5.3416Y-4.2886
X6.5166Y-4.1948
X6.5166Y-5.1323
X6.8416Y-4.6636
X6.8416Y-2.7886
X6.8416Y-3.5386
X6.0916Y-4.2886
X4.5916Y-2.7886
X6.0916Y-2.0386
X4.5916Y-3.5386
X6.0916Y-2.7886
X5.3416Y-2.7886
X6.0916Y-5.0386
X6.8416Y-2.0386
X4.4979Y-4.7136
X4.9666Y-5.0386
X5.4354Y-4.7136
X5.3416Y-2.0386
X5.3416Y-3.5386
X4.5916Y-2.0386
X4.5916Y-4.2886
T0
M30
