G04 #@! TF.GenerationSoftware,KiCad,Pcbnew,(5.1.7)-1*
G04 #@! TF.CreationDate,2020-12-29T23:42:53-08:00*
G04 #@! TF.ProjectId,dropout,64726f70-6f75-4742-9e6b-696361645f70,rev?*
G04 #@! TF.SameCoordinates,Original*
G04 #@! TF.FileFunction,Soldermask,Top*
G04 #@! TF.FilePolarity,Negative*
%FSLAX46Y46*%
G04 Gerber Fmt 4.6, Leading zero omitted, Abs format (unit mm)*
G04 Created by KiCad (PCBNEW (5.1.7)-1) date 2020-12-29 23:42:53*
%MOMM*%
%LPD*%
G01*
G04 APERTURE LIST*
%ADD10C,3.700000*%
%ADD11C,1.752600*%
%ADD12R,1.752600X1.752600*%
%ADD13R,2.000000X2.000000*%
%ADD14C,2.000000*%
%ADD15R,3.200000X2.000000*%
%ADD16C,3.987800*%
%ADD17C,1.750000*%
%ADD18C,3.048000*%
%ADD19C,1.998980*%
%ADD20R,1.998980X1.998980*%
G04 APERTURE END LIST*
D10*
X116627231Y-99404735D03*
X173777032Y-61304735D03*
X116627232Y-61304735D03*
X173777032Y-99404735D03*
X145227507Y-122929235D03*
D11*
X145827169Y-80784236D03*
X145827169Y-60464236D03*
X125587169Y-73164236D03*
X125587169Y-78244236D03*
X125587169Y-75704236D03*
X125587169Y-52844236D03*
X145827169Y-70624236D03*
X125587169Y-63004236D03*
X145827169Y-78244236D03*
X145827169Y-57924236D03*
X145827169Y-75704236D03*
X125587169Y-68084236D03*
X125587169Y-65544236D03*
X125587169Y-60464236D03*
D12*
X145827169Y-52844236D03*
D11*
X145827169Y-55384236D03*
X145827169Y-63004236D03*
X125587169Y-70624236D03*
X145827169Y-65544236D03*
X145827169Y-73164236D03*
X125587169Y-57924236D03*
X125587169Y-55384236D03*
X125587169Y-80784236D03*
X145827169Y-68084236D03*
D12*
X143327169Y-46594236D03*
D11*
X143327169Y-49134236D03*
X143327169Y-59294236D03*
X143327169Y-56754236D03*
X143327169Y-61834236D03*
X143327169Y-69454236D03*
X143327169Y-71994236D03*
X128087169Y-74534236D03*
X128087169Y-71994236D03*
X143327169Y-66914236D03*
X128087169Y-69454236D03*
X143327169Y-51674236D03*
X143327169Y-54214236D03*
X143327169Y-64374236D03*
X128087169Y-51674236D03*
X128087169Y-64374236D03*
X128087169Y-49134236D03*
X128087169Y-54214236D03*
X128087169Y-61834236D03*
X128087169Y-46594236D03*
X143327169Y-74534236D03*
X128087169Y-59294236D03*
X128087169Y-56754236D03*
X128087169Y-66914236D03*
D13*
X166037963Y-49398482D03*
D14*
X166037963Y-51898482D03*
X166037963Y-54398482D03*
D15*
X173537963Y-46298482D03*
X173537963Y-57498482D03*
D14*
X180537963Y-49398482D03*
X180537963Y-54398482D03*
D16*
X154727032Y-51779735D03*
D17*
X149647032Y-51779735D03*
X159807032Y-51779735D03*
D16*
X173777032Y-89879735D03*
D17*
X168697032Y-89879735D03*
X178857032Y-89879735D03*
X121707032Y-51779735D03*
X111547032Y-51779735D03*
D16*
X116627032Y-51779735D03*
X173777032Y-70829735D03*
D17*
X168697032Y-70829735D03*
X178857032Y-70829735D03*
D16*
X173777032Y-51779735D03*
D17*
X168697032Y-51779735D03*
X178857032Y-51779735D03*
D16*
X173777032Y-118454735D03*
D17*
X173777032Y-123534735D03*
X173777032Y-113374735D03*
D18*
X180762032Y-130360985D03*
X180762032Y-106548485D03*
D16*
X165522032Y-130360985D03*
X165522032Y-106548485D03*
X154727032Y-127979735D03*
D17*
X149647032Y-127979735D03*
X159807032Y-127979735D03*
D16*
X135677032Y-51779735D03*
D17*
X130597032Y-51779735D03*
X140757032Y-51779735D03*
D16*
X154727032Y-70829735D03*
D17*
X149647032Y-70829735D03*
X159807032Y-70829735D03*
D16*
X135677032Y-70829735D03*
D17*
X130597032Y-70829735D03*
X140757032Y-70829735D03*
D16*
X116627032Y-70829735D03*
D17*
X111547032Y-70829735D03*
X121707032Y-70829735D03*
D16*
X154727263Y-89879727D03*
D17*
X149647263Y-89879727D03*
X159807263Y-89879727D03*
D16*
X135677032Y-89879735D03*
D17*
X130597032Y-89879735D03*
X140757032Y-89879735D03*
D16*
X116627032Y-89879735D03*
D17*
X111547032Y-89879735D03*
X121707032Y-89879735D03*
D16*
X154727032Y-108929735D03*
D17*
X149647032Y-108929735D03*
X159807032Y-108929735D03*
D16*
X135677032Y-108929735D03*
D17*
X130597032Y-108929735D03*
X140757032Y-108929735D03*
D16*
X116627032Y-108929735D03*
D17*
X111547032Y-108929735D03*
X121707032Y-108929735D03*
D16*
X126152032Y-127979735D03*
D17*
X121072032Y-127979735D03*
X131232032Y-127979735D03*
D18*
X114245782Y-134964735D03*
X138058282Y-134964735D03*
D16*
X114245782Y-119724735D03*
X138058282Y-119724735D03*
D19*
X159852362Y-99416872D03*
D20*
X149692362Y-99416872D03*
D19*
X165465643Y-99453881D03*
D20*
X165465643Y-89293881D03*
D19*
X179048521Y-80664481D03*
D20*
X168888521Y-80664481D03*
D19*
X164277555Y-57147038D03*
D20*
X164277555Y-67307038D03*
D19*
X160124246Y-118466920D03*
D20*
X149964246Y-118466920D03*
D19*
X145224967Y-109574253D03*
D20*
X145224967Y-99414253D03*
D19*
X162935618Y-94096037D03*
D20*
X162935618Y-83936037D03*
D19*
X160447693Y-80515510D03*
D20*
X150287693Y-80515510D03*
D19*
X164275015Y-80252400D03*
D20*
X164275015Y-70092400D03*
D19*
X140802314Y-99416872D03*
D20*
X130642314Y-99416872D03*
D19*
X145224967Y-94242279D03*
D20*
X145224967Y-84082279D03*
D19*
X127368087Y-94070275D03*
D20*
X127368087Y-83910275D03*
D19*
X149652700Y-61311696D03*
D20*
X159812700Y-61311696D03*
D19*
X127365547Y-115799309D03*
D20*
X127365547Y-105639309D03*
D19*
X124835394Y-110590294D03*
D20*
X124835394Y-100430294D03*
D19*
X124835394Y-96626130D03*
D20*
X124835394Y-86466130D03*
D19*
X121600629Y-81408484D03*
D20*
X111440629Y-81408484D03*
D19*
X109617748Y-79022140D03*
D20*
X119777748Y-79022140D03*
M02*
