M48
; DRILL file {KiCad (5.1.7)-1} date 12/28/20 02:31:49
; FORMAT={-:-/ absolute / inch / decimal}
; #@! TF.CreationDate,2020-12-28T02:31:49-08:00
; #@! TF.GenerationSoftware,Kicad,Pcbnew,(5.1.7)-1
; #@! TF.FileFunction,NonPlated,1,2,NPTH
FMAT,2
INCH
T1C0.0310
T2C0.0689
T3C0.0866
T4C0.1200
T5C0.1457
T6C0.1570
%
G90
G05
T1
X8.3867Y-2.6693
X8.387Y-4.8685
X8.387Y-4.9185
X8.387Y-4.9685
X8.387Y-5.0185
X8.387Y-5.0685
X5.4027Y-2.6165
X5.4027Y-2.6665
X5.4027Y-2.7165
X5.4027Y-2.7665
X5.4027Y-2.8165
X5.4027Y-4.8685
X5.4027Y-4.9185
X5.4027Y-4.9685
X5.4027Y-5.0185
X5.4027Y-5.0685
X8.3867Y-2.6193
X8.3867Y-2.7193
X8.3867Y-2.7693
X8.3867Y-2.8193
T2
X7.824Y-2.3419
X8.224Y-2.3419
X5.574Y-2.3419
X5.974Y-2.3419
X5.574Y-3.8419
X5.974Y-3.8419
X8.024Y-4.7669
X8.024Y-5.1669
X7.074Y-2.3419
X7.474Y-2.3419
X7.074Y-4.5919
X7.474Y-4.5919
X5.574Y-3.0919
X5.974Y-3.0919
X7.824Y-3.0919
X8.224Y-3.0919
X6.324Y-4.5919
X6.724Y-4.5919
X5.574Y-4.5919
X5.974Y-4.5919
X7.074Y-3.8419
X7.474Y-3.8419
X7.074Y-3.0919
X7.474Y-3.0919
X6.324Y-2.3419
X6.724Y-2.3419
X6.324Y-3.0919
X6.724Y-3.0919
X7.074Y-5.3419
X7.474Y-5.3419
X7.824Y-3.8419
X8.224Y-3.8419
X5.949Y-5.3419
X6.349Y-5.3419
X6.324Y-3.8419
X6.724Y-3.8419
T3
X3.9117Y-3.8545
X4.4235Y-4.9785
X3.1607Y-4.7423
X2.9205Y-2.7294
X9.879Y-3.8446
X10.3908Y-4.9686
X8.8878Y-2.7186
X9.128Y-4.7324
X10.628Y-2.7186
X4.6607Y-2.7294
T4
X5.6803Y-5.6169
X6.6178Y-5.6169
X8.299Y-4.4982
X8.299Y-5.4357
T5
X5.9043Y-2.7186
X7.6446Y-2.7168
X6.8946Y-3.8418
X6.1446Y-4.7324
X7.4075Y-4.9669
T6
X8.024Y-2.3419
X5.774Y-2.3419
X5.774Y-3.8419
X7.699Y-4.4982
X7.699Y-5.4357
X8.024Y-4.9669
X7.274Y-2.3419
X7.274Y-4.5919
X5.774Y-3.0919
X8.024Y-3.0919
X6.524Y-4.5919
X5.774Y-4.5919
X7.274Y-3.8419
X7.274Y-3.0919
X6.524Y-2.3419
X6.524Y-3.0919
X7.274Y-5.3419
X8.024Y-3.8419
X5.6803Y-5.0169
X6.149Y-5.3419
X6.6178Y-5.0169
X6.524Y-3.8419
T0
M30
