G04 #@! TF.GenerationSoftware,KiCad,Pcbnew,(5.1.7)-1*
G04 #@! TF.CreationDate,2020-12-11T17:23:42-08:00*
G04 #@! TF.ProjectId,dropout-miniusb,64726f70-6f75-4742-9d6d-696e69757362,rev?*
G04 #@! TF.SameCoordinates,Original*
G04 #@! TF.FileFunction,Soldermask,Bot*
G04 #@! TF.FilePolarity,Negative*
%FSLAX46Y46*%
G04 Gerber Fmt 4.6, Leading zero omitted, Abs format (unit mm)*
G04 Created by KiCad (PCBNEW (5.1.7)-1) date 2020-12-11 17:23:42*
%MOMM*%
%LPD*%
G01*
G04 APERTURE LIST*
%ADD10R,1.050000X0.650000*%
%ADD11C,1.600000*%
%ADD12R,1.600000X1.600000*%
%ADD13C,0.500000*%
%ADD14C,2.250000*%
%ADD15C,3.987800*%
%ADD16C,1.750000*%
%ADD17C,2.200000*%
%ADD18C,3.700000*%
%ADD19C,3.048000*%
%ADD20R,1.905000X1.905000*%
%ADD21C,1.905000*%
%ADD22R,0.900000X1.200000*%
%ADD23R,1.200000X0.900000*%
%ADD24O,1.700000X1.700000*%
%ADD25R,1.700000X1.700000*%
%ADD26C,2.000000*%
%ADD27R,3.200000X2.000000*%
%ADD28R,2.000000X2.000000*%
G04 APERTURE END LIST*
D10*
X196400000Y-76400000D03*
X192250000Y-76400000D03*
X196400000Y-78550000D03*
X192250000Y-78550000D03*
D11*
X175982674Y-61023390D03*
X175982674Y-63563390D03*
X175982674Y-66103390D03*
X175982674Y-68643390D03*
X175982674Y-71183390D03*
X175982674Y-73723390D03*
X175982674Y-76263390D03*
X175982674Y-78803390D03*
X175982674Y-81343390D03*
X175982674Y-83883390D03*
X175982674Y-86423390D03*
X175982674Y-88963390D03*
X155742674Y-88963390D03*
X155742674Y-86423390D03*
X155742674Y-83883390D03*
X155742674Y-81343390D03*
X155742674Y-78803390D03*
X155742674Y-76263390D03*
X155742674Y-73723390D03*
X155742674Y-71183390D03*
X155742674Y-68643390D03*
X155742674Y-66103390D03*
X155742674Y-63563390D03*
D12*
X155742674Y-61023390D03*
D13*
X136050000Y-69000000D03*
X137550000Y-69000000D03*
X136050000Y-68250000D03*
X136050000Y-69750000D03*
X137550000Y-69750000D03*
X137550000Y-68250000D03*
X136050000Y-126200000D03*
X137550000Y-126200000D03*
X136050000Y-125450000D03*
X136050000Y-126950000D03*
X137550000Y-126950000D03*
X137550000Y-125450000D03*
X212750000Y-69700000D03*
X214250000Y-69700000D03*
X212750000Y-68950000D03*
X212750000Y-70450000D03*
X214250000Y-70450000D03*
X214250000Y-68950000D03*
X212750000Y-126900000D03*
X214250000Y-126900000D03*
X212750000Y-126150000D03*
X212750000Y-127650000D03*
X214250000Y-127650000D03*
X214250000Y-126150000D03*
D14*
X187300800Y-92504779D03*
D15*
X184760800Y-97584779D03*
D14*
X180950800Y-95044779D03*
D16*
X179680800Y-97584779D03*
X189840800Y-97584779D03*
D14*
X168250800Y-92504779D03*
D15*
X165710800Y-97584779D03*
D14*
X161900800Y-95044779D03*
D16*
X160630800Y-97584779D03*
X170790800Y-97584779D03*
D12*
X158232674Y-52043390D03*
D11*
X158232674Y-54583390D03*
X158232674Y-57123390D03*
X158232674Y-59663390D03*
X158232674Y-62203390D03*
X158232674Y-64743390D03*
X158232674Y-67283390D03*
X158232674Y-69823390D03*
X158232674Y-72363390D03*
X158232674Y-74903390D03*
X158232674Y-77443390D03*
X158232674Y-79983390D03*
X173472674Y-79983390D03*
X173472674Y-77443390D03*
X173472674Y-74903390D03*
X173472674Y-72363390D03*
X173472674Y-69823390D03*
X173472674Y-67283390D03*
X173472674Y-64743390D03*
X173472674Y-62203390D03*
X173472674Y-59663390D03*
X173472674Y-57123390D03*
X173472674Y-54583390D03*
X173472674Y-52043390D03*
D17*
X251897457Y-97653685D03*
X264896757Y-126203534D03*
X232822207Y-120204135D03*
X226719506Y-69053335D03*
X270922107Y-69053335D03*
X117522607Y-69327625D03*
X111497257Y-126453175D03*
X98497957Y-97903326D03*
X79422707Y-120453776D03*
X73320006Y-69327625D03*
D18*
X149970281Y-69053266D03*
X188149562Y-126159763D03*
X175122998Y-97582172D03*
X194173014Y-69007148D03*
X156072982Y-120204066D03*
D15*
X195555800Y-114221779D03*
X195555800Y-138097779D03*
D19*
X210795800Y-114221779D03*
X210795800Y-138097779D03*
D16*
X203810800Y-121079779D03*
X203810800Y-131239779D03*
D20*
X208890800Y-124889779D03*
D21*
X208890800Y-127429779D03*
D14*
X201270800Y-129969779D03*
D15*
X203810800Y-126159779D03*
D14*
X198730800Y-123619779D03*
G36*
G01*
X201428298Y-57612575D02*
X201428298Y-56712573D01*
G75*
G02*
X201678297Y-56462574I249999J0D01*
G01*
X202328299Y-56462574D01*
G75*
G02*
X202578298Y-56712573I0J-249999D01*
G01*
X202578298Y-57612575D01*
G75*
G02*
X202328299Y-57862574I-249999J0D01*
G01*
X201678297Y-57862574D01*
G75*
G02*
X201428298Y-57612575I0J249999D01*
G01*
G37*
G36*
G01*
X199378298Y-57612575D02*
X199378298Y-56712573D01*
G75*
G02*
X199628297Y-56462574I249999J0D01*
G01*
X200278299Y-56462574D01*
G75*
G02*
X200528298Y-56712573I0J-249999D01*
G01*
X200528298Y-57612575D01*
G75*
G02*
X200278299Y-57862574I-249999J0D01*
G01*
X199628297Y-57862574D01*
G75*
G02*
X199378298Y-57612575I0J249999D01*
G01*
G37*
G36*
G01*
X200528298Y-59485986D02*
X200528298Y-60385988D01*
G75*
G02*
X200278299Y-60635987I-249999J0D01*
G01*
X199628297Y-60635987D01*
G75*
G02*
X199378298Y-60385988I0J249999D01*
G01*
X199378298Y-59485986D01*
G75*
G02*
X199628297Y-59235987I249999J0D01*
G01*
X200278299Y-59235987D01*
G75*
G02*
X200528298Y-59485986I0J-249999D01*
G01*
G37*
G36*
G01*
X202578298Y-59485986D02*
X202578298Y-60385988D01*
G75*
G02*
X202328299Y-60635987I-249999J0D01*
G01*
X201678297Y-60635987D01*
G75*
G02*
X201428298Y-60385988I0J249999D01*
G01*
X201428298Y-59485986D01*
G75*
G02*
X201678297Y-59235987I249999J0D01*
G01*
X202328299Y-59235987D01*
G75*
G02*
X202578298Y-59485986I0J-249999D01*
G01*
G37*
D22*
X153089223Y-82137146D03*
X149789223Y-82137146D03*
D14*
X149200800Y-73454779D03*
D15*
X146660800Y-78534779D03*
D14*
X142850800Y-75994779D03*
D16*
X141580800Y-78534779D03*
X151740800Y-78534779D03*
D14*
X187300800Y-54404779D03*
D15*
X184760800Y-59484779D03*
D14*
X180950800Y-56944779D03*
D16*
X179680800Y-59484779D03*
X189840800Y-59484779D03*
D23*
X152170475Y-54157435D03*
X152170475Y-57457435D03*
D24*
X203001733Y-109101027D03*
X203001733Y-106561027D03*
X200461733Y-109101027D03*
X200461733Y-106561027D03*
X197921733Y-109101027D03*
D25*
X197921733Y-106561027D03*
D14*
X168250800Y-73454779D03*
D15*
X165710800Y-78534779D03*
D14*
X161900800Y-75994779D03*
D16*
X160630800Y-78534779D03*
X170790800Y-78534779D03*
D15*
X168123800Y-127429779D03*
X144247800Y-127429779D03*
D19*
X168123800Y-142669779D03*
X144247800Y-142669779D03*
D16*
X161265800Y-135684779D03*
X151105800Y-135684779D03*
D20*
X157455800Y-140764779D03*
D21*
X154915800Y-140764779D03*
D14*
X152375800Y-133144779D03*
D15*
X156185800Y-135684779D03*
D14*
X158725800Y-130604779D03*
D22*
X180150186Y-53562122D03*
X183450186Y-53562122D03*
D26*
X210810800Y-62103529D03*
X210810800Y-57103529D03*
D27*
X203810800Y-65203529D03*
X203810800Y-54003529D03*
D26*
X196310800Y-62103529D03*
X196310800Y-59603529D03*
D28*
X196310800Y-57103529D03*
G36*
G01*
X141600153Y-64298069D02*
X142500155Y-64298069D01*
G75*
G02*
X142750154Y-64548068I0J-249999D01*
G01*
X142750154Y-65198070D01*
G75*
G02*
X142500155Y-65448069I-249999J0D01*
G01*
X141600153Y-65448069D01*
G75*
G02*
X141350154Y-65198070I0J249999D01*
G01*
X141350154Y-64548068D01*
G75*
G02*
X141600153Y-64298069I249999J0D01*
G01*
G37*
G36*
G01*
X141600153Y-62248069D02*
X142500155Y-62248069D01*
G75*
G02*
X142750154Y-62498068I0J-249999D01*
G01*
X142750154Y-63148070D01*
G75*
G02*
X142500155Y-63398069I-249999J0D01*
G01*
X141600153Y-63398069D01*
G75*
G02*
X141350154Y-63148070I0J249999D01*
G01*
X141350154Y-62498068D01*
G75*
G02*
X141600153Y-62248069I249999J0D01*
G01*
G37*
D14*
X206350800Y-92504779D03*
D15*
X203810800Y-97584779D03*
D14*
X200000800Y-95044779D03*
D16*
X198730800Y-97584779D03*
X208890800Y-97584779D03*
X151740800Y-59484779D03*
X141580800Y-59484779D03*
D20*
X147930800Y-64564779D03*
D21*
X145390800Y-64564779D03*
D14*
X142850800Y-56944779D03*
D15*
X146660800Y-59484779D03*
D14*
X149200800Y-54404779D03*
X206350800Y-73454779D03*
D15*
X203810800Y-78534779D03*
D14*
X200000800Y-75994779D03*
D16*
X198730800Y-78534779D03*
X208890800Y-78534779D03*
D14*
X187300800Y-130604779D03*
D15*
X184760800Y-135684779D03*
D14*
X180950800Y-133144779D03*
D16*
X179680800Y-135684779D03*
X189840800Y-135684779D03*
D14*
X168250800Y-54404779D03*
D15*
X165710800Y-59484779D03*
D14*
X161900800Y-56944779D03*
D16*
X160630800Y-59484779D03*
X170790800Y-59484779D03*
D14*
X187300800Y-73454779D03*
D15*
X184760800Y-78534779D03*
D14*
X180950800Y-75994779D03*
D16*
X179680800Y-78534779D03*
X189840800Y-78534779D03*
D14*
X149200800Y-92504779D03*
D15*
X146660800Y-97584779D03*
D14*
X142850800Y-95044779D03*
D16*
X141580800Y-97584779D03*
X151740800Y-97584779D03*
D14*
X149200808Y-111554755D03*
D15*
X146660808Y-116634755D03*
D14*
X142850808Y-114094755D03*
D16*
X141580808Y-116634755D03*
X151740808Y-116634755D03*
D14*
X168250800Y-111554779D03*
D15*
X165710800Y-116634779D03*
D14*
X161900800Y-114094779D03*
D16*
X160630800Y-116634779D03*
X170790800Y-116634779D03*
D14*
X187300840Y-111554755D03*
D15*
X184760840Y-116634755D03*
D14*
X180950840Y-114094755D03*
D16*
X179680840Y-116634755D03*
X189840840Y-116634755D03*
D22*
X198453039Y-120206633D03*
X195153039Y-120206633D03*
D23*
X206787421Y-100012584D03*
X206787421Y-103312584D03*
X206787421Y-81511288D03*
X206787421Y-84811288D03*
D22*
X199643665Y-52936264D03*
X196343665Y-52936264D03*
X183710493Y-127350389D03*
X180410493Y-127350389D03*
D23*
X188332718Y-118560004D03*
X188332718Y-121860004D03*
X187737405Y-100012584D03*
X187737405Y-103312584D03*
X187737405Y-81541833D03*
X187737405Y-84841833D03*
D22*
X190270507Y-54752748D03*
X193570507Y-54752748D03*
D23*
X169282702Y-119611320D03*
X169282702Y-122911320D03*
X168687389Y-100012584D03*
X168687389Y-103312584D03*
D22*
X165862674Y-91662154D03*
X162562674Y-91662154D03*
D23*
X162734259Y-131841015D03*
X162734259Y-128541015D03*
X150232686Y-119611320D03*
X150232686Y-122911320D03*
X149637373Y-100012584D03*
X149637373Y-103312584D03*
M02*
