G04 #@! TF.GenerationSoftware,KiCad,Pcbnew,(5.1.7)-1*
G04 #@! TF.CreationDate,2020-12-28T21:01:16-08:00*
G04 #@! TF.ProjectId,dropout,64726f70-6f75-4742-9e6b-696361645f70,rev?*
G04 #@! TF.SameCoordinates,Original*
G04 #@! TF.FileFunction,Soldermask,Top*
G04 #@! TF.FilePolarity,Negative*
%FSLAX46Y46*%
G04 Gerber Fmt 4.6, Leading zero omitted, Abs format (unit mm)*
G04 Created by KiCad (PCBNEW (5.1.7)-1) date 2020-12-28 21:01:16*
%MOMM*%
%LPD*%
G01*
G04 APERTURE LIST*
%ADD10C,0.787400*%
%ADD11C,1.998980*%
%ADD12R,1.998980X1.998980*%
%ADD13C,3.987800*%
%ADD14C,1.750000*%
%ADD15C,3.048000*%
%ADD16C,1.752600*%
%ADD17R,1.752600X1.752600*%
%ADD18C,2.200000*%
%ADD19C,3.700000*%
%ADD20C,2.000000*%
%ADD21R,3.200000X2.000000*%
%ADD22R,2.000000X2.000000*%
G04 APERTURE END LIST*
D10*
X137228000Y-128740000D03*
X137228000Y-127470000D03*
X137228000Y-123660000D03*
X137228000Y-124930000D03*
X137228000Y-126200000D03*
X213030000Y-128740000D03*
X213030000Y-127470000D03*
X213030000Y-123660000D03*
X213030000Y-124930000D03*
X213030000Y-126200000D03*
X213022000Y-71610000D03*
X213022000Y-70340000D03*
X213022000Y-66530000D03*
X213022000Y-67800000D03*
X213022000Y-69070000D03*
X137228000Y-71540000D03*
X137228000Y-70270000D03*
X137228000Y-66460000D03*
X137228000Y-67730000D03*
X137228000Y-69000000D03*
D11*
X206660000Y-107302540D03*
D12*
X196500000Y-107302540D03*
D11*
X208160000Y-88002540D03*
D12*
X198000000Y-88002540D03*
D11*
X194074578Y-81246324D03*
D12*
X194074578Y-91406324D03*
D11*
X210185168Y-68463535D03*
D12*
X200025168Y-68463535D03*
D11*
X182165778Y-126206356D03*
D12*
X172005778Y-126206356D03*
D11*
X188602343Y-107158880D03*
D12*
X178442343Y-107158880D03*
D11*
X189260000Y-88102540D03*
D12*
X179100000Y-88102540D03*
D11*
X194069498Y-104814767D03*
D12*
X194069498Y-94654767D03*
D11*
X192881412Y-52943178D03*
D12*
X192881412Y-63103178D03*
D11*
X175019482Y-120292905D03*
D12*
X175019482Y-110132905D03*
D11*
X156202540Y-92340000D03*
D12*
X156202540Y-102500000D03*
D11*
X169660000Y-89299490D03*
D12*
X159500000Y-89299490D03*
D11*
X178705778Y-69053768D03*
D12*
X188865778Y-69053768D03*
D11*
X173729460Y-141110000D03*
D12*
X173729460Y-130950000D03*
D11*
X139897460Y-135660000D03*
D12*
X139897460Y-125500000D03*
D11*
X156679197Y-107153800D03*
D12*
X166839197Y-107153800D03*
D11*
X140777624Y-107153800D03*
D12*
X150937624Y-107153800D03*
D11*
X140777624Y-86913158D03*
D12*
X150937624Y-86913158D03*
D13*
X146660800Y-78534779D03*
D14*
X141580800Y-78534779D03*
X151740800Y-78534779D03*
D13*
X203810800Y-126159779D03*
D14*
X203810800Y-131239779D03*
X203810800Y-121079779D03*
D15*
X210795800Y-138066029D03*
X210795800Y-114253529D03*
D13*
X195555800Y-138066029D03*
X195555800Y-114253529D03*
X156185800Y-135684779D03*
D14*
X151105800Y-135684779D03*
X161265800Y-135684779D03*
D15*
X144279550Y-142669779D03*
X168092050Y-142669779D03*
D13*
X144279550Y-127429779D03*
X168092050Y-127429779D03*
D16*
X155460000Y-88670000D03*
X155460000Y-68350000D03*
X175700000Y-81050000D03*
X175700000Y-86130000D03*
X175700000Y-83590000D03*
X175700000Y-60730000D03*
X155460000Y-78510000D03*
X175700000Y-70890000D03*
X155460000Y-86130000D03*
X155460000Y-65810000D03*
X155460000Y-83590000D03*
X175700000Y-75970000D03*
X175700000Y-73430000D03*
X175700000Y-68350000D03*
D17*
X155460000Y-60730000D03*
D16*
X155460000Y-63270000D03*
X155460000Y-70890000D03*
X175700000Y-78510000D03*
X155460000Y-73430000D03*
X155460000Y-81050000D03*
X175700000Y-65810000D03*
X175700000Y-63270000D03*
X175700000Y-88670000D03*
X155460000Y-75970000D03*
D17*
X157960000Y-54480000D03*
D16*
X157960000Y-57020000D03*
X157960000Y-67180000D03*
X157960000Y-64640000D03*
X157960000Y-69720000D03*
X157960000Y-77340000D03*
X157960000Y-79880000D03*
X173200000Y-82420000D03*
X173200000Y-79880000D03*
X157960000Y-74800000D03*
X173200000Y-77340000D03*
X157960000Y-59560000D03*
X157960000Y-62100000D03*
X157960000Y-72260000D03*
X173200000Y-59560000D03*
X173200000Y-72260000D03*
X173200000Y-57020000D03*
X173200000Y-62100000D03*
X173200000Y-69720000D03*
X173200000Y-54480000D03*
X157960000Y-82420000D03*
X173200000Y-67180000D03*
X173200000Y-64640000D03*
X173200000Y-74800000D03*
D13*
X165710800Y-97584779D03*
D14*
X160630800Y-97584779D03*
X170790800Y-97584779D03*
X151740800Y-59484779D03*
X141580800Y-59484779D03*
D13*
X146660800Y-59484779D03*
X184760800Y-97584779D03*
D14*
X179680800Y-97584779D03*
X189840800Y-97584779D03*
D13*
X165710600Y-78534780D03*
D14*
X160630600Y-78534780D03*
X170790600Y-78534780D03*
D13*
X184760800Y-59484779D03*
D14*
X179680800Y-59484779D03*
X189840800Y-59484779D03*
D13*
X184760800Y-78534779D03*
D14*
X179680800Y-78534779D03*
X189840800Y-78534779D03*
D13*
X203810800Y-78534779D03*
D14*
X198730800Y-78534779D03*
X208890800Y-78534779D03*
D13*
X203810600Y-59484779D03*
D14*
X198730600Y-59484779D03*
X208890600Y-59484779D03*
D18*
X250927457Y-97653685D03*
X263926757Y-126203534D03*
X231852207Y-120204135D03*
X225749506Y-69053335D03*
X269952107Y-69053335D03*
X118382607Y-69327625D03*
X112357257Y-126453175D03*
X99357957Y-97903326D03*
X80282707Y-120453776D03*
X74180006Y-69327625D03*
D19*
X149970281Y-69053266D03*
X188149562Y-126159763D03*
X175122998Y-97582172D03*
X194173014Y-69007148D03*
X156072982Y-120204066D03*
D20*
X210700000Y-56900000D03*
X210700000Y-61900000D03*
D21*
X203700000Y-53800000D03*
X203700000Y-65000000D03*
D20*
X196200000Y-56900000D03*
X196200000Y-59400000D03*
D22*
X196200000Y-61900000D03*
D13*
X203810800Y-97584779D03*
D14*
X198730800Y-97584779D03*
X208890800Y-97584779D03*
D13*
X184760800Y-135684779D03*
D14*
X179680800Y-135684779D03*
X189840800Y-135684779D03*
D13*
X165710800Y-59484779D03*
D14*
X160630800Y-59484779D03*
X170790800Y-59484779D03*
D13*
X146660800Y-97584779D03*
D14*
X141580800Y-97584779D03*
X151740800Y-97584779D03*
D13*
X146660808Y-116634755D03*
D14*
X141580808Y-116634755D03*
X151740808Y-116634755D03*
D13*
X165710800Y-116634779D03*
D14*
X160630800Y-116634779D03*
X170790800Y-116634779D03*
D13*
X184760840Y-116634755D03*
D14*
X179680840Y-116634755D03*
X189840840Y-116634755D03*
M02*
