G04 #@! TF.GenerationSoftware,KiCad,Pcbnew,(5.1.7)-1*
G04 #@! TF.CreationDate,2020-12-11T21:32:01-08:00*
G04 #@! TF.ProjectId,dropout,64726f70-6f75-4742-9e6b-696361645f70,rev?*
G04 #@! TF.SameCoordinates,Original*
G04 #@! TF.FileFunction,Profile,NP*
%FSLAX46Y46*%
G04 Gerber Fmt 4.6, Leading zero omitted, Abs format (unit mm)*
G04 Created by KiCad (PCBNEW (5.1.7)-1) date 2020-12-11 21:32:01*
%MOMM*%
%LPD*%
G01*
G04 APERTURE LIST*
G04 #@! TA.AperFunction,Profile*
%ADD10C,0.150000*%
G04 #@! TD*
G04 #@! TA.AperFunction,Profile*
%ADD11C,0.050000*%
G04 #@! TD*
G04 APERTURE END LIST*
D10*
X214308432Y-68340069D02*
X214298157Y-59553615D01*
X214308432Y-125540069D02*
X214308431Y-71140069D01*
X214298157Y-143753776D02*
X214308431Y-128340069D01*
X212708432Y-128340070D02*
X212697757Y-143753615D01*
X212708432Y-71140070D02*
X212708432Y-125540069D01*
X212697757Y-51553615D02*
X212708432Y-68340069D01*
X137547782Y-67510038D02*
G75*
G02*
X136047958Y-67509778I-749825J500259D01*
G01*
D11*
X214308432Y-68340069D02*
G75*
G02*
X212708432Y-68340069I-800000J600000D01*
G01*
X212708432Y-71140070D02*
G75*
G02*
X214308431Y-71140069I800000J-599999D01*
G01*
D10*
X214308849Y-125539513D02*
G75*
G02*
X212708432Y-125540069I-800417J599444D01*
G01*
X212708016Y-128340626D02*
G75*
G02*
X214308431Y-128340069I800416J-599443D01*
G01*
X214298157Y-51553615D02*
G75*
G02*
X215298157Y-50553615I1000000J0D01*
G01*
X214298157Y-59553615D02*
X214298157Y-51553615D01*
X288447957Y-50553615D02*
G75*
G02*
X289447957Y-51553615I0J-1000000D01*
G01*
X215298157Y-144753776D02*
G75*
G02*
X214298157Y-143753776I0J1000000D01*
G01*
X215298157Y-50553615D02*
X288447957Y-50553615D01*
X261397957Y-144753776D02*
X288447957Y-144753776D01*
X289447957Y-143753776D02*
G75*
G02*
X288447957Y-144753776I-1000000J0D01*
G01*
X261397957Y-144753776D02*
X215298157Y-144753776D01*
X289448433Y-124410044D02*
X289448433Y-67260068D01*
X289448433Y-67260068D02*
X289447957Y-51553615D01*
X289447957Y-143753776D02*
X289448433Y-124410044D01*
X136048132Y-70509520D02*
G75*
G02*
X137547956Y-70509780I749825J-500259D01*
G01*
X137547782Y-124660014D02*
G75*
G02*
X136047958Y-124659754I-749825J500259D01*
G01*
X136048132Y-127659496D02*
G75*
G02*
X137547956Y-127659756I749825J-500259D01*
G01*
X137547957Y-127659755D02*
X137547957Y-143753776D01*
X137547957Y-70509779D02*
X137547956Y-124659754D01*
X136047958Y-67509778D02*
X136047482Y-51803325D01*
X136047958Y-124659754D02*
X136047958Y-70509780D01*
X136047482Y-144003486D02*
X136047957Y-127659755D01*
X100997957Y-104902976D02*
X100997957Y-90903676D01*
X81947957Y-123953176D02*
X81947957Y-109953776D01*
X81947957Y-109953776D02*
X95947257Y-109953776D01*
X114997257Y-123953176D02*
X100997957Y-123953176D01*
X114997257Y-109953776D02*
X114997257Y-123953176D01*
X114997257Y-129003676D02*
X114997257Y-143003136D01*
X120047957Y-52803676D02*
X134047257Y-52803676D01*
X120277957Y-136728926D02*
X119077857Y-136728926D01*
X120047957Y-133478176D02*
X124748357Y-133478176D01*
X120277957Y-112928876D02*
X119077857Y-112928876D01*
X132578257Y-117953176D02*
X132578257Y-111203476D01*
X129348257Y-119478676D02*
X129348257Y-117953176D01*
X134047257Y-119478676D02*
X129348257Y-119478676D01*
X134047257Y-133478176D02*
X134047257Y-119478676D01*
X129348257Y-135003676D02*
X129348257Y-133478176D01*
X129348257Y-141753256D02*
X132578257Y-141753256D01*
X120277957Y-116227876D02*
X120277957Y-117953176D01*
X94697557Y-133704176D02*
X94697557Y-130473976D01*
X120277957Y-140027966D02*
X120277957Y-141753256D01*
X129348257Y-142578706D02*
X129348257Y-141753256D01*
X126548257Y-142578706D02*
X129348257Y-142578706D01*
X126548257Y-141753256D02*
X126548257Y-142578706D01*
X100997957Y-129003676D02*
X114997257Y-129003676D01*
X124748357Y-135003676D02*
X120277957Y-135003676D01*
X114997257Y-143003136D02*
X100997957Y-143003136D01*
X124748357Y-119478676D02*
X120047957Y-119478676D01*
X119077857Y-140027966D02*
X120277957Y-140027966D01*
X124748357Y-133478176D02*
X124748357Y-135003676D01*
X86422357Y-133704176D02*
X86422357Y-129003676D01*
X87947857Y-133704176D02*
X86422357Y-133704176D01*
X86422357Y-129003676D02*
X72422957Y-129003676D01*
X120277957Y-135003676D02*
X120277957Y-136728926D01*
X120047957Y-119478676D02*
X120047957Y-133478176D01*
X124748357Y-117953176D02*
X124748357Y-119478676D01*
X100997957Y-143003136D02*
X100997957Y-129003676D01*
X119077857Y-112928876D02*
X119077857Y-116227876D01*
X129348257Y-110378076D02*
X126548257Y-110378076D01*
X126548257Y-110378076D02*
X126548257Y-111203476D01*
X129348257Y-111203476D02*
X129348257Y-110378076D01*
X129348257Y-117953176D02*
X132578257Y-117953176D01*
X119077857Y-136728926D02*
X119077857Y-140027966D01*
X120277957Y-141753256D02*
X126548257Y-141753256D01*
X126548257Y-111203476D02*
X120277957Y-111203476D01*
X120277957Y-117953176D02*
X124748357Y-117953176D01*
X132578257Y-111203476D02*
X129348257Y-111203476D01*
X129348257Y-133478176D02*
X134047257Y-133478176D01*
X119077857Y-116227876D02*
X120277957Y-116227876D01*
X120277957Y-111203476D02*
X120277957Y-112928876D01*
X94697557Y-130473976D02*
X87947857Y-130473976D01*
X132578257Y-135003676D02*
X129348257Y-135003676D01*
X132578257Y-141753256D02*
X132578257Y-135003676D01*
X87947857Y-130473976D02*
X87947857Y-133704176D01*
X62897907Y-90903676D02*
X76897457Y-90903676D01*
X100997957Y-109953776D02*
X114997257Y-109953776D01*
X100997957Y-90903676D02*
X114997257Y-90903676D01*
X62897907Y-109953776D02*
X76897457Y-109953776D01*
X134047257Y-52803676D02*
X134047257Y-66802976D01*
X81947957Y-71852276D02*
X95947257Y-71852276D01*
X81947957Y-90903676D02*
X95947257Y-90903676D01*
X95947257Y-104902976D02*
X81947957Y-104902976D01*
X62897907Y-85852976D02*
X62897907Y-71852276D01*
X76897457Y-85852976D02*
X62897907Y-85852976D01*
X76897457Y-71852276D02*
X76897457Y-85852976D01*
X95947257Y-90903676D02*
X95947257Y-104902976D01*
X120047957Y-71852276D02*
X134047257Y-71852276D01*
X76897457Y-104902976D02*
X62897907Y-104902976D01*
X120047957Y-104902976D02*
X120047957Y-90903676D01*
X62897907Y-71852276D02*
X76897457Y-71852276D01*
X95947257Y-85852976D02*
X81947957Y-85852976D01*
X114997257Y-71852276D02*
X114997257Y-85852976D01*
X95947257Y-109953776D02*
X95947257Y-123953176D01*
X120047957Y-85852976D02*
X120047957Y-71852276D01*
X134047257Y-90903676D02*
X134047257Y-104902976D01*
X134047257Y-71852276D02*
X134047257Y-85852976D01*
X134047257Y-85852976D02*
X120047957Y-85852976D01*
X114997257Y-90903676D02*
X114997257Y-104902976D01*
X76897457Y-123953176D02*
X62897907Y-123953176D01*
X95947257Y-123953176D02*
X81947957Y-123953176D01*
X81947957Y-85852976D02*
X81947957Y-71852276D01*
X81947957Y-104902976D02*
X81947957Y-90903676D01*
X100997957Y-85852976D02*
X100997957Y-71852276D01*
X114997257Y-85852976D02*
X100997957Y-85852976D01*
X100997957Y-71852276D02*
X114997257Y-71852276D01*
X134047257Y-104902976D02*
X120047957Y-104902976D01*
X62897907Y-123953176D02*
X62897907Y-109953776D01*
X62897907Y-104902976D02*
X62897907Y-90903676D01*
X100997957Y-123953176D02*
X100997957Y-109953776D01*
X120047957Y-90903676D02*
X134047257Y-90903676D01*
X76897457Y-90903676D02*
X76897457Y-104902976D01*
X76897457Y-109953776D02*
X76897457Y-123953176D01*
X114997257Y-104902976D02*
X100997957Y-104902976D01*
X95947257Y-71852276D02*
X95947257Y-85852976D01*
X60897682Y-144003486D02*
X60897682Y-59803325D01*
X62897907Y-66802976D02*
X62897907Y-52803676D01*
X107997482Y-145003486D02*
X61897682Y-145003486D01*
X100997957Y-52803676D02*
X114997257Y-52803676D01*
X81947957Y-66802976D02*
X81947957Y-52803676D01*
X114997257Y-66802976D02*
X100997957Y-66802976D01*
X136047482Y-144003486D02*
G75*
G02*
X135047482Y-145003486I-1000000J0D01*
G01*
X61897682Y-50803325D02*
X135047482Y-50803325D01*
X100997957Y-66802976D02*
X100997957Y-52803676D01*
X60897682Y-59803325D02*
X60897682Y-51803325D01*
X60897682Y-51803325D02*
G75*
G02*
X61897682Y-50803325I1000000J0D01*
G01*
X76897457Y-52803676D02*
X76897457Y-66802976D01*
X135047482Y-50803325D02*
G75*
G02*
X136047482Y-51803325I0J-1000000D01*
G01*
X62897907Y-52803676D02*
X76897457Y-52803676D01*
X95947257Y-52803676D02*
X95947257Y-66802976D01*
X120047957Y-66802976D02*
X120047957Y-52803676D01*
X134047257Y-66802976D02*
X120047957Y-66802976D01*
X61897682Y-145003486D02*
G75*
G02*
X60897682Y-144003486I0J1000000D01*
G01*
X114997257Y-52803676D02*
X114997257Y-66802976D01*
X107997482Y-145003486D02*
X135047482Y-145003486D01*
X81947957Y-52803676D02*
X95947257Y-52803676D01*
X95947257Y-66802976D02*
X81947957Y-66802976D01*
X72422957Y-143003136D02*
X86422357Y-143003136D01*
X64147807Y-142773006D02*
X65873097Y-142773006D01*
X65873097Y-142773006D02*
X65873097Y-143973276D01*
X95522957Y-133704176D02*
X94697557Y-133704176D01*
X95522957Y-136502936D02*
X95522957Y-133704176D01*
X94697557Y-142773006D02*
X94697557Y-136502936D01*
X69172107Y-142773006D02*
X70897457Y-142773006D01*
X69172107Y-143973276D02*
X69172107Y-142773006D01*
X94697557Y-136502936D02*
X95522957Y-136502936D01*
X92972257Y-142773006D02*
X94697557Y-142773006D01*
X63322347Y-136502936D02*
X64147807Y-136502936D01*
X92972257Y-143973276D02*
X92972257Y-142773006D01*
X89673157Y-143973276D02*
X92972257Y-143973276D01*
X89673157Y-142773006D02*
X89673157Y-143973276D01*
X65873097Y-143973276D02*
X69172107Y-143973276D01*
X86422357Y-143003136D02*
X86422357Y-138302666D01*
X87947857Y-142773006D02*
X89673157Y-142773006D01*
X72422957Y-138302666D02*
X72422957Y-143003136D01*
X86422357Y-138302666D02*
X87947857Y-138302666D01*
X70897457Y-138302666D02*
X72422957Y-138302666D01*
X70897457Y-142773006D02*
X70897457Y-138302666D01*
X64147807Y-136502936D02*
X64147807Y-142773006D01*
X87947857Y-138302666D02*
X87947857Y-142773006D01*
X64147807Y-133704176D02*
X63322347Y-133704176D01*
X72422957Y-133704176D02*
X70897457Y-133704176D01*
X64147807Y-130473976D02*
X64147807Y-133704176D01*
X70897457Y-130473976D02*
X64147807Y-130473976D01*
X70897457Y-133704176D02*
X70897457Y-130473976D01*
X72422957Y-129003676D02*
X72422957Y-133704176D01*
X63322347Y-133704176D02*
X63322347Y-136502936D01*
X76897457Y-66802976D02*
X62897907Y-66802976D01*
X138547957Y-144753776D02*
G75*
G02*
X137547957Y-143753776I0J1000000D01*
G01*
X184647757Y-144753776D02*
X211697757Y-144753776D01*
X138547957Y-50553615D02*
X211697757Y-50553615D01*
X137547957Y-51553615D02*
G75*
G02*
X138547957Y-50553615I1000000J0D01*
G01*
X184647757Y-144753776D02*
X138547957Y-144753776D01*
X211697757Y-50553615D02*
G75*
G02*
X212697757Y-51553615I0J-1000000D01*
G01*
X212697757Y-143753776D02*
G75*
G02*
X211697757Y-144753776I-1000000J0D01*
G01*
X137547956Y-67509778D02*
X137547957Y-51553615D01*
M02*
