G04 #@! TF.GenerationSoftware,KiCad,Pcbnew,(5.1.7)-1*
G04 #@! TF.CreationDate,2020-12-28T20:24:07-08:00*
G04 #@! TF.ProjectId,dropout,64726f70-6f75-4742-9e6b-696361645f70,rev?*
G04 #@! TF.SameCoordinates,Original*
G04 #@! TF.FileFunction,Soldermask,Bot*
G04 #@! TF.FilePolarity,Negative*
%FSLAX46Y46*%
G04 Gerber Fmt 4.6, Leading zero omitted, Abs format (unit mm)*
G04 Created by KiCad (PCBNEW (5.1.7)-1) date 2020-12-28 20:24:07*
%MOMM*%
%LPD*%
G01*
G04 APERTURE LIST*
%ADD10C,0.787400*%
%ADD11C,1.998980*%
%ADD12R,1.998980X1.998980*%
%ADD13R,1.524000X1.524000*%
%ADD14C,2.250000*%
%ADD15C,3.987800*%
%ADD16C,1.750000*%
%ADD17C,3.048000*%
%ADD18C,1.752600*%
%ADD19R,1.752600X1.752600*%
%ADD20R,1.905000X1.905000*%
%ADD21C,1.905000*%
%ADD22R,1.050000X0.650000*%
%ADD23C,2.200000*%
%ADD24C,3.700000*%
%ADD25C,2.000000*%
%ADD26R,3.200000X2.000000*%
%ADD27R,2.000000X2.000000*%
G04 APERTURE END LIST*
D10*
X137228000Y-128740000D03*
X137228000Y-127470000D03*
X137228000Y-123660000D03*
X137228000Y-124930000D03*
X137228000Y-126200000D03*
X213030000Y-128740000D03*
X213030000Y-127470000D03*
X213030000Y-123660000D03*
X213030000Y-124930000D03*
X213030000Y-126200000D03*
X213022000Y-71610000D03*
X213022000Y-70340000D03*
X213022000Y-66530000D03*
X213022000Y-67800000D03*
X213022000Y-69070000D03*
X137228000Y-71540000D03*
X137228000Y-70270000D03*
X137228000Y-66460000D03*
X137228000Y-67730000D03*
X137228000Y-69000000D03*
D11*
X206660000Y-107302540D03*
D12*
X196500000Y-107302540D03*
D13*
X199800000Y-107300000D03*
X203200000Y-107300000D03*
D11*
X208160000Y-88002540D03*
D12*
X198000000Y-88002540D03*
D13*
X201300000Y-88000000D03*
X204700000Y-88000000D03*
D11*
X194074578Y-81246324D03*
D12*
X194074578Y-91406324D03*
D13*
X194072038Y-88106324D03*
X194072038Y-84706324D03*
D11*
X210185168Y-68463535D03*
D12*
X200025168Y-68463535D03*
D13*
X203325168Y-68460995D03*
X206725168Y-68460995D03*
D11*
X182165778Y-126206356D03*
D12*
X172005778Y-126206356D03*
D13*
X175305778Y-126203816D03*
X178705778Y-126203816D03*
D11*
X188602343Y-107158880D03*
D12*
X178442343Y-107158880D03*
D13*
X181742343Y-107156340D03*
X185142343Y-107156340D03*
D11*
X189260000Y-88102540D03*
D12*
X179100000Y-88102540D03*
D13*
X182400000Y-88100000D03*
X185800000Y-88100000D03*
D11*
X194069498Y-104814767D03*
D12*
X194069498Y-94654767D03*
D13*
X194072038Y-97954767D03*
X194072038Y-101354767D03*
D11*
X192881412Y-52943178D03*
D12*
X192881412Y-63103178D03*
D13*
X192878872Y-59803178D03*
X192878872Y-56403178D03*
D11*
X175019482Y-120292905D03*
D12*
X175019482Y-110132905D03*
D13*
X175022022Y-113432905D03*
X175022022Y-116832905D03*
D11*
X156202540Y-92340000D03*
D12*
X156202540Y-102500000D03*
D13*
X156200000Y-99200000D03*
X156200000Y-95800000D03*
D11*
X169660000Y-89299490D03*
D12*
X159500000Y-89299490D03*
D13*
X162800000Y-89296950D03*
X166200000Y-89296950D03*
D11*
X178705778Y-69053768D03*
D12*
X188865778Y-69053768D03*
D13*
X185565778Y-69056308D03*
X182165778Y-69056308D03*
D11*
X153107319Y-126799129D03*
D12*
X163267319Y-126799129D03*
D13*
X159967319Y-126801669D03*
X156567319Y-126801669D03*
D11*
X139897460Y-135660000D03*
D12*
X139897460Y-125500000D03*
D13*
X139900000Y-128800000D03*
X139900000Y-132200000D03*
D11*
X156679197Y-107153800D03*
D12*
X166839197Y-107153800D03*
D13*
X163539197Y-107156340D03*
X160139197Y-107156340D03*
D11*
X140777624Y-107153800D03*
D12*
X150937624Y-107153800D03*
D13*
X147637624Y-107156340D03*
X144237624Y-107156340D03*
D11*
X140777624Y-86913158D03*
D12*
X150937624Y-86913158D03*
D13*
X147637624Y-86915698D03*
X144237624Y-86915698D03*
D14*
X149200800Y-73454779D03*
D15*
X146660800Y-78534779D03*
D14*
X142850800Y-75994779D03*
D16*
X141580800Y-78534779D03*
X151740800Y-78534779D03*
D14*
X198730800Y-123619779D03*
D15*
X203810800Y-126159779D03*
D14*
X201270800Y-129969779D03*
D16*
X203810800Y-131239779D03*
X203810800Y-121079779D03*
D17*
X210795800Y-138066029D03*
X210795800Y-114253529D03*
D15*
X195555800Y-138066029D03*
X195555800Y-114253529D03*
D14*
X158725800Y-130604779D03*
D15*
X156185800Y-135684779D03*
D14*
X152375800Y-133144779D03*
D16*
X151105800Y-135684779D03*
X161265800Y-135684779D03*
D17*
X144279550Y-142669779D03*
X168092050Y-142669779D03*
D15*
X144279550Y-127429779D03*
X168092050Y-127429779D03*
D18*
X155460000Y-88670000D03*
X155460000Y-68350000D03*
X175700000Y-81050000D03*
X175700000Y-86130000D03*
X175700000Y-83590000D03*
X175700000Y-60730000D03*
X155460000Y-78510000D03*
X175700000Y-70890000D03*
X155460000Y-86130000D03*
X155460000Y-65810000D03*
X155460000Y-83590000D03*
X175700000Y-75970000D03*
X175700000Y-73430000D03*
X175700000Y-68350000D03*
D19*
X155460000Y-60730000D03*
D18*
X155460000Y-63270000D03*
X155460000Y-70890000D03*
X175700000Y-78510000D03*
X155460000Y-73430000D03*
X155460000Y-81050000D03*
X175700000Y-65810000D03*
X175700000Y-63270000D03*
X175700000Y-88670000D03*
X155460000Y-75970000D03*
D19*
X157960000Y-54480000D03*
D18*
X157960000Y-57020000D03*
X157960000Y-67180000D03*
X157960000Y-64640000D03*
X157960000Y-69720000D03*
X157960000Y-77340000D03*
X157960000Y-79880000D03*
X173200000Y-82420000D03*
X173200000Y-79880000D03*
X157960000Y-74800000D03*
X173200000Y-77340000D03*
X157960000Y-59560000D03*
X157960000Y-62100000D03*
X157960000Y-72260000D03*
X173200000Y-59560000D03*
X173200000Y-72260000D03*
X173200000Y-57020000D03*
X173200000Y-62100000D03*
X173200000Y-69720000D03*
X173200000Y-54480000D03*
X157960000Y-82420000D03*
X173200000Y-67180000D03*
X173200000Y-64640000D03*
X173200000Y-74800000D03*
D14*
X168250800Y-92504779D03*
D15*
X165710800Y-97584779D03*
D14*
X161900800Y-95044779D03*
D16*
X160630800Y-97584779D03*
X170790800Y-97584779D03*
X151740800Y-59484779D03*
X141580800Y-59484779D03*
D20*
X147930800Y-64564779D03*
D21*
X145390800Y-64564779D03*
D14*
X142850800Y-56944779D03*
D15*
X146660800Y-59484779D03*
D14*
X149200800Y-54404779D03*
X187300800Y-92504779D03*
D15*
X184760800Y-97584779D03*
D14*
X180950800Y-95044779D03*
D16*
X179680800Y-97584779D03*
X189840800Y-97584779D03*
D14*
X168250600Y-73454780D03*
D15*
X165710600Y-78534780D03*
D14*
X161900600Y-75994780D03*
D16*
X160630600Y-78534780D03*
X170790600Y-78534780D03*
D14*
X187300800Y-54404779D03*
D15*
X184760800Y-59484779D03*
D14*
X180950800Y-56944779D03*
D16*
X179680800Y-59484779D03*
X189840800Y-59484779D03*
D14*
X187300800Y-73454779D03*
D15*
X184760800Y-78534779D03*
D14*
X180950800Y-75994779D03*
D16*
X179680800Y-78534779D03*
X189840800Y-78534779D03*
D14*
X206350800Y-73454779D03*
D15*
X203810800Y-78534779D03*
D14*
X200000800Y-75994779D03*
D16*
X198730800Y-78534779D03*
X208890800Y-78534779D03*
D14*
X206350600Y-54404779D03*
D15*
X203810600Y-59484779D03*
D14*
X200000600Y-56944779D03*
D16*
X198730600Y-59484779D03*
X208890600Y-59484779D03*
D22*
X182600000Y-62800000D03*
X178450000Y-62800000D03*
X182600000Y-64950000D03*
X178450000Y-64950000D03*
D23*
X250927457Y-97653685D03*
X263926757Y-126203534D03*
X231852207Y-120204135D03*
X225749506Y-69053335D03*
X269952107Y-69053335D03*
X118382607Y-69327625D03*
X112357257Y-126453175D03*
X99357957Y-97903326D03*
X80282707Y-120453776D03*
X74180006Y-69327625D03*
D24*
X149970281Y-69053266D03*
X188149562Y-126159763D03*
X175122998Y-97582172D03*
X194173014Y-69007148D03*
X156072982Y-120204066D03*
G36*
G01*
X189449999Y-65475000D02*
X190350001Y-65475000D01*
G75*
G02*
X190600000Y-65724999I0J-249999D01*
G01*
X190600000Y-66375001D01*
G75*
G02*
X190350001Y-66625000I-249999J0D01*
G01*
X189449999Y-66625000D01*
G75*
G02*
X189200000Y-66375001I0J249999D01*
G01*
X189200000Y-65724999D01*
G75*
G02*
X189449999Y-65475000I249999J0D01*
G01*
G37*
G36*
G01*
X189449999Y-63425000D02*
X190350001Y-63425000D01*
G75*
G02*
X190600000Y-63674999I0J-249999D01*
G01*
X190600000Y-64325001D01*
G75*
G02*
X190350001Y-64575000I-249999J0D01*
G01*
X189449999Y-64575000D01*
G75*
G02*
X189200000Y-64325001I0J249999D01*
G01*
X189200000Y-63674999D01*
G75*
G02*
X189449999Y-63425000I249999J0D01*
G01*
G37*
G36*
G01*
X186550001Y-64575000D02*
X185649999Y-64575000D01*
G75*
G02*
X185400000Y-64325001I0J249999D01*
G01*
X185400000Y-63674999D01*
G75*
G02*
X185649999Y-63425000I249999J0D01*
G01*
X186550001Y-63425000D01*
G75*
G02*
X186800000Y-63674999I0J-249999D01*
G01*
X186800000Y-64325001D01*
G75*
G02*
X186550001Y-64575000I-249999J0D01*
G01*
G37*
G36*
G01*
X186550001Y-66625000D02*
X185649999Y-66625000D01*
G75*
G02*
X185400000Y-66375001I0J249999D01*
G01*
X185400000Y-65724999D01*
G75*
G02*
X185649999Y-65475000I249999J0D01*
G01*
X186550001Y-65475000D01*
G75*
G02*
X186800000Y-65724999I0J-249999D01*
G01*
X186800000Y-66375001D01*
G75*
G02*
X186550001Y-66625000I-249999J0D01*
G01*
G37*
D25*
X210700000Y-56900000D03*
X210700000Y-61900000D03*
D26*
X203700000Y-53800000D03*
X203700000Y-65000000D03*
D25*
X196200000Y-56900000D03*
X196200000Y-59400000D03*
D27*
X196200000Y-61900000D03*
G36*
G01*
X141600153Y-64298069D02*
X142500155Y-64298069D01*
G75*
G02*
X142750154Y-64548068I0J-249999D01*
G01*
X142750154Y-65198070D01*
G75*
G02*
X142500155Y-65448069I-249999J0D01*
G01*
X141600153Y-65448069D01*
G75*
G02*
X141350154Y-65198070I0J249999D01*
G01*
X141350154Y-64548068D01*
G75*
G02*
X141600153Y-64298069I249999J0D01*
G01*
G37*
G36*
G01*
X141600153Y-62248069D02*
X142500155Y-62248069D01*
G75*
G02*
X142750154Y-62498068I0J-249999D01*
G01*
X142750154Y-63148070D01*
G75*
G02*
X142500155Y-63398069I-249999J0D01*
G01*
X141600153Y-63398069D01*
G75*
G02*
X141350154Y-63148070I0J249999D01*
G01*
X141350154Y-62498068D01*
G75*
G02*
X141600153Y-62248069I249999J0D01*
G01*
G37*
D14*
X206350800Y-92504779D03*
D15*
X203810800Y-97584779D03*
D14*
X200000800Y-95044779D03*
D16*
X198730800Y-97584779D03*
X208890800Y-97584779D03*
D14*
X187300800Y-130604779D03*
D15*
X184760800Y-135684779D03*
D14*
X180950800Y-133144779D03*
D16*
X179680800Y-135684779D03*
X189840800Y-135684779D03*
D14*
X168250800Y-54404779D03*
D15*
X165710800Y-59484779D03*
D14*
X161900800Y-56944779D03*
D16*
X160630800Y-59484779D03*
X170790800Y-59484779D03*
D14*
X149200800Y-92504779D03*
D15*
X146660800Y-97584779D03*
D14*
X142850800Y-95044779D03*
D16*
X141580800Y-97584779D03*
X151740800Y-97584779D03*
D14*
X149200808Y-111554755D03*
D15*
X146660808Y-116634755D03*
D14*
X142850808Y-114094755D03*
D16*
X141580808Y-116634755D03*
X151740808Y-116634755D03*
D14*
X168250800Y-111554779D03*
D15*
X165710800Y-116634779D03*
D14*
X161900800Y-114094779D03*
D16*
X160630800Y-116634779D03*
X170790800Y-116634779D03*
D14*
X187300840Y-111554755D03*
D15*
X184760840Y-116634755D03*
D14*
X180950840Y-114094755D03*
D16*
X179680840Y-116634755D03*
X189840840Y-116634755D03*
M02*
