M48
; DRILL file {KiCad (5.1.7)-1} date 12/11/20 17:23:45
; FORMAT={-:-/ absolute / inch / decimal}
; #@! TF.CreationDate,2020-12-11T17:23:45-08:00
; #@! TF.GenerationSoftware,Kicad,Pcbnew,(5.1.7)-1
; #@! TF.FileFunction,NonPlated,1,2,NPTH
FMAT,2
INCH
T1C0.0197
T2C0.0689
T3C0.0866
T4C0.1200
T5C0.1457
T6C0.1570
%
G90
G05
T1
X5.3563Y-4.939
X5.3563Y-4.998
X5.4154Y-4.998
X8.376Y-2.7146
X8.376Y-2.7441
X8.376Y-2.7736
X8.435Y-2.7146
X8.435Y-2.7441
X8.435Y-2.7736
X5.3563Y-2.687
X5.3563Y-2.7165
X5.3563Y-2.7461
X5.4154Y-2.687
X5.4154Y-2.7165
X5.4154Y-2.7461
X8.376Y-4.9665
X8.376Y-4.9961
X8.376Y-5.0256
X8.435Y-4.9665
X8.435Y-4.9961
X8.435Y-5.0256
X5.3563Y-4.9685
X5.4154Y-4.939
X5.4154Y-4.9685
T2
X5.574Y-3.8419
X5.974Y-3.8419
X6.324Y-2.3419
X6.724Y-2.3419
X7.074Y-3.8419
X7.474Y-3.8419
X6.324Y-3.0919
X6.724Y-3.0919
X5.574Y-3.0919
X5.974Y-3.0919
X5.574Y-2.3419
X5.974Y-2.3419
X7.074Y-3.0919
X7.474Y-3.0919
X7.824Y-3.8419
X8.224Y-3.8419
X6.324Y-3.8419
X6.724Y-3.8419
X8.024Y-4.7669
X8.024Y-5.1669
X7.074Y-5.3419
X7.474Y-5.3419
X7.074Y-4.5919
X7.474Y-4.5919
X7.824Y-3.0919
X8.224Y-3.0919
X7.074Y-2.3419
X7.474Y-2.3419
X5.574Y-4.5919
X5.974Y-4.5919
X6.324Y-4.5919
X6.724Y-4.5919
X5.949Y-5.3419
X6.349Y-5.3419
T3
X10.429Y-4.9686
X9.1662Y-4.7324
X9.9172Y-3.8446
X3.8779Y-3.8545
X4.3897Y-4.9785
X4.6269Y-2.7294
X3.1269Y-4.7423
X8.926Y-2.7186
X2.8866Y-2.7294
X10.6662Y-2.7186
T4
X8.299Y-4.4969
X8.299Y-5.4369
X5.679Y-5.6169
X6.619Y-5.6169
T5
X6.1446Y-4.7324
X7.6446Y-2.7168
X6.8946Y-3.8418
X5.9043Y-2.7186
X7.4075Y-4.9669
T6
X7.274Y-3.0919
X8.024Y-3.8419
X6.524Y-3.8419
X7.699Y-4.4969
X7.699Y-5.4369
X8.024Y-4.9669
X7.274Y-5.3419
X7.274Y-4.5919
X8.024Y-3.0919
X7.274Y-2.3419
X5.774Y-4.5919
X6.524Y-4.5919
X5.679Y-5.0169
X6.149Y-5.3419
X6.619Y-5.0169
X5.774Y-3.8419
X6.524Y-2.3419
X7.274Y-3.8419
X6.524Y-3.0919
X5.774Y-3.0919
X5.774Y-2.3419
T0
M30
