G04 #@! TF.GenerationSoftware,KiCad,Pcbnew,(5.1.7)-1*
G04 #@! TF.CreationDate,2020-12-08T20:24:50-08:00*
G04 #@! TF.ProjectId,dropout-miniusb,64726f70-6f75-4742-9d6d-696e69757362,rev?*
G04 #@! TF.SameCoordinates,Original*
G04 #@! TF.FileFunction,Soldermask,Top*
G04 #@! TF.FilePolarity,Negative*
%FSLAX46Y46*%
G04 Gerber Fmt 4.6, Leading zero omitted, Abs format (unit mm)*
G04 Created by KiCad (PCBNEW (5.1.7)-1) date 2020-12-08 20:24:50*
%MOMM*%
%LPD*%
G01*
G04 APERTURE LIST*
%ADD10C,0.500000*%
%ADD11C,2.200000*%
%ADD12C,3.700000*%
%ADD13C,3.987800*%
%ADD14C,3.048000*%
%ADD15C,1.750000*%
%ADD16O,1.700000X1.700000*%
%ADD17R,1.700000X1.700000*%
%ADD18R,1.600000X1.600000*%
%ADD19C,1.600000*%
%ADD20C,2.000000*%
%ADD21R,3.200000X2.000000*%
%ADD22R,2.000000X2.000000*%
G04 APERTURE END LIST*
D10*
X136070006Y-69027625D03*
X137570006Y-69027625D03*
X136070006Y-68277625D03*
X136070006Y-69777625D03*
X137570006Y-69777625D03*
X137570006Y-68277625D03*
X136070006Y-126127625D03*
X137570006Y-126127625D03*
X136070006Y-125377625D03*
X136070006Y-126877625D03*
X137570006Y-126877625D03*
X137570006Y-125377625D03*
X212770006Y-69727625D03*
X214270006Y-69727625D03*
X212770006Y-68977625D03*
X212770006Y-70477625D03*
X214270006Y-70477625D03*
X214270006Y-68977625D03*
X212770006Y-126927625D03*
X214270006Y-126927625D03*
X212770006Y-126177625D03*
X212770006Y-127677625D03*
X214270006Y-127677625D03*
X214270006Y-126177625D03*
D11*
X251897457Y-97653685D03*
X264896757Y-126203534D03*
X232822207Y-120204135D03*
X226719506Y-69053335D03*
X270922107Y-69053335D03*
X117522607Y-69327625D03*
X111497257Y-126453175D03*
X98497957Y-97903326D03*
X79422707Y-120453776D03*
X73320006Y-69327625D03*
D12*
X149970281Y-69053266D03*
X188149562Y-126159763D03*
X175122998Y-97582172D03*
X194173014Y-69007148D03*
X156072982Y-120204066D03*
D13*
X195555800Y-114221779D03*
X195555800Y-138097779D03*
D14*
X210795800Y-114221779D03*
X210795800Y-138097779D03*
D15*
X203810800Y-121079779D03*
X203810800Y-131239779D03*
D13*
X203810800Y-126159779D03*
X146660800Y-78534779D03*
D15*
X141580800Y-78534779D03*
X151740800Y-78534779D03*
D13*
X184760800Y-59484779D03*
D15*
X179680800Y-59484779D03*
X189840800Y-59484779D03*
D16*
X158118292Y-108443374D03*
X158118292Y-105903374D03*
X155578292Y-108443374D03*
X155578292Y-105903374D03*
X153038292Y-108443374D03*
D17*
X153038292Y-105903374D03*
D18*
X175982674Y-61023390D03*
D19*
X175982674Y-63563390D03*
X175982674Y-66103390D03*
X175982674Y-68643390D03*
X175982674Y-71183390D03*
X175982674Y-73723390D03*
X175982674Y-76263390D03*
X175982674Y-78803390D03*
X175982674Y-81343390D03*
X175982674Y-83883390D03*
X175982674Y-86423390D03*
X175982674Y-88963390D03*
X155742674Y-88963390D03*
X155742674Y-86423390D03*
X155742674Y-83883390D03*
X155742674Y-81343390D03*
X155742674Y-78803390D03*
X155742674Y-76263390D03*
X155742674Y-73723390D03*
X155742674Y-71183390D03*
X155742674Y-68643390D03*
X155742674Y-66103390D03*
X155742674Y-63563390D03*
X155742674Y-61023390D03*
D13*
X165710800Y-78534779D03*
D15*
X160630800Y-78534779D03*
X170790800Y-78534779D03*
D13*
X168123800Y-127429779D03*
X144247800Y-127429779D03*
D14*
X168123800Y-142669779D03*
X144247800Y-142669779D03*
D15*
X161265800Y-135684779D03*
X151105800Y-135684779D03*
D13*
X156185800Y-135684779D03*
D20*
X210810800Y-62103529D03*
X210810800Y-57103529D03*
D21*
X203810800Y-65203529D03*
X203810800Y-54003529D03*
D20*
X196310800Y-62103529D03*
X196310800Y-59603529D03*
D22*
X196310800Y-57103529D03*
D13*
X203810800Y-97584779D03*
D15*
X198730800Y-97584779D03*
X208890800Y-97584779D03*
X151740800Y-59484779D03*
X141580800Y-59484779D03*
D13*
X146660800Y-59484779D03*
X203810800Y-78534779D03*
D15*
X198730800Y-78534779D03*
X208890800Y-78534779D03*
D13*
X184760800Y-135684779D03*
D15*
X179680800Y-135684779D03*
X189840800Y-135684779D03*
D13*
X165710800Y-59484779D03*
D15*
X160630800Y-59484779D03*
X170790800Y-59484779D03*
D13*
X184760800Y-78534779D03*
D15*
X179680800Y-78534779D03*
X189840800Y-78534779D03*
D13*
X184760800Y-97584779D03*
D15*
X179680800Y-97584779D03*
X189840800Y-97584779D03*
D13*
X165710800Y-97584779D03*
D15*
X160630800Y-97584779D03*
X170790800Y-97584779D03*
D13*
X146660800Y-97584779D03*
D15*
X141580800Y-97584779D03*
X151740800Y-97584779D03*
D13*
X146660808Y-116634755D03*
D15*
X141580808Y-116634755D03*
X151740808Y-116634755D03*
D13*
X165710800Y-116634779D03*
D15*
X160630800Y-116634779D03*
X170790800Y-116634779D03*
D13*
X184760840Y-116634755D03*
D15*
X179680840Y-116634755D03*
X189840840Y-116634755D03*
M02*
