G04 #@! TF.GenerationSoftware,KiCad,Pcbnew,(5.1.7)-1*
G04 #@! TF.CreationDate,2020-12-11T17:23:42-08:00*
G04 #@! TF.ProjectId,dropout-miniusb,64726f70-6f75-4742-9d6d-696e69757362,rev?*
G04 #@! TF.SameCoordinates,Original*
G04 #@! TF.FileFunction,Legend,Bot*
G04 #@! TF.FilePolarity,Positive*
%FSLAX46Y46*%
G04 Gerber Fmt 4.6, Leading zero omitted, Abs format (unit mm)*
G04 Created by KiCad (PCBNEW (5.1.7)-1) date 2020-12-11 17:23:42*
%MOMM*%
%LPD*%
G01*
G04 APERTURE LIST*
%ADD10C,0.200000*%
%ADD11C,0.120000*%
%ADD12C,0.150000*%
G04 APERTURE END LIST*
D10*
X152510272Y-109982040D02*
X153510272Y-110315374D01*
X152510272Y-110648707D01*
X153415034Y-111553469D02*
X153462653Y-111505850D01*
X153510272Y-111362993D01*
X153510272Y-111267754D01*
X153462653Y-111124897D01*
X153367415Y-111029659D01*
X153272177Y-110982040D01*
X153081701Y-110934421D01*
X152938844Y-110934421D01*
X152748368Y-110982040D01*
X152653130Y-111029659D01*
X152557892Y-111124897D01*
X152510272Y-111267754D01*
X152510272Y-111362993D01*
X152557892Y-111505850D01*
X152605511Y-111553469D01*
X153415034Y-112553469D02*
X153462653Y-112505850D01*
X153510272Y-112362993D01*
X153510272Y-112267754D01*
X153462653Y-112124897D01*
X153367415Y-112029659D01*
X153272177Y-111982040D01*
X153081701Y-111934421D01*
X152938844Y-111934421D01*
X152748368Y-111982040D01*
X152653130Y-112029659D01*
X152557892Y-112124897D01*
X152510272Y-112267754D01*
X152510272Y-112362993D01*
X152557892Y-112505850D01*
X152605511Y-112553469D01*
D11*
X196525000Y-79175000D02*
X192125000Y-79175000D01*
X192125000Y-79175000D02*
X192125000Y-79055000D01*
X192125000Y-78045000D02*
X192125000Y-76905000D01*
X192125000Y-75895000D02*
X192125000Y-75775000D01*
X192125000Y-75775000D02*
X196525000Y-75775000D01*
X196525000Y-75775000D02*
X196525000Y-75895000D01*
X196525000Y-76905000D02*
X196525000Y-78045000D01*
X196525000Y-79055000D02*
X196525000Y-79175000D01*
D12*
X177252674Y-90233390D02*
X154472674Y-90233390D01*
X154472674Y-90233390D02*
X154472674Y-50753390D01*
X154472674Y-50753390D02*
X162052674Y-50753390D01*
X162052674Y-50753390D02*
X162052674Y-48213390D01*
X162052674Y-48213390D02*
X169672674Y-48213390D01*
X169672674Y-48213390D02*
X169672674Y-50753390D01*
X169672674Y-50753390D02*
X177252674Y-50753390D01*
X177252674Y-50753390D02*
X177252674Y-90233390D01*
X174742674Y-50773390D02*
X174742674Y-81253390D01*
X169662674Y-50773390D02*
X174742674Y-50773390D01*
X169662674Y-48233390D02*
X169662674Y-50773390D01*
X162042674Y-48233390D02*
X169662674Y-48233390D01*
X162042674Y-50773390D02*
X162042674Y-48233390D01*
X156962674Y-50773390D02*
X162042674Y-50773390D01*
X156962674Y-81253390D02*
X156962674Y-50773390D01*
X174742674Y-81253390D02*
X156962674Y-81253390D01*
D11*
X200717046Y-57872574D02*
X201239550Y-57872574D01*
X200717046Y-56452574D02*
X201239550Y-56452574D01*
X201239550Y-59225987D02*
X200717046Y-59225987D01*
X201239550Y-60645987D02*
X200717046Y-60645987D01*
X153689223Y-81137146D02*
X153689223Y-83137146D01*
X153689223Y-83137146D02*
X149789223Y-83137146D01*
X153689223Y-81137146D02*
X149789223Y-81137146D01*
X153170475Y-58057435D02*
X153170475Y-54157435D01*
X151170475Y-58057435D02*
X151170475Y-54157435D01*
X153170475Y-58057435D02*
X151170475Y-58057435D01*
X204331733Y-105231027D02*
X204331733Y-110431027D01*
X199191733Y-105231027D02*
X204331733Y-105231027D01*
X196591733Y-110431027D02*
X204331733Y-110431027D01*
X199191733Y-105231027D02*
X199191733Y-107831027D01*
X199191733Y-107831027D02*
X196591733Y-107831027D01*
X196591733Y-107831027D02*
X196591733Y-110431027D01*
X197921733Y-105231027D02*
X196591733Y-105231027D01*
X196591733Y-105231027D02*
X196591733Y-106561027D01*
X184050186Y-52562122D02*
X180150186Y-52562122D01*
X184050186Y-54562122D02*
X180150186Y-54562122D01*
X184050186Y-52562122D02*
X184050186Y-54562122D01*
X142760154Y-63586817D02*
X142760154Y-64109321D01*
X141340154Y-63586817D02*
X141340154Y-64109321D01*
X194553039Y-121206633D02*
X198453039Y-121206633D01*
X194553039Y-119206633D02*
X198453039Y-119206633D01*
X194553039Y-121206633D02*
X194553039Y-119206633D01*
X207787421Y-103912584D02*
X207787421Y-100012584D01*
X205787421Y-103912584D02*
X205787421Y-100012584D01*
X207787421Y-103912584D02*
X205787421Y-103912584D01*
X207787421Y-85411288D02*
X207787421Y-81511288D01*
X205787421Y-85411288D02*
X205787421Y-81511288D01*
X207787421Y-85411288D02*
X205787421Y-85411288D01*
X195743665Y-53936264D02*
X199643665Y-53936264D01*
X195743665Y-51936264D02*
X199643665Y-51936264D01*
X195743665Y-53936264D02*
X195743665Y-51936264D01*
X179810493Y-128350389D02*
X183710493Y-128350389D01*
X179810493Y-126350389D02*
X183710493Y-126350389D01*
X179810493Y-128350389D02*
X179810493Y-126350389D01*
X189332718Y-122460004D02*
X189332718Y-118560004D01*
X187332718Y-122460004D02*
X187332718Y-118560004D01*
X189332718Y-122460004D02*
X187332718Y-122460004D01*
X188737405Y-103912584D02*
X188737405Y-100012584D01*
X186737405Y-103912584D02*
X186737405Y-100012584D01*
X188737405Y-103912584D02*
X186737405Y-103912584D01*
X188737405Y-85441833D02*
X188737405Y-81541833D01*
X186737405Y-85441833D02*
X186737405Y-81541833D01*
X188737405Y-85441833D02*
X186737405Y-85441833D01*
X194170507Y-53752748D02*
X190270507Y-53752748D01*
X194170507Y-55752748D02*
X190270507Y-55752748D01*
X194170507Y-53752748D02*
X194170507Y-55752748D01*
X170282702Y-123511320D02*
X170282702Y-119611320D01*
X168282702Y-123511320D02*
X168282702Y-119611320D01*
X170282702Y-123511320D02*
X168282702Y-123511320D01*
X169687389Y-103912584D02*
X169687389Y-100012584D01*
X167687389Y-103912584D02*
X167687389Y-100012584D01*
X169687389Y-103912584D02*
X167687389Y-103912584D01*
X161962674Y-92662154D02*
X165862674Y-92662154D01*
X161962674Y-90662154D02*
X165862674Y-90662154D01*
X161962674Y-92662154D02*
X161962674Y-90662154D01*
X161734259Y-127941015D02*
X161734259Y-131841015D01*
X163734259Y-127941015D02*
X163734259Y-131841015D01*
X161734259Y-127941015D02*
X163734259Y-127941015D01*
X151232686Y-123511320D02*
X151232686Y-119611320D01*
X149232686Y-123511320D02*
X149232686Y-119611320D01*
X151232686Y-123511320D02*
X149232686Y-123511320D01*
X150637373Y-103912584D02*
X150637373Y-100012584D01*
X148637373Y-103912584D02*
X148637373Y-100012584D01*
X150637373Y-103912584D02*
X148637373Y-103912584D01*
D12*
X195658333Y-80479761D02*
X195515476Y-80527380D01*
X195277380Y-80527380D01*
X195182142Y-80479761D01*
X195134523Y-80432142D01*
X195086904Y-80336904D01*
X195086904Y-80241666D01*
X195134523Y-80146428D01*
X195182142Y-80098809D01*
X195277380Y-80051190D01*
X195467857Y-80003571D01*
X195563095Y-79955952D01*
X195610714Y-79908333D01*
X195658333Y-79813095D01*
X195658333Y-79717857D01*
X195610714Y-79622619D01*
X195563095Y-79575000D01*
X195467857Y-79527380D01*
X195229761Y-79527380D01*
X195086904Y-79575000D01*
X194753571Y-79527380D02*
X194515476Y-80527380D01*
X194325000Y-79813095D01*
X194134523Y-80527380D01*
X193896428Y-79527380D01*
X193563095Y-79622619D02*
X193515476Y-79575000D01*
X193420238Y-79527380D01*
X193182142Y-79527380D01*
X193086904Y-79575000D01*
X193039285Y-79622619D01*
X192991666Y-79717857D01*
X192991666Y-79813095D01*
X193039285Y-79955952D01*
X193610714Y-80527380D01*
X192991666Y-80527380D01*
X204121529Y-57316564D02*
X204169148Y-57364183D01*
X204312005Y-57411802D01*
X204407243Y-57411802D01*
X204550101Y-57364183D01*
X204645339Y-57268945D01*
X204692958Y-57173707D01*
X204740577Y-56983231D01*
X204740577Y-56840374D01*
X204692958Y-56649898D01*
X204645339Y-56554660D01*
X204550101Y-56459422D01*
X204407243Y-56411802D01*
X204312005Y-56411802D01*
X204169148Y-56459422D01*
X204121529Y-56507041D01*
X203740577Y-56507041D02*
X203692958Y-56459422D01*
X203597720Y-56411802D01*
X203359624Y-56411802D01*
X203264386Y-56459422D01*
X203216767Y-56507041D01*
X203169148Y-56602279D01*
X203169148Y-56697517D01*
X203216767Y-56840374D01*
X203788196Y-57411802D01*
X203169148Y-57411802D01*
X204121529Y-60293129D02*
X204169148Y-60340748D01*
X204312005Y-60388367D01*
X204407243Y-60388367D01*
X204550101Y-60340748D01*
X204645339Y-60245510D01*
X204692958Y-60150272D01*
X204740577Y-59959796D01*
X204740577Y-59816939D01*
X204692958Y-59626463D01*
X204645339Y-59531225D01*
X204550101Y-59435987D01*
X204407243Y-59388367D01*
X204312005Y-59388367D01*
X204169148Y-59435987D01*
X204121529Y-59483606D01*
X203169148Y-60388367D02*
X203740577Y-60388367D01*
X203454863Y-60388367D02*
X203454863Y-59388367D01*
X203550101Y-59531225D01*
X203645339Y-59626463D01*
X203740577Y-59674082D01*
X152177318Y-80589526D02*
X152177318Y-79589526D01*
X151939223Y-79589526D01*
X151796365Y-79637146D01*
X151701127Y-79732384D01*
X151653508Y-79827622D01*
X151605889Y-80018098D01*
X151605889Y-80160955D01*
X151653508Y-80351431D01*
X151701127Y-80446669D01*
X151796365Y-80541907D01*
X151939223Y-80589526D01*
X152177318Y-80589526D01*
X151224937Y-79684765D02*
X151177318Y-79637146D01*
X151082080Y-79589526D01*
X150843984Y-79589526D01*
X150748746Y-79637146D01*
X150701127Y-79684765D01*
X150653508Y-79780003D01*
X150653508Y-79875241D01*
X150701127Y-80018098D01*
X151272556Y-80589526D01*
X150653508Y-80589526D01*
X150527318Y-57586380D02*
X150527318Y-56586380D01*
X150289223Y-56586380D01*
X150146365Y-56634000D01*
X150051127Y-56729238D01*
X150003508Y-56824476D01*
X149955889Y-57014952D01*
X149955889Y-57157809D01*
X150003508Y-57348285D01*
X150051127Y-57443523D01*
X150146365Y-57538761D01*
X150289223Y-57586380D01*
X150527318Y-57586380D01*
X149003508Y-57586380D02*
X149574937Y-57586380D01*
X149289223Y-57586380D02*
X149289223Y-56586380D01*
X149384461Y-56729238D01*
X149479699Y-56824476D01*
X149574937Y-56872095D01*
X195044113Y-105664360D02*
X195758399Y-105664360D01*
X195901256Y-105616741D01*
X195996494Y-105521503D01*
X196044113Y-105378646D01*
X196044113Y-105283407D01*
X195663161Y-106140550D02*
X195663161Y-106902455D01*
X196044113Y-107378646D02*
X195044113Y-107378646D01*
X195996494Y-107807217D02*
X196044113Y-107950074D01*
X196044113Y-108188169D01*
X195996494Y-108283407D01*
X195948875Y-108331027D01*
X195853637Y-108378646D01*
X195758399Y-108378646D01*
X195663161Y-108331027D01*
X195615542Y-108283407D01*
X195567923Y-108188169D01*
X195520304Y-107997693D01*
X195472685Y-107902455D01*
X195425066Y-107854836D01*
X195329828Y-107807217D01*
X195234590Y-107807217D01*
X195139352Y-107854836D01*
X195091733Y-107902455D01*
X195044113Y-107997693D01*
X195044113Y-108235788D01*
X195091733Y-108378646D01*
X196044113Y-108807217D02*
X195044113Y-108807217D01*
X195044113Y-109188169D01*
X195091733Y-109283407D01*
X195139352Y-109331027D01*
X195234590Y-109378646D01*
X195377447Y-109378646D01*
X195472685Y-109331027D01*
X195520304Y-109283407D01*
X195567923Y-109188169D01*
X195567923Y-108807217D01*
X196044113Y-110331027D02*
X196044113Y-109759598D01*
X196044113Y-110045312D02*
X195044113Y-110045312D01*
X195186971Y-109950074D01*
X195282209Y-109854836D01*
X195329828Y-109759598D01*
X182538281Y-52014502D02*
X182538281Y-51014502D01*
X182300186Y-51014502D01*
X182157328Y-51062122D01*
X182062090Y-51157360D01*
X182014471Y-51252598D01*
X181966852Y-51443074D01*
X181966852Y-51585931D01*
X182014471Y-51776407D01*
X182062090Y-51871645D01*
X182157328Y-51966883D01*
X182300186Y-52014502D01*
X182538281Y-52014502D01*
X181109709Y-51014502D02*
X181300186Y-51014502D01*
X181395424Y-51062122D01*
X181443043Y-51109741D01*
X181538281Y-51252598D01*
X181585900Y-51443074D01*
X181585900Y-51824026D01*
X181538281Y-51919264D01*
X181490662Y-51966883D01*
X181395424Y-52014502D01*
X181204947Y-52014502D01*
X181109709Y-51966883D01*
X181062090Y-51919264D01*
X181014471Y-51824026D01*
X181014471Y-51585931D01*
X181062090Y-51490693D01*
X181109709Y-51443074D01*
X181204947Y-51395455D01*
X181395424Y-51395455D01*
X181490662Y-51443074D01*
X181538281Y-51490693D01*
X181585900Y-51585931D01*
X140852534Y-63681402D02*
X140376344Y-63348069D01*
X140852534Y-63109973D02*
X139852534Y-63109973D01*
X139852534Y-63490926D01*
X139900154Y-63586164D01*
X139947773Y-63633783D01*
X140043011Y-63681402D01*
X140185868Y-63681402D01*
X140281106Y-63633783D01*
X140328725Y-63586164D01*
X140376344Y-63490926D01*
X140376344Y-63109973D01*
X140852534Y-64633783D02*
X140852534Y-64062354D01*
X140852534Y-64348069D02*
X139852534Y-64348069D01*
X139995392Y-64252830D01*
X140090630Y-64157592D01*
X140138249Y-64062354D01*
X198017324Y-122659013D02*
X198017324Y-121659013D01*
X197779229Y-121659013D01*
X197636372Y-121706633D01*
X197541134Y-121801871D01*
X197493515Y-121897109D01*
X197445896Y-122087585D01*
X197445896Y-122230442D01*
X197493515Y-122420918D01*
X197541134Y-122516156D01*
X197636372Y-122611394D01*
X197779229Y-122659013D01*
X198017324Y-122659013D01*
X196493515Y-122659013D02*
X197064943Y-122659013D01*
X196779229Y-122659013D02*
X196779229Y-121659013D01*
X196874467Y-121801871D01*
X196969705Y-121897109D01*
X197064943Y-121944728D01*
X195922086Y-122087585D02*
X196017324Y-122039966D01*
X196064943Y-121992347D01*
X196112562Y-121897109D01*
X196112562Y-121849490D01*
X196064943Y-121754252D01*
X196017324Y-121706633D01*
X195922086Y-121659013D01*
X195731610Y-121659013D01*
X195636372Y-121706633D01*
X195588753Y-121754252D01*
X195541134Y-121849490D01*
X195541134Y-121897109D01*
X195588753Y-121992347D01*
X195636372Y-122039966D01*
X195731610Y-122087585D01*
X195922086Y-122087585D01*
X196017324Y-122135204D01*
X196064943Y-122182823D01*
X196112562Y-122278061D01*
X196112562Y-122468537D01*
X196064943Y-122563775D01*
X196017324Y-122611394D01*
X195922086Y-122659013D01*
X195731610Y-122659013D01*
X195636372Y-122611394D01*
X195588753Y-122563775D01*
X195541134Y-122468537D01*
X195541134Y-122278061D01*
X195588753Y-122182823D01*
X195636372Y-122135204D01*
X195731610Y-122087585D01*
X209239801Y-100448298D02*
X208239801Y-100448298D01*
X208239801Y-100686393D01*
X208287421Y-100829250D01*
X208382659Y-100924488D01*
X208477897Y-100972107D01*
X208668373Y-101019726D01*
X208811230Y-101019726D01*
X209001706Y-100972107D01*
X209096944Y-100924488D01*
X209192182Y-100829250D01*
X209239801Y-100686393D01*
X209239801Y-100448298D01*
X209239801Y-101972107D02*
X209239801Y-101400679D01*
X209239801Y-101686393D02*
X208239801Y-101686393D01*
X208382659Y-101591155D01*
X208477897Y-101495917D01*
X208525516Y-101400679D01*
X208239801Y-102305441D02*
X208239801Y-102972107D01*
X209239801Y-102543536D01*
X209239801Y-81947002D02*
X208239801Y-81947002D01*
X208239801Y-82185097D01*
X208287421Y-82327954D01*
X208382659Y-82423192D01*
X208477897Y-82470811D01*
X208668373Y-82518430D01*
X208811230Y-82518430D01*
X209001706Y-82470811D01*
X209096944Y-82423192D01*
X209192182Y-82327954D01*
X209239801Y-82185097D01*
X209239801Y-81947002D01*
X209239801Y-83470811D02*
X209239801Y-82899383D01*
X209239801Y-83185097D02*
X208239801Y-83185097D01*
X208382659Y-83089859D01*
X208477897Y-82994621D01*
X208525516Y-82899383D01*
X208239801Y-84327954D02*
X208239801Y-84137478D01*
X208287421Y-84042240D01*
X208335040Y-83994621D01*
X208477897Y-83899383D01*
X208668373Y-83851764D01*
X209049325Y-83851764D01*
X209144563Y-83899383D01*
X209192182Y-83947002D01*
X209239801Y-84042240D01*
X209239801Y-84232716D01*
X209192182Y-84327954D01*
X209144563Y-84375573D01*
X209049325Y-84423192D01*
X208811230Y-84423192D01*
X208715992Y-84375573D01*
X208668373Y-84327954D01*
X208620754Y-84232716D01*
X208620754Y-84042240D01*
X208668373Y-83947002D01*
X208715992Y-83899383D01*
X208811230Y-83851764D01*
X199207950Y-55388644D02*
X199207950Y-54388644D01*
X198969855Y-54388644D01*
X198826998Y-54436264D01*
X198731760Y-54531502D01*
X198684141Y-54626740D01*
X198636522Y-54817216D01*
X198636522Y-54960073D01*
X198684141Y-55150549D01*
X198731760Y-55245787D01*
X198826998Y-55341025D01*
X198969855Y-55388644D01*
X199207950Y-55388644D01*
X197684141Y-55388644D02*
X198255569Y-55388644D01*
X197969855Y-55388644D02*
X197969855Y-54388644D01*
X198065093Y-54531502D01*
X198160331Y-54626740D01*
X198255569Y-54674359D01*
X196779379Y-54388644D02*
X197255569Y-54388644D01*
X197303188Y-54864835D01*
X197255569Y-54817216D01*
X197160331Y-54769597D01*
X196922236Y-54769597D01*
X196826998Y-54817216D01*
X196779379Y-54864835D01*
X196731760Y-54960073D01*
X196731760Y-55198168D01*
X196779379Y-55293406D01*
X196826998Y-55341025D01*
X196922236Y-55388644D01*
X197160331Y-55388644D01*
X197255569Y-55341025D01*
X197303188Y-55293406D01*
X183274778Y-129802769D02*
X183274778Y-128802769D01*
X183036683Y-128802769D01*
X182893826Y-128850389D01*
X182798588Y-128945627D01*
X182750969Y-129040865D01*
X182703350Y-129231341D01*
X182703350Y-129374198D01*
X182750969Y-129564674D01*
X182798588Y-129659912D01*
X182893826Y-129755150D01*
X183036683Y-129802769D01*
X183274778Y-129802769D01*
X181750969Y-129802769D02*
X182322397Y-129802769D01*
X182036683Y-129802769D02*
X182036683Y-128802769D01*
X182131921Y-128945627D01*
X182227159Y-129040865D01*
X182322397Y-129088484D01*
X180893826Y-129136103D02*
X180893826Y-129802769D01*
X181131921Y-128755150D02*
X181370016Y-129469436D01*
X180750969Y-129469436D01*
X190785098Y-118995718D02*
X189785098Y-118995718D01*
X189785098Y-119233813D01*
X189832718Y-119376670D01*
X189927956Y-119471908D01*
X190023194Y-119519527D01*
X190213670Y-119567146D01*
X190356527Y-119567146D01*
X190547003Y-119519527D01*
X190642241Y-119471908D01*
X190737479Y-119376670D01*
X190785098Y-119233813D01*
X190785098Y-118995718D01*
X190785098Y-120519527D02*
X190785098Y-119948099D01*
X190785098Y-120233813D02*
X189785098Y-120233813D01*
X189927956Y-120138575D01*
X190023194Y-120043337D01*
X190070813Y-119948099D01*
X189785098Y-120852861D02*
X189785098Y-121471908D01*
X190166051Y-121138575D01*
X190166051Y-121281432D01*
X190213670Y-121376670D01*
X190261289Y-121424289D01*
X190356527Y-121471908D01*
X190594622Y-121471908D01*
X190689860Y-121424289D01*
X190737479Y-121376670D01*
X190785098Y-121281432D01*
X190785098Y-120995718D01*
X190737479Y-120900480D01*
X190689860Y-120852861D01*
X190189785Y-100448298D02*
X189189785Y-100448298D01*
X189189785Y-100686393D01*
X189237405Y-100829250D01*
X189332643Y-100924488D01*
X189427881Y-100972107D01*
X189618357Y-101019726D01*
X189761214Y-101019726D01*
X189951690Y-100972107D01*
X190046928Y-100924488D01*
X190142166Y-100829250D01*
X190189785Y-100686393D01*
X190189785Y-100448298D01*
X190189785Y-101972107D02*
X190189785Y-101400679D01*
X190189785Y-101686393D02*
X189189785Y-101686393D01*
X189332643Y-101591155D01*
X189427881Y-101495917D01*
X189475500Y-101400679D01*
X189285024Y-102353060D02*
X189237405Y-102400679D01*
X189189785Y-102495917D01*
X189189785Y-102734012D01*
X189237405Y-102829250D01*
X189285024Y-102876869D01*
X189380262Y-102924488D01*
X189475500Y-102924488D01*
X189618357Y-102876869D01*
X190189785Y-102305441D01*
X190189785Y-102924488D01*
X190189785Y-81977547D02*
X189189785Y-81977547D01*
X189189785Y-82215642D01*
X189237405Y-82358499D01*
X189332643Y-82453737D01*
X189427881Y-82501356D01*
X189618357Y-82548975D01*
X189761214Y-82548975D01*
X189951690Y-82501356D01*
X190046928Y-82453737D01*
X190142166Y-82358499D01*
X190189785Y-82215642D01*
X190189785Y-81977547D01*
X190189785Y-83501356D02*
X190189785Y-82929928D01*
X190189785Y-83215642D02*
X189189785Y-83215642D01*
X189332643Y-83120404D01*
X189427881Y-83025166D01*
X189475500Y-82929928D01*
X190189785Y-84453737D02*
X190189785Y-83882309D01*
X190189785Y-84168023D02*
X189189785Y-84168023D01*
X189332643Y-84072785D01*
X189427881Y-83977547D01*
X189475500Y-83882309D01*
X188936948Y-53538462D02*
X187936948Y-53538462D01*
X187936948Y-53776557D01*
X187984568Y-53919414D01*
X188079806Y-54014652D01*
X188175044Y-54062271D01*
X188365520Y-54109890D01*
X188508377Y-54109890D01*
X188698853Y-54062271D01*
X188794091Y-54014652D01*
X188889329Y-53919414D01*
X188936948Y-53776557D01*
X188936948Y-53538462D01*
X188936948Y-55062271D02*
X188936948Y-54490843D01*
X188936948Y-54776557D02*
X187936948Y-54776557D01*
X188079806Y-54681319D01*
X188175044Y-54586081D01*
X188222663Y-54490843D01*
X187936948Y-55681319D02*
X187936948Y-55776557D01*
X187984568Y-55871795D01*
X188032187Y-55919414D01*
X188127425Y-55967033D01*
X188317901Y-56014652D01*
X188555996Y-56014652D01*
X188746472Y-55967033D01*
X188841710Y-55919414D01*
X188889329Y-55871795D01*
X188936948Y-55776557D01*
X188936948Y-55681319D01*
X188889329Y-55586081D01*
X188841710Y-55538462D01*
X188746472Y-55490843D01*
X188555996Y-55443224D01*
X188317901Y-55443224D01*
X188127425Y-55490843D01*
X188032187Y-55538462D01*
X187984568Y-55586081D01*
X187936948Y-55681319D01*
X171735082Y-120523224D02*
X170735082Y-120523224D01*
X170735082Y-120761320D01*
X170782702Y-120904177D01*
X170877940Y-120999415D01*
X170973178Y-121047034D01*
X171163654Y-121094653D01*
X171306511Y-121094653D01*
X171496987Y-121047034D01*
X171592225Y-120999415D01*
X171687463Y-120904177D01*
X171735082Y-120761320D01*
X171735082Y-120523224D01*
X171735082Y-121570843D02*
X171735082Y-121761320D01*
X171687463Y-121856558D01*
X171639844Y-121904177D01*
X171496987Y-121999415D01*
X171306511Y-122047034D01*
X170925559Y-122047034D01*
X170830321Y-121999415D01*
X170782702Y-121951796D01*
X170735082Y-121856558D01*
X170735082Y-121666081D01*
X170782702Y-121570843D01*
X170830321Y-121523224D01*
X170925559Y-121475605D01*
X171163654Y-121475605D01*
X171258892Y-121523224D01*
X171306511Y-121570843D01*
X171354130Y-121666081D01*
X171354130Y-121856558D01*
X171306511Y-121951796D01*
X171258892Y-121999415D01*
X171163654Y-122047034D01*
X171139769Y-100924488D02*
X170139769Y-100924488D01*
X170139769Y-101162584D01*
X170187389Y-101305441D01*
X170282627Y-101400679D01*
X170377865Y-101448298D01*
X170568341Y-101495917D01*
X170711198Y-101495917D01*
X170901674Y-101448298D01*
X170996912Y-101400679D01*
X171092150Y-101305441D01*
X171139769Y-101162584D01*
X171139769Y-100924488D01*
X170568341Y-102067345D02*
X170520722Y-101972107D01*
X170473103Y-101924488D01*
X170377865Y-101876869D01*
X170330246Y-101876869D01*
X170235008Y-101924488D01*
X170187389Y-101972107D01*
X170139769Y-102067345D01*
X170139769Y-102257822D01*
X170187389Y-102353060D01*
X170235008Y-102400679D01*
X170330246Y-102448298D01*
X170377865Y-102448298D01*
X170473103Y-102400679D01*
X170520722Y-102353060D01*
X170568341Y-102257822D01*
X170568341Y-102067345D01*
X170615960Y-101972107D01*
X170663579Y-101924488D01*
X170758817Y-101876869D01*
X170949293Y-101876869D01*
X171044531Y-101924488D01*
X171092150Y-101972107D01*
X171139769Y-102067345D01*
X171139769Y-102257822D01*
X171092150Y-102353060D01*
X171044531Y-102400679D01*
X170949293Y-102448298D01*
X170758817Y-102448298D01*
X170663579Y-102400679D01*
X170615960Y-102353060D01*
X170568341Y-102257822D01*
X164950769Y-94114534D02*
X164950769Y-93114534D01*
X164712674Y-93114534D01*
X164569816Y-93162154D01*
X164474578Y-93257392D01*
X164426959Y-93352630D01*
X164379340Y-93543106D01*
X164379340Y-93685963D01*
X164426959Y-93876439D01*
X164474578Y-93971677D01*
X164569816Y-94066915D01*
X164712674Y-94114534D01*
X164950769Y-94114534D01*
X164046007Y-93114534D02*
X163379340Y-93114534D01*
X163807912Y-94114534D01*
X161186639Y-129452919D02*
X160186639Y-129452919D01*
X160186639Y-129691015D01*
X160234259Y-129833872D01*
X160329497Y-129929110D01*
X160424735Y-129976729D01*
X160615211Y-130024348D01*
X160758068Y-130024348D01*
X160948544Y-129976729D01*
X161043782Y-129929110D01*
X161139020Y-129833872D01*
X161186639Y-129691015D01*
X161186639Y-129452919D01*
X160186639Y-130929110D02*
X160186639Y-130452919D01*
X160662830Y-130405300D01*
X160615211Y-130452919D01*
X160567592Y-130548157D01*
X160567592Y-130786253D01*
X160615211Y-130881491D01*
X160662830Y-130929110D01*
X160758068Y-130976729D01*
X160996163Y-130976729D01*
X161091401Y-130929110D01*
X161139020Y-130881491D01*
X161186639Y-130786253D01*
X161186639Y-130548157D01*
X161139020Y-130452919D01*
X161091401Y-130405300D01*
X152685066Y-120523224D02*
X151685066Y-120523224D01*
X151685066Y-120761320D01*
X151732686Y-120904177D01*
X151827924Y-120999415D01*
X151923162Y-121047034D01*
X152113638Y-121094653D01*
X152256495Y-121094653D01*
X152446971Y-121047034D01*
X152542209Y-120999415D01*
X152637447Y-120904177D01*
X152685066Y-120761320D01*
X152685066Y-120523224D01*
X152018400Y-121951796D02*
X152685066Y-121951796D01*
X151637447Y-121713700D02*
X152351733Y-121475605D01*
X152351733Y-122094653D01*
X152089753Y-100924488D02*
X151089753Y-100924488D01*
X151089753Y-101162584D01*
X151137373Y-101305441D01*
X151232611Y-101400679D01*
X151327849Y-101448298D01*
X151518325Y-101495917D01*
X151661182Y-101495917D01*
X151851658Y-101448298D01*
X151946896Y-101400679D01*
X152042134Y-101305441D01*
X152089753Y-101162584D01*
X152089753Y-100924488D01*
X151089753Y-101829250D02*
X151089753Y-102448298D01*
X151470706Y-102114964D01*
X151470706Y-102257822D01*
X151518325Y-102353060D01*
X151565944Y-102400679D01*
X151661182Y-102448298D01*
X151899277Y-102448298D01*
X151994515Y-102400679D01*
X152042134Y-102353060D01*
X152089753Y-102257822D01*
X152089753Y-101972107D01*
X152042134Y-101876869D01*
X151994515Y-101829250D01*
M02*
