M48
; DRILL file {KiCad (5.1.7)-1} date 12/06/20 23:42:40
; FORMAT={-:-/ absolute / inch / decimal}
; #@! TF.CreationDate,2020-12-06T23:42:40-08:00
; #@! TF.GenerationSoftware,Kicad,Pcbnew,(5.1.7)-1
; #@! TF.FileFunction,NonPlated,1,2,NPTH
FMAT,2
INCH
T1C0.0197
T2C0.0689
T3C0.1200
T4C0.1457
T5C0.1570
%
G90
G05
T1
X8.3763Y-2.7161
X8.3763Y-2.7457
X8.3763Y-2.7752
X8.4354Y-2.7161
X8.4354Y-2.7457
X8.4354Y-2.7752
X5.3562Y-2.6874
X5.3562Y-2.7169
X5.3562Y-2.7464
X5.4153Y-2.6874
X5.4153Y-2.7169
X5.4153Y-2.7464
X8.3763Y-4.9681
X8.3763Y-4.9976
X8.3763Y-5.0272
X8.4354Y-4.9681
X8.4354Y-4.9976
X8.4354Y-5.0272
X5.3562Y-4.9374
X5.3562Y-4.9669
X5.3562Y-4.9964
X5.4153Y-4.9374
X5.4153Y-4.9669
X5.4153Y-4.9964
T2
X6.324Y-3.8419
X6.724Y-3.8419
X5.574Y-3.8419
X5.974Y-3.8419
X7.074Y-5.3419
X7.474Y-5.3419
X7.074Y-3.8419
X7.474Y-3.8419
X7.824Y-3.0919
X8.224Y-3.0919
X5.949Y-5.3419
X6.349Y-5.3419
X6.324Y-4.5919
X6.724Y-4.5919
X7.074Y-3.0919
X7.474Y-3.0919
X6.324Y-3.0919
X6.724Y-3.0919
X5.574Y-4.5919
X5.974Y-4.5919
X7.824Y-3.8419
X8.224Y-3.8419
X7.074Y-4.5919
X7.474Y-4.5919
X5.574Y-3.0919
X5.974Y-3.0919
X7.074Y-2.3419
X7.474Y-2.3419
X5.574Y-2.3419
X5.974Y-2.3419
X8.024Y-4.7669
X8.024Y-5.1669
X6.324Y-2.3419
X6.724Y-2.3419
T3
X5.679Y-5.6169
X6.619Y-5.6169
X8.299Y-4.4969
X8.299Y-5.4369
T4
X7.4075Y-4.9669
X6.1446Y-4.7324
X7.6446Y-2.7168
X6.8946Y-3.8418
X5.9075Y-2.7181
T5
X6.524Y-2.3419
X6.524Y-3.8419
X5.774Y-3.8419
X7.274Y-5.3419
X7.274Y-3.8419
X8.024Y-3.0919
X5.679Y-5.0169
X6.149Y-5.3419
X6.619Y-5.0169
X6.524Y-4.5919
X7.274Y-3.0919
X6.524Y-3.0919
X5.774Y-4.5919
X8.024Y-3.8419
X7.274Y-4.5919
X5.774Y-3.0919
X7.274Y-2.3419
X5.774Y-2.3419
X7.699Y-4.4969
X7.699Y-5.4369
X8.024Y-4.9669
T0
M30
